<svg width="36" height="36" viewBox="0 0 36 36" fill="none" xmlns="http://www.w3.org/2000/svg">
<path d="M17.9926 0C8.04114 0 0 8.05594 0 17.9926C0 25.6191 4.73879 32.1349 11.4323 34.7561C11.2694 33.3344 11.1362 31.1427 11.4916 29.5878C11.8174 28.181 13.5944 20.6434 13.5944 20.6434C13.5944 20.6434 13.0613 19.5623 13.0613 17.9778C13.0613 15.4751 14.5125 13.6092 16.3192 13.6092C17.8593 13.6092 18.5998 14.7643 18.5998 16.1415C18.5998 17.6816 17.6224 19.9918 17.1041 22.139C16.6746 23.9309 18.0074 25.397 19.7697 25.397C22.9683 25.397 25.4266 22.0206 25.4266 17.1633C25.4266 12.854 22.3316 9.8478 17.9037 9.8478C12.7799 9.8478 9.77375 13.6832 9.77375 17.652C9.77375 19.1921 10.3661 20.8507 11.1065 21.754C11.2546 21.9317 11.2694 22.0946 11.225 22.2723C11.0917 22.8351 10.7807 24.0642 10.7215 24.3159C10.6475 24.6417 10.4549 24.7158 10.1143 24.5529C7.89304 23.4866 6.50102 20.1991 6.50102 17.5631C6.50102 11.8914 10.6178 6.67872 18.3924 6.67872C24.6269 6.67872 29.4842 11.1213 29.4842 17.0744C29.4842 23.2793 25.5747 28.2699 20.1547 28.2699C18.3332 28.2699 16.6154 27.3221 16.0379 26.1966C16.0379 26.1966 15.1345 29.6322 14.9124 30.4763C14.5125 32.0461 13.4167 34.0008 12.6762 35.2003C14.3645 35.7186 16.1415 36 18.0074 36C27.9441 36 36 27.9441 36 18.0074C35.9852 8.05594 27.9292 0 17.9926 0Z" fill="#121111"/>
</svg>
