<svg width="132" height="132" viewBox="0 0 132 132" fill="none" xmlns="http://www.w3.org/2000/svg">
<mask id="path-1-inside-1_1135_260" fill="white">
<path fill-rule="evenodd" clip-rule="evenodd" d="M84 3.22999C81.9179 3.22999 79.9183 3.58352 78.0581 4.23382C74.9256 1.59205 70.8789 0 66.4604 0C61.9771 0 57.8767 1.63905 54.7256 4.35061C52.7742 3.62595 50.6632 3.22999 48.4596 3.22999C39.039 3.22999 31.3087 10.4671 30.525 19.6849C29.4571 19.4874 28.3561 19.3841 27.2309 19.3841C17.2898 19.3841 9.23095 27.443 9.23095 37.3841C9.23095 38.1302 9.27633 38.8656 9.36448 39.5878C3.78391 42.6449 0 48.573 0 55.3849C0 59.4962 1.37838 63.2856 3.69822 66.3162C1.65892 69.2342 0.462652 72.785 0.462653 76.6151C0.462653 83.427 4.24656 89.3551 9.82713 92.4122C9.73898 93.1344 9.69359 93.8698 9.69359 94.6159C9.69359 104.557 17.7525 112.616 27.6936 112.616C28.502 112.616 29.298 112.563 30.0782 112.459C30.9298 121.608 38.6285 128.77 48 128.77C50.0821 128.77 52.0817 128.416 53.9419 127.766C57.0744 130.408 61.1211 132 65.5396 132C70.0229 132 74.1233 130.361 77.2744 127.649C79.2258 128.374 81.3368 128.77 83.5404 128.77C92.961 128.77 100.691 121.533 101.475 112.315C102.543 112.513 103.644 112.616 104.769 112.616C114.71 112.616 122.769 104.557 122.769 94.6159C122.769 93.8698 122.724 93.1344 122.636 92.4122C128.216 89.3551 132 83.427 132 76.6151C132 72.5038 130.622 68.7144 128.302 65.6838C130.341 62.7658 131.537 59.215 131.537 55.3849C131.537 48.573 127.753 42.6449 122.173 39.5878C122.261 38.8656 122.306 38.1302 122.306 37.3841C122.306 27.443 114.248 19.3841 104.306 19.3841C103.498 19.3841 102.702 19.4374 101.922 19.5407C101.07 10.3917 93.3715 3.22999 84 3.22999Z"/>
</mask>
<path fill-rule="evenodd" clip-rule="evenodd" d="M84 3.22999C81.9179 3.22999 79.9183 3.58352 78.0581 4.23382C74.9256 1.59205 70.8789 0 66.4604 0C61.9771 0 57.8767 1.63905 54.7256 4.35061C52.7742 3.62595 50.6632 3.22999 48.4596 3.22999C39.039 3.22999 31.3087 10.4671 30.525 19.6849C29.4571 19.4874 28.3561 19.3841 27.2309 19.3841C17.2898 19.3841 9.23095 27.443 9.23095 37.3841C9.23095 38.1302 9.27633 38.8656 9.36448 39.5878C3.78391 42.6449 0 48.573 0 55.3849C0 59.4962 1.37838 63.2856 3.69822 66.3162C1.65892 69.2342 0.462652 72.785 0.462653 76.6151C0.462653 83.427 4.24656 89.3551 9.82713 92.4122C9.73898 93.1344 9.69359 93.8698 9.69359 94.6159C9.69359 104.557 17.7525 112.616 27.6936 112.616C28.502 112.616 29.298 112.563 30.0782 112.459C30.9298 121.608 38.6285 128.77 48 128.77C50.0821 128.77 52.0817 128.416 53.9419 127.766C57.0744 130.408 61.1211 132 65.5396 132C70.0229 132 74.1233 130.361 77.2744 127.649C79.2258 128.374 81.3368 128.77 83.5404 128.77C92.961 128.77 100.691 121.533 101.475 112.315C102.543 112.513 103.644 112.616 104.769 112.616C114.71 112.616 122.769 104.557 122.769 94.6159C122.769 93.8698 122.724 93.1344 122.636 92.4122C128.216 89.3551 132 83.427 132 76.6151C132 72.5038 130.622 68.7144 128.302 65.6838C130.341 62.7658 131.537 59.215 131.537 55.3849C131.537 48.573 127.753 42.6449 122.173 39.5878C122.261 38.8656 122.306 38.1302 122.306 37.3841C122.306 27.443 114.248 19.3841 104.306 19.3841C103.498 19.3841 102.702 19.4374 101.922 19.5407C101.07 10.3917 93.3715 3.22999 84 3.22999Z" fill="black"/>
<path d="M78.0581 4.23382L77.8969 4.42493L78.0059 4.51688L78.1406 4.46981L78.0581 4.23382ZM54.7256 4.35061L54.6385 4.58497L54.7768 4.63633L54.8886 4.54011L54.7256 4.35061ZM30.525 19.6849L30.4795 19.9307L30.7507 19.9809L30.7741 19.7061L30.525 19.6849ZM9.36448 39.5878L9.4846 39.807L9.63317 39.7256L9.61264 39.5575L9.36448 39.5878ZM3.69822 66.3162L3.90314 66.4594L4.00791 66.3095L3.89673 66.1642L3.69822 66.3162ZM0.462653 76.6151L0.212653 76.6151L0.462653 76.6151ZM9.82713 92.4122L10.0753 92.4425L10.0958 92.2744L9.94725 92.193L9.82713 92.4122ZM9.69359 94.6159L9.44359 94.6159L9.44359 94.6159L9.69359 94.6159ZM30.0782 112.459L30.3272 112.436L30.3031 112.177L30.0454 112.211L30.0782 112.459ZM53.9419 127.766L54.1031 127.575L53.9941 127.483L53.8594 127.53L53.9419 127.766ZM77.2744 127.649L77.3615 127.415L77.2232 127.364L77.1114 127.46L77.2744 127.649ZM101.475 112.315L101.52 112.069L101.249 112.019L101.226 112.294L101.475 112.315ZM122.636 92.4122L122.515 92.193L122.367 92.2744L122.387 92.4425L122.636 92.4122ZM128.302 65.6838L128.097 65.5406L127.992 65.6905L128.103 65.8358L128.302 65.6838ZM122.173 39.5878L121.925 39.5575L121.904 39.7256L122.053 39.807L122.173 39.5878ZM101.922 19.5407L101.673 19.5639L101.697 19.8227L101.955 19.7886L101.922 19.5407ZM78.2192 4.04271C77.9481 3.81401 77.6701 3.59307 77.3858 3.38024L77.0861 3.78053C77.3627 3.98755 77.6331 4.20247 77.8969 4.42493L78.2192 4.04271ZM75.6103 2.20605C74.9986 1.85088 74.3643 1.53023 73.7101 1.24675L73.5113 1.70553C74.1475 1.98119 74.7643 2.29303 75.3593 2.63846L75.6103 2.20605ZM71.7104 0.516492C71.0355 0.314122 70.3442 0.14976 69.639 0.0258893L69.5525 0.51835C70.2383 0.638813 70.9105 0.798643 71.5667 0.995423L71.7104 0.516492ZM67.5247 -0.219473C67.1725 -0.239732 66.8176 -0.25 66.4604 -0.25V0.25C66.808 0.25 67.1533 0.259992 67.496 0.279702L67.5247 -0.219473ZM66.4604 -0.25C66.098 -0.25 65.738 -0.239435 65.3808 -0.218592L65.4099 0.280559C65.7575 0.260282 66.1077 0.25 66.4604 0.25V-0.25ZM63.2368 0.0338444C62.5218 0.161288 61.8212 0.330372 61.1375 0.538501L61.2832 1.01682C61.9479 0.814445 62.6292 0.650023 63.3245 0.526086L63.2368 0.0338444ZM59.113 1.28939C58.4512 1.5808 57.81 1.91035 57.1922 2.27526L57.4465 2.70577C58.0474 2.35086 58.6709 2.03037 59.3145 1.747L59.113 1.28939ZM55.4014 3.48114C55.115 3.69964 54.8352 3.92641 54.5625 4.16111L54.8886 4.54011C55.1539 4.3118 55.4261 4.09121 55.7047 3.87868L55.4014 3.48114ZM54.8126 4.11625C54.5597 4.02234 54.3042 3.93388 54.0462 3.851L53.8933 4.32704C54.1442 4.40763 54.3926 4.49366 54.6385 4.58497L54.8126 4.11625ZM52.4816 3.4247C51.9577 3.30684 51.4252 3.21153 50.8853 3.13981L50.8195 3.63546C51.3446 3.70521 51.8624 3.79791 52.3719 3.91251L52.4816 3.4247ZM49.2702 2.99768C49.0014 2.98593 48.7312 2.97999 48.4596 2.97999V3.47999C48.7239 3.47999 48.9869 3.48577 49.2483 3.4972L49.2702 2.99768ZM48.4596 2.97999C48.135 2.97999 47.8124 2.98847 47.492 3.00521L47.518 3.50453C47.8298 3.48824 48.1437 3.47999 48.4596 3.47999V2.97999ZM45.5673 3.20794C44.9249 3.31025 44.2936 3.44609 43.6753 3.61361L43.806 4.09621C44.4072 3.93331 45.0212 3.80121 45.646 3.70171L45.5673 3.20794ZM41.8375 4.21864C41.2335 4.45391 40.6452 4.72041 40.0745 5.01615L40.3045 5.46009C40.8595 5.17248 41.4317 4.91332 42.019 4.68453L41.8375 4.21864ZM38.4061 5.99642C37.867 6.35293 37.3479 6.73727 36.8509 7.14742L37.1692 7.53305C37.6526 7.13409 38.1575 6.76024 38.6819 6.41348L38.4061 5.99642ZM35.4257 8.45584C34.9742 8.91641 34.547 9.40081 34.146 9.90698L34.538 10.2174C34.928 9.72507 35.3436 9.25387 35.7827 8.80584L35.4257 8.45584ZM33.0264 11.485C32.6823 12.0289 32.3662 12.5921 32.08 13.1729L32.5285 13.3939C32.8068 12.8291 33.1143 12.2813 33.4489 11.7524L33.0264 11.485ZM31.3184 14.9514C31.0977 15.5538 30.9078 16.1711 30.7507 16.8013L31.2359 16.9223C31.3886 16.3094 31.5733 15.7092 31.7879 15.1235L31.3184 14.9514ZM30.3834 18.7015C30.3393 19.0197 30.3034 19.3405 30.2759 19.6637L30.7741 19.7061C30.8008 19.3917 30.8357 19.0797 30.8786 18.7702L30.3834 18.7015ZM30.5705 19.439C30.2963 19.3883 30.0199 19.3438 29.7416 19.3055L29.6734 19.8008C29.9441 19.838 30.2129 19.8814 30.4795 19.9307L30.5705 19.439ZM28.0701 19.1531C27.7919 19.1405 27.5122 19.1341 27.2309 19.1341V19.6341C27.5046 19.6341 27.7768 19.6403 28.0475 19.6526L28.0701 19.1531ZM27.2309 19.1341C26.8875 19.1341 26.5462 19.1436 26.2073 19.1624L26.2349 19.6616C26.5646 19.6434 26.8967 19.6341 27.2309 19.6341V19.1341ZM24.1728 19.3893C23.494 19.5038 22.8279 19.6558 22.1768 19.8431L22.315 20.3236C22.9481 20.1415 23.5958 19.9937 24.2559 19.8823L24.1728 19.3893ZM20.245 20.5191C19.6117 20.7817 18.9964 21.0789 18.4014 21.4084L18.6437 21.8458C19.2223 21.5254 19.8207 21.2363 20.4365 20.9809L20.245 20.5191ZM16.6693 22.499C16.1122 22.895 15.5783 23.3215 15.07 23.776L15.4033 24.1487C15.8977 23.7066 16.4171 23.2917 16.959 22.9066L16.6693 22.499ZM13.6228 25.2232C13.1683 25.7315 12.7418 26.2654 12.3458 26.8225L12.7534 27.1122C13.1385 26.5703 13.5534 26.051 13.9955 25.5565L13.6228 25.2232ZM11.2552 28.5546C10.9257 29.1496 10.6285 29.7649 10.3659 30.3982L10.8277 30.5897C11.0831 29.9739 11.3722 29.3755 11.6926 28.7969L11.2552 28.5546ZM9.68991 32.33C9.50263 32.9811 9.35063 33.6472 9.2361 34.326L9.72913 34.4092C9.84051 33.7491 9.98832 33.1014 10.1704 32.4682L9.68991 32.33ZM9.00918 36.3605C8.99044 36.6994 8.98095 37.0407 8.98095 37.3841H9.48095C9.48095 37.0499 9.49018 36.7178 9.50841 36.3881L9.00918 36.3605ZM8.98095 37.3841C8.98095 37.5714 8.98377 37.758 8.98937 37.9439L9.48914 37.9288C9.48369 37.7479 9.48095 37.5664 9.48095 37.3841H8.98095ZM9.057 39.0613C9.07399 39.2477 9.09378 39.4333 9.11633 39.6181L9.61264 39.5575C9.59071 39.3778 9.57146 39.1973 9.55494 39.016L9.057 39.0613ZM9.24437 39.3685C8.95831 39.5252 8.67691 39.6894 8.40043 39.8607L8.66379 40.2857C8.9327 40.1191 9.20639 39.9594 9.4846 39.807L9.24437 39.3685ZM6.79773 40.9765C6.28339 41.377 5.79107 41.8044 5.32288 42.2565L5.67024 42.6162C6.12568 42.1763 6.60459 41.7606 7.10489 41.371L6.79773 40.9765ZM3.99238 43.686C3.57517 44.185 3.18413 44.7066 2.82136 45.2488L3.23692 45.5269C3.58977 44.9995 3.97014 44.4921 4.37597 44.0067L3.99238 43.686ZM1.82366 46.9278C1.52257 47.5025 1.2512 48.0953 1.0116 48.7041L1.47687 48.8872C1.70986 48.2952 1.97375 47.7188 2.26657 47.1598L1.82366 46.9278ZM0.395374 50.5574C0.22476 51.181 0.0863941 51.8179 -0.0178221 52.4662L0.47584 52.5455C0.577192 51.9151 0.711747 51.2957 0.877649 50.6893L0.395374 50.5574ZM-0.224295 54.408C-0.241361 54.7315 -0.25 55.0572 -0.25 55.3849H0.25C0.25 55.066 0.258408 54.7491 0.275011 54.4344L-0.224295 54.408ZM-0.25 55.3849C-0.25 55.7178 -0.241086 56.0486 -0.223481 56.3771L0.275803 56.3503C0.258675 56.0307 0.25 55.7088 0.25 55.3849H-0.25ZM-0.0103382 58.3498C0.0972561 59.0083 0.240096 59.655 0.416185 60.2878L0.897886 60.1538C0.72666 59.5384 0.587755 58.9096 0.483118 58.2692L-0.0103382 58.3498ZM1.05216 62.1678C1.29934 62.7849 1.57923 63.3853 1.88968 63.9669L2.33077 63.7314C2.02885 63.1658 1.75666 62.5819 1.5163 61.9819L1.05216 62.1678ZM2.91801 65.664C3.10476 65.9375 3.29875 66.2056 3.4997 66.4681L3.89673 66.1642C3.70126 65.9089 3.51257 65.648 3.33092 65.382L2.91801 65.664ZM3.4933 66.173C3.31657 66.4258 3.14609 66.6834 2.98208 66.9454L3.4059 67.2107C3.56542 66.9559 3.73124 66.7053 3.90314 66.4594L3.4933 66.173ZM2.08039 68.5633C1.80861 69.1152 1.5639 69.6829 1.34798 70.2646L1.81673 70.4386C2.02668 69.873 2.26465 69.3209 2.52896 68.7842L2.08039 68.5633ZM0.793011 72.0319C0.639456 72.6256 0.515032 73.2309 0.421353 73.8464L0.915659 73.9216C1.00677 73.3231 1.12777 72.7344 1.27708 72.1571L0.793011 72.0319ZM0.235746 75.689C0.220411 75.9958 0.212653 76.3046 0.212653 76.6151L0.712653 76.6151C0.712653 76.3129 0.720203 76.0125 0.735123 75.714L0.235746 75.689ZM0.212653 76.6151C0.212653 76.9428 0.221292 77.2685 0.238358 77.592L0.737664 77.5656C0.72106 77.2509 0.712653 76.934 0.712653 76.6151L0.212653 76.6151ZM0.44483 79.5338C0.549046 80.1821 0.687412 80.819 0.858026 81.4426L1.3403 81.3107C1.1744 80.7043 1.03984 80.0849 0.938492 79.4545L0.44483 79.5338ZM1.47426 83.2959C1.71385 83.9047 1.98522 84.4975 2.28631 85.0722L2.72922 84.8402C2.4364 84.2812 2.17251 83.7048 1.93952 83.1128L1.47426 83.2959ZM3.28401 86.7512C3.64678 87.2934 4.03782 87.815 4.45503 88.314L4.83862 87.9933C4.43279 87.5079 4.05242 87.0005 3.69957 86.4731L3.28401 86.7512ZM5.78553 89.7435C6.25372 90.1956 6.74604 90.623 7.26038 91.0235L7.56754 90.629C7.06724 90.2394 6.58833 89.8237 6.13289 89.3838L5.78553 89.7435ZM8.86308 92.1393C9.13956 92.3106 9.42096 92.4748 9.70702 92.6315L9.94725 92.193C9.66904 92.0406 9.39535 91.8809 9.12644 91.7143L8.86308 92.1393ZM9.57898 92.3819C9.55643 92.5667 9.53664 92.7523 9.51965 92.9387L10.0176 92.984C10.0341 92.8027 10.0534 92.6222 10.0753 92.4425L9.57898 92.3819ZM9.45202 94.0561C9.44641 94.242 9.44359 94.4286 9.44359 94.6159H9.94359C9.94359 94.4336 9.94634 94.2521 9.95179 94.0712L9.45202 94.0561ZM9.44359 94.6159C9.44359 94.9593 9.45309 95.3006 9.47182 95.6395L9.97106 95.6119C9.95283 95.2822 9.94359 94.9501 9.94359 94.6159L9.44359 94.6159ZM9.69875 97.674C9.81328 98.3528 9.96528 99.0189 10.1526 99.67L10.6331 99.5318C10.451 98.8987 10.3032 98.251 10.1918 97.5909L9.69875 97.674ZM10.8285 101.602C11.0911 102.235 11.3884 102.85 11.7179 103.445L12.1553 103.203C11.8348 102.625 11.5458 102.026 11.2904 101.41L10.8285 101.602ZM12.8085 105.177C13.2045 105.735 13.631 106.269 14.0855 106.777L14.4582 106.443C14.016 105.949 13.6012 105.43 13.216 104.888L12.8085 105.177ZM15.5327 108.224C16.0409 108.678 16.5749 109.105 17.132 109.501L17.4216 109.093C16.8798 108.708 16.3604 108.293 15.866 107.851L15.5327 108.224ZM18.8641 110.592C19.459 110.921 20.0743 111.218 20.7077 111.481L20.8992 111.019C20.2833 110.764 19.6849 110.475 19.1063 110.154L18.8641 110.592ZM22.6394 112.157C23.2906 112.344 23.9566 112.496 24.6354 112.611L24.7186 112.118C24.0585 112.006 23.4108 111.858 22.7776 111.676L22.6394 112.157ZM26.67 112.838C27.0088 112.856 27.3501 112.866 27.6936 112.866V112.366C27.3593 112.366 27.0272 112.357 26.6976 112.338L26.67 112.838ZM27.6936 112.866C27.8963 112.866 28.0983 112.863 28.2995 112.856L28.2832 112.356C28.0875 112.363 27.8909 112.366 27.6936 112.366V112.866ZM29.5089 112.777C29.7106 112.757 29.9113 112.734 30.111 112.707L30.0454 112.211C29.8512 112.237 29.6559 112.26 29.4598 112.279L29.5089 112.777ZM29.8293 112.482C29.8592 112.804 29.8974 113.122 29.9437 113.439L30.4385 113.366C30.3934 113.059 30.3562 112.749 30.3272 112.436L29.8293 112.482ZM30.3233 115.326C30.484 115.951 30.6771 116.564 30.9006 117.162L31.369 116.986C31.1516 116.405 30.9638 115.81 30.8075 115.201L30.3233 115.326ZM31.6693 118.926C31.9574 119.502 32.2751 120.06 32.6203 120.599L33.0414 120.329C32.7056 119.805 32.3967 119.262 32.1165 118.702L31.6693 118.926ZM33.7419 122.163C34.1431 122.664 34.5702 123.144 35.0212 123.6L35.3768 123.249C34.9381 122.805 34.5226 122.338 34.1323 121.85L33.7419 122.163ZM36.4439 124.896C36.9397 125.302 37.4573 125.682 37.9946 126.035L38.2691 125.617C37.7465 125.274 37.243 124.904 36.7607 124.509L36.4439 124.896ZM39.6568 127.005C40.2252 127.298 40.8109 127.562 41.4121 127.795L41.5926 127.328C41.008 127.102 40.4384 126.846 39.8857 126.561L39.6568 127.005ZM43.241 128.393C43.8562 128.559 44.4842 128.693 45.1233 128.795L45.2015 128.301C44.58 128.202 43.9692 128.072 43.371 127.91L43.241 128.393ZM47.0376 128.995C47.3563 129.012 47.6772 129.02 48 129.02V128.52C47.6859 128.52 47.3736 128.512 47.0635 128.496L47.0376 128.995ZM48 129.02C48.2569 129.02 48.5126 129.015 48.767 129.004L48.7463 128.505C48.4988 128.515 48.25 128.52 48 128.52V129.02ZM50.2958 128.877C50.807 128.813 51.3116 128.727 51.8088 128.622L51.7049 128.133C51.2215 128.235 50.7307 128.318 50.2335 128.381L50.2958 128.877ZM53.2949 128.24C53.5403 128.166 53.7835 128.086 54.0244 128.002L53.8594 127.53C53.6252 127.612 53.3886 127.689 53.15 127.761L53.2949 128.24ZM53.7808 127.957C54.0519 128.186 54.3299 128.407 54.6142 128.62L54.9138 128.219C54.6373 128.012 54.3669 127.798 54.1031 127.575L53.7808 127.957ZM56.3897 129.794C57.0014 130.149 57.6357 130.47 58.2899 130.753L58.4887 130.294C57.8525 130.019 57.2357 129.707 56.6407 129.362L56.3897 129.794ZM60.2896 131.484C60.9645 131.686 61.6558 131.85 62.361 131.974L62.4475 131.482C61.7617 131.361 61.0895 131.201 60.4332 131.005L60.2896 131.484ZM64.4753 132.219C64.8275 132.24 65.1824 132.25 65.5396 132.25V131.75C65.192 131.75 64.8467 131.74 64.504 131.72L64.4753 132.219ZM65.5396 132.25C65.902 132.25 66.262 132.239 66.6192 132.219L66.5901 131.719C66.2425 131.74 65.8923 131.75 65.5396 131.75V132.25ZM68.7632 131.966C69.4782 131.839 70.1788 131.67 70.8625 131.461L70.7168 130.983C70.0521 131.186 69.3708 131.35 68.6755 131.474L68.7632 131.966ZM72.887 130.711C73.5488 130.419 74.19 130.09 74.8078 129.725L74.5535 129.294C73.9526 129.649 73.3291 129.97 72.6855 130.253L72.887 130.711ZM76.5986 128.519C76.885 128.3 77.1648 128.074 77.4375 127.839L77.1114 127.46C76.8461 127.688 76.5739 127.909 76.2953 128.121L76.5986 128.519ZM77.1874 127.884C77.4403 127.978 77.6958 128.066 77.9538 128.149L78.1067 127.673C77.8558 127.592 77.6074 127.506 77.3615 127.415L77.1874 127.884ZM79.5184 128.575C80.0423 128.693 80.5748 128.788 81.1147 128.86L81.1805 128.365C80.6554 128.295 80.1376 128.202 79.6281 128.087L79.5184 128.575ZM82.7298 129.002C82.9986 129.014 83.2688 129.02 83.5404 129.02V128.52C83.2761 128.52 83.0131 128.514 82.7517 128.503L82.7298 129.002ZM83.5404 129.02C83.865 129.02 84.1876 129.012 84.508 128.995L84.482 128.495C84.1702 128.512 83.8563 128.52 83.5404 128.52V129.02ZM86.4327 128.792C87.0751 128.69 87.7064 128.554 88.3247 128.386L88.194 127.904C87.5928 128.067 86.9788 128.199 86.354 128.298L86.4327 128.792ZM90.1625 127.781C90.7665 127.546 91.3548 127.28 91.9255 126.984L91.6955 126.54C91.1405 126.828 90.5683 127.087 89.981 127.315L90.1625 127.781ZM93.5939 126.004C94.133 125.647 94.6521 125.263 95.1491 124.853L94.8308 124.467C94.3474 124.866 93.8425 125.24 93.3181 125.587L93.5939 126.004ZM96.5743 123.544C97.0258 123.084 97.453 122.599 97.854 122.093L97.462 121.783C97.072 122.275 96.6564 122.746 96.2173 123.194L96.5743 123.544ZM98.9736 120.515C99.3177 119.971 99.6338 119.408 99.92 118.827L99.4715 118.606C99.1932 119.171 98.8857 119.719 98.5511 120.248L98.9736 120.515ZM100.682 117.049C100.902 116.446 101.092 115.829 101.249 115.199L100.764 115.078C100.611 115.691 100.427 116.291 100.212 116.877L100.682 117.049ZM101.617 113.298C101.661 112.98 101.697 112.659 101.724 112.336L101.226 112.294C101.199 112.608 101.164 112.92 101.121 113.23L101.617 113.298ZM101.43 112.561C101.704 112.612 101.98 112.656 102.258 112.695L102.327 112.199C102.056 112.162 101.787 112.119 101.52 112.069L101.43 112.561ZM103.93 112.847C104.208 112.859 104.488 112.866 104.769 112.866V112.366C104.495 112.366 104.223 112.36 103.953 112.347L103.93 112.847ZM104.769 112.866C105.113 112.866 105.454 112.856 105.793 112.838L105.765 112.338C105.435 112.357 105.103 112.366 104.769 112.366V112.866ZM107.827 112.611C108.506 112.496 109.172 112.344 109.823 112.157L109.685 111.676C109.052 111.858 108.404 112.006 107.744 112.118L107.827 112.611ZM111.755 111.481C112.388 111.218 113.004 110.921 113.599 110.592L113.356 110.154C112.778 110.475 112.179 110.764 111.563 111.019L111.755 111.481ZM115.331 109.501C115.888 109.105 116.422 108.678 116.93 108.224L116.597 107.851C116.102 108.293 115.583 108.708 115.041 109.093L115.331 109.501ZM118.377 106.777C118.832 106.269 119.258 105.735 119.654 105.177L119.247 104.888C118.861 105.43 118.447 105.949 118.004 106.443L118.377 106.777ZM120.745 103.445C121.074 102.85 121.372 102.235 121.634 101.602L121.172 101.41C120.917 102.026 120.628 102.625 120.307 103.203L120.745 103.445ZM122.31 99.67C122.497 99.0189 122.649 98.3528 122.764 97.674L122.271 97.5908C122.159 98.2509 122.012 98.8986 121.83 99.5318L122.31 99.67ZM122.991 95.6395C123.01 95.3006 123.019 94.9593 123.019 94.6159H122.519C122.519 94.9501 122.51 95.2822 122.492 95.6119L122.991 95.6395ZM123.019 94.6159C123.019 94.4286 123.016 94.242 123.011 94.0561L122.511 94.0712C122.516 94.2521 122.519 94.4336 122.519 94.6159H123.019ZM122.943 92.9387C122.926 92.7523 122.906 92.5667 122.884 92.3819L122.387 92.4425C122.409 92.6222 122.429 92.8027 122.445 92.984L122.943 92.9387ZM122.756 92.6315C123.042 92.4748 123.323 92.3106 123.6 92.1393L123.336 91.7143C123.067 91.8809 122.794 92.0406 122.515 92.193L122.756 92.6315ZM125.202 91.0235C125.717 90.623 126.209 90.1956 126.677 89.7435L126.33 89.3838C125.874 89.8237 125.395 90.2394 124.895 90.629L125.202 91.0235ZM128.008 88.314C128.425 87.815 128.816 87.2934 129.179 86.7512L128.763 86.4731C128.41 87.0005 128.03 87.5079 127.624 87.9933L128.008 88.314ZM130.176 85.0722C130.477 84.4975 130.749 83.9047 130.988 83.2959L130.523 83.1128C130.29 83.7048 130.026 84.2812 129.733 84.8402L130.176 85.0722ZM131.605 81.4426C131.775 80.819 131.914 80.1821 132.018 79.5338L131.524 79.4545C131.423 80.0849 131.288 80.7043 131.122 81.3107L131.605 81.4426ZM132.224 77.592C132.241 77.2685 132.25 76.9428 132.25 76.6151H131.75C131.75 76.934 131.742 77.2509 131.725 77.5656L132.224 77.592ZM132.25 76.6151C132.25 76.2822 132.241 75.9514 132.223 75.6229L131.724 75.6497C131.741 75.9693 131.75 76.2912 131.75 76.6151H132.25ZM132.01 73.6502C131.903 72.9917 131.76 72.345 131.584 71.7121L131.102 71.8462C131.273 72.4616 131.412 73.0904 131.517 73.7308L132.01 73.6502ZM130.948 69.8322C130.701 69.2151 130.421 68.6147 130.11 68.0331L129.669 68.2686C129.971 68.8342 130.243 69.4181 130.484 70.0181L130.948 69.8322ZM129.082 66.336C128.895 66.0625 128.701 65.7944 128.5 65.5319L128.103 65.8358C128.299 66.0911 128.487 66.352 128.669 66.618L129.082 66.336ZM128.507 65.827C128.683 65.5742 128.854 65.3166 129.018 65.0546L128.594 64.7893C128.435 65.0441 128.269 65.2947 128.097 65.5406L128.507 65.827ZM129.92 63.4367C130.191 62.8848 130.436 62.3171 130.652 61.7354L130.183 61.5614C129.973 62.127 129.735 62.6791 129.471 63.2158L129.92 63.4367ZM131.207 59.9681C131.361 59.3744 131.485 58.7691 131.579 58.1536L131.084 58.0784C130.993 58.6769 130.872 59.2656 130.723 59.8429L131.207 59.9681ZM131.764 56.311C131.78 56.0042 131.787 55.6954 131.787 55.3849H131.287C131.287 55.6871 131.28 55.9875 131.265 56.286L131.764 56.311ZM131.787 55.3849C131.787 55.0572 131.779 54.7315 131.762 54.408L131.262 54.4344C131.279 54.7491 131.287 55.066 131.287 55.3849H131.787ZM131.555 52.4662C131.451 51.8179 131.313 51.181 131.142 50.5574L130.66 50.6893C130.826 51.2957 130.96 51.9151 131.062 52.5455L131.555 52.4662ZM130.526 48.7041C130.286 48.0953 130.015 47.5025 129.714 46.9278L129.271 47.1598C129.564 47.7188 129.827 48.2952 130.06 48.8872L130.526 48.7041ZM128.716 45.2488C128.353 44.7066 127.962 44.185 127.545 43.686L127.161 44.0067C127.567 44.4921 127.948 44.9995 128.3 45.5269L128.716 45.2488ZM126.214 42.2566C125.746 41.8044 125.254 41.377 124.74 40.9765L124.432 41.371C124.933 41.7606 125.412 42.1763 125.867 42.6162L126.214 42.2566ZM123.137 39.8607C122.86 39.6894 122.579 39.5252 122.293 39.3685L122.053 39.807C122.331 39.9594 122.605 40.1191 122.874 40.2857L123.137 39.8607ZM122.421 39.6181C122.444 39.4333 122.463 39.2477 122.48 39.0613L121.982 39.016C121.966 39.1973 121.947 39.3778 121.925 39.5575L122.421 39.6181ZM122.548 37.9439C122.554 37.758 122.556 37.5714 122.556 37.3841H122.056C122.056 37.5664 122.054 37.7479 122.048 37.9288L122.548 37.9439ZM122.556 37.3841C122.556 37.0407 122.547 36.6994 122.528 36.3605L122.029 36.3881C122.047 36.7178 122.056 37.0499 122.056 37.3841H122.556ZM122.301 34.326C122.187 33.6472 122.035 32.9811 121.847 32.33L121.367 32.4682C121.549 33.1013 121.697 33.749 121.808 34.4091L122.301 34.326ZM121.171 30.3982C120.909 29.7649 120.612 29.1496 120.282 28.5546L119.845 28.7969C120.165 29.3755 120.454 29.9739 120.71 30.5897L121.171 30.3982ZM119.192 26.8225C118.796 26.2654 118.369 25.7315 117.915 25.2232L117.542 25.5565C117.984 26.0509 118.399 26.5703 118.784 27.1122L119.192 26.8225ZM116.467 23.776C115.959 23.3215 115.425 22.895 114.868 22.499L114.578 22.9066C115.12 23.2917 115.64 23.7066 116.134 24.1487L116.467 23.776ZM113.136 21.4084C112.541 21.0789 111.926 20.7817 111.292 20.5191L111.101 20.9809C111.717 21.2363 112.315 21.5254 112.894 21.8458L113.136 21.4084ZM109.361 19.8431C108.709 19.6558 108.043 19.5038 107.365 19.3893L107.281 19.8823C107.942 19.9937 108.589 20.1415 109.222 20.3236L109.361 19.8431ZM105.33 19.1624C104.991 19.1436 104.65 19.1341 104.306 19.1341V19.6341C104.641 19.6341 104.973 19.6434 105.302 19.6616L105.33 19.1624ZM104.306 19.1341C104.104 19.1341 103.902 19.1375 103.7 19.144L103.717 19.6438C103.913 19.6374 104.109 19.6341 104.306 19.6341V19.1341ZM102.491 19.2233C102.289 19.2432 102.089 19.2664 101.889 19.2929L101.955 19.7886C102.149 19.7628 102.344 19.7403 102.54 19.7209L102.491 19.2233ZM102.171 19.5175C102.141 19.1964 102.103 18.8776 102.056 18.5615L101.562 18.634C101.607 18.9414 101.644 19.2515 101.673 19.5639L102.171 19.5175ZM101.677 16.6743C101.516 16.0488 101.323 15.4361 101.099 14.8384L100.631 15.0135C100.848 15.5948 101.036 16.1905 101.192 16.7988L101.677 16.6743ZM100.331 13.0743C100.043 12.4985 99.7249 11.9401 99.3797 11.401L98.9587 11.6707C99.2944 12.195 99.6033 12.7381 99.8835 13.298L100.331 13.0743ZM98.2581 9.83729C97.8569 9.33583 97.4298 8.856 96.9788 8.39983L96.6232 8.75135C97.0619 9.1951 97.4774 9.66186 97.8677 10.1497L98.2581 9.83729ZM95.5561 7.10415C95.0603 6.69808 94.5427 6.31759 94.0054 5.9647L93.7309 6.38263C94.2535 6.72587 94.757 7.09597 95.2393 7.49097L95.5561 7.10415ZM92.3432 4.9945C91.7748 4.70184 91.1891 4.43814 90.5879 4.20535L90.4074 4.67162C90.992 4.89798 91.5616 5.15442 92.1143 5.43903L92.3432 4.9945ZM88.759 3.60678C88.1438 3.44104 87.5158 3.30667 86.8767 3.20547L86.7985 3.69932C87.42 3.79774 88.0308 3.92841 88.629 4.08956L88.759 3.60678ZM84.9624 3.00494C84.6437 2.98838 84.3228 2.97999 84 2.97999V3.47999C84.3141 3.47999 84.6264 3.48815 84.9365 3.50427L84.9624 3.00494ZM84 2.97999C83.7431 2.97999 83.4874 2.9853 83.233 2.99582L83.2537 3.49539C83.5012 3.48516 83.75 3.47999 84 3.47999V2.97999ZM81.7042 3.12304C81.193 3.18721 80.6884 3.27252 80.1912 3.37808L80.2951 3.86718C80.7785 3.76453 81.2693 3.68155 81.7665 3.61914L81.7042 3.12304ZM78.7051 3.76C78.4597 3.83428 78.2165 3.9136 77.9756 3.99782L78.1406 4.46981C78.3748 4.38791 78.6114 4.31079 78.85 4.23856L78.7051 3.76ZM78.0581 4.23382L77.7357 4.61604L77.9538 4.79994L78.2231 4.70581L78.0581 4.23382ZM54.7256 4.35061L54.5515 4.81933L54.8281 4.92204L55.0517 4.72961L54.7256 4.35061ZM30.525 19.6849L30.4341 20.1765L30.9765 20.2768L31.0232 19.7272L30.525 19.6849ZM9.36448 39.5878L9.60471 40.0263L9.90185 39.8635L9.8608 39.5272L9.36448 39.5878ZM3.69822 66.3162L4.10805 66.6026L4.31761 66.3027L4.09525 66.0122L3.69822 66.3162ZM0.462653 76.6151L-0.0373475 76.6151L0.462653 76.6151ZM9.82713 92.4122L10.3235 92.4728L10.3645 92.1365L10.0674 91.9737L9.82713 92.4122ZM9.69359 94.6159L9.19359 94.6159L9.19359 94.6159L9.69359 94.6159ZM30.0782 112.459L30.5761 112.413L30.5279 111.895L30.0126 111.964L30.0782 112.459ZM53.9419 127.766L54.2643 127.384L54.0462 127.2L53.7769 127.294L53.9419 127.766ZM77.2744 127.649L77.4485 127.181L77.1719 127.078L76.9483 127.27L77.2744 127.649ZM101.475 112.315L101.566 111.823L101.024 111.723L100.977 112.273L101.475 112.315ZM122.636 92.4122L122.395 91.9737L122.098 92.1365L122.139 92.4728L122.636 92.4122ZM128.302 65.6838L127.892 65.3974L127.682 65.6973L127.905 65.9878L128.302 65.6838ZM122.173 39.5878L121.677 39.5272L121.635 39.8635L121.933 40.0263L122.173 39.5878ZM101.922 19.5407L101.424 19.5871L101.472 20.1046L101.987 20.0364L101.922 19.5407ZM78.3804 3.85159C78.1055 3.61978 77.8238 3.39583 77.5356 3.18009L76.9363 3.98067C77.2091 4.18479 77.4756 4.39669 77.7357 4.61604L78.3804 3.85159ZM75.7359 1.98985C75.1157 1.62981 74.4727 1.30474 73.8095 1.01736L73.4119 1.93492C74.039 2.20668 74.6472 2.51411 75.2338 2.85466L75.7359 1.98985ZM71.7822 0.277027C71.098 0.0718608 70.3971 -0.0947667 69.6822 -0.220341L69.5092 0.76458C70.1853 0.883339 70.848 1.0409 71.4949 1.23489L71.7822 0.277027ZM67.5391 -0.46906C67.1821 -0.489594 66.8224 -0.5 66.4604 -0.5V0.5C66.8032 0.5 67.1438 0.509855 67.4816 0.52929L67.5391 -0.46906ZM66.4604 -0.5C66.0931 -0.5 65.7283 -0.489293 65.3663 -0.468168L65.4245 0.530134C65.7672 0.51014 66.1126 0.5 66.4604 0.5V-0.5ZM63.1929 -0.212277C62.4681 -0.0830797 61.7578 0.0883352 61.0647 0.29934L61.356 1.25599C62.0113 1.05648 62.6829 0.894391 63.3684 0.772207L63.1929 -0.212277ZM59.0123 1.06059C58.3413 1.35601 57.6913 1.69009 57.0651 2.06L57.5736 2.92102C58.166 2.57112 58.7808 2.25516 59.4153 1.9758L59.0123 1.06059ZM55.2498 3.28238C54.9595 3.50385 54.6759 3.73372 54.3994 3.97161L55.0517 4.72961C55.3133 4.5045 55.5816 4.287 55.8563 4.07745L55.2498 3.28238ZM54.8996 3.88189C54.6433 3.78668 54.3842 3.697 54.1227 3.61298L53.8168 4.56507C54.0642 4.64451 54.3091 4.72931 54.5515 4.81933L54.8996 3.88189ZM52.5365 3.18079C52.0053 3.06131 51.4655 2.96468 50.9182 2.89199L50.7865 3.88328C51.3042 3.95205 51.8147 4.04344 52.317 4.15642L52.5365 3.18079ZM49.2811 2.74791C49.0087 2.73601 48.7348 2.72999 48.4596 2.72999V3.72999C48.7203 3.72999 48.9796 3.73569 49.2374 3.74696L49.2811 2.74791ZM48.4596 2.72999C48.1307 2.72999 47.8037 2.73858 47.4789 2.75555L47.5311 3.75419C47.8385 3.73813 48.1481 3.72999 48.4596 3.72999V2.72999ZM45.528 2.96105C44.8767 3.06476 44.2367 3.20247 43.6099 3.37231L43.8714 4.33751C44.4641 4.17693 45.0693 4.0467 45.6853 3.9486L45.528 2.96105ZM41.7467 3.98569C41.1344 4.22421 40.538 4.49438 39.9595 4.79418L40.4195 5.68205C40.9667 5.39851 41.5307 5.14302 42.1097 4.91748L41.7467 3.98569ZM38.2682 5.78789C37.7217 6.14927 37.1955 6.53887 36.6918 6.9546L37.3283 7.72587C37.8049 7.3325 38.3028 6.96389 38.8198 6.62201L38.2682 5.78789ZM35.2471 8.28084C34.7895 8.74768 34.3565 9.23868 33.9501 9.75175L34.7339 10.3727C35.1185 9.88721 35.5283 9.4226 35.9613 8.98084L35.2471 8.28084ZM32.8152 11.3514C32.4664 11.9026 32.1459 12.4736 31.8557 13.0623L32.7527 13.5044C33.0271 12.9476 33.3302 12.4075 33.6602 11.886L32.8152 11.3514ZM31.0837 14.8654C30.8599 15.4761 30.6674 16.1019 30.5081 16.7409L31.4784 16.9828C31.629 16.3786 31.811 15.7869 32.0226 15.2095L31.0837 14.8654ZM30.1357 18.6672C30.091 18.9898 30.0546 19.3149 30.0268 19.6425L31.0232 19.7272C31.0495 19.4173 31.084 19.1096 31.1263 18.8045L30.1357 18.6672ZM30.6159 19.1932C30.338 19.1418 30.0578 19.0966 29.7757 19.0578L29.6394 20.0485C29.9062 20.0852 30.1712 20.1279 30.4341 20.1765L30.6159 19.1932ZM28.0814 18.9034C27.7995 18.8906 27.5159 18.8841 27.2309 18.8841V19.8841C27.5009 19.8841 27.7693 19.8903 28.0362 19.9023L28.0814 18.9034ZM27.2309 18.8841C26.8829 18.8841 26.537 18.8938 26.1935 18.9128L26.2487 19.9112C26.5738 19.8933 26.9013 19.8841 27.2309 19.8841V18.8841ZM24.1312 19.1428C23.4431 19.2589 22.7678 19.413 22.1077 19.6029L22.3841 20.5639C23.0083 20.3844 23.6468 20.2387 24.2975 20.1288L24.1312 19.1428ZM20.1492 20.2881C19.5072 20.5544 18.8834 20.8557 18.2803 21.1898L18.7648 22.0645C19.3352 21.7486 19.9252 21.4636 20.5323 21.2119L20.1492 20.2881ZM16.5245 22.2952C15.9598 22.6967 15.4186 23.129 14.9034 23.5897L15.57 24.3351C16.0575 23.8991 16.5695 23.4901 17.1038 23.1103L16.5245 22.2952ZM13.4365 25.0566C12.9758 25.5718 12.5435 26.113 12.142 26.6777L12.9571 27.257C13.3369 26.7228 13.7459 26.2107 14.1819 25.7232L13.4365 25.0566ZM11.0365 28.4335C10.7025 29.0366 10.4012 29.6604 10.1349 30.3024L11.0587 30.6855C11.3104 30.0784 11.5954 29.4885 11.9113 28.918L11.0365 28.4335ZM9.44965 32.2609C9.25979 32.921 9.10569 33.5963 8.98958 34.2844L9.97564 34.4507C10.0854 33.8 10.2312 33.1615 10.4107 32.5373L9.44965 32.2609ZM8.75956 36.3467C8.74056 36.6902 8.73095 37.0361 8.73095 37.3841H9.73095C9.73095 37.0545 9.74006 36.727 9.75803 36.4019L8.75956 36.3467ZM8.73095 37.3841C8.73095 37.5739 8.7338 37.763 8.73948 37.9514L9.73903 37.9213C9.73365 37.7429 9.73095 37.5638 9.73095 37.3841H8.73095ZM8.80803 39.084C8.82525 39.273 8.84531 39.4611 8.86817 39.6483L9.8608 39.5272C9.83918 39.35 9.8202 39.172 9.80391 38.9933L8.80803 39.084ZM9.12426 39.1493C8.83427 39.3081 8.54901 39.4745 8.26874 39.6482L8.79547 40.4982C9.0606 40.3339 9.33042 40.1765 9.60471 40.0263L9.12426 39.1493ZM6.64414 40.7793C6.12279 41.1852 5.62377 41.6184 5.14921 42.0767L5.84392 42.796C6.29299 42.3623 6.76519 41.9524 7.25848 41.5683L6.64414 40.7793ZM3.80058 43.5256C3.37769 44.0314 2.98131 44.5602 2.61358 45.1098L3.4447 45.6659C3.79259 45.1459 4.16762 44.6456 4.56777 44.167L3.80058 43.5256ZM1.60221 46.8118C1.29698 47.3944 1.02188 47.9954 0.778972 48.6126L1.7095 48.9788C1.93918 48.3952 2.19934 47.8269 2.48802 47.2758L1.60221 46.8118ZM0.154237 50.4914C-0.018734 51.1236 -0.159005 51.7693 -0.264653 52.4265L0.722671 52.5852C0.822591 51.9636 0.95524 51.3531 1.11879 50.7553L0.154237 50.4914ZM-0.473947 54.3948C-0.491245 54.7227 -0.5 55.0528 -0.5 55.3849H0.5C0.5 55.0704 0.508292 54.7579 0.524664 54.4475L-0.473947 54.3948ZM-0.5 55.3849C-0.5 55.7222 -0.490966 56.0575 -0.473123 56.3905L0.525444 56.337C0.508555 56.0218 0.5 55.7044 0.5 55.3849H-0.5ZM-0.257066 58.3901C-0.147994 59.0577 -0.00318611 59.7133 0.175335 60.3549L1.13874 60.0868C0.969942 59.4802 0.833005 58.8602 0.729846 58.2289L-0.257066 58.3901ZM0.820084 62.2608C1.07067 62.8863 1.35442 63.495 1.66914 64.0846L2.55132 63.6137C2.25366 63.056 1.98533 62.4804 1.74837 61.8889L0.820084 62.2608ZM2.71155 65.805C2.90085 66.0822 3.09749 66.354 3.30119 66.6201L4.09525 66.0122C3.90251 65.7605 3.71647 65.5033 3.53738 65.241L2.71155 65.805ZM3.28838 66.0298C3.10924 66.2861 2.93643 66.5472 2.77017 66.8128L3.61781 67.3434C3.77509 67.0921 3.93857 66.8451 4.10805 66.6026L3.28838 66.0298ZM1.85611 68.4529C1.58059 69.0124 1.3325 69.5879 1.1136 70.1776L2.0511 70.5256C2.25808 69.968 2.49268 69.4238 2.75324 68.8946L1.85611 68.4529ZM0.550976 71.9693C0.395301 72.5712 0.269165 73.1849 0.174199 73.8088L1.16281 73.9592C1.25263 73.3691 1.37192 72.7888 1.51912 72.2197L0.550976 71.9693ZM-0.0139418 75.6765C-0.0294851 75.9875 -0.0373475 76.3004 -0.0373475 76.6151L0.962653 76.6151C0.962653 76.317 0.970099 76.0208 0.984811 75.7265L-0.0139418 75.6765ZM-0.0373475 76.6151C-0.0373474 76.9472 -0.0285921 77.2773 -0.0112948 77.6052L0.987317 77.5525C0.970944 77.2421 0.962653 76.9296 0.962653 76.6151L-0.0373475 76.6151ZM0.197999 79.5735C0.303647 80.2307 0.443918 80.8764 0.616888 81.5086L1.58144 81.2447C1.41789 80.6469 1.28524 80.0364 1.18532 79.4148L0.197999 79.5735ZM1.24162 83.3874C1.48453 84.0046 1.75963 84.6056 2.06486 85.1882L2.95067 84.7242C2.66199 84.1731 2.40183 83.6048 2.17215 83.0212L1.24162 83.3874ZM3.07623 86.8902C3.44396 87.4398 3.84034 87.9686 4.26323 88.4744L5.03042 87.833C4.63027 87.3543 4.25524 86.8541 3.90735 86.3341L3.07623 86.8902ZM5.61186 89.9233C6.08642 90.3816 6.58544 90.8148 7.10679 91.2207L7.72113 90.4317C7.22784 90.0476 6.75564 89.6377 6.30657 89.204L5.61186 89.9233ZM8.73139 92.3518C9.01166 92.5255 9.29692 92.6919 9.58691 92.8507L10.0674 91.9737C9.79307 91.8235 9.52325 91.6661 9.25812 91.5018L8.73139 92.3518ZM9.33082 92.3516C9.30796 92.5389 9.2879 92.727 9.27068 92.916L10.2666 93.0067C10.2828 92.828 10.3018 92.65 10.3235 92.4728L9.33082 92.3516ZM9.20213 94.0486C9.19645 94.237 9.19359 94.4261 9.19359 94.6159H10.1936C10.1936 94.4362 10.1963 94.2571 10.2017 94.0787L9.20213 94.0486ZM9.19359 94.6159C9.19359 94.9639 9.20321 95.3098 9.22221 95.6533L10.2207 95.5981C10.2027 95.273 10.1936 94.9455 10.1936 94.6159L9.19359 94.6159ZM9.45223 97.7156C9.56834 98.4037 9.72243 99.079 9.9123 99.7391L10.8733 99.4627C10.6938 98.8385 10.5481 98.2 10.4383 97.5493L9.45223 97.7156ZM10.5976 101.698C10.8638 102.34 11.1652 102.963 11.4992 103.566L12.374 103.082C12.0581 102.512 11.7731 101.922 11.5213 101.315L10.5976 101.698ZM12.6047 105.322C13.0061 105.887 13.4384 106.428 13.8991 106.943L14.6445 106.277C14.2086 105.789 13.7995 105.277 13.4198 104.743L12.6047 105.322ZM15.366 108.41C15.8812 108.871 16.4224 109.303 16.9871 109.705L17.5665 108.89C17.0322 108.51 16.5201 108.101 16.0326 107.665L15.366 108.41ZM18.743 110.81C19.3461 111.144 19.9698 111.446 20.6119 111.712L20.9949 110.788C20.3878 110.536 19.7979 110.251 19.2275 109.935L18.743 110.81ZM22.5703 112.397C23.2305 112.587 23.9057 112.741 24.5938 112.857L24.7602 111.871C24.1094 111.761 23.4709 111.616 22.8467 111.436L22.5703 112.397ZM26.6562 113.087C26.9996 113.106 27.3455 113.116 27.6936 113.116V112.116C27.3639 112.116 27.0365 112.107 26.7114 112.089L26.6562 113.087ZM27.6936 113.116C27.8991 113.116 28.1038 113.113 28.3077 113.106L28.2751 112.106C28.082 112.113 27.8882 112.116 27.6936 112.116V113.116ZM29.5335 113.025C29.7379 113.005 29.9414 112.982 30.1438 112.955L30.0126 111.964C29.8211 111.989 29.6286 112.011 29.4352 112.03L29.5335 113.025ZM29.5804 112.506C29.6107 112.831 29.6494 113.154 29.6964 113.475L30.6858 113.33C30.6414 113.027 30.6047 112.721 30.5761 112.413L29.5804 112.506ZM30.0811 115.388C30.2441 116.022 30.4399 116.643 30.6665 117.249L31.6031 116.899C31.3889 116.326 31.2038 115.739 31.0497 115.139L30.0811 115.388ZM31.4458 119.038C31.7378 119.621 32.0598 120.187 32.4098 120.734L33.2519 120.194C32.9208 119.678 32.6163 119.142 32.34 118.59L31.4458 119.038ZM33.5467 122.319C33.9534 122.827 34.3863 123.314 34.8434 123.776L35.5546 123.073C35.122 122.635 34.7123 122.175 34.3275 121.694L33.5467 122.319ZM36.2855 125.089C36.7881 125.501 37.3127 125.887 37.8574 126.244L38.4063 125.408C37.891 125.07 37.3947 124.705 36.9192 124.316L36.2855 125.089ZM39.5423 127.228C40.1185 127.524 40.7123 127.792 41.3218 128.028L41.6829 127.095C41.1066 126.872 40.5451 126.619 40.0001 126.339L39.5423 127.228ZM43.1759 128.635C43.7996 128.803 44.4363 128.939 45.0842 129.041L45.2406 128.054C44.6279 127.957 44.0258 127.828 43.4361 127.669L43.1759 128.635ZM47.0246 129.245C47.3477 129.262 47.6729 129.27 48 129.27V128.27C47.6902 128.27 47.3823 128.262 47.0765 128.246L47.0246 129.245ZM48 129.27C48.2604 129.27 48.5195 129.265 48.7773 129.254L48.736 128.255C48.4919 128.265 48.2466 128.27 48 128.27V129.27ZM50.327 129.125C50.8451 129.06 51.3567 128.973 51.8607 128.866L51.653 127.888C51.1764 127.989 50.6926 128.071 50.2024 128.133L50.327 129.125ZM53.3673 128.479C53.6161 128.404 53.8627 128.324 54.1069 128.238L53.7769 127.294C53.546 127.375 53.3128 127.451 53.0776 127.522L53.3673 128.479ZM53.6196 128.148C53.8945 128.38 54.1762 128.604 54.4644 128.82L55.0637 128.019C54.7909 127.815 54.5244 127.603 54.2643 127.384L53.6196 128.148ZM56.2641 130.01C56.8843 130.37 57.5273 130.695 58.1905 130.983L58.5881 130.065C57.961 129.793 57.3528 129.486 56.7662 129.145L56.2641 130.01ZM60.2178 131.723C60.902 131.928 61.6029 132.095 62.3178 132.22L62.4908 131.235C61.8147 131.117 61.152 130.959 60.5051 130.765L60.2178 131.723ZM64.4609 132.469C64.8179 132.49 65.1776 132.5 65.5396 132.5V131.5C65.1968 131.5 64.8562 131.49 64.5184 131.471L64.4609 132.469ZM65.5396 132.5C65.9069 132.5 66.2717 132.489 66.6337 132.468L66.5755 131.47C66.2328 131.49 65.8874 131.5 65.5396 131.5V132.5ZM68.8071 132.212C69.5319 132.083 70.2422 131.912 70.9353 131.701L70.644 130.744C69.9887 130.944 69.3171 131.106 68.6316 131.228L68.8071 132.212ZM72.9877 130.939C73.6587 130.644 74.3087 130.31 74.9349 129.94L74.4264 129.079C73.834 129.429 73.2192 129.745 72.5847 130.024L72.9877 130.939ZM76.7502 128.718C77.0405 128.496 77.3241 128.266 77.6006 128.028L76.9483 127.27C76.6867 127.496 76.4184 127.713 76.1437 127.923L76.7502 128.718ZM77.1004 128.118C77.3567 128.213 77.6158 128.303 77.8774 128.387L78.1832 127.435C77.9358 127.355 77.6909 127.271 77.4485 127.181L77.1004 128.118ZM79.4635 128.819C79.9947 128.939 80.5345 129.035 81.0818 129.108L81.2135 128.117C80.6958 128.048 80.1853 127.957 79.683 127.844L79.4635 128.819ZM82.7189 129.252C82.9913 129.264 83.2652 129.27 83.5404 129.27V128.27C83.2797 128.27 83.0204 128.264 82.7626 128.253L82.7189 129.252ZM83.5404 129.27C83.8693 129.27 84.1963 129.261 84.5211 129.244L84.4689 128.246C84.1615 128.262 83.8519 128.27 83.5404 128.27V129.27ZM86.472 129.039C87.1233 128.935 87.7633 128.798 88.3901 128.628L88.1286 127.662C87.5359 127.823 86.9307 127.953 86.3147 128.051L86.472 129.039ZM90.2533 128.014C90.8656 127.776 91.462 127.506 92.0405 127.206L91.5805 126.318C91.0333 126.601 90.4693 126.857 89.8903 127.083L90.2533 128.014ZM93.7318 126.212C94.2783 125.851 94.8045 125.461 95.3082 125.045L94.6717 124.274C94.1951 124.667 93.6972 125.036 93.1802 125.378L93.7318 126.212ZM96.7529 123.719C97.2105 123.252 97.6435 122.761 98.0499 122.248L97.2661 121.627C96.8815 122.113 96.4717 122.577 96.0387 123.019L96.7529 123.719ZM99.1848 120.649C99.5336 120.097 99.8541 119.526 100.144 118.938L99.2473 118.496C98.9729 119.052 98.6698 119.592 98.3398 120.114L99.1848 120.649ZM100.916 117.135C101.14 116.524 101.333 115.898 101.492 115.259L100.522 115.017C100.371 115.621 100.189 116.213 99.9774 116.791L100.916 117.135ZM101.864 113.333C101.909 113.01 101.945 112.685 101.973 112.357L100.977 112.273C100.95 112.583 100.916 112.89 100.874 113.195L101.864 113.333ZM101.384 112.807C101.662 112.858 101.942 112.903 102.224 112.942L102.361 111.952C102.094 111.915 101.829 111.872 101.566 111.823L101.384 112.807ZM103.919 113.097C104.201 113.109 104.484 113.116 104.769 113.116V112.116C104.499 112.116 104.231 112.11 103.964 112.098L103.919 113.097ZM104.769 113.116C105.117 113.116 105.463 113.106 105.806 113.087L105.751 112.089C105.426 112.107 105.099 112.116 104.769 112.116V113.116ZM107.869 112.857C108.557 112.741 109.232 112.587 109.892 112.397L109.616 111.436C108.992 111.616 108.353 111.761 107.702 111.871L107.869 112.857ZM111.851 111.712C112.493 111.446 113.117 111.144 113.72 110.81L113.235 109.935C112.665 110.251 112.075 110.536 111.468 110.788L111.851 111.712ZM115.476 109.705C116.04 109.303 116.581 108.871 117.097 108.41L116.43 107.665C115.943 108.101 115.43 108.51 114.896 108.89L115.476 109.705ZM118.564 106.943C119.024 106.428 119.457 105.887 119.858 105.322L119.043 104.743C118.663 105.277 118.254 105.789 117.818 106.277L118.564 106.943ZM120.963 103.566C121.297 102.963 121.599 102.34 121.865 101.698L120.941 101.315C120.69 101.922 120.405 102.512 120.089 103.082L120.963 103.566ZM122.55 99.7391C122.74 99.079 122.894 98.4037 123.01 97.7156L122.024 97.5493C121.915 98.2 121.769 98.8385 121.589 99.4627L122.55 99.7391ZM123.24 95.6533C123.259 95.3098 123.269 94.9639 123.269 94.6159H122.269C122.269 94.9455 122.26 95.273 122.242 95.5981L123.24 95.6533ZM123.269 94.6159C123.269 94.4261 123.266 94.237 123.261 94.0486L122.261 94.0787C122.266 94.2571 122.269 94.4362 122.269 94.6159H123.269ZM123.192 92.916C123.175 92.727 123.155 92.5389 123.132 92.3516L122.139 92.4728C122.161 92.65 122.18 92.828 122.196 93.0067L123.192 92.916ZM122.876 92.8507C123.166 92.6919 123.451 92.5255 123.731 92.3518L123.205 91.5018C122.939 91.6661 122.67 91.8235 122.395 91.9737L122.876 92.8507ZM125.356 91.2207C125.877 90.8148 126.376 90.3816 126.851 89.9233L126.156 89.204C125.707 89.6377 125.235 90.0476 124.742 90.4317L125.356 91.2207ZM128.199 88.4744C128.622 87.9686 129.019 87.4398 129.386 86.8902L128.555 86.3341C128.207 86.8541 127.832 87.3543 127.432 87.833L128.199 88.4744ZM130.398 85.1882C130.703 84.6056 130.978 84.0046 131.221 83.3874L130.291 83.0212C130.061 83.6048 129.801 84.1731 129.512 84.7242L130.398 85.1882ZM131.846 81.5086C132.019 80.8764 132.159 80.2307 132.265 79.5735L131.277 79.4148C131.177 80.0364 131.045 80.6469 130.881 81.2447L131.846 81.5086ZM132.474 77.6052C132.491 77.2773 132.5 76.9472 132.5 76.6151H131.5C131.5 76.9296 131.492 77.2421 131.475 77.5525L132.474 77.6052ZM132.5 76.6151C132.5 76.2778 132.491 75.9425 132.473 75.6095L131.475 75.663C131.491 75.9782 131.5 76.2956 131.5 76.6151H132.5ZM132.257 73.6099C132.148 72.9423 132.003 72.2867 131.825 71.6451L130.861 71.9132C131.03 72.5198 131.167 73.1398 131.27 73.7711L132.257 73.6099ZM131.18 69.7392C130.929 69.1137 130.646 68.505 130.331 67.9154L129.449 68.3863C129.746 68.944 130.015 69.5196 130.252 70.1111L131.18 69.7392ZM129.288 66.195C129.099 65.9178 128.903 65.646 128.699 65.3799L127.905 65.9878C128.097 66.2395 128.284 66.4967 128.463 66.759L129.288 66.195ZM128.712 65.9702C128.891 65.7139 129.064 65.4528 129.23 65.1872L128.382 64.6566C128.225 64.9079 128.061 65.1549 127.892 65.3974L128.712 65.9702ZM130.144 63.5471C130.419 62.9876 130.668 62.4121 130.886 61.8224L129.949 61.4744C129.742 62.032 129.507 62.5762 129.247 63.1054L130.144 63.5471ZM131.449 60.0307C131.605 59.4288 131.731 58.8151 131.826 58.1912L130.837 58.0407C130.747 58.6309 130.628 59.2112 130.481 59.7803L131.449 60.0307ZM132.014 56.3234C132.029 56.0125 132.037 55.6996 132.037 55.3849H131.037C131.037 55.683 131.03 55.9792 131.015 56.2735L132.014 56.3234ZM132.037 55.3849C132.037 55.0528 132.029 54.7227 132.011 54.3948L131.013 54.4475C131.029 54.7579 131.037 55.0704 131.037 55.3849H132.037ZM131.802 52.4265C131.696 51.7693 131.556 51.1236 131.383 50.4914L130.419 50.7553C130.582 51.3531 130.715 51.9636 130.815 52.5852L131.802 52.4265ZM130.758 48.6126C130.515 47.9954 130.24 47.3944 129.935 46.8118L129.049 47.2758C129.338 47.8269 129.598 48.3952 129.828 48.9788L130.758 48.6126ZM128.924 45.1098C128.556 44.5602 128.16 44.0314 127.737 43.5256L126.97 44.167C127.37 44.6457 127.745 45.1459 128.093 45.6659L128.924 45.1098ZM126.388 42.0767C125.914 41.6184 125.415 41.1852 124.893 40.7793L124.279 41.5683C124.772 41.9524 125.244 42.3623 125.693 42.796L126.388 42.0767ZM123.269 39.6482C122.988 39.4745 122.703 39.3081 122.413 39.1493L121.933 40.0263C122.207 40.1765 122.477 40.3339 122.742 40.4982L123.269 39.6482ZM122.669 39.6484C122.692 39.4611 122.712 39.273 122.729 39.084L121.733 38.9933C121.717 39.172 121.698 39.35 121.677 39.5272L122.669 39.6484ZM122.798 37.9514C122.804 37.763 122.806 37.5739 122.806 37.3841H121.806C121.806 37.5638 121.804 37.7429 121.798 37.9213L122.798 37.9514ZM122.806 37.3841C122.806 37.0361 122.797 36.6902 122.778 36.3467L121.779 36.4019C121.797 36.727 121.806 37.0545 121.806 37.3841H122.806ZM122.548 34.2844C122.432 33.5963 122.278 32.921 122.088 32.2609L121.127 32.5373C121.306 33.1615 121.452 33.8 121.562 34.4507L122.548 34.2844ZM121.402 30.3024C121.136 29.6604 120.835 29.0366 120.501 28.4335L119.626 28.918C119.942 29.4885 120.227 30.0784 120.479 30.6855L121.402 30.3024ZM119.395 26.6777C118.994 26.113 118.562 25.5718 118.101 25.0566L117.355 25.7232C117.791 26.2107 118.2 26.7228 118.58 27.257L119.395 26.6777ZM116.634 23.5897C116.119 23.129 115.578 22.6967 115.013 22.2952L114.434 23.1103C114.968 23.4901 115.48 23.8991 115.967 24.3351L116.634 23.5897ZM113.257 21.1897C112.654 20.8557 112.03 20.5544 111.388 20.2881L111.005 21.2119C111.612 21.4636 112.202 21.7486 112.773 22.0645L113.257 21.1897ZM109.43 19.6029C108.77 19.413 108.094 19.2589 107.406 19.1428L107.24 20.1288C107.891 20.2386 108.529 20.3844 109.153 20.5639L109.43 19.6029ZM105.344 18.9128C105 18.8938 104.654 18.8841 104.306 18.8841V19.8841C104.636 19.8841 104.964 19.8933 105.289 19.9112L105.344 18.9128ZM104.306 18.8841C104.101 18.8841 103.896 18.8875 103.692 18.8942L103.725 19.8936C103.918 19.8873 104.112 19.8841 104.306 19.8841V18.8841ZM102.467 18.9745C102.262 18.9947 102.059 19.0182 101.856 19.045L101.987 20.0364C102.179 20.011 102.371 19.9888 102.565 19.9697L102.467 18.9745ZM102.42 19.4944C102.389 19.1688 102.351 18.8457 102.304 18.5252L101.314 18.6702C101.359 18.9733 101.395 19.279 101.424 19.5871L102.42 19.4944ZM101.919 16.6121C101.756 15.9779 101.56 15.3568 101.334 14.7508L100.397 15.1011C100.611 15.6741 100.796 16.2613 100.95 16.861L101.919 16.6121ZM100.554 12.9624C100.262 12.3787 99.9402 11.8126 99.5902 11.2662L98.7481 11.8055C99.0792 12.3224 99.3837 12.8579 99.66 13.4099L100.554 12.9624ZM98.4533 9.68111C98.0466 9.17281 97.6137 8.68644 97.1566 8.22406L96.4455 8.92711C96.878 9.36465 97.2877 9.82488 97.6725 10.3058L98.4533 9.68111ZM95.7145 6.91075C95.2119 6.49914 94.6873 6.11346 94.1426 5.75574L93.5937 6.59159C94.109 6.93001 94.6053 7.29491 95.0809 7.68438L95.7145 6.91075ZM92.4577 4.77224C91.8815 4.47555 91.2877 4.20822 90.6782 3.97222L90.3171 4.90475C90.8934 5.1279 91.4549 5.3807 91.9999 5.6613L92.4577 4.77224ZM88.8241 3.36538C88.2004 3.19736 87.5637 3.06114 86.9158 2.95855L86.7594 3.94624C87.3721 4.04327 87.9742 4.17209 88.564 4.33096L88.8241 3.36538ZM84.9754 2.75528C84.6523 2.73849 84.3271 2.72999 84 2.72999V3.72999C84.3098 3.72999 84.6177 3.73804 84.9235 3.75393L84.9754 2.75528ZM84 2.72999C83.7396 2.72999 83.4805 2.73537 83.2227 2.74603L83.264 3.74518C83.5081 3.73509 83.7534 3.72999 84 3.72999V2.72999ZM81.673 2.87498C81.1549 2.94003 80.6433 3.02652 80.1393 3.13353L80.347 4.11172C80.8236 4.01053 81.3074 3.92873 81.7976 3.8672L81.673 2.87498ZM78.6327 3.52072C78.3839 3.59603 78.1373 3.67644 77.8931 3.76183L78.2231 4.70581C78.454 4.62507 78.6872 4.54904 78.9224 4.47784L78.6327 3.52072Z" fill="#FFFFED" mask="url(#path-1-inside-1_1135_260)"/>
</svg>
