<svg width="32" height="37" viewBox="0 0 32 37" fill="none" xmlns="http://www.w3.org/2000/svg">
<path d="M26.8163 7.24616C24.869 5.97651 23.4636 3.94508 23.0251 1.57698C22.9304 1.06533 22.8784 0.538764 22.8784 0H16.6635L16.6535 24.9073C16.549 27.6964 14.2534 29.9351 11.4392 29.9351C10.5645 29.9351 9.74094 29.7164 9.0158 29.3348C7.35292 28.4597 6.21493 26.7167 6.21493 24.7109C6.21493 21.8301 8.55865 19.4864 11.4392 19.4864C11.9769 19.4864 12.4928 19.5751 12.9807 19.7279V13.3832C12.4757 13.3144 11.9627 13.2714 11.4392 13.2714C5.13149 13.2714 0 18.4032 0 24.7109C0 28.5809 1.93358 32.0058 4.88347 34.0768C6.74155 35.3812 9.00168 36.15 11.4392 36.15C17.7469 36.15 22.8784 31.0186 22.8784 24.7109V12.0807C25.316 13.8303 28.3024 14.8613 31.5249 14.8613V8.64635C29.789 8.64635 28.1722 8.13028 26.8163 7.24616" fill="#121111"/>
</svg>
