<?xml version="1.0" encoding="UTF-8"?><svg id="Layer_2" xmlns="http://www.w3.org/2000/svg" viewBox="0 0 259.28 185.23"><defs><style>.cls-1{fill:#4e99a7;stroke-width:0px;}</style></defs><g id="Layer_1-2"><path class="cls-1" d="M195.91,22.71c.21-.63.35-1.16.42-1.58s.11-.99.11-1.69v-1.69h-4.01V0h11.62v14.68c0,.56-.11,1.16-.32,1.8-.21.63-.39,1.23-.53,1.8l-4.23,12.46h-5.92l2.85-8.03Z"/><path class="cls-1" d="M.06.08h12.68v72.68h54.09v11.3H.06V.08Z"/><path class="cls-1" d="M85.89,62.57c1.09,2.64,2.55,4.89,4.38,6.76s4.01,3.31,6.55,4.33,5.28,1.53,8.24,1.53c4.72,0,8.77-1.16,12.15-3.49,3.38-2.32,5.67-5.6,6.87-9.82h9.61c-.63,3.38-1.85,6.44-3.64,9.19s-4.01,5.07-6.65,6.97c-2.64,1.9-5.63,3.38-8.98,4.44-3.35,1.06-6.85,1.58-10.51,1.58-4.58,0-8.73-.83-12.46-2.48-3.73-1.66-6.94-3.91-9.61-6.76s-4.75-6.2-6.23-10.04c-1.48-3.84-2.22-7.98-2.22-12.41,0-4.72.83-8.98,2.48-12.78,1.66-3.8,3.91-7.04,6.76-9.72,2.85-2.68,6.2-4.75,10.04-6.23,3.84-1.48,7.97-2.22,12.41-2.22s8.31.7,12.04,2.11c3.73,1.41,6.97,3.4,9.72,5.97,2.75,2.57,4.91,5.7,6.5,9.4,1.58,3.7,2.38,7.8,2.38,12.31v1.32c0,.46-.04.9-.11,1.32h-51.55c.14,3.17.76,6.07,1.85,8.71ZM122.81,40.7c-1.06-2.36-2.45-4.37-4.17-6.02-1.73-1.65-3.77-2.92-6.13-3.8s-4.88-1.32-7.55-1.32c-2.82,0-5.44.46-7.87,1.37s-4.54,2.2-6.34,3.86c-1.79,1.66-3.26,3.66-4.38,6.02s-1.8,4.98-2.01,7.87h40.14c-.07-2.96-.63-5.62-1.69-7.98Z"/><path class="cls-1" d="M246.91,35.63c-1.09-1.44-2.43-2.59-4.01-3.43-1.58-.85-3.33-1.43-5.23-1.74s-3.84-.48-5.81-.48c-2.11,0-4.08.16-5.92.48s-3.43.83-4.81,1.53c-1.37.7-2.45,1.66-3.22,2.85-.78,1.2-1.16,2.64-1.16,4.33,0,1.83.48,3.29,1.43,4.38.95,1.09,2.17,1.92,3.64,2.48s3.13.95,4.96,1.16,3.59.35,5.28.42c1.76.07,3.66.16,5.7.26s4.07.33,6.07.69c2.01.35,3.93.86,5.76,1.53,1.83.67,3.47,1.6,4.91,2.8,1.44,1.2,2.59,2.71,3.43,4.54.84,1.83,1.27,4.08,1.27,6.76,0,3.8-.76,6.99-2.27,9.56-1.51,2.57-3.54,4.61-6.07,6.13s-5.41,2.59-8.61,3.22-6.5.95-9.88.95-6.76-.39-9.93-1.16c-3.17-.77-6-2.01-8.5-3.7-2.5-1.69-4.52-3.89-6.07-6.6-1.55-2.71-2.43-6-2.64-9.88h9.51c.21,2.46.85,4.54,1.9,6.23,1.06,1.69,2.41,3.03,4.07,4.01s3.5,1.69,5.55,2.11c2.04.42,4.16.63,6.34.63,1.97,0,3.94-.16,5.92-.48s3.73-.86,5.28-1.64c1.55-.77,2.8-1.81,3.75-3.12.95-1.3,1.43-2.98,1.43-5.02,0-1.76-.37-3.22-1.11-4.38-.74-1.16-1.71-2.1-2.9-2.8s-2.61-1.2-4.23-1.48c-1.62-.28-3.31-.49-5.07-.63-1.34-.07-2.99-.11-4.97-.11s-4.03-.11-6.18-.32c-2.15-.21-4.3-.6-6.44-1.16-2.15-.56-4.08-1.43-5.81-2.59-1.72-1.16-3.12-2.71-4.17-4.65-1.06-1.94-1.58-4.42-1.58-7.45,0-3.45.79-6.36,2.38-8.71,1.58-2.36,3.59-4.26,6.02-5.7,2.43-1.44,5.14-2.48,8.13-3.12s5.93-.95,8.82-.95c3.17,0,6.27.32,9.3.95,3.03.63,5.74,1.73,8.13,3.27s4.37,3.59,5.92,6.13c1.55,2.54,2.43,5.7,2.64,9.51h-8.87c-.28-2.32-.97-4.21-2.06-5.65Z"/><path class="cls-1" d="M46.48,119.64c3.6,1.25,6.83,3.05,9.67,5.4s5.2,5.23,7.05,8.65c1.86,3.41,3.05,7.28,3.58,11.6h-11.15c-.91-5.31-3.22-9.56-6.94-12.74-3.72-3.19-8.31-4.78-13.77-4.78-3.49,0-6.64.59-9.44,1.76-2.81,1.18-5.21,2.81-7.22,4.89-2.01,2.09-3.55,4.63-4.61,7.62-1.06,3-1.59,6.31-1.59,9.95s.57,6.9,1.71,9.78,2.71,5.33,4.72,7.34,4.38,3.53,7.11,4.55,5.65,1.54,8.76,1.54,5.67-.46,8.13-1.37c2.47-.91,4.65-2.16,6.54-3.75s3.45-3.49,4.66-5.69,2.05-4.59,2.5-7.17h11.04c-.46,4.17-1.61,7.98-3.47,11.43-1.86,3.45-4.25,6.39-7.17,8.82-2.92,2.43-6.3,4.32-10.13,5.69-3.83,1.37-7.91,2.05-12.23,2.05-4.55,0-8.89-.72-13.03-2.16-4.13-1.44-7.77-3.58-10.92-6.43-3.15-2.84-5.65-6.33-7.51-10.47-1.86-4.13-2.79-8.93-2.79-14.39,0-5.08.89-9.73,2.67-13.94,1.78-4.21,4.23-7.79,7.34-10.75,3.11-2.96,6.81-5.25,11.09-6.88,4.29-1.63,8.93-2.45,13.94-2.45,4.02,0,7.83.63,11.43,1.88Z"/><path class="cls-1" d="M122.87,145.64c0-5.01-1.35-8.93-4.04-11.78-2.69-2.84-6.43-4.27-11.21-4.27s-8.48,1.14-11.55,3.41c-3.07,2.28-5.37,5.35-6.88,9.22v43.01h-12.06v-92.95h12.06v38.57c2.43-3.41,5.41-6.07,8.93-7.96,3.53-1.9,7.91-2.84,13.14-2.84,4.25,0,7.87.68,10.86,2.05,3,1.37,5.42,3.24,7.28,5.63s3.22,5.25,4.1,8.59c.87,3.34,1.31,6.98,1.31,10.92v38h-11.95v-39.59Z"/><path class="cls-1" d="M209.22,184.55c-1.52.45-3.07.68-4.66.68-3.87,0-6.92-1.08-9.16-3.24-2.24-2.16-3.58-5.1-4.04-8.82-3.19,4.32-7.07,7.38-11.66,9.16-4.59,1.78-9.42,2.67-14.51,2.67-6.45,0-11.43-1.63-14.96-4.89-3.53-3.26-5.29-8.12-5.29-14.56,0-4.63.99-8.49,2.96-11.6,1.97-3.11,4.49-5.61,7.57-7.51,3.07-1.9,6.52-3.22,10.35-3.98,3.83-.76,7.57-1.14,11.21-1.14,2.43,0,4.8.09,7.11.28,2.31.19,4.34.47,6.09.85v-.8c0-2.88-.27-5.27-.8-7.17-.53-1.9-1.44-3.39-2.73-4.49s-2.98-1.86-5.06-2.28-4.72-.63-7.91-.63c-2.27,0-4.38.11-6.31.34-1.93.23-3.64.78-5.12,1.65-1.48.87-2.64,2.14-3.47,3.81-.84,1.67-1.25,3.91-1.25,6.71h-10.92c.08-4.63.76-8.38,2.05-11.26s3.09-5.1,5.41-6.66c2.31-1.56,5.08-2.6,8.3-3.13,3.22-.53,6.81-.8,10.75-.8,4.93,0,9.22.38,12.86,1.14,3.64.76,6.66,2.14,9.04,4.15,2.39,2.01,4.15,4.76,5.29,8.25,1.14,3.49,1.71,7.93,1.71,13.31v19.8c0,1.06.06,2.24.17,3.53s.4,2.48.85,3.58c.45,1.1,1.1,2.03,1.93,2.79.84.76,1.97,1.14,3.41,1.14,1.06,0,1.97-.21,2.73-.63.76-.42,1.52-.97,2.27-1.65v9.1c-1.29,1.06-2.69,1.82-4.21,2.28ZM184.53,148.82c-2.2-.3-4.55-.45-7.05-.45-2.2,0-4.53.23-7,.68-2.46.45-4.76,1.29-6.88,2.5s-3.87,2.83-5.23,4.84-2.05,4.57-2.05,7.68c0,2.2.38,4,1.14,5.4.76,1.4,1.78,2.54,3.07,3.41,1.29.87,2.81,1.48,4.55,1.82s3.6.51,5.58.51c2.12,0,4.25-.28,6.37-.85s4.08-1.37,5.86-2.39,3.34-2.22,4.66-3.58,2.29-2.81,2.9-4.32v-14.22c-1.74-.38-3.72-.72-5.92-1.02Z"/><path class="cls-1" d="M256.55,182.28c-1.21.71-2.56,1.28-4.04,1.71-1.48.43-3,.73-4.55.89-1.56.16-2.98.24-4.27.24-2.2,0-4.48-.31-6.83-.94-2.35-.63-4.51-1.61-6.49-2.95s-3.6-3.09-4.89-5.25-1.93-4.78-1.93-7.85v-41.32h-12.06v-9.21h6.83c2.43,0,4.08-.45,4.95-1.36.87-.91,1.38-2.38,1.54-4.43l1.25-19.36h9.56v25.15h22.98v9.21h-22.98v35.65c0,3.86,1.01,6.77,3.02,8.74,2.01,1.97,4.76,2.95,8.25,2.95,5.54,0,9.67-.94,12.4-2.83v8.15c-.61,1.18-1.52,2.12-2.73,2.83Z"/><path class="cls-1" d="M181.01,81.39c-1.13.64-2.38,1.16-3.75,1.55-1.37.39-2.78.66-4.23.8-1.44.14-2.76.21-3.96.21-2.04,0-4.16-.29-6.34-.86-2.18-.57-4.19-1.46-6.02-2.67s-3.34-2.8-4.54-4.76-1.8-4.33-1.8-7.11V31.12h-11.2v-8.34h6.34c2.25,0,3.79-.41,4.59-1.23.81-.82,1.29-2.16,1.43-4.01l1.16-17.54h8.87v22.78h21.34v8.34h-21.34v32.3c0,3.49.93,6.13,2.8,7.91s4.42,2.67,7.66,2.67c5.14,0,8.98-.86,11.51-2.57v7.38c-.56,1.07-1.41,1.93-2.54,2.57Z"/></g></svg>