<?xml version="1.0" encoding="UTF-8"?><svg id="Layer_2" xmlns="http://www.w3.org/2000/svg" viewBox="0 0 750.67 750.67"><defs><style>.cls-1{font-family:OPTIAuvantGothic-Medium, OPTIAuvantGothic-Medium;font-size:61.07px;font-weight:500;}.cls-1,.cls-2{fill:#fefcec;}.cls-3{letter-spacing:-.02em;}.cls-4{fill:#121111;}.cls-5{letter-spacing:-.24em;}.cls-6{letter-spacing:0em;}</style></defs><g id="Layer_1-2"><g><rect class="cls-2" x="93.31" y="93.31" width="564.05" height="564.05" rx="56.76" ry="56.76" transform="translate(-155.47 375.34) rotate(-45)"/><rect class="cls-4" x="152.34" y="147.17" width="449.43" height="449.43" rx="224.72" ry="224.72" transform="translate(-152.53 375.54) rotate(-45)"/><g><rect class="cls-4" x="343.8" y="655.75" width="71.41" height="71.41" rx="35.71" ry="35.71" transform="translate(-377.78 470.88) rotate(-45)"/><rect class="cls-4" x="23.51" y="335.46" width="71.41" height="71.41" rx="35.71" ry="35.71" transform="translate(-245.11 150.59) rotate(-45)"/></g><g><rect class="cls-4" x="655.75" y="343.8" width="71.41" height="71.41" rx="35.71" ry="35.71" transform="translate(-65.83 600.09) rotate(-45)"/><rect class="cls-4" x="335.46" y="23.51" width="71.41" height="71.41" rx="35.71" ry="35.71" transform="translate(66.84 279.8) rotate(-45)"/></g><text class="cls-1" transform="translate(273.82 326.69)"><tspan class="cls-5" x="0" y="0">1</tspan><tspan class="cls-6" x="38.78" y="0">00% </tspan><tspan x="-8.73" y="63">cus</tspan><tspan class="cls-3" x="96.43" y="63">t</tspan><tspan x="111.94" y="63">om</tspan><tspan x="-.7" y="126">-isable</tspan></text></g></g></svg>