<svg width="36" height="36" viewBox="0 0 36 36" fill="none" xmlns="http://www.w3.org/2000/svg">
<path fill-rule="evenodd" clip-rule="evenodd" d="M18 0C13.1112 0 12.4992 0.0204 10.5792 0.108C8.6628 0.1956 7.3536 0.5004 6.2088 0.9456C5.0088 1.3968 3.9204 2.1048 3.0204 3.0216C2.10507 3.92056 1.39663 5.00819 0.9444 6.2088C0.5016 7.3536 0.1956 8.664 0.108 10.5804C0.0216 12.4992 0 13.11 0 18C0 22.89 0.0204 23.5008 0.108 25.4208C0.1956 27.3372 0.5004 28.6464 0.9456 29.7912C1.3968 30.9912 2.1048 32.0796 3.0216 32.9796C3.92059 33.8949 5.00821 34.6033 6.2088 35.0556C7.3536 35.4996 8.6628 35.8044 10.5792 35.892C12.4992 35.9796 13.1112 36 18 36C22.8888 36 23.5008 35.9796 25.4208 35.892C27.3372 35.8044 28.6464 35.4996 29.7912 35.0544C30.9912 34.6032 32.0796 33.8952 32.9796 32.9784C33.8949 32.0794 34.6034 30.9918 35.0556 29.7912C35.4996 28.6464 35.8044 27.3372 35.892 25.4208C35.9796 23.5008 36 22.8888 36 18C36 13.1112 35.9796 12.4992 35.892 10.5792C35.8044 8.6628 35.4996 7.3536 35.0544 6.2088C34.6025 5.00768 33.894 3.91959 32.9784 3.0204C32.0794 2.10507 30.9918 1.39663 29.7912 0.9444C28.6464 0.5016 27.336 0.1956 25.4196 0.108C23.5008 0.0216 22.89 0 18 0ZM18 3.2436C22.806 3.2436 23.376 3.2616 25.2744 3.348C27.0288 3.4284 27.9816 3.72 28.6164 3.9684C29.4564 4.2936 30.0564 4.6848 30.6864 5.3136C31.3164 5.9436 31.7064 6.5436 32.0316 7.3836C32.2788 8.0184 32.5716 8.9712 32.652 10.7256C32.7384 12.624 32.7564 13.194 32.7564 18C32.7564 22.806 32.7384 23.376 32.652 25.2744C32.5716 27.0288 32.28 27.9816 32.0316 28.6164C31.7435 29.3983 31.2839 30.1056 30.6864 30.6864C30.1057 31.284 29.3983 31.7437 28.6164 32.0316C27.9816 32.2788 27.0288 32.5716 25.2744 32.652C23.376 32.7384 22.8072 32.7564 18 32.7564C13.1928 32.7564 12.624 32.7384 10.7256 32.652C8.9712 32.5716 8.0184 32.28 7.3836 32.0316C6.60175 31.7435 5.89441 31.2839 5.3136 30.6864C4.71621 30.1055 4.25655 29.3982 3.9684 28.6164C3.7212 27.9816 3.4284 27.0288 3.348 25.2744C3.2616 23.376 3.2436 22.806 3.2436 18C3.2436 13.194 3.2616 12.624 3.348 10.7256C3.4284 8.9712 3.72 8.0184 3.9684 7.3836C4.2936 6.5436 4.6848 5.9436 5.3136 5.3136C5.89433 4.71605 6.60169 4.25637 7.3836 3.9684C8.0184 3.7212 8.9712 3.4284 10.7256 3.348C12.624 3.2616 13.194 3.2436 18 3.2436V3.2436Z" fill="#121111"/>
<path fill-rule="evenodd" clip-rule="evenodd" d="M17.9981 24.0056C17.2094 24.0056 16.4284 23.8502 15.6997 23.5484C14.971 23.2466 14.3089 22.8042 13.7512 22.2465C13.1935 21.6888 12.7511 21.0267 12.4493 20.298C12.1474 19.5693 11.9921 18.7883 11.9921 17.9996C11.9921 17.2109 12.1474 16.4299 12.4493 15.7012C12.7511 14.9725 13.1935 14.3104 13.7512 13.7527C14.3089 13.195 14.971 12.7526 15.6997 12.4508C16.4284 12.1489 17.2094 11.9936 17.9981 11.9936C19.591 11.9936 21.1186 12.6264 22.245 13.7527C23.3713 14.879 24.0041 16.4067 24.0041 17.9996C24.0041 19.5925 23.3713 21.1201 22.245 22.2465C21.1186 23.3728 19.591 24.0056 17.9981 24.0056V24.0056ZM17.9981 8.74758C15.5443 8.74758 13.191 9.72234 11.4559 11.4574C9.72085 13.1925 8.74609 15.5458 8.74609 17.9996C8.74609 20.4534 9.72085 22.8066 11.4559 24.5417C13.191 26.2768 15.5443 27.2516 17.9981 27.2516C20.4519 27.2516 22.8052 26.2768 24.5402 24.5417C26.2753 22.8066 27.2501 20.4534 27.2501 17.9996C27.2501 15.5458 26.2753 13.1925 24.5402 11.4574C22.8052 9.72234 20.4519 8.74758 17.9981 8.74758V8.74758ZM29.9417 8.57958C29.9417 9.15961 29.7113 9.71588 29.3011 10.126C28.891 10.5362 28.3347 10.7666 27.7547 10.7666C27.1747 10.7666 26.6184 10.5362 26.2082 10.126C25.7981 9.71588 25.5677 9.15961 25.5677 8.57958C25.5677 7.99955 25.7981 7.44328 26.2082 7.03314C26.6184 6.62299 27.1747 6.39258 27.7547 6.39258C28.3347 6.39258 28.891 6.62299 29.3011 7.03314C29.7113 7.44328 29.9417 7.99955 29.9417 8.57958" fill="#121111"/>
</svg>
