<?xml version="1.0" encoding="UTF-8"?><svg id="Layer_2" xmlns="http://www.w3.org/2000/svg" viewBox="0 0 1546.37 293.92"><defs><style>.cls-1{fill:#f9f3b2;stroke-width:3px;}.cls-1,.cls-2{stroke:#0f76ae;stroke-miterlimit:10;}.cls-2{fill:#0f76ae;stroke-width:2px;}</style></defs><g id="Layer_1-2"><path class="cls-1" d="M1544.87,219.43c0,29.17-22.93,49.54-55.77,49.54-5.18,0-9.71-.65-13.48-1.48-2.53.72-5.42,1.22-8.6,1.22-4.35,0-8.54-.94-12.36-2.64-6.18,1.89-12.98,2.9-20.28,2.9-5.17,0-9.7-.65-13.48-1.48-2.53.72-5.41,1.22-8.6,1.22-4.14,0-8.13-.84-11.8-2.38-6.08,1.75-12.79,2.64-20.09,2.64-8.25,0-16.07-1.48-23.15-4.26-3.98,1.72-8.37,2.67-12.98,2.67h-21.76c-3.01,0-5.92-.4-8.69-1.16-2.78.76-5.72,1.16-8.74,1.16h-21.76c-1.48,0-2.94-.11-4.37-.3-1.44.19-2.91.3-4.4.3h-21.76c-3.84,0-7.53-.67-10.96-1.9-6.65,2.26-14.08,3.49-22.1,3.49-5.17,0-9.71-.65-13.48-1.48-2.53.72-5.42,1.22-8.6,1.22s-6.02-.47-8.84-1.33h-13.02c-1.98,0-3.85-.15-5.59-.42-4.79,1.34-9.93,2.01-15.43,2.01-11.3,0-21.62-3.31-29.94-8.96-9.21,5.82-20.11,8.96-31.54,8.96-5.85,0-11.33-.71-16.47-2.14-3.92,1.44-7.58,1.88-10.58,1.88-9.48,0-18.11-4.38-23.82-11.47-5.81,6.36-14.23,10.14-23.49,10.14h-21.77c-1.48,0-2.93-.11-4.37-.3-1.43.19-2.9.3-4.39.3h-13.52c-1.98,0-3.85-.15-5.59-.42-4.79,1.34-9.93,2.01-15.43,2.01-8.03,0-15.56-1.67-22.23-4.66-4.21,1.99-8.93,3.07-13.9,3.07h-21.76c-3.84,0-7.53-.67-10.96-1.9-6.65,2.26-14.08,3.49-22.1,3.49-5.17,0-9.71-.65-13.48-1.48-2.53.72-5.42,1.22-8.6,1.22-4.35,0-8.54-.94-12.36-2.64-6.18,1.89-12.98,2.9-20.28,2.9-5.17,0-9.7-.65-13.48-1.48-2.53.72-5.41,1.22-8.6,1.22-4.14,0-8.13-.84-11.8-2.38-6.07,1.75-12.79,2.64-20.09,2.64-10.59,0-20.47-2.42-29-6.95-8.72,4.55-19.25,6.95-30.69,6.95-10.59,0-20.46-2.42-28.99-6.95-8.72,4.55-19.25,6.95-30.69,6.95-8.25,0-16.06-1.48-23.15-4.26-3.97,1.72-8.36,2.67-12.97,2.67h-13.52c-1.99,0-3.85-.15-5.59-.42-4.79,1.34-9.93,2.01-15.44,2.01-10.41,0-19.99-2.82-27.94-7.68-8.75,4.92-19.46,7.68-31.53,7.68-5.17,0-9.7-.65-13.47-1.48-2.53.72-5.42,1.22-8.61,1.22-13.05,0-24.72-8.33-29.01-20.73-1.25-3.6-1.65-6.85-1.78-9.38l-8.87,24.06c-6.92,18.65-23.32,29.76-43.89,29.76-11.67,0-22.15-3.18-30.31-9.19-5.69-4.19-10.07-9.64-12.94-15.85h-16.85c-3.58,0-7.03-.58-10.26-1.66-6.58,2.16-13.96,3.25-22.06,3.25-13.74,0-26.29-4.06-36.23-11.56-5.96,6.44-14.16,9.97-23.77,9.97h-6.13c-8.2,0-15.38-2.57-21.02-7.32-.31.2-.6.41-.92.6-8.97,5.51-20.11,8.31-33.09,8.31-16.38,0-31.06-5.75-41.67-16.24-5.58,9.04-15.6,14.65-26.88,14.65h-21.77c-4.55,0-8.88-.94-12.81-2.63-6.87,2.73-14.5,4.22-22.68,4.22-33.72,0-58.2-25.15-58.2-59.79s24.48-60,58.2-60c6.14,0,11.96.84,17.4,2.42,2.28-3.86,5.2-7.38,8.71-10.43,4.62-4,10.01-7,16.13-9-1.33-1.53-2.52-3.21-3.54-5.02-2.48-4.4-3.85-9.42-3.99-14.58l-1.05-27.91c-.23-5.67.91-11.1,3.27-15.88-1.54-4.71-2.34-9.74-2.34-14.99,0-13.96,5.84-27.39,16.03-36.87,7.21-6.69,19.99-14.68,39.96-14.68,4.69,0,9.55.64,13.9,1.38,4.4-1.72,8.43-2.12,11.24-2.12,6.98,0,13.5,2.3,18.73,6.35,3.25-1.16,6.7-1.78,10.27-1.78,12.39,0,22.83,7.24,27.64,17.93h11.17c.88,0,1.74.03,2.58.09,5.28-1.81,10.36-2.41,14.75-2.41,6.87,0,13.37,1.54,19.16,4.28,6.58-2.33,13.98-3.54,21.82-3.54,8.64,0,16.35,1.33,23.04,3.84l3.5-5.63.27-.39c6.01-9.01,15.43-14.17,25.86-14.17,13.16,0,24.13,8.17,28.47,19.97.48.18.94.37,1.4.57,7.01-2.74,14.71-4.19,22.78-4.19,11,0,20.79,2.64,28.95,7.45,4.17-2.45,8.76-4.36,13.67-5.63,7.44-10.98,20.22-18.09,35.02-18.09s26.75,7.06,33.68,17.85h3.82c2.96,0,5.82.38,8.53,1.08,2.68-.7,5.48-1.08,8.37-1.08h19.44c4.86,0,9.51,1.09,13.68,3.04,5.04-14.42,18.78-24.8,34.9-24.8,14.51,0,27.09,8.46,33.1,20.71,2.66-.35,5.4-.53,8.2-.53,4.46,0,8.45.51,11.83,1.17,2.52-.73,5.38-1.21,8.58-1.21,8.58,0,17.46,3.8,23.44,11.05l.33-.32c1.76-1.76,2.44-2.68,4.86-6.53l3.7-5.95.26-.39c6.01-9.01,15.44-14.17,25.87-14.17,3.51,0,6.86.6,9.98,1.68,4.55-2.45,9.77-3.82,15.31-3.82h13.52c15.61,0,23.82,9.54,26.63,13.64,1.26,1.84,2.24,3.69,3,5.49,8.03,1.22,15.35,4.16,21.56,8.41,9.28-5.88,20.41-9.05,32.36-9.05,12.67,0,23.72,3.49,32.54,9.77.22-2.88.85-5.76,1.92-8.56,4.59-11.97,16.11-19.7,29.34-19.7h13.52c15.61,0,23.83,9.54,26.63,13.64,1.25,1.82,2.22,3.65,2.98,5.43,6.98.97,13.57,3.16,19.52,6.44,8.26-4.59,18.46-7.02,29.57-7.02,13.57,0,24.87,3.25,33.46,9.31,9.36-6.06,20.65-9.31,32.77-9.31,1.2,0,2.35.03,3.46.09,4.87-11.32,16.05-18.58,28.86-18.58h13.52c14.74,0,22.88,8.49,26.1,12.89,5.74-8,15.15-12.89,25.66-12.89h13.52c15.62,0,23.83,9.54,26.64,13.64,1.24,1.82,2.22,3.65,2.97,5.43,7.94,1.11,15.37,3.77,21.93,7.85,8.83-5.4,19.39-8.43,31.07-8.43,8.16,0,15.78,1.49,22.64,4.22,3.94-1.7,8.29-2.64,12.85-2.64h13.52c2.09,0,4.05.17,5.88.48,4.73-1.37,9.82-2.06,15.25-2.06,11.36,0,21.73,3.34,30.07,9.05,9.28-5.89,20.41-9.05,32.36-9.05,32.85,0,54.93,23.43,54.93,58.31,0,3.72-.59,7.28-1.67,10.57.33,2,.51,4.04.51,6.12,0,15.12-7.54,28.41-20.68,36.48-8.98,5.51-20.11,8.31-33.09,8.31-8.25,0-16.06-1.47-23.15-4.26-3.98,1.72-8.37,2.67-12.98,2.67h-21.76c-3.01,0-5.92-.4-8.69-1.16-2.78.76-5.72,1.16-8.74,1.16h-21.76c-4.55,0-8.89-.94-12.82-2.63-.2.08-.41.16-.62.24,3.91,3.45,7.08,7.72,9.26,12.53h.11c2.09,0,4.05.17,5.88.48,4.73-1.37,9.82-2.06,15.25-2.06,11.36,0,21.72,3.34,30.07,9.05,9.28-5.89,20.41-9.05,32.36-9.05,10.02,0,19.04,2.19,26.74,6.22,7.71-3.97,16.8-6.22,26.7-6.22,4.45,0,8.45.51,11.83,1.17,2.52-.73,5.38-1.21,8.57-1.21,4.77,0,9.64,1.18,14.04,3.46,6.18-2.21,13.01-3.42,20.28-3.42,4.45,0,8.45.51,11.82,1.17,2.52-.73,5.39-1.21,8.58-1.21,14.84,0,30.62,11.34,30.62,32.36v16.91c3.46,6.26,5.28,13.4,5.28,21.02Z"/><path class="cls-2" d="M176.16,33.19v25.04c0,1.48-1.16,1.48-1.37.63l-3.17-6.97c-3.59-7.82-9.82-12.99-20.92-12.99-8.98,0-15.63,4.86-15.63,11.73s5.18,10.56,16.48,13.31l10.78,2.64c13.31,3.27,21.13,9.61,21.13,20.49,0,15.21-12.57,25.14-29.47,25.14-12.25,0-21.23-3.38-23.56-3.38-1.27,0-2.54.85-4.12,2.85-1.06,1.27-1.9,1.37-1.9,0l-1.06-28.2c-.11-2.32,1.06-2.01,1.48-.85l2.54,6.76c3.7,9.93,12.57,16.37,24.72,16.37s20.71-6.76,20.71-16.06c0-7.71-4.44-10.56-16.06-13.52l-10.88-2.75c-12.36-3.17-21.55-7.82-21.55-19.65,0-10.99,8.56-21.55,25.99-21.55,6.66,0,17.43,2.85,19.65,2.85,3.59,0,4.01-3.59,5.49-3.59.53,0,.74.32.74,1.69Z"/><path class="cls-2" d="M203.52,36.89c.85-1.27,1.37-1.06,1.37.53v16.58h16.16c1.69,0,1.8.11.74,1.8l-1.8,2.96c-.84,1.37-1.27,1.58-3.7,1.58h-11.41v34.33c0,8.35,3.06,10.67,8.34,10.67,10.04,0,10.99-10.77,12.15-10.77.84,0,.95.74.95,2.43,0,7.92-4.75,15.21-15.42,15.21-11.3,0-15.95-4.65-15.95-15.21v-36.66h-7.61c-1.8,0-1.9-.53-.74-1.69l4.33-4.33c4.12-4.12,6.23-7.29,9.08-11.83l3.49-5.6Z"/><path class="cls-2" d="M247.46,104.71l4.75,4.12c1.06.95,1.06,1.8-.74,1.8h-21.76c-1.69,0-1.58-.95-.63-1.8l4.75-4.12c2.01-1.69,1.9-2.22,1.9-5.6v-33.59c0-3.38.11-3.91-1.9-5.6l-4.75-4.12c-1.06-.95-1.06-1.8.63-1.8h13.52c1.9,0,2.32.42,2.32,3.8v3.8c4.23-6.76,8.56-9.93,15-9.93,7.39,0,13.42,5.49,13.42,11.62s-4.86,9.93-8.77,9.93c-.84,0-3.8-.32-3.8-.95,0-.53,3.59-2.01,3.59-6.23,0-3.49-3.49-6.97-7.29-6.97-7.39,0-12.15,6.34-12.15,23.13v16.9c0,3.38-.11,3.8,1.9,5.6Z"/><path class="cls-2" d="M326.26,111.89c-8.24,0-10.14-2.64-11.62-6.66-6.13,5.39-12.04,6.97-17.32,6.97-11.62,0-20.07-5.6-20.07-16.16s7.82-15.21,20.39-17.43l4.86-.85c7.29-1.27,10.88-4.65,10.88-9.4,0-5.28-5.18-9.19-11.83-9.19-6.13,0-11.62,2.64-11.62,7.39,0,4.33,3.49,4.44,3.27,5.7-.21.53-1.48,1.16-3.8,1.16-5.28,0-8.98-2.85-8.98-8.66,0-7.61,8.87-12.36,21.13-12.36,17.96,0,22.29,7.18,22.29,20.49v25.67c0,4.23,2.11,6.34,5.39,6.34s5.28-3.91,6.34-3.38c.85.42-.11,10.35-9.3,10.35ZM301.01,84.85c-7.82,1.37-12.68,5.92-12.68,11.3,0,5.81,4.23,9.61,10.88,9.61,8.98,0,14.79-7.61,14.79-18.7v-6.02c-1.8,1.16-4.23,2.32-8.13,2.96l-4.86.85Z"/><path class="cls-2" d="M353.3,36.89c.85-1.27,1.37-1.06,1.37.53v16.58h16.16c1.69,0,1.8.11.74,1.8l-1.8,2.96c-.84,1.37-1.27,1.58-3.7,1.58h-11.41v34.33c0,8.35,3.06,10.67,8.34,10.67,10.04,0,10.99-10.77,12.15-10.77.84,0,.95.74.95,2.43,0,7.92-4.75,15.21-15.42,15.21-11.3,0-15.95-4.65-15.95-15.21v-36.66h-7.61c-1.8,0-1.9-.53-.74-1.69l4.33-4.33c4.12-4.12,6.23-7.29,9.08-11.83l3.49-5.6Z"/><path class="cls-2" d="M389.11,82.95c0,14.16,7.29,22.29,18.91,22.29,8.13,0,13.52-4.96,13.52-9.61,0-2.85-3.06-3.91-2.54-4.86.42-.84,1.8-1.06,4.54-1.06,3.27,0,7.08,3.49,7.08,7.71,0,9.4-9.08,14.79-23.77,14.79-18.8,0-28.63-12.57-28.63-29.37,0-19.54,11.73-30.42,28.63-30.42,17.96,0,24.93,12.15,24.93,28.31,0,1.27-.32,2.22-1.48,2.22h-41.2ZM389.64,76.61h32.01c-.11-10.88-7.08-17.22-14.58-17.22-9.82,0-16.16,7.61-17.43,17.22Z"/><path class="cls-2" d="M488.3,47.45c0-2.22-2.11-4.54-5.07-4.54-2.75,0-5.49,2.85-5.49,6.02,0,2.11,1.06,4.44,2.75,7.08,4.12,6.66,6.44,12.78,6.44,17.22,0,11.09-9.19,20.6-23.13,20.6-9.72,0-10.77-3.17-13.52-3.17-1.16,0-3.17,1.16-3.17,4.12,0,4.54,4.54,7.08,16.48,7.08h8.24c13.52,0,22.08,5.81,22.08,14.68,0,12.47-11.83,19.44-30.74,19.44-17.01,0-28.1-4.96-28.1-14.79,0-4.65,3.91-8.13,8.45-8.13,1.8,0,7.08.63,6.76,2.75-.21.95-6.13.74-6.13,4.54,0,4.33,4.86,8.56,21.02,8.56,15.11,0,19.01-5.7,19.01-10.46,0-6.23-7.39-7.71-17.11-7.71h-6.23c-12.57,0-22.92-4.33-22.92-13.2,0-4.01,1.06-7.08,7.82-10.99-2.85-4.44-4.33-8.98-4.33-13.42,0-12.36,9.19-20.7,22.71-20.7,3.49,0,6.87.63,9.82,1.48-.84-2.32-1.37-4.65-1.37-6.87,0-6.55,5.18-10.88,11.94-10.88,5.7,0,9.61,3.38,9.61,8.24,0,6.55-6.34,9.51-7.5,8.56-.95-.84,1.69-2.01,1.69-5.49ZM450.69,73.12c0,7.5,5.7,13.73,13.21,13.73s13.31-6.23,13.31-13.73-5.7-13.84-13.31-13.84-13.21,6.23-13.21,13.84Z"/><path class="cls-2" d="M512.59,135.66c-10.56,0-17.11-4.65-17.11-12.78,0-6.02,4.33-10.25,9.93-10.25,2.64,0,5.81.84,5.49,2.75-.11.95-6.34,1.16-6.34,6.76,0,3.8,3.17,6.02,8.24,6.02,4.23,0,7.82-2.64,9.19-5.92l3.7-9.19-19.12-50.07c-.53-1.37-2.01-3.06-5.07-5.28l-2.64-1.9c-1.27-.95-.84-1.8.74-1.8h22.39c1.8,0,2.01.84.74,1.8l-3.06,2.32c-3.06,2.32-3.59,3.38-2.43,6.55l13.42,36.23,13.1-36.23c.95-2.64.53-4.12-2.43-6.34l-3.28-2.43c-1.16-.85-.95-1.9.85-1.9h19.44c1.58,0,2.01.84.74,1.8l-2.64,1.9c-3.49,2.54-4.54,4.01-5.39,6.23l-22.71,61.59c-2.43,6.55-7.71,10.14-15.74,10.14Z"/><path class="cls-2" d="M602.59,65.52c0-3.38.11-3.91-1.9-5.6l-4.75-4.12c-1.06-.95-1.06-1.8.63-1.8h13.52c1.9,0,2.32.42,2.32,3.8v41.3c0,3.38-.11,3.91,1.9,5.6l4.75,4.12c1.06.95,1.06,1.8-.74,1.8h-21.76c-1.69,0-1.58-.95-.63-1.8l4.75-4.12c2.01-1.69,1.9-2.22,1.9-5.6v-33.59ZM613.79,39.21c0,3.7-3.17,6.65-6.87,6.65s-6.97-2.96-6.97-6.65,3.17-6.97,6.97-6.97,6.87,3.17,6.87,6.97Z"/><path class="cls-2" d="M669.25,71.01c0,1.37-1.06,1.27-1.48.53l-1.9-3.17c-3.91-6.44-9.72-9.3-15.74-9.3-8.03,0-13.42,2.96-13.42,8.03,0,3.91,2.96,6.55,12.89,8.56l5.28,1.06c13.73,2.75,19.65,7.39,19.65,15.95,0,12.78-10.35,19.54-25.78,19.54-8.87,0-14.05-3.59-16.37-3.59-.53,0-1.58,1.06-3.06,2.01-2.85,1.9-3.49,1.9-3.49-.95v-21.02c0-1.37,1.27-1.37,2.01.21l2.85,5.81c3.59,7.29,10.14,10.56,18.49,10.56,9.19,0,15.21-3.7,15.21-9.93,0-4.86-2.75-7.39-13.84-9.72l-5.07-1.06c-14.16-2.96-19.12-7.92-19.12-15.74,0-9.93,9.3-16.37,21.87-16.37,7.29,0,12.99,2.85,15,2.85.95,0,1.58-.53,2.96-1.48,2.85-2.11,3.06-1.9,3.06.95v16.27Z"/><path class="cls-2" d="M726.18,36.89c.85-1.27,1.37-1.06,1.37.53v16.58h16.16c1.69,0,1.8.11.74,1.8l-1.8,2.96c-.84,1.37-1.27,1.58-3.7,1.58h-11.41v34.33c0,8.35,3.06,10.67,8.34,10.67,10.04,0,10.99-10.77,12.15-10.77.84,0,.95.74.95,2.43,0,7.92-4.75,15.21-15.42,15.21-11.3,0-15.95-4.65-15.95-15.21v-36.66h-7.61c-1.8,0-1.9-.53-.74-1.69l4.33-4.33c4.12-4.12,6.23-7.29,9.08-11.83l3.49-5.6Z"/><path class="cls-2" d="M770.12,104.71l4.75,4.12c1.06.95,1.06,1.8-.74,1.8h-21.76c-1.69,0-1.58-.95-.63-1.8l4.75-4.12c2.01-1.69,1.9-2.22,1.9-5.6v-53.77c0-3.38.11-3.8-1.9-5.49l-4.75-4.23c-1.06-.95-1.06-1.69.63-1.69h13.52c1.9,0,2.32.32,2.32,3.7v26.09c4.96-8.35,10.46-11.3,18.8-11.3,11.3,0,20.39,6.87,20.39,17.01v29.68c0,3.38-.11,3.91,1.9,5.6l4.75,4.12c1.06.95,1.06,1.8-.74,1.8h-21.76c-1.69,0-1.58-.95-.63-1.8l4.75-4.12c2.01-1.69,1.9-2.22,1.9-5.6v-25.99c0-8.13-5.6-12.57-12.89-12.57-12.57,0-16.48,8.98-16.48,18.91v19.65c0,3.38-.11,3.8,1.9,5.6Z"/><path class="cls-2" d="M831.71,82.95c0,14.16,7.29,22.29,18.91,22.29,8.13,0,13.52-4.96,13.52-9.61,0-2.85-3.06-3.91-2.54-4.86.42-.84,1.8-1.06,4.54-1.06,3.27,0,7.08,3.49,7.08,7.71,0,9.4-9.08,14.79-23.77,14.79-18.8,0-28.63-12.57-28.63-29.37,0-19.54,11.73-30.42,28.63-30.42,17.96,0,24.93,12.15,24.93,28.31,0,1.27-.32,2.22-1.48,2.22h-41.2ZM832.23,76.61h32.01c-.11-10.88-7.08-17.22-14.58-17.22-9.82,0-16.16,7.61-17.43,17.22Z"/><path class="cls-2" d="M947.9,52.42c15.42,0,27.25,10.67,27.25,30.95s-13.73,28.84-27.78,28.84c-8.66,0-14.37-2.64-19.65-7.92l-5.28,6.02c-2.32,2.64-3.17,2.32-3.17-2.64v-62.33c0-3.38.11-3.8-1.9-5.49l-4.75-4.23c-1.06-.95-1.06-1.69.63-1.69h13.52c1.9,0,2.32.32,2.32,3.7v22.71c4.75-5.07,10.67-7.92,18.8-7.92ZM964.27,82.21c0-14.26-7.5-22.82-17.32-22.82s-17.32,8.45-17.32,22.82,7.5,23.03,17.32,23.03,17.32-8.56,17.32-23.03Z"/><path class="cls-2" d="M1030.19,111.89c-8.24,0-10.14-2.64-11.62-6.66-6.13,5.39-12.04,6.97-17.32,6.97-11.62,0-20.07-5.6-20.07-16.16s7.82-15.21,20.39-17.43l4.86-.85c7.29-1.27,10.88-4.65,10.88-9.4,0-5.28-5.18-9.19-11.83-9.19-6.13,0-11.62,2.64-11.62,7.39,0,4.33,3.49,4.44,3.27,5.7-.21.53-1.48,1.16-3.8,1.16-5.28,0-8.98-2.85-8.98-8.66,0-7.61,8.87-12.36,21.13-12.36,17.96,0,22.29,7.18,22.29,20.49v25.67c0,4.23,2.11,6.34,5.39,6.34s5.28-3.91,6.34-3.38c.85.42-.11,10.35-9.3,10.35ZM1004.94,84.85c-7.82,1.37-12.68,5.92-12.68,11.3,0,5.81,4.23,9.61,10.88,9.61,8.98,0,14.79-7.61,14.79-18.7v-6.02c-1.8,1.16-4.23,2.32-8.13,2.96l-4.86.85Z"/><path class="cls-2" d="M1093.04,54.11v19.54c0,1.27-1.27,1.16-1.69.53l-1.69-3.27c-4.75-9.3-9.3-11.51-17.75-11.51-9.82,0-17.96,7.92-17.96,23.56,0,13.31,7.29,22.29,18.91,22.29,8.13,0,14.89-4.12,14.89-10.46,0-2.75-3.06-3.91-2.54-4.86.42-.74,3.38-1.06,4.54-1.06,4.23,0,7.08,2.96,7.08,7.71,0,9.51-10.46,15.63-25.14,15.63-18.8,0-28.63-12.57-28.63-29.37,0-19.54,11.73-30.42,28.63-30.42,9.3,0,12.04,3.06,15,3.06.74,0,2.11-1.06,3.49-2.11,2.54-2.01,2.85-1.9,2.85.74Z"/><path class="cls-2" d="M1110.04,45.34c0-3.38.11-3.8-1.9-5.49l-4.75-4.23c-1.06-.95-1.06-1.69.63-1.69h13.52c1.9,0,2.32.32,2.32,3.7v61.48c0,3.38-.11,3.91,1.9,5.6l4.75,4.12c1.06.95,1.06,1.8-.74,1.8h-21.76c-1.69,0-1.58-.95-.63-1.8l4.75-4.12c2.01-1.69,1.9-2.22,1.9-5.6v-53.77ZM1138.67,58.44l-4.86-2.64c-1.06-.53-1.06-1.8.63-1.8h26.09c1.58,0,2.01,1.16.63,1.8l-5.49,2.64c-1.06.63-13.94,10.14-15.63,11.62l-5.49,4.75,10.56,15.63c7.61,11.3,18.28,22.08,26.73,25.99,3.27,1.48,5.28.95,5.18,2.01-.11.53-3.49.85-5.28.85-10.35,0-21.23-7.82-30.42-19.23l-17.64-21.97c-.84-1.06-.84-1.37.42-2.43l11.62-9.93c4.86-4.23,4.96-6.23,2.96-7.29Z"/><path class="cls-2" d="M1203.95,52.42c15.42,0,27.25,10.67,27.25,30.95s-13.73,28.84-27.78,28.84c-8.66,0-14.37-2.64-19.65-7.92l-5.28,6.02c-2.32,2.64-3.17,2.32-3.17-2.64v-62.33c0-3.38.11-3.8-1.9-5.49l-4.75-4.23c-1.06-.95-1.06-1.69.63-1.69h13.52c1.9,0,2.32.32,2.32,3.7v22.71c4.75-5.07,10.67-7.92,18.8-7.92ZM1220.33,82.21c0-14.26-7.5-22.82-17.32-22.82s-17.32,8.45-17.32,22.82,7.5,23.03,17.32,23.03,17.32-8.56,17.32-23.03Z"/><path class="cls-2" d="M1293.64,82.42c0,18.49-11.2,29.79-28.21,29.79s-28.21-11.2-28.21-29.79,11.2-30,28.21-30,28.21,11.51,28.21,30ZM1248.11,82.42c0,14.47,7.5,22.82,17.32,22.82s17.32-8.56,17.32-22.82-7.5-23.03-17.32-23.03-17.32,8.56-17.32,23.03Z"/><path class="cls-2" d="M1318.67,104.71l4.75,4.12c1.06.95,1.06,1.8-.74,1.8h-21.76c-1.69,0-1.58-.95-.63-1.8l4.75-4.12c2.01-1.69,1.9-2.22,1.9-5.6v-33.59c0-3.38.11-3.91-1.9-5.6l-4.75-4.12c-1.06-.95-1.06-1.8.63-1.8h13.52c1.9,0,2.32.42,2.32,3.8v5.92c4.96-8.35,10.46-11.3,18.8-11.3,11.3,0,20.39,6.87,20.39,17.01v29.68c0,3.38-.11,3.91,1.9,5.6l4.75,4.12c1.06.95,1.06,1.8-.74,1.8h-21.76c-1.69,0-1.58-.95-.63-1.8l4.75-4.12c2.01-1.69,1.9-2.22,1.9-5.6v-25.99c0-8.13-5.6-12.57-12.89-12.57-12.57,0-16.48,8.98-16.48,18.91v19.65c0,3.38-.11,3.8,1.9,5.6Z"/><path class="cls-2" d="M1380.25,82.95c0,14.16,7.29,22.29,18.91,22.29,8.13,0,13.52-4.96,13.52-9.61,0-2.85-3.06-3.91-2.54-4.86.42-.84,1.8-1.06,4.54-1.06,3.27,0,7.08,3.49,7.08,7.71,0,9.4-9.08,14.79-23.77,14.79-18.8,0-28.63-12.57-28.63-29.37,0-19.54,11.73-30.42,28.63-30.42,17.96,0,24.93,12.15,24.93,28.31,0,1.27-.32,2.22-1.48,2.22h-41.2ZM1380.78,76.61h32.01c-.11-10.88-7.08-17.22-14.58-17.22-9.82,0-16.16,7.61-17.43,17.22Z"/><path class="cls-2" d="M87.91,209.18c0,18.49-11.2,29.79-28.21,29.79s-28.21-11.2-28.21-29.79,11.2-30,28.21-30,28.21,11.51,28.21,30ZM42.38,209.18c0,14.47,7.5,22.82,17.32,22.82s17.32-8.56,17.32-22.82-7.5-23.03-17.32-23.03-17.32,8.56-17.32,23.03Z"/><path class="cls-2" d="M111.04,225.87c0,3.38-.11,3.8,1.9,5.6l4.75,4.12c1.06.95,1.06,1.8-.74,1.8h-21.76c-1.69,0-1.58-.95-.63-1.8l4.75-4.12c2.01-1.69,1.9-2.22,1.9-5.6v-38.77h-8.98c-1.58,0-1.58-.21-.63-1.69l1.79-2.96c.85-1.37,1.16-1.69,3.59-1.69h4.23v-7.29c0-6.66,4.33-14.26,20.92-14.26,9.08,0,15.21,3.49,15.21,9.19,0,6.02-6.66,7.82-8.24,6.65-.95-.63.32-2.11.32-4.23,0-2.85-2.85-5.6-8.77-5.6-4.96,0-9.61,2.75-9.61,9.08v6.44h13.52c1.58,0,1.58.11.63,1.8l-1.69,2.96c-.84,1.37-1.27,1.58-3.7,1.58h-8.77v38.77Z"/><path class="cls-2" d="M167.76,209.71c0,14.16,7.29,22.29,18.91,22.29,8.13,0,13.52-4.96,13.52-9.61,0-2.85-3.06-3.91-2.54-4.86.42-.84,1.8-1.06,4.54-1.06,3.27,0,7.08,3.49,7.08,7.71,0,9.4-9.08,14.79-23.77,14.79-18.8,0-28.63-12.57-28.63-29.37,0-19.54,11.73-30.42,28.63-30.42,17.96,0,24.93,12.15,24.93,28.31,0,1.27-.32,2.22-1.48,2.22h-41.2ZM168.29,203.37h32.01c-.11-10.88-7.08-17.22-14.58-17.22-9.82,0-16.16,7.61-17.43,17.22Z"/><path class="cls-2" d="M258.5,191.43c1.48-3.91,1.27-4.86-.11-6.23l-2.54-2.64c-1.06-1.06-1.06-1.8.63-1.8h16.06c1.69,0,2.11.84.74,1.8l-2.64,1.9c-1.58,1.16-2.85,3.17-4.01,6.23l-17.11,44.37c-.84,2.22-1.16,2.32-2.85,2.32h-6.13c-1.69,0-2.01-.11-2.85-2.32l-16.27-45.32c-.84-2.32-1.9-4.01-3.59-5.28l-2.54-1.9c-1.37-.95-.95-1.8.74-1.8h18.06c1.8,0,1.69.63.63,1.8l-2.54,2.64c-1.37,1.37-1.48,2.22-.11,6.23l12.36,36.23,14.05-36.23Z"/><path class="cls-2" d="M288.92,209.71c0,14.16,7.29,22.29,18.91,22.29,8.13,0,13.52-4.96,13.52-9.61,0-2.85-3.06-3.91-2.54-4.86.42-.84,1.8-1.06,4.54-1.06,3.27,0,7.08,3.49,7.08,7.71,0,9.4-9.08,14.79-23.77,14.79-18.8,0-28.63-12.57-28.63-29.37,0-19.54,11.73-30.42,28.63-30.42,17.96,0,24.93,12.15,24.93,28.31,0,1.27-.32,2.22-1.48,2.22h-41.2ZM289.45,203.37h32.01c-.11-10.88-7.08-17.22-14.58-17.22-9.82,0-16.16,7.61-17.43,17.22Z"/><path class="cls-2" d="M356.74,231.47l4.75,4.12c1.06.95,1.06,1.8-.74,1.8h-21.76c-1.69,0-1.58-.95-.63-1.8l4.75-4.12c2.01-1.69,1.9-2.22,1.9-5.6v-33.59c0-3.38.11-3.91-1.9-5.6l-4.75-4.12c-1.06-.95-1.06-1.8.63-1.8h13.52c1.9,0,2.32.42,2.32,3.8v3.8c4.23-6.76,8.56-9.93,15-9.93,7.39,0,13.42,5.49,13.42,11.62s-4.86,9.93-8.77,9.93c-.84,0-3.8-.32-3.8-.95,0-.53,3.59-2.01,3.59-6.23,0-3.49-3.49-6.97-7.29-6.97-7.39,0-12.15,6.34-12.15,23.13v16.9c0,3.38-.11,3.8,1.9,5.6Z"/><path class="cls-2" d="M399.09,262.42c-10.56,0-17.11-4.65-17.11-12.78,0-6.02,4.33-10.25,9.93-10.25,2.64,0,5.81.84,5.49,2.75-.11.95-6.34,1.16-6.34,6.76,0,3.8,3.17,6.02,8.24,6.02,4.23,0,7.82-2.64,9.19-5.92l3.7-9.19-19.12-50.07c-.53-1.37-2.01-3.06-5.07-5.28l-2.64-1.9c-1.27-.95-.84-1.8.74-1.8h22.39c1.8,0,2.01.84.74,1.8l-3.06,2.32c-3.06,2.32-3.59,3.38-2.43,6.55l13.42,36.23,13.1-36.23c.95-2.64.53-4.12-2.43-6.34l-3.28-2.43c-1.16-.85-.95-1.9.85-1.9h19.44c1.58,0,2.01.84.74,1.8l-2.64,1.9c-3.49,2.54-4.54,4.01-5.39,6.23l-22.71,61.59c-2.43,6.55-7.71,10.14-15.74,10.14Z"/><path class="cls-2" d="M525.22,197.77c0,1.37-1.06,1.27-1.48.53l-1.9-3.17c-3.91-6.44-9.72-9.3-15.74-9.3-8.03,0-13.42,2.96-13.42,8.03,0,3.91,2.96,6.55,12.89,8.56l5.28,1.06c13.73,2.75,19.65,7.39,19.65,15.95,0,12.78-10.35,19.54-25.78,19.54-8.87,0-14.05-3.59-16.37-3.59-.53,0-1.58,1.06-3.06,2.01-2.85,1.9-3.49,1.9-3.49-.95v-21.02c0-1.37,1.27-1.37,2.01.21l2.85,5.81c3.59,7.29,10.14,10.56,18.49,10.56,9.19,0,15.21-3.7,15.21-9.93,0-4.86-2.75-7.39-13.84-9.72l-5.07-1.06c-14.16-2.96-19.12-7.92-19.12-15.74,0-9.93,9.3-16.37,21.87-16.37,7.29,0,12.99,2.85,15,2.85.95,0,1.58-.53,2.96-1.48,2.85-2.11,3.06-1.9,3.06.95v16.27Z"/><path class="cls-2" d="M594.72,231.47l4.75,4.12c1.06.95,1.06,1.8-.74,1.8h-13.52c-1.9,0-2.22-.42-2.22-3.8v-4.86c-4.86,7.71-10.46,10.25-18.8,10.25-11.41,0-20.39-6.87-20.39-17.01v-29.68c0-3.38.11-3.91-1.9-5.6l-4.75-4.12c-1.06-.95-1.06-1.8.63-1.8h13.52c1.9,0,2.32.42,2.32,3.8v33.8c0,8.03,5.6,12.57,12.89,12.57,12.57,0,16.48-9.08,16.48-18.91v-19.75c0-3.38.11-3.91-1.9-5.6l-4.75-4.12c-1.06-.95-1.06-1.8.63-1.8h13.52c1.9,0,2.32.42,2.32,3.8v41.3c0,3.38-.11,3.8,1.9,5.6Z"/><path class="cls-2" d="M656.2,180.87v19.54c0,1.27-1.27,1.16-1.69.53l-1.69-3.27c-4.75-9.3-9.3-11.51-17.75-11.51-9.82,0-17.96,7.92-17.96,23.56,0,13.31,7.29,22.29,18.91,22.29,8.13,0,14.89-4.12,14.89-10.46,0-2.75-3.06-3.91-2.54-4.86.42-.74,3.38-1.06,4.54-1.06,4.23,0,7.08,2.96,7.08,7.71,0,9.51-10.46,15.63-25.14,15.63-18.8,0-28.63-12.57-28.63-29.37,0-19.54,11.73-30.42,28.63-30.42,9.3,0,12.04,3.06,15,3.06.74,0,2.11-1.06,3.49-2.11,2.54-2.01,2.85-1.9,2.85.74Z"/><path class="cls-2" d="M715.88,180.87v19.54c0,1.27-1.27,1.16-1.69.53l-1.69-3.27c-4.75-9.3-9.3-11.51-17.75-11.51-9.82,0-17.96,7.92-17.96,23.56,0,13.31,7.29,22.29,18.91,22.29,8.13,0,14.89-4.12,14.89-10.46,0-2.75-3.06-3.91-2.54-4.86.42-.74,3.38-1.06,4.54-1.06,4.23,0,7.08,2.96,7.08,7.71,0,9.51-10.46,15.63-25.14,15.63-18.8,0-28.63-12.57-28.63-29.37,0-19.54,11.73-30.42,28.63-30.42,9.3,0,12.04,3.06,15,3.06.74,0,2.11-1.06,3.49-2.11,2.54-2.01,2.85-1.9,2.85.74Z"/><path class="cls-2" d="M736.48,209.71c0,14.16,7.29,22.29,18.91,22.29,8.13,0,13.52-4.96,13.52-9.61,0-2.85-3.06-3.91-2.54-4.86.42-.84,1.8-1.06,4.54-1.06,3.27,0,7.08,3.49,7.08,7.71,0,9.4-9.08,14.79-23.77,14.79-18.8,0-28.63-12.57-28.63-29.37,0-19.54,11.73-30.42,28.63-30.42,17.96,0,24.93,12.15,24.93,28.31,0,1.27-.32,2.22-1.48,2.22h-41.2ZM737.01,203.37h32.01c-.11-10.88-7.08-17.22-14.58-17.22-9.82,0-16.16,7.61-17.43,17.22Z"/><path class="cls-2" d="M828.7,197.77c0,1.37-1.06,1.27-1.48.53l-1.9-3.17c-3.91-6.44-9.72-9.3-15.74-9.3-8.03,0-13.42,2.96-13.42,8.03,0,3.91,2.96,6.55,12.89,8.56l5.28,1.06c13.73,2.75,19.65,7.39,19.65,15.95,0,12.78-10.35,19.54-25.78,19.54-8.87,0-14.05-3.59-16.37-3.59-.53,0-1.58,1.06-3.06,2.01-2.85,1.9-3.49,1.9-3.49-.95v-21.02c0-1.37,1.27-1.37,2.01.21l2.85,5.81c3.59,7.29,10.14,10.56,18.49,10.56,9.19,0,15.21-3.7,15.21-9.93,0-4.86-2.75-7.39-13.84-9.72l-5.07-1.06c-14.16-2.96-19.12-7.92-19.12-15.74,0-9.93,9.3-16.37,21.87-16.37,7.29,0,12.99,2.85,15,2.85.95,0,1.58-.53,2.96-1.48,2.85-2.11,3.06-1.9,3.06.95v16.27Z"/><path class="cls-2" d="M883.41,197.77c0,1.37-1.06,1.27-1.48.53l-1.9-3.17c-3.91-6.44-9.72-9.3-15.74-9.3-8.03,0-13.42,2.96-13.42,8.03,0,3.91,2.96,6.55,12.89,8.56l5.28,1.06c13.73,2.75,19.65,7.39,19.65,15.95,0,12.78-10.35,19.54-25.78,19.54-8.87,0-14.05-3.59-16.37-3.59-.53,0-1.58,1.06-3.06,2.01-2.85,1.9-3.49,1.9-3.49-.95v-21.02c0-1.37,1.27-1.37,2.01.21l2.85,5.81c3.59,7.29,10.14,10.56,18.49,10.56,9.19,0,15.21-3.7,15.21-9.93,0-4.86-2.75-7.39-13.84-9.72l-5.07-1.06c-14.16-2.96-19.12-7.92-19.12-15.74,0-9.93,9.3-16.37,21.87-16.37,7.29,0,12.99,2.85,15,2.85.95,0,1.58-.53,2.96-1.48,2.85-2.11,3.06-1.9,3.06.95v16.27Z"/><path class="cls-2" d="M911.83,225.87c0,3.38-.11,3.8,1.9,5.6l4.75,4.12c1.06.95,1.06,1.8-.74,1.8h-21.76c-1.69,0-1.58-.95-.63-1.8l4.75-4.12c2.01-1.69,1.9-2.22,1.9-5.6v-38.77h-8.98c-1.58,0-1.58-.21-.63-1.69l1.79-2.96c.85-1.37,1.16-1.69,3.59-1.69h4.23v-7.29c0-6.66,4.33-14.26,20.92-14.26,9.08,0,15.21,3.49,15.21,9.19,0,6.02-6.66,7.82-8.24,6.65-.95-.63.32-2.11.32-4.23,0-2.85-2.85-5.6-8.77-5.6-4.96,0-9.61,2.75-9.61,9.08v6.44h13.52c1.58,0,1.58.11.63,1.8l-1.69,2.96c-.84,1.37-1.27,1.58-3.7,1.58h-8.77v38.77Z"/><path class="cls-2" d="M984.4,231.47l4.75,4.12c1.06.95,1.06,1.8-.74,1.8h-13.52c-1.9,0-2.22-.42-2.22-3.8v-4.86c-4.86,7.71-10.46,10.25-18.8,10.25-11.41,0-20.39-6.87-20.39-17.01v-29.68c0-3.38.11-3.91-1.9-5.6l-4.75-4.12c-1.06-.95-1.06-1.8.63-1.8h13.52c1.9,0,2.32.42,2.32,3.8v33.8c0,8.03,5.6,12.57,12.89,12.57,12.57,0,16.48-9.08,16.48-18.91v-19.75c0-3.38.11-3.91-1.9-5.6l-4.75-4.12c-1.06-.95-1.06-1.8.63-1.8h13.52c1.9,0,2.32.42,2.32,3.8v41.3c0,3.38-.11,3.8,1.9,5.6Z"/><path class="cls-2" d="M1003.2,172.1c0-3.38.11-3.8-1.9-5.49l-4.75-4.23c-1.06-.95-1.06-1.69.63-1.69h13.52c1.9,0,2.32.32,2.32,3.7v61.48c0,3.38-.11,3.91,1.9,5.6l4.75,4.12c1.06.95,1.06,1.8-.74,1.8h-21.76c-1.69,0-1.58-.95-.63-1.8l4.75-4.12c2.01-1.69,1.9-2.22,1.9-5.6v-53.77Z"/><path class="cls-2" d="M1093.83,179.18c15.42,0,27.25,10.67,27.25,30.95s-13.73,28.84-27.78,28.84c-8.66,0-14.37-2.64-19.65-7.92l-5.28,6.02c-2.32,2.64-3.17,2.32-3.17-2.64v-62.33c0-3.38.11-3.8-1.9-5.49l-4.75-4.23c-1.06-.95-1.06-1.69.63-1.69h13.52c1.9,0,2.32.32,2.32,3.7v22.71c4.75-5.07,10.67-7.92,18.8-7.92ZM1110.2,208.97c0-14.26-7.5-22.82-17.32-22.82s-17.32,8.45-17.32,22.82,7.5,23.03,17.32,23.03,17.32-8.56,17.32-23.03Z"/><path class="cls-2" d="M1185.31,231.47l4.75,4.12c1.06.95,1.06,1.8-.74,1.8h-13.52c-1.9,0-2.22-.42-2.22-3.8v-4.86c-4.86,7.71-10.46,10.25-18.8,10.25-11.41,0-20.39-6.87-20.39-17.01v-29.68c0-3.38.11-3.91-1.9-5.6l-4.75-4.12c-1.06-.95-1.06-1.8.63-1.8h13.52c1.9,0,2.32.42,2.32,3.8v33.8c0,8.03,5.6,12.57,12.89,12.57,12.57,0,16.48-9.08,16.48-18.91v-19.75c0-3.38.11-3.91-1.9-5.6l-4.75-4.12c-1.06-.95-1.06-1.8.63-1.8h13.52c1.9,0,2.32.42,2.32,3.8v41.3c0,3.38-.11,3.8,1.9,5.6Z"/><path class="cls-2" d="M1240.23,197.77c0,1.37-1.06,1.27-1.48.53l-1.9-3.17c-3.91-6.44-9.72-9.3-15.74-9.3-8.03,0-13.42,2.96-13.42,8.03,0,3.91,2.96,6.55,12.89,8.56l5.28,1.06c13.73,2.75,19.65,7.39,19.65,15.95,0,12.78-10.35,19.54-25.78,19.54-8.87,0-14.05-3.59-16.37-3.59-.53,0-1.58,1.06-3.06,2.01-2.85,1.9-3.49,1.9-3.49-.95v-21.02c0-1.37,1.27-1.37,2.01.21l2.85,5.81c3.59,7.29,10.14,10.56,18.49,10.56,9.19,0,15.21-3.7,15.21-9.93,0-4.86-2.75-7.39-13.84-9.72l-5.07-1.06c-14.16-2.96-19.12-7.92-19.12-15.74,0-9.93,9.3-16.37,21.87-16.37,7.29,0,12.99,2.85,15,2.85.95,0,1.58-.53,2.96-1.48,2.85-2.11,3.06-1.9,3.06.95v16.27Z"/><path class="cls-2" d="M1258.82,192.28c0-3.38.11-3.91-1.9-5.6l-4.75-4.12c-1.06-.95-1.06-1.8.63-1.8h13.52c1.9,0,2.32.42,2.32,3.8v41.3c0,3.38-.11,3.91,1.9,5.6l4.75,4.12c1.06.95,1.06,1.8-.74,1.8h-21.76c-1.69,0-1.58-.95-.63-1.8l4.75-4.12c2.01-1.69,1.9-2.22,1.9-5.6v-33.59ZM1270.02,165.97c0,3.7-3.17,6.65-6.87,6.65s-6.97-2.96-6.97-6.65,3.17-6.97,6.97-6.97,6.87,3.17,6.87,6.97Z"/><path class="cls-2" d="M1301.08,231.47l4.75,4.12c1.06.95,1.06,1.8-.74,1.8h-21.76c-1.69,0-1.58-.95-.63-1.8l4.75-4.12c2.01-1.69,1.9-2.22,1.9-5.6v-33.59c0-3.38.11-3.91-1.9-5.6l-4.75-4.12c-1.06-.95-1.06-1.8.63-1.8h13.52c1.9,0,2.32.42,2.32,3.8v5.92c4.96-8.35,10.46-11.3,18.8-11.3,11.3,0,20.39,6.87,20.39,17.01v29.68c0,3.38-.11,3.91,1.9,5.6l4.75,4.12c1.06.95,1.06,1.8-.74,1.8h-21.76c-1.69,0-1.58-.95-.63-1.8l4.75-4.12c2.01-1.69,1.9-2.22,1.9-5.6v-25.99c0-8.13-5.6-12.57-12.89-12.57-12.57,0-16.48,8.98-16.48,18.91v19.65c0,3.38-.11,3.8,1.9,5.6Z"/><path class="cls-2" d="M1362.66,209.71c0,14.16,7.29,22.29,18.91,22.29,8.13,0,13.52-4.96,13.52-9.61,0-2.85-3.06-3.91-2.54-4.86.42-.84,1.8-1.06,4.54-1.06,3.27,0,7.08,3.49,7.08,7.71,0,9.4-9.08,14.79-23.77,14.79-18.8,0-28.63-12.57-28.63-29.37,0-19.54,11.73-30.42,28.63-30.42,17.96,0,24.93,12.15,24.93,28.31,0,1.27-.32,2.22-1.48,2.22h-41.2ZM1363.19,203.37h32.01c-.11-10.88-7.08-17.22-14.58-17.22-9.82,0-16.16,7.61-17.43,17.22Z"/><path class="cls-2" d="M1454.88,197.77c0,1.37-1.06,1.27-1.48.53l-1.9-3.17c-3.91-6.44-9.72-9.3-15.74-9.3-8.03,0-13.42,2.96-13.42,8.03,0,3.91,2.96,6.55,12.89,8.56l5.28,1.06c13.73,2.75,19.65,7.39,19.65,15.95,0,12.78-10.35,19.54-25.78,19.54-8.87,0-14.05-3.59-16.37-3.59-.53,0-1.58,1.06-3.06,2.01-2.85,1.9-3.49,1.9-3.49-.95v-21.02c0-1.37,1.27-1.37,2.01.21l2.85,5.81c3.59,7.29,10.14,10.56,18.49,10.56,9.19,0,15.21-3.7,15.21-9.93,0-4.86-2.75-7.39-13.84-9.72l-5.07-1.06c-14.16-2.96-19.12-7.92-19.12-15.74,0-9.93,9.3-16.37,21.87-16.37,7.29,0,12.99,2.85,15,2.85.95,0,1.58-.53,2.96-1.48,2.85-2.11,3.06-1.9,3.06.95v16.27Z"/><path class="cls-2" d="M1509.59,197.77c0,1.37-1.06,1.27-1.48.53l-1.9-3.17c-3.91-6.44-9.72-9.3-15.74-9.3-8.03,0-13.42,2.96-13.42,8.03,0,3.91,2.96,6.55,12.89,8.56l5.28,1.06c13.73,2.75,19.65,7.39,19.65,15.95,0,12.78-10.35,19.54-25.78,19.54-8.87,0-14.05-3.59-16.37-3.59-.53,0-1.58,1.06-3.06,2.01-2.85,1.9-3.49,1.9-3.49-.95v-21.02c0-1.37,1.27-1.37,2.01.21l2.85,5.81c3.59,7.29,10.14,10.56,18.49,10.56,9.19,0,15.21-3.7,15.21-9.93,0-4.86-2.75-7.39-13.84-9.72l-5.07-1.06c-14.16-2.96-19.12-7.92-19.12-15.74,0-9.93,9.3-16.37,21.87-16.37,7.29,0,12.99,2.85,15,2.85.95,0,1.58-.53,2.96-1.48,2.85-2.11,3.06-1.9,3.06.95v16.27Z"/></g></svg>