<?xml version="1.0" encoding="UTF-8"?><svg id="Layer_2" xmlns="http://www.w3.org/2000/svg" viewBox="0 0 1447.78 291.49"><defs><style>.cls-1{fill:#f9f3b2;stroke-width:3px;}.cls-1,.cls-2{stroke:#0f76ae;stroke-miterlimit:10;}.cls-2{fill:#0f76ae;stroke-width:2px;}</style></defs><g id="Layer_1-2"><path class="cls-1" d="M1444.25,120.13c-4.6,12-16.16,19.75-29.44,19.75h-13.52c-2.42,0-4.66-.24-6.73-.65-5.18,1.47-10.68,2.23-16.4,2.23-10.64,0-20.62-2.76-29.08-7.93-8.67,5.08-18.95,7.93-30.29,7.93s-22.35-3.05-31.21-8.49c-8.86,5.44-19.47,8.49-31.21,8.49-3.91,0-7.69-.35-11.32-1-2.16,3.46-4.83,6.69-8.03,9.62.52-.03,1.03-.06,1.54-.06h13.53c2.09,0,4.04.17,5.87.47,4.74-1.37,9.82-2.06,15.25-2.06,28.26,0,50.39,20.65,50.39,47.01v20.5c7.27,8.7,9.4,20.4,5.35,30.95-4.61,12-16.16,19.75-29.43,19.75h-21.76c-3.01,0-5.93-.4-8.7-1.16-2.78.76-5.71,1.16-8.73,1.16h-21.77c-4.55,0-8.88-.94-12.81-2.64-6.87,2.74-14.5,4.22-22.68,4.22s-15.85-1.49-22.75-4.25c-3.96,1.72-8.35,2.67-12.95,2.67h-21.76c-3.84,0-7.53-.68-10.96-1.9-6.65,2.26-14.08,3.48-22.1,3.48-5.17,0-9.71-.64-13.48-1.48-2.53.73-5.42,1.22-8.6,1.23-4.35,0-8.54-.95-12.36-2.64-6.18,1.88-12.98,2.89-20.28,2.89-5.17,0-9.7-.64-13.48-1.48-2.53.73-5.41,1.22-8.6,1.23-4.14,0-8.13-.85-11.8-2.38-6.08,1.75-12.79,2.63-20.1,2.63-12.39,0-23.8-3.3-33.22-9.45-5.63,4.97-13.08,7.87-21.18,7.87h-21.76c-4.55,0-8.88-.94-12.81-2.64-1.23.51-2.48.98-3.76,1.4-.33,1.64-.8,3.27-1.42,4.87-4.59,11.98-16.15,19.72-29.43,19.72h-21.77c-13.24,0-24.75-7.77-29.32-19.8-.45-1.17-.81-2.36-1.1-3.55-2.83-.01-5.57-.37-8.19-1.05-2.65.69-5.43,1.05-8.29,1.05h-21.76c-2.87,0-5.67-.37-8.33-1.06-2.67.69-5.47,1.06-8.36,1.06h-21.76c-1.48,0-2.94-.11-4.37-.3-1.44.19-2.9.3-4.39.3h-21.76c-8.23,0-15.79-3.01-21.43-8.19-7.74,6.16-17.7,9.77-28.85,9.77-9.64,0-18.09-2.11-25.04-6.01-8.11,3.87-17.68,6.01-28.31,6.01-5.17,0-9.7-.64-13.47-1.48-2.54.73-5.42,1.22-8.61,1.23-5.16,0-10.09-1.32-14.44-3.66-3.76,1.51-7.87,2.33-12.17,2.33h-21.76c-1.49,0-2.94-.11-4.37-.3-1.44.19-2.91.3-4.4.3h-21.76c-1.65,0-3.26-.12-4.84-.36-1.59.24-3.22.36-4.88.36h-21.76c-10.01,0-19.03-4.46-24.81-11.85-9.81,8.49-23.56,13.43-39.73,13.43-5.17,0-9.7-.64-13.47-1.48-2.54.73-5.42,1.22-8.61,1.23-2.57,0-5.09-.34-7.51-.95-3.46.78-7.09,1.2-10.86,1.2-6.96,0-13.31-1.1-18.91-3.18-3.19,1.03-6.6,1.6-10.14,1.6h-21.76c-10.01,0-19.03-4.46-24.82-11.85-9.81,8.49-23.56,13.43-39.72,13.43-5.17,0-9.71-.64-13.48-1.48-2.53.73-5.42,1.22-8.6,1.23-2.2,0-4.35-.26-6.44-.71-2.36.42-4.79.65-7.29.65-4.99,0-9.62-.62-13.87-1.82-4.87,1.41-9.92,2.13-15.07,2.13-29.02,0-50.08-19.41-50.08-46.16,0-7.32,1.6-14.2,4.63-20.33-.95-3.44-1.46-7.11-1.46-10.94,0-14.43,7.89-27.55,21.11-35.09,8.34-4.75,18.72-7.27,30.02-7.27,12.22,0,22.61,2.64,30.82,7.58,8.21-4.82,18.19-7.58,29.18-7.58,4.45,0,8.45.51,11.82,1.17,2.52-.73,5.39-1.2,8.58-1.2,6.8,0,13.8,2.38,19.38,6.99,1.44-5.19,3.98-9.92,7.35-13.93h-.39c-5.17,0-9.7-.64-13.47-1.48-2.54.73-5.42,1.22-8.61,1.23-3.05,0-6.01-.48-8.84-1.33h-13.02c-1.98,0-3.84-.15-5.59-.42-4.78,1.33-9.93,2-15.43,2-11.3,0-21.62-3.31-29.94-8.96-9.21,5.82-20.1,8.96-31.54,8.96-5.85,0-11.33-.7-16.47-2.14-3.92,1.45-7.57,1.88-10.58,1.88-9.11,0-17.43-4.04-23.14-10.65-5.76,5.84-13.8,9.33-22.59,9.33h-27.88c-4.41,0-8.63-.88-12.47-2.49-3.84,1.61-8.06,2.49-12.46,2.49h-25.67c-14.41,0-26.6-9.1-30.35-22.64-3.59-12.96,1.83-26.88,13.2-34.28l12.24-33.34c-4.19-7.07-5.54-15.66-3.27-23.86,3.74-13.5,15.9-22.57,30.25-22.57h36.34c13.36,0,24.8,7.81,29.39,19.71v-.02c4.59-11.96,16.11-19.69,29.34-19.69h13.52c15.62,0,23.83,9.53,26.64,13.64,1.24,1.82,2.21,3.64,2.97,5.43,4.68.65,9.18,1.85,13.42,3.55,3.89-1.64,8.16-2.55,12.64-2.55h13.52c5.1,0,9.42,1.01,13.01,2.53,3.89-1.64,8.18-2.53,12.66-2.53h13.52c5.81,0,10.59,1.32,14.46,3.2,7.02-3.07,15.04-4.79,23.68-4.79,3.9,0,7.46.4,10.55.94,5.95-12.47,18.68-21.11,33.39-21.11s27.79,8.94,33.59,21.76h.1c2.09,0,4.05.17,5.88.47,4.74-1.37,9.82-2.06,15.25-2.06,11.36,0,21.73,3.35,30.07,9.05,9.28-5.88,20.41-9.05,32.36-9.05,10.03,0,19.04,2.2,26.74,6.22,7.71-3.97,16.8-6.22,26.71-6.22,4.45,0,8.44.51,11.82,1.17,2.52-.73,5.38-1.2,8.58-1.2,4.77,0,9.63,1.17,14.04,3.46,6.17-2.21,13-3.43,20.27-3.43,4.45,0,8.45.51,11.83,1.17,2.52-.73,5.38-1.2,8.57-1.2,6.81,0,13.8,2.38,19.38,6.99,4.32-15.63,18.66-27.13,35.64-27.13,14.51,0,27.09,8.45,33.1,20.7,2.66-.34,5.4-.53,8.2-.53,4.45,0,8.45.51,11.83,1.17,2.52-.73,5.38-1.2,8.57-1.2,11.28,0,23.08,6.54,28.11,18.89,10.41-11.79,25.66-18.86,43.5-18.86,8.16,0,15.78,1.5,22.64,4.23,3.94-1.7,8.29-2.64,12.85-2.64h13.52c2.09,0,4.05.17,5.88.47,4.73-1.37,9.82-2.06,15.25-2.06,2.07,0,4.1.13,6.1.34,4.81-11.46,16.06-18.82,28.97-18.82h13.52c15.61,0,23.82,9.54,26.63,13.64,1.48,2.16,2.57,4.33,3.38,6.43h7.7c2.96,0,5.82.37,8.53,1.08,2.68-.71,5.49-1.08,8.37-1.08h19.44c9.5,0,18.19,4.09,24.03,10.81,2.18-1.91,4.58-3.63,7.21-5.13,8.33-4.75,18.72-7.27,30.02-7.27,12.22,0,22.61,2.64,30.82,7.58,8.21-4.82,18.19-7.58,29.18-7.58,4.45,0,8.44.51,11.82,1.17,2.52-.73,5.39-1.2,8.58-1.2,11.24,0,23.01,6.5,28.06,18.79,6.68-8.14,15.98-14.11,26.91-16.93,7.44-10.99,20.22-18.09,35.01-18.09s26.21,6.74,33.22,17.13c3.39-.56,6.89-.87,10.52-.87,11.74,0,22.35,3.07,31.21,8.52,8.86-5.45,19.47-8.52,31.21-8.52s22.45,3.1,31.33,8.59c4.04-2.56,8.44-4.61,13.12-6.05.15-.45.31-.89.47-1.33,4.6-11.96,16.11-19.69,29.34-19.69h13.52c15.62,0,23.83,9.54,26.64,13.64,5.69,8.31,5.69,16.84,5.69,20.06v52.29c7.27,8.69,9.4,20.39,5.35,30.95Z"/><path class="cls-2" d="M101.08,93.93c2.85,8.24,3.8,9.61,5.49,10.67l5.49,3.49c1.06.74,1.06,1.8-.63,1.8h-27.89c-1.69,0-1.69-1.06-.63-1.8l5.49-3.49c3.27-2.01,2.64-5.39-.42-14.16l-3.7-10.67h-25.99l-4.23,11.09c-4.12,10.77-4.01,11.41-.32,13.73l5.49,3.49c1.06.74,1.06,1.8-.63,1.8h-25.67c-1.8,0-1.8-1.16-.74-1.8l5.6-3.49c2.11-1.27,3.49-4.01,5.39-9.19l16.16-44.05c3.28-8.77,3.38-11.09.53-12.89l-5.49-3.59c-1.06-.63-1.06-1.69.63-1.69h36.34c1.8,0,1.8,1.06.74,1.69l-5.6,3.59c-3.38,2.11-3.06,3.91-.21,12.25l14.79,43.21ZM82.17,72.91l-10.46-32.75-11.09,32.75h21.55Z"/><path class="cls-2" d="M184.74,51.67c15.42,0,27.25,10.67,27.25,30.95s-13.73,28.84-27.78,28.84c-8.66,0-14.37-2.64-19.65-7.92l-5.28,6.02c-2.32,2.64-3.17,2.32-3.17-2.64v-62.33c0-3.38.11-3.8-1.9-5.49l-4.75-4.23c-1.06-.95-1.06-1.69.63-1.69h13.52c1.9,0,2.32.32,2.32,3.7v22.71c4.75-5.07,10.67-7.92,18.8-7.92ZM201.11,81.46c0-14.26-7.5-22.82-17.32-22.82s-17.32,8.45-17.32,22.82,7.5,23.03,17.32,23.03,17.32-8.56,17.32-23.03Z"/><path class="cls-2" d="M276.22,103.96l4.75,4.12c1.06.95,1.06,1.8-.74,1.8h-13.52c-1.9,0-2.22-.42-2.22-3.8v-4.86c-4.86,7.71-10.46,10.25-18.8,10.25-11.41,0-20.39-6.87-20.39-17.01v-29.68c0-3.38.11-3.91-1.9-5.6l-4.75-4.12c-1.06-.95-1.06-1.8.63-1.8h13.52c1.9,0,2.32.42,2.32,3.8v33.8c0,8.03,5.6,12.57,12.89,12.57,12.57,0,16.48-9.08,16.48-18.91v-19.75c0-3.38.11-3.91-1.9-5.6l-4.75-4.12c-1.06-.95-1.06-1.8.63-1.8h13.52c1.9,0,2.32.42,2.32,3.8v41.3c0,3.38-.11,3.8,1.9,5.6Z"/><path class="cls-2" d="M331.15,70.27c0,1.37-1.06,1.27-1.48.53l-1.9-3.17c-3.91-6.44-9.72-9.3-15.74-9.3-8.03,0-13.42,2.96-13.42,8.03,0,3.91,2.96,6.55,12.89,8.56l5.28,1.06c13.73,2.75,19.65,7.39,19.65,15.95,0,12.78-10.35,19.54-25.78,19.54-8.87,0-14.05-3.59-16.37-3.59-.53,0-1.58,1.06-3.06,2.01-2.85,1.9-3.49,1.9-3.49-.95v-21.02c0-1.37,1.27-1.37,2.01.21l2.85,5.81c3.59,7.29,10.14,10.56,18.49,10.56,9.19,0,15.21-3.7,15.21-9.93,0-4.86-2.75-7.39-13.84-9.72l-5.07-1.06c-14.16-2.96-19.12-7.92-19.12-15.74,0-9.93,9.3-16.37,21.87-16.37,7.29,0,12.99,2.85,15,2.85.95,0,1.58-.53,2.96-1.48,2.85-2.11,3.06-1.9,3.06.95v16.27Z"/><path class="cls-2" d="M349.73,64.77c0-3.38.11-3.91-1.9-5.6l-4.75-4.12c-1.06-.95-1.06-1.8.63-1.8h13.52c1.9,0,2.32.42,2.32,3.8v41.3c0,3.38-.11,3.91,1.9,5.6l4.75,4.12c1.06.95,1.06,1.8-.74,1.8h-21.76c-1.69,0-1.58-.95-.63-1.8l4.75-4.12c2.01-1.69,1.9-2.22,1.9-5.6v-33.59ZM360.93,38.47c0,3.7-3.17,6.65-6.87,6.65s-6.97-2.96-6.97-6.65,3.17-6.97,6.97-6.97,6.87,3.17,6.87,6.97Z"/><path class="cls-2" d="M391.99,103.96l4.75,4.12c1.06.95,1.06,1.8-.74,1.8h-21.76c-1.69,0-1.58-.95-.63-1.8l4.75-4.12c2.01-1.69,1.9-2.22,1.9-5.6v-33.59c0-3.38.11-3.91-1.9-5.6l-4.75-4.12c-1.06-.95-1.06-1.8.63-1.8h13.52c1.9,0,2.32.42,2.32,3.8v5.92c4.96-8.35,10.46-11.3,18.8-11.3,11.3,0,20.39,6.87,20.39,17.01v29.68c0,3.38-.11,3.91,1.9,5.6l4.75,4.12c1.06.95,1.06,1.8-.74,1.8h-21.76c-1.69,0-1.58-.95-.63-1.8l4.75-4.12c2.01-1.69,1.9-2.22,1.9-5.6v-25.99c0-8.13-5.6-12.57-12.89-12.57-12.57,0-16.48,8.98-16.48,18.91v19.65c0,3.38-.11,3.8,1.9,5.6Z"/><path class="cls-2" d="M453.57,82.2c0,14.16,7.29,22.29,18.91,22.29,8.13,0,13.52-4.96,13.52-9.61,0-2.85-3.06-3.91-2.54-4.86.42-.84,1.8-1.06,4.54-1.06,3.27,0,7.08,3.49,7.08,7.71,0,9.4-9.08,14.79-23.77,14.79-18.8,0-28.63-12.57-28.63-29.37,0-19.54,11.73-30.42,28.63-30.42,17.96,0,24.93,12.15,24.93,28.31,0,1.27-.32,2.22-1.48,2.22h-41.2ZM454.1,75.86h32.01c-.11-10.88-7.08-17.22-14.58-17.22-9.82,0-16.16,7.61-17.43,17.22Z"/><path class="cls-2" d="M545.79,70.27c0,1.37-1.06,1.27-1.48.53l-1.9-3.17c-3.91-6.44-9.72-9.3-15.74-9.3-8.03,0-13.42,2.96-13.42,8.03,0,3.91,2.96,6.55,12.89,8.56l5.28,1.06c13.73,2.75,19.65,7.39,19.65,15.95,0,12.78-10.35,19.54-25.78,19.54-8.87,0-14.05-3.59-16.37-3.59-.53,0-1.58,1.06-3.06,2.01-2.85,1.9-3.49,1.9-3.49-.95v-21.02c0-1.37,1.27-1.37,2.01.21l2.85,5.81c3.59,7.29,10.14,10.56,18.49,10.56,9.19,0,15.21-3.7,15.21-9.93,0-4.86-2.75-7.39-13.84-9.72l-5.07-1.06c-14.16-2.96-19.12-7.92-19.12-15.74,0-9.93,9.3-16.37,21.87-16.37,7.29,0,12.99,2.85,15,2.85.95,0,1.58-.53,2.96-1.48,2.85-2.11,3.06-1.9,3.06.95v16.27Z"/><path class="cls-2" d="M600.5,70.27c0,1.37-1.06,1.27-1.48.53l-1.9-3.17c-3.91-6.44-9.72-9.3-15.74-9.3-8.03,0-13.42,2.96-13.42,8.03,0,3.91,2.96,6.55,12.89,8.56l5.28,1.06c13.73,2.75,19.65,7.39,19.65,15.95,0,12.78-10.35,19.54-25.78,19.54-8.87,0-14.05-3.59-16.37-3.59-.53,0-1.58,1.06-3.06,2.01-2.85,1.9-3.49,1.9-3.49-.95v-21.02c0-1.37,1.27-1.37,2.01.21l2.85,5.81c3.59,7.29,10.14,10.56,18.49,10.56,9.19,0,15.21-3.7,15.21-9.93,0-4.86-2.75-7.39-13.84-9.72l-5.07-1.06c-14.16-2.96-19.12-7.92-19.12-15.74,0-9.93,9.3-16.37,21.87-16.37,7.29,0,12.99,2.85,15,2.85.95,0,1.58-.53,2.96-1.48,2.85-2.11,3.06-1.9,3.06.95v16.27Z"/><path class="cls-2" d="M650.57,64.77c0-3.38.11-3.91-1.9-5.6l-4.75-4.12c-1.06-.95-1.06-1.8.63-1.8h13.52c1.9,0,2.32.42,2.32,3.8v41.3c0,3.38-.11,3.91,1.9,5.6l4.75,4.12c1.06.95,1.06,1.8-.74,1.8h-21.76c-1.69,0-1.58-.95-.63-1.8l4.75-4.12c2.01-1.69,1.9-2.22,1.9-5.6v-33.59ZM661.77,38.47c0,3.7-3.17,6.65-6.87,6.65s-6.97-2.96-6.97-6.65,3.17-6.97,6.97-6.97,6.87,3.17,6.87,6.97Z"/><path class="cls-2" d="M717.22,70.27c0,1.37-1.06,1.27-1.48.53l-1.9-3.17c-3.91-6.44-9.72-9.3-15.74-9.3-8.03,0-13.42,2.96-13.42,8.03,0,3.91,2.96,6.55,12.89,8.56l5.28,1.06c13.73,2.75,19.65,7.39,19.65,15.95,0,12.78-10.35,19.54-25.78,19.54-8.87,0-14.05-3.59-16.37-3.59-.53,0-1.58,1.06-3.06,2.01-2.85,1.9-3.49,1.9-3.49-.95v-21.02c0-1.37,1.27-1.37,2.01.21l2.85,5.81c3.59,7.29,10.14,10.56,18.49,10.56,9.19,0,15.21-3.7,15.21-9.93,0-4.86-2.75-7.39-13.84-9.72l-5.07-1.06c-14.16-2.96-19.12-7.92-19.12-15.74,0-9.93,9.3-16.37,21.87-16.37,7.29,0,12.99,2.85,15,2.85.95,0,1.58-.53,2.96-1.48,2.85-2.11,3.06-1.9,3.06.95v16.27Z"/><path class="cls-2" d="M816.41,81.68c0,18.49-11.2,29.79-28.21,29.79s-28.21-11.2-28.21-29.79,11.2-30,28.21-30,28.21,11.51,28.21,30ZM770.88,81.68c0,14.47,7.5,22.82,17.32,22.82s17.32-8.56,17.32-22.82-7.5-23.03-17.32-23.03-17.32,8.56-17.32,23.03Z"/><path class="cls-2" d="M841.44,103.96l4.75,4.12c1.06.95,1.06,1.8-.74,1.8h-21.76c-1.69,0-1.58-.95-.63-1.8l4.75-4.12c2.01-1.69,1.9-2.22,1.9-5.6v-33.59c0-3.38.11-3.91-1.9-5.6l-4.75-4.12c-1.06-.95-1.06-1.8.63-1.8h13.52c1.9,0,2.32.42,2.32,3.8v5.92c4.96-8.35,10.46-11.3,18.8-11.3,11.3,0,20.39,6.87,20.39,17.01v29.68c0,3.38-.11,3.91,1.9,5.6l4.75,4.12c1.06.95,1.06,1.8-.74,1.8h-21.76c-1.69,0-1.58-.95-.63-1.8l4.75-4.12c2.01-1.69,1.9-2.22,1.9-5.6v-25.99c0-8.13-5.6-12.57-12.89-12.57-12.57,0-16.48,8.98-16.48,18.91v19.65c0,3.38-.11,3.8,1.9,5.6Z"/><path class="cls-2" d="M899.44,44.6c0-3.38.11-3.8-1.9-5.49l-4.75-4.23c-1.06-.95-1.06-1.69.63-1.69h13.52c1.9,0,2.32.32,2.32,3.7v61.48c0,3.38-.11,3.91,1.9,5.6l4.75,4.12c1.06.95,1.06,1.8-.74,1.8h-21.76c-1.69,0-1.58-.95-.63-1.8l4.75-4.12c2.01-1.69,1.9-2.22,1.9-5.6v-53.77Z"/><path class="cls-2" d="M935.24,134.92c-10.56,0-17.11-4.65-17.11-12.78,0-6.02,4.33-10.25,9.93-10.25,2.64,0,5.81.84,5.49,2.75-.11.95-6.34,1.16-6.34,6.76,0,3.8,3.17,6.02,8.24,6.02,4.23,0,7.82-2.64,9.19-5.92l3.7-9.19-19.12-50.07c-.53-1.37-2.01-3.06-5.07-5.28l-2.64-1.9c-1.27-.95-.84-1.8.74-1.8h22.39c1.8,0,2.01.84.74,1.8l-3.06,2.32c-3.06,2.32-3.59,3.38-2.43,6.55l13.42,36.23,13.1-36.23c.95-2.64.53-4.12-2.43-6.34l-3.28-2.43c-1.16-.85-.95-1.9.85-1.9h19.44c1.58,0,2.01.84.74,1.8l-2.64,1.9c-3.49,2.54-4.54,4.01-5.39,6.23l-22.71,61.59c-2.43,6.55-7.71,10.14-15.74,10.14Z"/><path class="cls-2" d="M1066.97,111.15c-8.24,0-10.14-2.64-11.62-6.66-6.13,5.39-12.04,6.97-17.32,6.97-11.62,0-20.07-5.6-20.07-16.16s7.82-15.21,20.39-17.43l4.86-.85c7.29-1.27,10.88-4.65,10.88-9.4,0-5.28-5.18-9.19-11.83-9.19-6.13,0-11.62,2.64-11.62,7.39,0,4.33,3.49,4.44,3.27,5.7-.21.53-1.48,1.16-3.8,1.16-5.28,0-8.98-2.85-8.98-8.66,0-7.61,8.87-12.36,21.13-12.36,17.96,0,22.29,7.18,22.29,20.49v25.67c0,4.23,2.11,6.34,5.39,6.34s5.28-3.91,6.34-3.38c.85.42-.11,10.35-9.3,10.35ZM1041.72,84.1c-7.82,1.37-12.68,5.92-12.68,11.3,0,5.81,4.23,9.61,10.88,9.61,8.98,0,14.79-7.61,14.79-18.7v-6.02c-1.8,1.16-4.23,2.32-8.13,2.96l-4.86.85Z"/><path class="cls-2" d="M1123.27,70.27c0,1.37-1.06,1.27-1.48.53l-1.9-3.17c-3.91-6.44-9.72-9.3-15.74-9.3-8.03,0-13.42,2.96-13.42,8.03,0,3.91,2.96,6.55,12.89,8.56l5.28,1.06c13.73,2.75,19.65,7.39,19.65,15.95,0,12.78-10.35,19.54-25.78,19.54-8.87,0-14.05-3.59-16.37-3.59-.53,0-1.58,1.06-3.06,2.01-2.85,1.9-3.49,1.9-3.49-.95v-21.02c0-1.37,1.27-1.37,2.01.21l2.85,5.81c3.59,7.29,10.14,10.56,18.49,10.56,9.19,0,15.21-3.7,15.21-9.93,0-4.86-2.75-7.39-13.84-9.72l-5.07-1.06c-14.16-2.96-19.12-7.92-19.12-15.74,0-9.93,9.3-16.37,21.87-16.37,7.29,0,12.99,2.85,15,2.85.95,0,1.58-.53,2.96-1.48,2.85-2.11,3.06-1.9,3.06.95v16.27Z"/><path class="cls-2" d="M1216.44,46.71c0-2.22-2.11-4.54-5.07-4.54-2.75,0-5.49,2.85-5.49,6.02,0,2.11,1.06,4.44,2.75,7.08,4.12,6.66,6.44,12.78,6.44,17.22,0,11.09-9.19,20.6-23.13,20.6-9.72,0-10.77-3.17-13.52-3.17-1.16,0-3.17,1.16-3.17,4.12,0,4.54,4.54,7.08,16.48,7.08h8.24c13.52,0,22.08,5.81,22.08,14.68,0,12.47-11.83,19.44-30.74,19.44-17.01,0-28.1-4.96-28.1-14.79,0-4.65,3.91-8.13,8.45-8.13,1.8,0,7.08.63,6.76,2.75-.21.95-6.13.74-6.13,4.54,0,4.33,4.86,8.56,21.02,8.56,15.11,0,19.01-5.7,19.01-10.46,0-6.23-7.39-7.71-17.11-7.71h-6.23c-12.57,0-22.92-4.33-22.92-13.2,0-4.01,1.06-7.08,7.82-10.99-2.85-4.44-4.33-8.98-4.33-13.42,0-12.36,9.19-20.7,22.71-20.7,3.49,0,6.87.63,9.82,1.48-.84-2.32-1.37-4.65-1.37-6.87,0-6.55,5.18-10.88,11.94-10.88,5.7,0,9.61,3.38,9.61,8.24,0,6.55-6.34,9.51-7.5,8.56-.95-.84,1.69-2.01,1.69-5.49ZM1178.83,72.38c0,7.5,5.7,13.73,13.21,13.73s13.31-6.23,13.31-13.73-5.7-13.84-13.31-13.84-13.21,6.23-13.21,13.84Z"/><path class="cls-2" d="M1284.57,81.68c0,18.49-11.2,29.79-28.21,29.79s-28.21-11.2-28.21-29.79,11.2-30,28.21-30,28.21,11.51,28.21,30ZM1239.04,81.68c0,14.47,7.5,22.82,17.32,22.82s17.32-8.56,17.32-22.82-7.5-23.03-17.32-23.03-17.32,8.56-17.32,23.03Z"/><path class="cls-2" d="M1347,81.68c0,18.49-11.2,29.79-28.21,29.79s-28.21-11.2-28.21-29.79,11.2-30,28.21-30,28.21,11.51,28.21,30ZM1301.47,81.68c0,14.47,7.5,22.82,17.32,22.82s17.32-8.56,17.32-22.82-7.5-23.03-17.32-23.03-17.32,8.56-17.32,23.03Z"/><path class="cls-2" d="M1410.8,103.96l4.75,4.12c1.06.95,1.06,1.8-.74,1.8h-13.52c-1.8,0-2.32-.42-2.22-3.8l.11-4.44c-5.92,7.61-13.94,9.82-21.02,9.82-14.05,0-25.14-9.3-25.14-28.84s12.15-30.95,27.25-30.95c7.92,0,12.25,2.01,18.8,7.92v-15c0-3.38.11-3.8-1.9-5.49l-4.75-4.23c-1.06-.95-1.06-1.69.63-1.69h13.52c1.9,0,2.32.32,2.32,3.7v61.48c0,3.59.42,4.33,1.9,5.6ZM1398.54,81.46c0-14.37-7.5-22.82-17.32-22.82s-17.32,8.56-17.32,22.82,7.5,23.03,17.32,23.03,17.32-8.56,17.32-23.03Z"/><path class="cls-2" d="M228.63,237.91c-8.24,0-10.14-2.64-11.62-6.66-6.13,5.39-12.04,6.97-17.32,6.97-11.62,0-20.07-5.6-20.07-16.16s7.82-15.21,20.39-17.43l4.86-.85c7.29-1.27,10.88-4.65,10.88-9.4,0-5.28-5.18-9.19-11.83-9.19-6.13,0-11.62,2.64-11.62,7.39,0,4.33,3.49,4.44,3.27,5.7-.21.53-1.48,1.16-3.8,1.16-5.28,0-8.98-2.85-8.98-8.66,0-7.61,8.87-12.36,21.13-12.36,17.96,0,22.29,7.18,22.29,20.49v25.67c0,4.23,2.11,6.34,5.39,6.34s5.28-3.91,6.34-3.38c.85.42-.11,10.35-9.3,10.35ZM203.38,210.86c-7.82,1.37-12.68,5.92-12.68,11.3,0,5.81,4.23,9.61,10.88,9.61,8.98,0,14.79-7.61,14.79-18.7v-6.02c-1.8,1.16-4.23,2.32-8.13,2.96l-4.86.85Z"/><path class="cls-2" d="M284.93,197.03c0,1.37-1.06,1.27-1.48.53l-1.9-3.17c-3.91-6.44-9.72-9.3-15.74-9.3-8.03,0-13.42,2.96-13.42,8.03,0,3.91,2.96,6.55,12.89,8.56l5.28,1.06c13.73,2.75,19.65,7.39,19.65,15.95,0,12.78-10.35,19.54-25.78,19.54-8.87,0-14.05-3.59-16.37-3.59-.53,0-1.58,1.06-3.06,2.01-2.85,1.9-3.49,1.9-3.49-.95v-21.02c0-1.37,1.27-1.37,2.01.21l2.85,5.81c3.59,7.29,10.14,10.56,18.49,10.56,9.19,0,15.21-3.7,15.21-9.93,0-4.86-2.75-7.39-13.84-9.72l-5.07-1.06c-14.16-2.96-19.12-7.92-19.12-15.74,0-9.93,9.3-16.37,21.87-16.37,7.29,0,12.99,2.85,15,2.85.95,0,1.58-.53,2.96-1.48,2.85-2.11,3.06-1.9,3.06.95v16.27Z"/><path class="cls-2" d="M335,191.53c0-3.38.11-3.91-1.9-5.6l-4.75-4.12c-1.06-.95-1.06-1.8.63-1.8h13.52c1.9,0,2.32.42,2.32,3.8v41.3c0,3.38-.11,3.91,1.9,5.6l4.75,4.12c1.06.95,1.06,1.8-.74,1.8h-21.76c-1.69,0-1.58-.95-.63-1.8l4.75-4.12c2.01-1.69,1.9-2.22,1.9-5.6v-33.59ZM346.2,165.23c0,3.7-3.17,6.65-6.87,6.65s-6.97-2.96-6.97-6.65,3.17-6.97,6.97-6.97,6.87,3.17,6.87,6.97Z"/><path class="cls-2" d="M372.39,162.91c.85-1.27,1.37-1.06,1.37.53v16.58h16.16c1.69,0,1.8.11.74,1.8l-1.8,2.96c-.84,1.37-1.27,1.58-3.7,1.58h-11.41v34.33c0,8.35,3.06,10.67,8.34,10.67,10.04,0,10.99-10.77,12.15-10.77.84,0,.95.74.95,2.43,0,7.92-4.75,15.21-15.42,15.21-11.3,0-15.95-4.65-15.95-15.21v-36.66h-7.61c-1.8,0-1.9-.53-.74-1.69l4.33-4.33c4.12-4.12,6.23-7.29,9.08-11.83l3.49-5.6Z"/><path class="cls-2" d="M440.74,197.03c0,1.37-1.06,1.27-1.48.53l-1.9-3.17c-3.91-6.44-9.72-9.3-15.74-9.3-8.03,0-13.42,2.96-13.42,8.03,0,3.91,2.96,6.55,12.89,8.56l5.28,1.06c13.73,2.75,19.65,7.39,19.65,15.95,0,12.78-10.35,19.54-25.78,19.54-8.87,0-14.05-3.59-16.37-3.59-.53,0-1.58,1.06-3.06,2.01-2.85,1.9-3.49,1.9-3.49-.95v-21.02c0-1.37,1.27-1.37,2.01.21l2.85,5.81c3.59,7.29,10.14,10.56,18.49,10.56,9.19,0,15.21-3.7,15.21-9.93,0-4.86-2.75-7.39-13.84-9.72l-5.07-1.06c-14.16-2.96-19.12-7.92-19.12-15.74,0-9.93,9.3-16.37,21.87-16.37,7.29,0,12.99,2.85,15,2.85.95,0,1.58-.53,2.96-1.48,2.85-2.11,3.06-1.9,3.06.95v16.27Z"/><path class="cls-2" d="M500.63,225.13c0,3.38-.11,3.8,1.9,5.6l4.75,4.12c1.06.95,1.06,1.8-.74,1.8h-21.76c-1.69,0-1.58-.95-.63-1.8l4.75-4.12c2.01-1.69,1.9-2.22,1.9-5.6v-38.77h-8.98c-1.58,0-1.58-.21-.63-1.69l1.79-2.96c.85-1.37,1.16-1.69,3.59-1.69h4.23v-7.29c0-6.66,4.33-14.26,20.92-14.26,9.08,0,15.21,3.49,15.21,9.19,0,6.02-6.66,7.82-8.24,6.65-.95-.63.32-2.11.32-4.23,0-2.85-2.85-5.6-8.77-5.6-4.96,0-9.61,2.75-9.61,9.08v6.44h13.52c1.58,0,1.58.11.63,1.8l-1.69,2.96c-.84,1.37-1.27,1.58-3.7,1.58h-8.77v38.77Z"/><path class="cls-2" d="M522.28,191.53c0-3.38.11-3.91-1.9-5.6l-4.75-4.12c-1.06-.95-1.06-1.8.63-1.8h13.52c1.9,0,2.32.42,2.32,3.8v41.3c0,3.38-.11,3.91,1.9,5.6l4.75,4.12c1.06.95,1.06,1.8-.74,1.8h-21.76c-1.69,0-1.58-.95-.63-1.8l4.75-4.12c2.01-1.69,1.9-2.22,1.9-5.6v-33.59ZM533.48,165.23c0,3.7-3.17,6.65-6.87,6.65s-6.97-2.96-6.97-6.65,3.17-6.97,6.97-6.97,6.87,3.17,6.87,6.97Z"/><path class="cls-2" d="M564.53,230.72l4.75,4.12c1.06.95,1.06,1.8-.74,1.8h-21.76c-1.69,0-1.58-.95-.63-1.8l4.75-4.12c2.01-1.69,1.9-2.22,1.9-5.6v-33.59c0-3.38.11-3.91-1.9-5.6l-4.75-4.12c-1.06-.95-1.06-1.8.63-1.8h13.52c1.9,0,2.32.42,2.32,3.8v3.8c4.23-6.76,8.56-9.93,15-9.93,7.39,0,13.42,5.49,13.42,11.62s-4.86,9.93-8.77,9.93c-.84,0-3.8-.32-3.8-.95,0-.53,3.59-2.01,3.59-6.23,0-3.49-3.49-6.97-7.29-6.97-7.39,0-12.15,6.34-12.15,23.13v16.9c0,3.38-.11,3.8,1.9,5.6Z"/><path class="cls-2" d="M637.74,197.03c0,1.37-1.06,1.27-1.48.53l-1.9-3.17c-3.91-6.44-9.72-9.3-15.74-9.3-8.03,0-13.42,2.96-13.42,8.03,0,3.91,2.96,6.55,12.89,8.56l5.28,1.06c13.73,2.75,19.65,7.39,19.65,15.95,0,12.78-10.35,19.54-25.78,19.54-8.87,0-14.05-3.59-16.37-3.59-.53,0-1.58,1.06-3.06,2.01-2.85,1.9-3.49,1.9-3.49-.95v-21.02c0-1.37,1.27-1.37,2.01.21l2.85,5.81c3.59,7.29,10.14,10.56,18.49,10.56,9.19,0,15.21-3.7,15.21-9.93,0-4.86-2.75-7.39-13.84-9.72l-5.07-1.06c-14.16-2.96-19.12-7.92-19.12-15.74,0-9.93,9.3-16.37,21.87-16.37,7.29,0,12.99,2.85,15,2.85.95,0,1.58-.53,2.96-1.48,2.85-2.11,3.06-1.9,3.06.95v16.27Z"/><path class="cls-2" d="M663.19,162.91c.85-1.27,1.37-1.06,1.37.53v16.58h16.16c1.69,0,1.8.11.74,1.8l-1.8,2.96c-.84,1.37-1.27,1.58-3.7,1.58h-11.41v34.33c0,8.35,3.06,10.67,8.34,10.67,10.04,0,10.99-10.77,12.15-10.77.84,0,.95.74.95,2.43,0,7.92-4.75,15.21-15.42,15.21-11.3,0-15.95-4.65-15.95-15.21v-36.66h-7.61c-1.8,0-1.9-.53-.74-1.69l4.33-4.33c4.12-4.12,6.23-7.29,9.08-11.83l3.49-5.6Z"/><path class="cls-2" d="M726.89,191.53c0-3.38.11-3.91-1.9-5.6l-4.75-4.12c-1.06-.95-1.06-1.8.63-1.8h13.52c1.9,0,2.32.42,2.32,3.8v41.3c0,3.38-.11,3.91,1.9,5.6l4.75,4.12c1.06.95,1.06,1.8-.74,1.8h-21.76c-1.69,0-1.58-.95-.63-1.8l4.75-4.12c2.01-1.69,1.9-2.22,1.9-5.6v-33.59ZM738.08,165.23c0,3.7-3.17,6.65-6.87,6.65s-6.97-2.96-6.97-6.65,3.17-6.97,6.97-6.97,6.87,3.17,6.87,6.97Z"/><path class="cls-2" d="M805.58,225.13c0,3.38-.11,3.8,1.9,5.6l4.75,4.12c1.06.95,1.06,1.8-.63,1.8h-21.76c-1.8,0-1.69-.95-.74-1.8l4.75-4.12c2.01-1.69,1.9-2.22,1.9-5.6v-25.99c0-8.13-5.6-12.57-12.89-12.57-10.78,0-15.63,8.77-15.63,18.91v19.65c0,3.38-.11,3.8,1.9,5.6l4.75,4.12c1.06.95,1.06,1.8-.74,1.8h-21.76c-1.69,0-1.58-.95-.63-1.8l4.75-4.12c2.01-1.69,1.9-2.22,1.9-5.6v-33.59c0-3.38.11-3.91-1.9-5.6l-4.75-4.12c-1.06-.95-1.06-1.8.63-1.8h13.52c1.9,0,2.32.42,2.32,3.8v5.92c4.96-8.35,10.78-11.3,17.96-11.3,9.51,0,17.43,4.86,19.75,12.25,5.07-8.77,10.88-12.25,18.59-12.25,11.41,0,20.39,6.87,20.39,17.01v29.68c0,3.38-.11,3.91,1.9,5.6l4.75,4.12c1.06.95,1.06,1.8-.63,1.8h-21.76c-1.8,0-1.69-.95-.74-1.8l4.75-4.12c2.01-1.69,1.9-2.22,1.9-5.6v-25.99c0-8.13-5.49-12.57-12.78-12.57-10.14,0-15.74,7.82-15.74,19.01v19.54Z"/><path class="cls-2" d="M895.26,178.43c14.05,0,25.14,9.3,25.14,28.94s-12.15,30.85-27.25,30.85c-8.03,0-12.36-2.01-18.8-7.92v18.28c0,3.38-.11,3.7,1.9,5.49l4.75,4.23c1.06.95,1.06,1.69-.74,1.69h-21.76c-1.69,0-1.58-.85-.63-1.69l4.75-4.23c2.01-1.69,1.9-2.11,1.9-5.49v-57.04c0-3.38.11-3.91-1.9-5.6l-4.75-4.12c-1.06-.95-1.06-1.8.63-1.8h13.52c1.9,0,2.43.42,2.32,3.8l-.11,4.44c5.92-7.5,13.94-9.82,21.02-9.82ZM874.88,208.43c0,14.47,7.5,22.82,17.32,22.82s17.32-8.56,17.32-22.82-7.5-23.03-17.32-23.03-17.32,8.56-17.32,23.03Z"/><path class="cls-2" d="M945.44,230.72l4.75,4.12c1.06.95,1.06,1.8-.74,1.8h-21.76c-1.69,0-1.58-.95-.63-1.8l4.75-4.12c2.01-1.69,1.9-2.22,1.9-5.6v-33.59c0-3.38.11-3.91-1.9-5.6l-4.75-4.12c-1.06-.95-1.06-1.8.63-1.8h13.52c1.9,0,2.32.42,2.32,3.8v3.8c4.23-6.76,8.56-9.93,15-9.93,7.39,0,13.42,5.49,13.42,11.62s-4.86,9.93-8.77,9.93c-.84,0-3.8-.32-3.8-.95,0-.53,3.59-2.01,3.59-6.23,0-3.49-3.49-6.97-7.29-6.97-7.39,0-12.15,6.34-12.15,23.13v16.9c0,3.38-.11,3.8,1.9,5.6Z"/><path class="cls-2" d="M986.11,208.96c0,14.16,7.29,22.29,18.91,22.29,8.13,0,13.52-4.96,13.52-9.61,0-2.85-3.06-3.91-2.54-4.86.42-.84,1.8-1.06,4.54-1.06,3.27,0,7.08,3.49,7.08,7.71,0,9.4-9.08,14.79-23.77,14.79-18.8,0-28.63-12.57-28.63-29.37,0-19.54,11.73-30.42,28.63-30.42,17.96,0,24.93,12.15,24.93,28.31,0,1.27-.32,2.22-1.48,2.22h-41.2ZM986.63,202.62h32.01c-.11-10.88-7.08-17.22-14.58-17.22-9.82,0-16.16,7.61-17.43,17.22Z"/><path class="cls-2" d="M1078.32,197.03c0,1.37-1.06,1.27-1.48.53l-1.9-3.17c-3.91-6.44-9.72-9.3-15.74-9.3-8.03,0-13.42,2.96-13.42,8.03,0,3.91,2.96,6.55,12.89,8.56l5.28,1.06c13.73,2.75,19.65,7.39,19.65,15.95,0,12.78-10.35,19.54-25.78,19.54-8.87,0-14.05-3.59-16.37-3.59-.53,0-1.58,1.06-3.06,2.01-2.85,1.9-3.49,1.9-3.49-.95v-21.02c0-1.37,1.27-1.37,2.01.21l2.85,5.81c3.59,7.29,10.14,10.56,18.49,10.56,9.19,0,15.21-3.7,15.21-9.93,0-4.86-2.75-7.39-13.84-9.72l-5.07-1.06c-14.16-2.96-19.12-7.92-19.12-15.74,0-9.93,9.3-16.37,21.87-16.37,7.29,0,12.99,2.85,15,2.85.95,0,1.58-.53,2.96-1.48,2.85-2.11,3.06-1.9,3.06.95v16.27Z"/><path class="cls-2" d="M1133.04,197.03c0,1.37-1.06,1.27-1.48.53l-1.9-3.17c-3.91-6.44-9.72-9.3-15.74-9.3-8.03,0-13.42,2.96-13.42,8.03,0,3.91,2.96,6.55,12.89,8.56l5.28,1.06c13.73,2.75,19.65,7.39,19.65,15.95,0,12.78-10.35,19.54-25.78,19.54-8.87,0-14.05-3.59-16.37-3.59-.53,0-1.58,1.06-3.06,2.01-2.85,1.9-3.49,1.9-3.49-.95v-21.02c0-1.37,1.27-1.37,2.01.21l2.85,5.81c3.59,7.29,10.14,10.56,18.49,10.56,9.19,0,15.21-3.7,15.21-9.93,0-4.86-2.75-7.39-13.84-9.72l-5.07-1.06c-14.16-2.96-19.12-7.92-19.12-15.74,0-9.93,9.3-16.37,21.87-16.37,7.29,0,12.99,2.85,15,2.85.95,0,1.58-.53,2.96-1.48,2.85-2.11,3.06-1.9,3.06.95v16.27Z"/><path class="cls-2" d="M1151.63,191.53c0-3.38.11-3.91-1.9-5.6l-4.75-4.12c-1.06-.95-1.06-1.8.63-1.8h13.52c1.9,0,2.32.42,2.32,3.8v41.3c0,3.38-.11,3.91,1.9,5.6l4.75,4.12c1.06.95,1.06,1.8-.74,1.8h-21.76c-1.69,0-1.58-.95-.63-1.8l4.75-4.12c2.01-1.69,1.9-2.22,1.9-5.6v-33.59ZM1162.83,165.23c0,3.7-3.17,6.65-6.87,6.65s-6.97-2.96-6.97-6.65,3.17-6.97,6.97-6.97,6.87,3.17,6.87,6.97Z"/><path class="cls-2" d="M1231.28,208.43c0,18.49-11.2,29.79-28.21,29.79s-28.21-11.2-28.21-29.79,11.2-30,28.21-30,28.21,11.51,28.21,30ZM1185.75,208.43c0,14.47,7.5,22.82,17.32,22.82s17.32-8.56,17.32-22.82-7.5-23.03-17.32-23.03-17.32,8.56-17.32,23.03Z"/><path class="cls-2" d="M1256.31,230.72l4.75,4.12c1.06.95,1.06,1.8-.74,1.8h-21.76c-1.69,0-1.58-.95-.63-1.8l4.75-4.12c2.01-1.69,1.9-2.22,1.9-5.6v-33.59c0-3.38.11-3.91-1.9-5.6l-4.75-4.12c-1.06-.95-1.06-1.8.63-1.8h13.52c1.9,0,2.32.42,2.32,3.8v5.92c4.96-8.35,10.46-11.3,18.8-11.3,11.3,0,20.39,6.87,20.39,17.01v29.68c0,3.38-.11,3.91,1.9,5.6l4.75,4.12c1.06.95,1.06,1.8-.74,1.8h-21.76c-1.69,0-1.58-.95-.63-1.8l4.75-4.12c2.01-1.69,1.9-2.22,1.9-5.6v-25.99c0-8.13-5.6-12.57-12.89-12.57-12.57,0-16.48,8.98-16.48,18.91v19.65c0,3.38-.11,3.8,1.9,5.6Z"/></g></svg>