<?xml version="1.0" encoding="UTF-8"?><svg id="Layer_2" xmlns="http://www.w3.org/2000/svg" viewBox="0 0 1054.75 293.19"><defs><style>.cls-1{fill:#f9f3b2;stroke-width:3px;}.cls-1,.cls-2{stroke:#0f76ae;stroke-miterlimit:10;}.cls-2{fill:#0f76ae;stroke-width:2px;}</style></defs><g id="Layer_1-2"><path class="cls-1" d="M907.23,129.64s.02-.02.03-.03c.02,0,.04.02.05.03h-.08Z"/><path class="cls-1" d="M1053.25,91.62c0,29.17-22.94,49.54-55.78,49.54-5.17,0-9.7-.64-13.48-1.48-2.53.72-5.41,1.22-8.6,1.22-4.14,0-8.13-.84-11.8-2.38-6.08,1.75-12.79,2.64-20.1,2.64-3.78,0-7.47-.33-11.05-.93,1.04,1.16,1.84,2.22,2.41,3.05,5.69,8.32,5.69,16.85,5.69,20.06v52.29c7.27,8.7,9.4,20.39,5.35,30.95-4.6,12-16.16,19.75-29.43,19.75h-13.53c-2.42,0-4.66-.24-6.73-.65-5.18,1.48-10.68,2.24-16.4,2.24-7.31,0-14.3-1.32-20.71-3.81-3.69,1.44-7.72,2.22-11.93,2.22h-21.76c-3.01,0-5.92-.4-8.69-1.16-2.78.76-5.72,1.16-8.74,1.16h-21.76c-1.12,0-2.22-.07-3.31-.18-3.44.95-7.07,1.45-10.84,1.45-4.99,0-9.63-.62-13.87-1.82-4.88,1.42-9.93,2.14-15.08,2.14-6.6,0-12.78-1.02-18.4-2.88-2.91.84-5.99,1.29-9.17,1.29h-21.76c-3,0-5.92-.4-8.69-1.16-2.78.76-5.71,1.16-8.74,1.16h-21.76c-4.93,0-9.63-1.08-13.81-3.06-8.04,15.98-26.11,28.42-55.8,28.42s-45.97-11.47-53.31-25.36h-1.19c-3.01,0-5.93-.4-8.7-1.16-2.78.76-5.71,1.16-8.73,1.16h-21.77c-1.48,0-2.93-.11-4.36-.3-1.44.19-2.91.3-4.4.3h-21.76c-4.55,0-8.89-.94-12.82-2.63-1.23.5-2.48.97-3.75,1.39-.33,1.64-.81,3.27-1.42,4.88-4.6,11.97-16.15,19.71-29.44,19.71h-21.76c-13.24,0-24.75-7.77-29.33-19.8-.44-1.17-.8-2.35-1.1-3.55h-.1c-3.58,0-7.03-.58-10.25-1.66-6.59,2.16-13.97,3.25-22.07,3.25s-16.06-1.48-23.15-4.26c-3.97,1.72-8.36,2.67-12.97,2.67h-21.76c-3.01,0-5.93-.4-8.7-1.16-2.78.76-5.71,1.16-8.73,1.16h-21.77c-7.83,0-15.05-2.74-20.6-7.47-6.8,5.55-15.49,8.74-25.03,8.74-4.98,0-9.62-.62-13.87-1.82-4.87,1.42-9.92,2.14-15.07,2.14-29.01,0-50.07-19.42-50.07-46.16,0-7.33,1.59-14.21,4.63-20.34-.96-3.44-1.46-7.1-1.46-10.93,0-14.44,7.89-27.55,21.1-35.09,8.34-4.76,18.72-7.27,30.03-7.27,16.77,0,30.07,4.96,39.06,14.05-.28-4.29.34-8.66,1.94-12.84,1.35-3.51,3.3-6.64,5.71-9.33-4.29.76-8.84,1.15-13.65,1.15-13.74,0-26.28-4.06-36.23-11.55-5.96,6.43-14.16,9.96-23.77,9.96h-6.13c-5.71,0-10.92-1.26-15.46-3.62-4.8,3.17-10.56,4.98-16.78,4.98-3.13.01-6.17-.45-9.09-1.36h-54.05c-14.35,0-26.5-9.08-30.25-22.61-3.33-12.02,1.08-24.87,10.81-32.58v-26.41C3.69,50.27-.72,37.44,2.6,25.46,6.34,11.95,18.5,2.88,32.85,2.88h50.88c2.59-.8,5.68-1.38,9.17-1.38,13.73,0,25.18,8.81,29.17,21.46,3.87.03,7.58.7,11,1.94,3.48-1.27,7.23-1.95,11.12-1.95h16.05c4.28,0,8.38.82,12.13,2.32,6.8-2.55,14.22-3.9,21.99-3.9s14.62,1.27,20.93,3.63c3.54-1.33,7.39-2.05,11.39-2.05h13.52c.88,0,1.74.03,2.57.09,5.29-1.81,10.37-2.41,14.76-2.41,5.08,0,9.95.85,14.49,2.39.59-.03,1.18-.07,1.77-.07h22.4c2.96,0,5.82.38,8.53,1.08,2.68-.7,5.49-1.08,8.37-1.08h19.44c4.21,0,8.25.81,11.97,2.29,6.62-2.51,13.92-3.87,21.72-3.87s15.78,1.49,22.64,4.22c3.94-1.7,8.29-2.64,12.85-2.64h13.52c2.09,0,4.05.17,5.88.48,4.74-1.37,9.82-2.06,15.25-2.06,11.36,0,21.73,3.34,30.07,9.05,9.28-5.89,20.41-9.05,32.36-9.05,19.54,0,35.27,8.29,44.81,22.35,7-9.37,16.64-16.33,27.94-19.82.15-.44.31-.89.48-1.33,4.59-11.96,16.11-19.69,29.34-19.69h13.52c15.61,0,23.83,9.54,26.63,13.64,1.48,2.16,2.57,4.34,3.38,6.43,4.56-1.04,9.34-1.58,14.25-1.58,10.03,0,19.04,2.19,26.74,6.22,7.71-3.97,16.8-6.22,26.71-6.22,4.45,0,8.44.51,11.82,1.17,2.52-.73,5.38-1.21,8.58-1.21,5.63,0,11.39,1.63,16.37,4.81,7.38-3.12,15.56-4.77,24.18-4.77,7.6,0,14.61,1.27,20.92,3.63,3.55-1.33,7.39-2.05,11.4-2.05h13.52c.88,0,1.74.03,2.57.09,5.29-1.81,10.37-2.41,14.75-2.41,5.08,0,9.95.85,14.48,2.39.56-.03,1.12-.07,1.68-.07h18.07c3.97,0,7.77.68,11.27,1.95,3.48-1.27,7.23-1.95,11.12-1.95h16.06c4.27,0,8.37.82,12.12,2.32,6.8-2.55,14.22-3.9,21.99-3.9,10.03,0,19.05,2.19,26.75,6.22,7.71-3.97,16.8-6.22,26.7-6.22,4.45,0,8.45.51,11.83,1.17,2.52-.73,5.38-1.21,8.57-1.21,14.85,0,30.63,11.34,30.63,32.36v16.27c0,.21-.01.43-.01.64,3.46,6.26,5.29,13.4,5.29,21.02Z"/><path class="cls-2" d="M86.83,96.58c1.16-1.48,5.28-7.92,6.87-11.09l2.85-5.49c.74-1.37,1.8-1.06,1.69.63l-1.58,29.05c-.11,1.8-.95,1.37-2.01.53-.95-.63-1.8-.63-3.17-.63h-58.63c-1.69,0-1.69-1.16-.63-1.8l5.6-3.49c5.18-3.17,5.6-4.23,5.6-10.67v-44.79c0-6.55-.53-7.39-5.6-10.67l-5.6-3.59c-1.06-.63-1.06-1.69.63-1.69h55.57c1.37,0,2.22,0,3.06-.74,1.16-.74,2.01-1.16,2.11.53l1.27,24.72c.11,1.8-1.06,2.11-1.69.74l-2.85-5.6c-1.48-2.96-4.01-6.97-5.28-8.24-3.06-3.17-9.19-5.07-19.01-5.07-10.67,0-11.94,2.01-11.94,9.61v15.85h6.34c5.28,0,9.4-2.01,10.99-5.6l3.49-7.71c.42-.95,1.48-.95,1.48.63v31.58c0,1.69-1.06,1.69-1.48.74l-3.49-7.71c-1.69-3.7-5.7-5.7-10.99-5.7h-6.34v22.71c0,6.87,4.44,9.61,15,9.61,8.56,0,14.58-2.85,17.75-6.65Z"/><path class="cls-2" d="M146.19,63.62c1.48-3.91,1.27-4.86-.11-6.23l-2.54-2.64c-1.06-1.06-1.06-1.8.63-1.8h16.06c1.69,0,2.11.84.74,1.8l-2.64,1.9c-1.58,1.16-2.85,3.17-4.01,6.23l-17.11,44.37c-.84,2.22-1.16,2.32-2.85,2.32h-6.13c-1.69,0-2.01-.11-2.85-2.32l-16.27-45.32c-.84-2.32-1.9-4.01-3.59-5.28l-2.54-1.9c-1.37-.95-.95-1.8.74-1.8h18.06c1.8,0,1.69.63.63,1.8l-2.54,2.64c-1.37,1.37-1.48,2.22-.11,6.23l12.36,36.23,14.05-36.23Z"/><path class="cls-2" d="M176.61,81.9c0,14.16,7.29,22.29,18.91,22.29,8.13,0,13.52-4.96,13.52-9.61,0-2.85-3.06-3.91-2.54-4.86.42-.84,1.8-1.06,4.54-1.06,3.27,0,7.08,3.49,7.08,7.71,0,9.4-9.08,14.79-23.77,14.79-18.8,0-28.63-12.57-28.63-29.37,0-19.54,11.73-30.42,28.63-30.42,17.96,0,24.93,12.15,24.93,28.31,0,1.27-.32,2.22-1.48,2.22h-41.2ZM177.14,75.56h32.01c-.11-10.88-7.08-17.22-14.58-17.22-9.82,0-16.16,7.61-17.43,17.22Z"/><path class="cls-2" d="M244.43,103.66l4.75,4.12c1.06.95,1.06,1.8-.74,1.8h-21.76c-1.69,0-1.58-.95-.63-1.8l4.75-4.12c2.01-1.69,1.9-2.22,1.9-5.6v-33.59c0-3.38.11-3.91-1.9-5.6l-4.75-4.12c-1.06-.95-1.06-1.8.63-1.8h13.52c1.9,0,2.32.42,2.32,3.8v3.8c4.23-6.76,8.56-9.93,15-9.93,7.39,0,13.42,5.49,13.42,11.62s-4.86,9.93-8.77,9.93c-.84,0-3.8-.32-3.8-.95,0-.53,3.59-2.01,3.59-6.23,0-3.49-3.49-6.97-7.29-6.97-7.39,0-12.15,6.34-12.15,23.13v16.9c0,3.38-.11,3.8,1.9,5.6Z"/><path class="cls-2" d="M286.79,134.61c-10.56,0-17.11-4.65-17.11-12.78,0-6.02,4.33-10.25,9.93-10.25,2.64,0,5.81.84,5.49,2.75-.11.95-6.34,1.16-6.34,6.76,0,3.8,3.17,6.02,8.24,6.02,4.23,0,7.82-2.64,9.19-5.92l3.7-9.19-19.12-50.07c-.53-1.37-2.01-3.06-5.07-5.28l-2.64-1.9c-1.27-.95-.84-1.8.74-1.8h22.39c1.8,0,2.01.84.74,1.8l-3.06,2.32c-3.06,2.32-3.59,3.38-2.43,6.55l13.42,36.23,13.1-36.23c.95-2.64.53-4.12-2.43-6.34l-3.28-2.43c-1.16-.85-.95-1.9.85-1.9h19.44c1.58,0,2.01.84.74,1.8l-2.64,1.9c-3.49,2.54-4.54,4.01-5.39,6.23l-22.71,61.59c-2.43,6.55-7.71,10.14-15.74,10.14Z"/><path class="cls-2" d="M394.43,81.37c0,18.49-11.2,29.79-28.21,29.79s-28.21-11.2-28.21-29.79,11.2-30,28.21-30,28.21,11.51,28.21,30ZM348.9,81.37c0,14.47,7.5,22.82,17.32,22.82s17.32-8.56,17.32-22.82-7.5-23.03-17.32-23.03-17.32,8.56-17.32,23.03Z"/><path class="cls-2" d="M419.46,103.66l4.75,4.12c1.06.95,1.06,1.8-.74,1.8h-21.76c-1.69,0-1.58-.95-.63-1.8l4.75-4.12c2.01-1.69,1.9-2.22,1.9-5.6v-33.59c0-3.38.11-3.91-1.9-5.6l-4.75-4.12c-1.06-.95-1.06-1.8.63-1.8h13.52c1.9,0,2.32.42,2.32,3.8v5.92c4.96-8.35,10.46-11.3,18.8-11.3,11.3,0,20.39,6.87,20.39,17.01v29.68c0,3.38-.11,3.91,1.9,5.6l4.75,4.12c1.06.95,1.06,1.8-.74,1.8h-21.76c-1.69,0-1.58-.95-.63-1.8l4.75-4.12c2.01-1.69,1.9-2.22,1.9-5.6v-25.99c0-8.13-5.6-12.57-12.89-12.57-12.57,0-16.48,8.98-16.48,18.91v19.65c0,3.38-.11,3.8,1.9,5.6Z"/><path class="cls-2" d="M481.04,81.9c0,14.16,7.29,22.29,18.91,22.29,8.13,0,13.52-4.96,13.52-9.61,0-2.85-3.06-3.91-2.54-4.86.42-.84,1.8-1.06,4.54-1.06,3.27,0,7.08,3.49,7.08,7.71,0,9.4-9.08,14.79-23.77,14.79-18.8,0-28.63-12.57-28.63-29.37,0-19.54,11.73-30.42,28.63-30.42,17.96,0,24.93,12.15,24.93,28.31,0,1.27-.32,2.22-1.48,2.22h-41.2ZM481.57,75.56h32.01c-.11-10.88-7.08-17.22-14.58-17.22-9.82,0-16.16,7.61-17.43,17.22Z"/><path class="cls-2" d="M619.1,103.66l4.75,4.12c1.06.95,1.06,1.8-.74,1.8h-13.52c-1.8,0-2.32-.42-2.22-3.8l.11-4.44c-5.92,7.61-13.94,9.82-21.02,9.82-14.05,0-25.14-9.3-25.14-28.84s12.15-30.95,27.25-30.95c7.92,0,12.25,2.01,18.8,7.92v-15c0-3.38.11-3.8-1.9-5.49l-4.75-4.23c-1.06-.95-1.06-1.69.63-1.69h13.52c1.9,0,2.32.32,2.32,3.7v61.48c0,3.59.42,4.33,1.9,5.6ZM606.85,81.16c0-14.37-7.5-22.82-17.32-22.82s-17.32,8.56-17.32,22.82,7.5,23.03,17.32,23.03,17.32-8.56,17.32-23.03Z"/><path class="cls-2" d="M641.39,81.9c0,14.16,7.29,22.29,18.91,22.29,8.13,0,13.52-4.96,13.52-9.61,0-2.85-3.06-3.91-2.54-4.86.42-.84,1.8-1.06,4.54-1.06,3.27,0,7.08,3.49,7.08,7.71,0,9.4-9.08,14.79-23.77,14.79-18.8,0-28.63-12.57-28.63-29.37,0-19.54,11.73-30.42,28.63-30.42,17.96,0,24.93,12.15,24.93,28.31,0,1.27-.32,2.22-1.48,2.22h-41.2ZM641.92,75.56h32.01c-.11-10.88-7.08-17.22-14.58-17.22-9.82,0-16.16,7.61-17.43,17.22Z"/><path class="cls-2" d="M733.61,69.96c0,1.37-1.06,1.27-1.48.53l-1.9-3.17c-3.91-6.44-9.72-9.3-15.74-9.3-8.03,0-13.42,2.96-13.42,8.03,0,3.91,2.96,6.55,12.89,8.56l5.28,1.06c13.73,2.75,19.65,7.39,19.65,15.95,0,12.78-10.35,19.54-25.78,19.54-8.87,0-14.05-3.59-16.37-3.59-.53,0-1.58,1.06-3.06,2.01-2.85,1.9-3.49,1.9-3.49-.95v-21.02c0-1.37,1.27-1.37,2.01.21l2.85,5.81c3.59,7.29,10.14,10.56,18.49,10.56,9.19,0,15.21-3.7,15.21-9.93,0-4.86-2.75-7.39-13.84-9.72l-5.07-1.06c-14.16-2.96-19.12-7.92-19.12-15.74,0-9.93,9.3-16.37,21.87-16.37,7.29,0,12.99,2.85,15,2.85.95,0,1.58-.53,2.96-1.48,2.85-2.11,3.06-1.9,3.06.95v16.27Z"/><path class="cls-2" d="M755.79,81.9c0,14.16,7.29,22.29,18.91,22.29,8.13,0,13.52-4.96,13.52-9.61,0-2.85-3.06-3.91-2.54-4.86.42-.84,1.8-1.06,4.54-1.06,3.27,0,7.08,3.49,7.08,7.71,0,9.4-9.08,14.79-23.77,14.79-18.8,0-28.63-12.57-28.63-29.37,0-19.54,11.73-30.42,28.63-30.42,17.96,0,24.93,12.15,24.93,28.31,0,1.27-.32,2.22-1.48,2.22h-41.2ZM756.32,75.56h32.01c-.11-10.88-7.08-17.22-14.58-17.22-9.82,0-16.16,7.61-17.43,17.22Z"/><path class="cls-2" d="M823.6,103.66l4.75,4.12c1.06.95,1.06,1.8-.74,1.8h-21.76c-1.69,0-1.58-.95-.63-1.8l4.75-4.12c2.01-1.69,1.9-2.22,1.9-5.6v-33.59c0-3.38.11-3.91-1.9-5.6l-4.75-4.12c-1.06-.95-1.06-1.8.63-1.8h13.52c1.9,0,2.32.42,2.32,3.8v3.8c4.23-6.76,8.56-9.93,15-9.93,7.39,0,13.42,5.49,13.42,11.62s-4.86,9.93-8.77,9.93c-.84,0-3.8-.32-3.8-.95,0-.53,3.59-2.01,3.59-6.23,0-3.49-3.49-6.97-7.29-6.97-7.39,0-12.15,6.34-12.15,23.13v16.9c0,3.38-.11,3.8,1.9,5.6Z"/><path class="cls-2" d="M895.33,63.62c1.48-3.91,1.27-4.86-.11-6.23l-2.54-2.64c-1.06-1.06-1.06-1.8.63-1.8h16.06c1.69,0,2.11.84.74,1.8l-2.64,1.9c-1.58,1.16-2.85,3.17-4.01,6.23l-17.11,44.37c-.84,2.22-1.16,2.32-2.85,2.32h-6.13c-1.69,0-2.01-.11-2.85-2.32l-16.27-45.32c-.84-2.32-1.9-4.01-3.59-5.28l-2.54-1.9c-1.37-.95-.95-1.8.74-1.8h18.06c1.8,0,1.69.63.63,1.8l-2.54,2.64c-1.37,1.37-1.48,2.22-.11,6.23l12.36,36.23,14.05-36.23Z"/><path class="cls-2" d="M925.75,81.9c0,14.16,7.29,22.29,18.91,22.29,8.13,0,13.52-4.96,13.52-9.61,0-2.85-3.06-3.91-2.54-4.86.42-.84,1.8-1.06,4.54-1.06,3.27,0,7.08,3.49,7.08,7.71,0,9.4-9.08,14.79-23.77,14.79-18.8,0-28.63-12.57-28.63-29.37,0-19.54,11.73-30.42,28.63-30.42,17.96,0,24.93,12.15,24.93,28.31,0,1.27-.32,2.22-1.48,2.22h-41.2ZM926.28,75.56h32.01c-.11-10.88-7.08-17.22-14.58-17.22-9.82,0-16.16,7.61-17.43,17.22Z"/><path class="cls-2" d="M1017.97,69.96c0,1.37-1.06,1.27-1.48.53l-1.9-3.17c-3.91-6.44-9.72-9.3-15.74-9.3-8.03,0-13.42,2.96-13.42,8.03,0,3.91,2.96,6.55,12.89,8.56l5.28,1.06c13.73,2.75,19.65,7.39,19.65,15.95,0,12.78-10.35,19.54-25.78,19.54-8.87,0-14.05-3.59-16.37-3.59-.53,0-1.58,1.06-3.06,2.01-2.85,1.9-3.49,1.9-3.49-.95v-21.02c0-1.37,1.27-1.37,2.01.21l2.85,5.81c3.59,7.29,10.14,10.56,18.49,10.56,9.19,0,15.21-3.7,15.21-9.93,0-4.86-2.75-7.39-13.84-9.72l-5.07-1.06c-14.16-2.96-19.12-7.92-19.12-15.74,0-9.93,9.3-16.37,21.87-16.37,7.29,0,12.99,2.85,15,2.85.95,0,1.58-.53,2.96-1.48,2.85-2.11,3.06-1.9,3.06.95v16.27Z"/><path class="cls-2" d="M186.01,237.6c-8.24,0-10.14-2.64-11.62-6.66-6.13,5.39-12.04,6.97-17.32,6.97-11.62,0-20.07-5.6-20.07-16.16s7.82-15.21,20.39-17.43l4.86-.85c7.29-1.27,10.88-4.65,10.88-9.4,0-5.28-5.18-9.19-11.83-9.19-6.13,0-11.62,2.64-11.62,7.39,0,4.33,3.49,4.44,3.27,5.7-.21.53-1.48,1.16-3.8,1.16-5.28,0-8.98-2.85-8.98-8.66,0-7.61,8.87-12.36,21.13-12.36,17.96,0,22.29,7.18,22.29,20.49v25.67c0,4.23,2.11,6.34,5.39,6.34s5.28-3.91,6.34-3.38c.85.42-.11,10.35-9.3,10.35ZM160.77,210.56c-7.82,1.37-12.68,5.92-12.68,11.3,0,5.81,4.23,9.61,10.88,9.61,8.98,0,14.79-7.61,14.79-18.7v-6.02c-1.8,1.16-4.23,2.32-8.13,2.96l-4.86.85Z"/><path class="cls-2" d="M249.39,230.42l4.75,4.12c1.06.95,1.06,1.8-.74,1.8h-21.76c-1.69,0-1.58-.95-.63-1.8l4.75-4.12c2.01-1.69,1.9-2.22,1.9-5.6v-53.77c0-3.38.11-3.8-1.9-5.49l-4.75-4.23c-1.06-.95-1.06-1.69.63-1.69h13.52c1.9,0,2.32.32,2.32,3.7v26.09c4.96-8.35,10.46-11.3,18.8-11.3,11.3,0,20.39,6.87,20.39,17.01v29.68c0,3.38-.11,3.91,1.9,5.6l4.75,4.12c1.06.95,1.06,1.8-.74,1.8h-21.76c-1.69,0-1.58-.95-.63-1.8l4.75-4.12c2.01-1.69,1.9-2.22,1.9-5.6v-25.99c0-8.13-5.6-12.57-12.89-12.57-12.57,0-16.48,8.98-16.48,18.91v19.65c0,3.38-.11,3.8,1.9,5.6Z"/><path class="cls-2" d="M310.97,208.66c0,14.16,7.29,22.29,18.91,22.29,8.13,0,13.52-4.96,13.52-9.61,0-2.85-3.06-3.91-2.54-4.86.42-.84,1.8-1.06,4.54-1.06,3.27,0,7.08,3.49,7.08,7.71,0,9.4-9.08,14.79-23.77,14.79-18.8,0-28.63-12.57-28.63-29.37,0-19.54,11.73-30.42,28.63-30.42,17.96,0,24.93,12.15,24.93,28.31,0,1.27-.32,2.22-1.48,2.22h-41.2ZM311.5,202.32h32.01c-.11-10.88-7.08-17.22-14.58-17.22-9.82,0-16.16,7.61-17.43,17.22Z"/><path class="cls-2" d="M367.06,171.05c0-3.38.11-3.8-1.9-5.49l-4.75-4.23c-1.06-.95-1.06-1.69.63-1.69h13.52c1.9,0,2.32.32,2.32,3.7v61.48c0,3.38-.11,3.91,1.9,5.6l4.75,4.12c1.06.95,1.06,1.8-.74,1.8h-21.76c-1.69,0-1.58-.95-.63-1.8l4.75-4.12c2.01-1.69,1.9-2.22,1.9-5.6v-53.77Z"/><path class="cls-2" d="M428.33,178.13c14.05,0,25.14,9.3,25.14,28.94s-12.15,30.85-27.25,30.85c-8.03,0-12.36-2.01-18.8-7.92v18.28c0,3.38-.11,3.7,1.9,5.49l4.75,4.23c1.06.95,1.06,1.69-.74,1.69h-21.76c-1.69,0-1.58-.85-.63-1.69l4.75-4.23c2.01-1.69,1.9-2.11,1.9-5.49v-57.04c0-3.38.11-3.91-1.9-5.6l-4.75-4.12c-1.06-.95-1.06-1.8.63-1.8h13.52c1.9,0,2.43.42,2.32,3.8l-.11,4.44c5.92-7.5,13.94-9.82,21.02-9.82ZM407.94,208.13c0,14.47,7.5,22.82,17.32,22.82s17.32-8.56,17.32-22.82-7.5-23.03-17.32-23.03-17.32,8.56-17.32,23.03Z"/><path class="cls-2" d="M466.78,191.23c0-3.38.11-3.91-1.9-5.6l-4.75-4.12c-1.06-.95-1.06-1.8.63-1.8h13.52c1.9,0,2.32.42,2.32,3.8v41.3c0,3.38-.11,3.91,1.9,5.6l4.75,4.12c1.06.95,1.06,1.8-.74,1.8h-21.76c-1.69,0-1.58-.95-.63-1.8l4.75-4.12c2.01-1.69,1.9-2.22,1.9-5.6v-33.59ZM477.98,164.92c0,3.7-3.17,6.65-6.87,6.65s-6.97-2.96-6.97-6.65,3.17-6.97,6.97-6.97,6.87,3.17,6.87,6.97Z"/><path class="cls-2" d="M509.03,230.42l4.75,4.12c1.06.95,1.06,1.8-.74,1.8h-21.76c-1.69,0-1.58-.95-.63-1.8l4.75-4.12c2.01-1.69,1.9-2.22,1.9-5.6v-33.59c0-3.38.11-3.91-1.9-5.6l-4.75-4.12c-1.06-.95-1.06-1.8.63-1.8h13.52c1.9,0,2.32.42,2.32,3.8v5.92c4.96-8.35,10.46-11.3,18.8-11.3,11.3,0,20.39,6.87,20.39,17.01v29.68c0,3.38-.11,3.91,1.9,5.6l4.75,4.12c1.06.95,1.06,1.8-.74,1.8h-21.76c-1.69,0-1.58-.95-.63-1.8l4.75-4.12c2.01-1.69,1.9-2.22,1.9-5.6v-25.99c0-8.13-5.6-12.57-12.89-12.57-12.57,0-16.48,8.98-16.48,18.91v19.65c0,3.38-.11,3.8,1.9,5.6Z"/><path class="cls-2" d="M610.12,173.16c0-2.22-2.11-4.54-5.07-4.54-2.75,0-5.49,2.85-5.49,6.02,0,2.11,1.06,4.44,2.75,7.08,4.12,6.66,6.44,12.78,6.44,17.22,0,11.09-9.19,20.6-23.13,20.6-9.72,0-10.77-3.17-13.52-3.17-1.16,0-3.17,1.16-3.17,4.12,0,4.54,4.54,7.08,16.48,7.08h8.24c13.52,0,22.08,5.81,22.08,14.68,0,12.47-11.83,19.44-30.74,19.44-17.01,0-28.1-4.96-28.1-14.79,0-4.65,3.91-8.13,8.45-8.13,1.8,0,7.08.63,6.76,2.75-.21.95-6.13.74-6.13,4.54,0,4.33,4.86,8.56,21.02,8.56,15.11,0,19.01-5.7,19.01-10.46,0-6.23-7.39-7.71-17.11-7.71h-6.23c-12.57,0-22.92-4.33-22.92-13.2,0-4.01,1.06-7.08,7.82-10.99-2.85-4.44-4.33-8.98-4.33-13.42,0-12.36,9.19-20.7,22.71-20.7,3.49,0,6.87.63,9.82,1.48-.84-2.32-1.37-4.65-1.37-6.87,0-6.55,5.18-10.88,11.94-10.88,5.7,0,9.61,3.38,9.61,8.24,0,6.55-6.34,9.51-7.5,8.56-.95-.84,1.69-2.01,1.69-5.49ZM572.52,198.83c0,7.5,5.7,13.73,13.21,13.73s13.31-6.23,13.31-13.73-5.7-13.84-13.31-13.84-13.21,6.23-13.21,13.84Z"/><path class="cls-2" d="M672.34,230.42l4.75,4.12c1.06.95,1.06,1.8-.74,1.8h-21.76c-1.69,0-1.58-.95-.63-1.8l4.75-4.12c2.01-1.69,1.9-2.22,1.9-5.6v-53.77c0-3.38.11-3.8-1.9-5.49l-4.75-4.23c-1.06-.95-1.06-1.69.63-1.69h13.52c1.9,0,2.32.32,2.32,3.7v26.09c4.96-8.35,10.46-11.3,18.8-11.3,11.3,0,20.39,6.87,20.39,17.01v29.68c0,3.38-.11,3.91,1.9,5.6l4.75,4.12c1.06.95,1.06,1.8-.74,1.8h-21.76c-1.69,0-1.58-.95-.63-1.8l4.75-4.12c2.01-1.69,1.9-2.22,1.9-5.6v-25.99c0-8.13-5.6-12.57-12.89-12.57-12.57,0-16.48,8.98-16.48,18.91v19.65c0,3.38-.11,3.8,1.9,5.6Z"/><path class="cls-2" d="M772.06,237.6c-8.24,0-10.14-2.64-11.62-6.66-6.13,5.39-12.04,6.97-17.32,6.97-11.62,0-20.07-5.6-20.07-16.16s7.82-15.21,20.39-17.43l4.86-.85c7.29-1.27,10.88-4.65,10.88-9.4,0-5.28-5.18-9.19-11.83-9.19-6.13,0-11.62,2.64-11.62,7.39,0,4.33,3.49,4.44,3.27,5.7-.21.53-1.48,1.16-3.8,1.16-5.28,0-8.98-2.85-8.98-8.66,0-7.61,8.87-12.36,21.13-12.36,17.96,0,22.29,7.18,22.29,20.49v25.67c0,4.23,2.11,6.34,5.39,6.34s5.28-3.91,6.34-3.38c.85.42-.11,10.35-9.3,10.35ZM746.81,210.56c-7.82,1.37-12.68,5.92-12.68,11.3,0,5.81,4.23,9.61,10.88,9.61,8.98,0,14.79-7.61,14.79-18.7v-6.02c-1.8,1.16-4.23,2.32-8.13,2.96l-4.86.85Z"/><path class="cls-2" d="M803.96,230.42l4.75,4.12c1.06.95,1.06,1.8-.74,1.8h-21.76c-1.69,0-1.58-.95-.63-1.8l4.75-4.12c2.01-1.69,1.9-2.22,1.9-5.6v-33.59c0-3.38.11-3.91-1.9-5.6l-4.75-4.12c-1.06-.95-1.06-1.8.63-1.8h13.52c1.9,0,2.32.42,2.32,3.8v5.92c4.96-8.35,10.46-11.3,18.8-11.3,11.3,0,20.39,6.87,20.39,17.01v29.68c0,3.38-.11,3.91,1.9,5.6l4.75,4.12c1.06.95,1.06,1.8-.74,1.8h-21.76c-1.69,0-1.58-.95-.63-1.8l4.75-4.12c2.01-1.69,1.9-2.22,1.9-5.6v-25.99c0-8.13-5.6-12.57-12.89-12.57-12.57,0-16.48,8.98-16.48,18.91v19.65c0,3.38-.11,3.8,1.9,5.6Z"/><path class="cls-2" d="M912.44,230.42l4.75,4.12c1.06.95,1.06,1.8-.74,1.8h-13.52c-1.8,0-2.32-.42-2.22-3.8l.11-4.44c-5.92,7.61-13.94,9.82-21.02,9.82-14.05,0-25.14-9.3-25.14-28.84s12.15-30.95,27.25-30.95c7.92,0,12.25,2.01,18.8,7.92v-15c0-3.38.11-3.8-1.9-5.49l-4.75-4.23c-1.06-.95-1.06-1.69.63-1.69h13.52c1.9,0,2.32.32,2.32,3.7v61.48c0,3.59.42,4.33,1.9,5.6ZM900.19,207.92c0-14.37-7.5-22.82-17.32-22.82s-17.32,8.56-17.32,22.82,7.5,23.03,17.32,23.03,17.32-8.56,17.32-23.03Z"/></g></svg>