<?xml version="1.0" encoding="UTF-8"?><svg id="Layer_2" xmlns="http://www.w3.org/2000/svg" viewBox="0 0 1965.92 293.49"><defs><style>.cls-1{fill:#f9f3b2;stroke-width:3px;}.cls-1,.cls-2{stroke:#0f76ae;stroke-miterlimit:10;}.cls-2{fill:#0f76ae;stroke-width:2px;}</style></defs><g id="Layer_1-2"><path class="cls-1" d="M1962.4,246.89c-4.61,12-16.16,19.75-29.44,19.75h-21.76c-1.48,0-2.94-.11-4.37-.3-1.44.19-2.91.3-4.4.3h-21.76c-3.58,0-7.03-.59-10.26-1.66-6.58,2.16-13.96,3.25-22.06,3.25-10.85,0-20.96-2.53-29.63-7.28-8.61,4.67-19.06,7.28-30.79,7.28-5.17,0-9.71-.65-13.48-1.48-2.53.72-5.42,1.22-8.6,1.22-7.68,0-14.86-2.9-20.36-7.79-5.39,4.11-12.16,6.46-19.46,6.46h-13.52c-1.98,0-3.84-.15-5.59-.42-4.78,1.33-9.93,2.01-15.43,2.01-11.31,0-21.62-3.32-29.94-8.97-9.01,5.73-19.89,8.97-31.96,8.97-13.03,0-24.67-3.77-34.05-10.37l-1.5,4.06c-6.92,18.65-23.32,29.76-43.89,29.76-11.67,0-22.15-3.18-30.31-9.19-6.2-4.57-10.86-10.63-13.68-17.54-5.36,2.12-11.28,3.28-17.59,3.28-7.06,0-13.48-1.14-19.15-3.28-4.69,1.92-9.85,2.96-15.28,2.96-4.99,0-9.63-.62-13.87-1.82-4.88,1.41-9.93,2.14-15.08,2.14-6.6,0-12.78-1.02-18.4-2.89-2.91.85-5.99,1.3-9.17,1.3h-21.76c-3,0-5.92-.4-8.69-1.16-2.78.76-5.71,1.16-8.74,1.16h-21.76c-1.69,0-3.36-.13-4.99-.38-4.32,1.28-8.95,1.97-13.81,1.97-17.78,0-31.55-7.22-39.2-19.54-9.76,12.18-25.9,19.54-45.62,19.54-2.29,0-4.44-.13-6.47-.35-8.99,13.86-26.36,24.11-53.32,24.11-29.56,0-45.97-11.46-53.31-25.35h-1.19c-3.01,0-5.93-.4-8.7-1.16-2.78.76-5.71,1.16-8.73,1.16h-21.77c-1.48,0-2.93-.11-4.37-.3-1.44.19-2.9.3-4.39.3h-21.76c-1.48,0-2.94-.11-4.37-.3-1.44.19-2.91.3-4.4.3h-21.76c-3,0-5.92-.4-8.69-1.16-2.78.76-5.72,1.16-8.74,1.16h-21.76c-1.7,0-3.36-.13-4.99-.38-4.32,1.28-8.95,1.97-13.81,1.97-17.57,0-31.22-7.04-38.93-19.1-3.21,4.19-7.26,7.84-12.06,10.79-8.97,5.51-20.11,8.31-33.09,8.31-8.25,0-16.06-1.48-23.15-4.26-3.97,1.72-8.37,2.67-12.98,2.67h-21.76c-3,0-5.92-.4-8.69-1.16-2.78.76-5.71,1.16-8.74,1.16h-21.76c-1.69,0-3.36-.13-4.99-.38-4.32,1.28-8.95,1.97-13.81,1.97-17.78,0-31.55-7.22-39.2-19.54-9.76,12.18-25.9,19.54-45.62,19.54-5.17,0-9.71-.65-13.48-1.48-2.53.72-5.42,1.22-8.6,1.22-2.2,0-4.35-.26-6.43-.71-2.37.42-4.8.65-7.3.65-4.99,0-9.62-.62-13.87-1.82-4.87,1.41-9.92,2.14-15.07,2.14-14.7,0-27.34-4.99-36.25-13.38-8.15,8.34-19.66,13.38-32.84,13.38-6.96,0-13.3-1.11-18.9-3.19-3.2,1.04-6.61,1.6-10.14,1.6h-21.76c-3.01,0-5.93-.4-8.7-1.16-2.78.76-5.71,1.16-8.73,1.16h-21.77c-1.11,0-2.21-.07-3.3-.18-3.44.94-7.08,1.45-10.85,1.45-4.98,0-9.62-.62-13.87-1.82-4.87,1.41-9.92,2.14-15.07,2.14-7.15,0-13.81-1.19-19.8-3.36-5.42,2.17-11.42,3.36-17.81,3.36-11.08,0-20.6-2.81-28.06-7.9-5.36,4.01-12.05,6.31-19.26,6.31h-21.76c-4.55,0-8.89-.94-12.82-2.64-6.87,2.74-14.5,4.23-22.67,4.23-11.8,0-22.45-3.09-31.33-8.57-3.77,2.39-7.85,4.32-12.18,5.74-.33,1.64-.8,3.27-1.42,4.87-4.59,11.98-16.15,19.72-29.44,19.72h-21.76c-13.24,0-24.75-7.77-29.33-19.8-.44-1.17-.8-2.36-1.1-3.55-2.82-.01-5.57-.37-8.18-1.05-2.65.69-5.43,1.05-8.29,1.05h-21.76c-2.88,0-5.67-.36-8.33-1.06-2.67.7-5.47,1.06-8.36,1.06h-21.76c-1.48,0-2.94-.11-4.37-.3-1.44.19-2.9.3-4.39.3h-21.77c-13.23,0-24.74-7.78-29.32-19.83-4.02-10.56-1.89-22.22,5.34-30.87v-15.22c-7.27-8.7-9.41-20.41-5.35-30.97.74-1.92,1.65-3.74,2.73-5.43.48-19.96,16.87-36.06,36.96-36.06,14.92,0,27.79,8.94,33.58,21.76h.11c2.05,0,3.97.16,5.77.46,5.16-1.52,10.13-2.04,14.51-2.04,6.93,0,13.56,1.24,19.6,3.54,6.65-2.69,13.17-3.54,18.75-3.54,7.8,0,15.14,1.58,21.67,4.41,4.05-1.82,8.56-2.83,13.29-2.83h13.52c2.48,0,4.77.24,6.88.66,5.18-1.48,10.66-2.24,16.36-2.24,10.65,0,20.64,2.76,29.1,7.95,8.67-5.1,18.94-7.95,30.27-7.95,8.16,0,15.78,1.49,22.64,4.22,3.94-1.7,8.29-2.64,12.85-2.64h13.52c.88,0,1.74.03,2.57.09,5.29-1.82,10.37-2.41,14.75-2.41,1.63,0,3.24.09,4.82.26l.81-1.31.26-.39c1.61-2.42,3.47-4.54,5.53-6.38h-4.23c-1.48,0-2.94-.11-4.37-.3-1.44.19-2.9.3-4.4.3h-13.52c-1.98,0-3.84-.15-5.59-.42-4.78,1.33-9.93,2.01-15.43,2.01-11.3,0-21.62-3.32-29.94-8.97-9.01,5.73-19.88,8.97-31.96,8.97s-23.46-3.39-32.59-9.37c-5.59,4.91-12.98,7.78-21.07,7.78h-31.69c-14.4,0-26.6-9.1-30.35-22.64-3.32-12.01,1.09-24.85,10.81-32.55v-2.22s-13.19-20.21-13.22-20.25l-3.22-2.11c-11.5-7.36-16.99-21.35-13.39-34.34,3.74-13.51,15.89-22.58,30.25-22.58h29.79c2.27,0,4.49.23,6.62.66,2.13-.43,4.33-.66,6.58-.66h28c12.91,0,24.03,7.36,28.86,18.67,1.52-.11,3.06-.18,4.62-.18,8.17,0,15.78,1.49,22.64,4.22,3.94-1.7,8.29-2.64,12.85-2.64h13.52c5.11,0,9.42,1.02,13.01,2.54,3.89-1.65,8.18-2.54,12.66-2.54h13.52c3.21,0,6.1.41,8.7,1.08,2.66-.69,5.44-1.08,8.31-1.08h13.52c.88,0,1.74.03,2.57.09,5.29-1.82,10.37-2.41,14.76-2.41,10.39,0,19.93,3.52,27.41,9.38,5.52-4.46,12.59-7.06,20.22-7.06h18.07c3.97,0,7.77.68,11.27,1.94,3.32-1.2,6.89-1.87,10.59-1.93,5.81-12.82,18.73-21.77,33.7-21.77s27.08,8.45,33.09,20.71c2.66-.35,5.4-.53,8.21-.53,4.45,0,8.44.51,11.82,1.16,2.52-.72,5.39-1.2,8.58-1.2,3.4,0,6.86.6,10.16,1.77,1-.09,2-.15,3.03-.15h13.52c5.1,0,9.41,1.02,13.01,2.54,3.89-1.65,8.18-2.54,12.66-2.54h13.52c5.94,0,10.81,1.38,14.73,3.33,7.41-3.22,16.04-4.91,25.3-4.91,3.41,0,6.67.21,9.79.62,4.74-11.63,16.08-19.11,29.09-19.11h13.52c15.61,0,23.82,9.54,26.63,13.64,4.89,7.14,5.58,14.43,5.67,18.38,9.29-8.44,22.37-13.53,37.31-13.53,4.45,0,8.44.51,11.82,1.16,2.46-.71,5.25-1.17,8.34-1.19l1.1-1.76.26-.39c6.01-9.01,15.43-14.18,25.86-14.18,13.17,0,24.13,8.18,28.47,19.98.45.16.88.35,1.3.53,6.82-2.69,14.37-4.15,22.46-4.15s15.78,1.49,22.64,4.22c3.94-1.7,8.29-2.64,12.85-2.64h13.52c.88,0,1.74.03,2.57.09,5.29-1.82,10.37-2.41,14.75-2.41,5.09,0,9.96.85,14.5,2.39.59-.03,1.17-.07,1.77-.07h22.4c2.95,0,5.82.37,8.53,1.08,2.68-.71,5.48-1.08,8.37-1.08h11.76l2.1-3.37.26-.39c6.01-9.01,15.44-14.18,25.86-14.18,13.17,0,24.14,8.18,28.48,19.98.48.18.94.37,1.4.57,7.01-2.75,14.71-4.19,22.78-4.19,1.16,0,2.31.03,3.45.09,4.87-11.32,16.06-18.58,28.87-18.58h13.52c3.19,0,6.07.41,8.66,1.09,2.67-.7,5.46-1.09,8.34-1.09h13.52c4.38,0,8.16.76,11.41,1.93,4.83-2.32,10.24-3.62,15.95-3.62,14.92,0,27.79,8.94,33.59,21.76h.11c2.09,0,4.04.17,5.87.48,4.74-1.38,9.83-2.06,15.25-2.06,11.16,0,21.36,3.23,29.62,8.75,4.71-3.09,10-5.45,15.75-6.93,7.45-10.98,20.22-18.09,35.02-18.09,11.35,0,21.43,4.39,28.59,11.54,6.72-9.35,17.67-15.45,30.03-15.45,14.51,0,27.09,8.45,33.1,20.71,2.66-.35,5.4-.53,8.21-.53,4.45,0,8.44.51,11.82,1.16,2.52-.72,5.38-1.2,8.58-1.2,6.8,0,13.79,2.39,19.38,6.99,4.32-15.63,18.66-27.13,35.64-27.13,14.92,0,27.79,8.94,33.58,21.76h.11c5.1,0,9.42,1.02,13.01,2.54,3.89-1.65,8.18-2.54,12.66-2.54h13.52c5.81,0,10.59,1.32,14.46,3.2,7.02-3.07,15.03-4.78,23.67-4.78,4.45,0,8.45.51,11.83,1.16,2.45-.71,5.24-1.17,8.34-1.19l1.09-1.76.27-.39c6-9.01,15.43-14.18,25.86-14.18,13.16,0,24.13,8.18,28.47,19.98,6.27,2.34,10.48,6.29,13.12,9.65,2.43-2.25,5.16-4.28,8.18-6.01,8.34-4.75,18.72-7.26,30.02-7.26,12.23,0,22.61,2.63,30.82,7.57,8.21-4.82,18.19-7.57,29.18-7.57,4.45,0,8.45.51,11.83,1.16,2.52-.72,5.38-1.2,8.57-1.2,14.85,0,30.62,11.34,30.62,32.36v16.91c3.46,6.25,5.29,13.39,5.29,21.01,0,29.17-22.94,49.55-55.78,49.55-5.17,0-9.71-.65-13.48-1.48-2.53.72-5.41,1.22-8.6,1.22-2.19,0-4.34-.26-6.43-.71-2.37.42-4.8.65-7.3.65-4.98,0-9.62-.62-13.87-1.82-4.87,1.41-9.92,2.14-15.07,2.14-14.69,0-27.34-4.99-36.25-13.38-8.14,8.34-19.66,13.38-32.83,13.38-9.64,0-18.09-2.12-25.04-6.02-8.11,3.87-17.69,6.02-28.31,6.02-5.17,0-9.7-.65-13.48-1.48-2.53.72-5.41,1.22-8.6,1.22s-6.02-.47-8.84-1.33h-13.02c-1.98,0-3.84-.15-5.59-.42-4.78,1.33-9.93,2.01-15.43,2.01-5.91,0-11.54-.92-16.77-2.58-2.29,4.38-5.22,8.29-8.74,11.66,1.87-.34,3.8-.53,5.76-.53h22.39c2.96,0,5.83.37,8.54,1.08,2.67-.71,5.48-1.08,8.37-1.08h19.43c4.21,0,8.26.81,11.98,2.29,6.62-2.51,13.92-3.87,21.72-3.87s15.78,1.49,22.64,4.22c3.94-1.7,8.29-2.64,12.85-2.64h13.52c5.1,0,9.42,1.02,13.01,2.54,3.89-1.65,8.18-2.54,12.66-2.54h13.52c16.01,0,24.24,9.99,27.03,14.28.42.65.8,1.3,1.15,1.94,9.31-10.97,24.12-17.8,41.43-17.8,4.45,0,8.45.51,11.82,1.16,2.53-.72,5.39-1.2,8.58-1.2,5.63,0,11.39,1.63,16.38,4.8,7.38-3.11,15.56-4.76,24.17-4.76,1.17,0,2.32.03,3.46.09,4.87-11.32,16.05-18.58,28.86-18.58h13.52c3.2,0,6.07.41,8.66,1.09,2.67-.7,5.46-1.09,8.35-1.09h13.52c15.61,0,23.83,9.54,26.63,13.64,5.69,8.31,5.69,16.85,5.69,20.06v52.29c7.27,8.69,9.4,20.39,5.36,30.95Z"/><path class="cls-2" d="M135.33,38.47l-5.49-3.59c-1.06-.63-1.06-1.69.63-1.69h29.79c1.69,0,1.69,1.06.63,1.69l-5.49,3.59c-3.59,2.32-3.8,3.27.11,9.51l11.62,18.38,11.51-17.22c3.8-5.6,3.17-8.45-.32-10.67l-5.49-3.59c-1.06-.74-1.16-1.69.63-1.69h27.99c1.69,0,1.69,1.06.63,1.69l-6.02,3.59c-1.9,1.16-4.33,3.7-7.39,8.45l-17.96,27.68v19.33c0,6.44.53,7.39,5.7,10.67l5.6,3.49c1.06.63,1.06,1.8-.74,1.8h-31.69c-1.8,0-1.8-1.16-.74-1.8l5.6-3.49c5.18-3.17,5.6-4.23,5.6-10.67v-20.39l-18.06-27.68c-2.85-4.33-5.28-6.44-6.66-7.39Z"/><path class="cls-2" d="M263.15,81.68c0,18.49-11.2,29.79-28.21,29.79s-28.21-11.2-28.21-29.79,11.2-30,28.21-30,28.21,11.51,28.21,30ZM217.62,81.68c0,14.47,7.5,22.82,17.32,22.82s17.32-8.56,17.32-22.82-7.5-23.03-17.32-23.03-17.32,8.56-17.32,23.03Z"/><path class="cls-2" d="M327.37,103.97l4.75,4.12c1.06.95,1.06,1.8-.74,1.8h-13.52c-1.9,0-2.22-.42-2.22-3.8v-4.86c-4.86,7.71-10.46,10.25-18.8,10.25-11.41,0-20.39-6.87-20.39-17.01v-29.68c0-3.38.11-3.91-1.9-5.6l-4.75-4.12c-1.06-.95-1.06-1.8.63-1.8h13.52c1.9,0,2.32.42,2.32,3.8v33.8c0,8.03,5.6,12.57,12.89,12.57,12.57,0,16.48-9.08,16.48-18.91v-19.75c0-3.38.11-3.91-1.9-5.6l-4.75-4.12c-1.06-.95-1.06-1.8.63-1.8h13.52c1.9,0,2.32.42,2.32,3.8v41.3c0,3.38-.11,3.8,1.9,5.6Z"/><path class="cls-2" d="M357.9,103.97l4.75,4.12c1.06.95,1.06,1.8-.74,1.8h-21.76c-1.69,0-1.58-.95-.63-1.8l4.75-4.12c2.01-1.69,1.9-2.22,1.9-5.6v-33.59c0-3.38.11-3.91-1.9-5.6l-4.75-4.12c-1.06-.95-1.06-1.8.63-1.8h13.52c1.9,0,2.32.42,2.32,3.8v3.8c4.23-6.76,8.56-9.93,15-9.93,7.39,0,13.42,5.49,13.42,11.62s-4.86,9.93-8.77,9.93c-.84,0-3.8-.32-3.8-.95,0-.53,3.59-2.01,3.59-6.23,0-3.49-3.49-6.97-7.29-6.97-7.39,0-12.15,6.34-12.15,23.13v16.9c0,3.38-.11,3.8,1.9,5.6Z"/><path class="cls-2" d="M461.1,63.93c1.48-3.91,1.27-4.86-.11-6.23l-2.54-2.64c-1.06-1.06-1.06-1.8.63-1.8h16.06c1.69,0,2.11.84.74,1.8l-2.64,1.9c-1.58,1.16-2.85,3.17-4.01,6.23l-17.11,44.37c-.84,2.22-1.16,2.32-2.85,2.32h-6.13c-1.69,0-2.01-.11-2.85-2.32l-16.27-45.32c-.84-2.32-1.9-4.01-3.59-5.28l-2.54-1.9c-1.37-.95-.95-1.8.74-1.8h18.06c1.8,0,1.69.63.63,1.8l-2.54,2.64c-1.37,1.37-1.48,2.22-.11,6.23l12.36,36.23,14.05-36.23Z"/><path class="cls-2" d="M487.93,64.77c0-3.38.11-3.91-1.9-5.6l-4.75-4.12c-1.06-.95-1.06-1.8.63-1.8h13.52c1.9,0,2.32.42,2.32,3.8v41.3c0,3.38-.11,3.91,1.9,5.6l4.75,4.12c1.06.95,1.06,1.8-.74,1.8h-21.76c-1.69,0-1.58-.95-.63-1.8l4.75-4.12c2.01-1.69,1.9-2.22,1.9-5.6v-33.59ZM499.13,38.47c0,3.7-3.17,6.65-6.87,6.65s-6.97-2.96-6.97-6.65,3.17-6.97,6.97-6.97,6.87,3.17,6.87,6.97Z"/><path class="cls-2" d="M554.58,70.27c0,1.37-1.06,1.27-1.48.53l-1.9-3.17c-3.91-6.44-9.72-9.3-15.74-9.3-8.03,0-13.42,2.96-13.42,8.03,0,3.91,2.96,6.55,12.89,8.56l5.28,1.06c13.73,2.75,19.65,7.39,19.65,15.95,0,12.78-10.35,19.54-25.78,19.54-8.87,0-14.05-3.59-16.37-3.59-.53,0-1.58,1.06-3.06,2.01-2.85,1.9-3.49,1.9-3.49-.95v-21.02c0-1.37,1.27-1.37,2.01.21l2.85,5.81c3.59,7.29,10.14,10.56,18.49,10.56,9.19,0,15.21-3.7,15.21-9.93,0-4.86-2.75-7.39-13.84-9.72l-5.07-1.06c-14.16-2.96-19.12-7.92-19.12-15.74,0-9.93,9.3-16.37,21.87-16.37,7.29,0,12.99,2.85,15,2.85.95,0,1.58-.53,2.96-1.48,2.85-2.11,3.06-1.9,3.06.95v16.27Z"/><path class="cls-2" d="M624.09,103.97l4.75,4.12c1.06.95,1.06,1.8-.74,1.8h-13.52c-1.9,0-2.22-.42-2.22-3.8v-4.86c-4.86,7.71-10.46,10.25-18.8,10.25-11.41,0-20.39-6.87-20.39-17.01v-29.68c0-3.38.11-3.91-1.9-5.6l-4.75-4.12c-1.06-.95-1.06-1.8.63-1.8h13.52c1.9,0,2.32.42,2.32,3.8v33.8c0,8.03,5.6,12.57,12.89,12.57,12.57,0,16.48-9.08,16.48-18.91v-19.75c0-3.38.11-3.91-1.9-5.6l-4.75-4.12c-1.06-.95-1.06-1.8.63-1.8h13.52c1.9,0,2.32.42,2.32,3.8v41.3c0,3.38-.11,3.8,1.9,5.6Z"/><path class="cls-2" d="M684.62,111.15c-8.24,0-10.14-2.64-11.62-6.66-6.13,5.39-12.04,6.97-17.32,6.97-11.62,0-20.07-5.6-20.07-16.16s7.82-15.21,20.39-17.43l4.86-.85c7.29-1.27,10.88-4.65,10.88-9.4,0-5.28-5.18-9.19-11.83-9.19-6.13,0-11.62,2.64-11.62,7.39,0,4.33,3.49,4.44,3.27,5.7-.21.53-1.48,1.16-3.8,1.16-5.28,0-8.98-2.85-8.98-8.66,0-7.61,8.87-12.36,21.13-12.36,17.96,0,22.29,7.18,22.29,20.49v25.67c0,4.23,2.11,6.34,5.39,6.34s5.28-3.91,6.34-3.38c.85.42-.11,10.35-9.3,10.35ZM659.37,84.11c-7.82,1.37-12.68,5.92-12.68,11.3,0,5.81,4.23,9.61,10.88,9.61,8.98,0,14.79-7.61,14.79-18.7v-6.02c-1.8,1.16-4.23,2.32-8.13,2.96l-4.86.85Z"/><path class="cls-2" d="M704.79,44.6c0-3.38.11-3.8-1.9-5.49l-4.75-4.23c-1.06-.95-1.06-1.69.63-1.69h13.52c1.9,0,2.32.32,2.32,3.7v61.48c0,3.38-.11,3.91,1.9,5.6l4.75,4.12c1.06.95,1.06,1.8-.74,1.8h-21.76c-1.69,0-1.58-.95-.63-1.8l4.75-4.12c2.01-1.69,1.9-2.22,1.9-5.6v-53.77Z"/><path class="cls-2" d="M802.92,70.27c0,1.37-1.06,1.27-1.48.53l-1.9-3.17c-3.91-6.44-9.72-9.3-15.74-9.3-8.03,0-13.42,2.96-13.42,8.03,0,3.91,2.96,6.55,12.89,8.56l5.28,1.06c13.73,2.75,19.65,7.39,19.65,15.95,0,12.78-10.35,19.54-25.78,19.54-8.87,0-14.05-3.59-16.37-3.59-.53,0-1.58,1.06-3.06,2.01-2.85,1.9-3.49,1.9-3.49-.95v-21.02c0-1.37,1.27-1.37,2.01.21l2.85,5.81c3.59,7.29,10.14,10.56,18.49,10.56,9.19,0,15.21-3.7,15.21-9.93,0-4.86-2.75-7.39-13.84-9.72l-5.07-1.06c-14.16-2.96-19.12-7.92-19.12-15.74,0-9.93,9.3-16.37,21.87-16.37,7.29,0,12.99,2.85,15,2.85.95,0,1.58-.53,2.96-1.48,2.85-2.11,3.06-1.9,3.06.95v16.27Z"/><path class="cls-2" d="M828.38,36.15c.85-1.27,1.37-1.06,1.37.53v16.58h16.16c1.69,0,1.8.11.74,1.8l-1.8,2.96c-.84,1.37-1.27,1.58-3.7,1.58h-11.41v34.33c0,8.35,3.06,10.67,8.34,10.67,10.04,0,10.99-10.77,12.15-10.77.84,0,.95.74.95,2.43,0,7.92-4.75,15.21-15.42,15.21-11.3,0-15.95-4.65-15.95-15.21v-36.66h-7.61c-1.8,0-1.9-.53-.74-1.69l4.33-4.33c4.12-4.12,6.23-7.29,9.08-11.83l3.49-5.6Z"/><path class="cls-2" d="M909.72,81.68c0,18.49-11.2,29.79-28.21,29.79s-28.21-11.2-28.21-29.79,11.2-30,28.21-30,28.21,11.51,28.21,30ZM864.19,81.68c0,14.47,7.5,22.82,17.32,22.82s17.32-8.56,17.32-22.82-7.5-23.03-17.32-23.03-17.32,8.56-17.32,23.03Z"/><path class="cls-2" d="M934.75,103.97l4.75,4.12c1.06.95,1.06,1.8-.74,1.8h-21.76c-1.69,0-1.58-.95-.63-1.8l4.75-4.12c2.01-1.69,1.9-2.22,1.9-5.6v-33.59c0-3.38.11-3.91-1.9-5.6l-4.75-4.12c-1.06-.95-1.06-1.8.63-1.8h13.52c1.9,0,2.32.42,2.32,3.8v3.8c4.23-6.76,8.56-9.93,15-9.93,7.39,0,13.42,5.49,13.42,11.62s-4.86,9.93-8.77,9.93c-.84,0-3.8-.32-3.8-.95,0-.53,3.59-2.01,3.59-6.23,0-3.49-3.49-6.97-7.29-6.97-7.39,0-12.15,6.34-12.15,23.13v16.9c0,3.38-.11,3.8,1.9,5.6Z"/><path class="cls-2" d="M977.11,134.92c-10.56,0-17.11-4.65-17.11-12.78,0-6.02,4.33-10.25,9.93-10.25,2.64,0,5.81.84,5.49,2.75-.11.95-6.34,1.16-6.34,6.76,0,3.8,3.17,6.02,8.24,6.02,4.23,0,7.82-2.64,9.19-5.92l3.7-9.19-19.12-50.07c-.53-1.37-2.01-3.06-5.07-5.28l-2.64-1.9c-1.27-.95-.84-1.8.74-1.8h22.39c1.8,0,2.01.84.74,1.8l-3.06,2.32c-3.06,2.32-3.59,3.38-2.43,6.55l13.42,36.23,13.1-36.23c.95-2.64.53-4.12-2.43-6.34l-3.28-2.43c-1.16-.85-.95-1.9.85-1.9h19.44c1.58,0,2.01.84.74,1.8l-2.64,1.9c-3.49,2.54-4.54,4.01-5.39,6.23l-22.71,61.59c-2.43,6.55-7.71,10.14-15.74,10.14Z"/><path class="cls-2" d="M1042.49,36.15c.85-1.27,1.37-1.06,1.37.53v16.58h16.16c1.69,0,1.8.11.74,1.8l-1.8,2.96c-.84,1.37-1.27,1.58-3.7,1.58h-11.41v34.33c0,8.35,3.06,10.67,8.34,10.67,10.04,0,10.99-10.77,12.15-10.77.84,0,.95.74.95,2.43,0,7.92-4.75,15.21-15.42,15.21-11.3,0-15.95-4.65-15.95-15.21v-36.66h-7.61c-1.8,0-1.9-.53-.74-1.69l4.33-4.33c4.12-4.12,6.23-7.29,9.08-11.83l3.49-5.6Z"/><path class="cls-2" d="M1078.3,82.21c0,14.16,7.29,22.29,18.91,22.29,8.13,0,13.52-4.96,13.52-9.61,0-2.85-3.06-3.91-2.54-4.86.42-.84,1.8-1.06,4.54-1.06,3.27,0,7.08,3.49,7.08,7.71,0,9.4-9.08,14.79-23.77,14.79-18.8,0-28.63-12.57-28.63-29.37,0-19.54,11.73-30.42,28.63-30.42,17.96,0,24.93,12.15,24.93,28.31,0,1.27-.32,2.22-1.48,2.22h-41.2ZM1078.83,75.87h32.01c-.11-10.88-7.08-17.22-14.58-17.22-9.82,0-16.16,7.61-17.43,17.22Z"/><path class="cls-2" d="M1134.39,44.6c0-3.38.11-3.8-1.9-5.49l-4.75-4.23c-1.06-.95-1.06-1.69.63-1.69h13.52c1.9,0,2.32.32,2.32,3.7v61.48c0,3.38-.11,3.91,1.9,5.6l4.75,4.12c1.06.95,1.06,1.8-.74,1.8h-21.76c-1.69,0-1.58-.95-.63-1.8l4.75-4.12c2.01-1.69,1.9-2.22,1.9-5.6v-53.77Z"/><path class="cls-2" d="M1164.92,44.6c0-3.38.11-3.8-1.9-5.49l-4.75-4.23c-1.06-.95-1.06-1.69.63-1.69h13.52c1.9,0,2.32.32,2.32,3.7v61.48c0,3.38-.11,3.91,1.9,5.6l4.75,4.12c1.06.95,1.06,1.8-.74,1.8h-21.76c-1.69,0-1.58-.95-.63-1.8l4.75-4.12c2.01-1.69,1.9-2.22,1.9-5.6v-53.77Z"/><path class="cls-2" d="M1195.44,64.77c0-3.38.11-3.91-1.9-5.6l-4.75-4.12c-1.06-.95-1.06-1.8.63-1.8h13.52c1.9,0,2.32.42,2.32,3.8v41.3c0,3.38-.11,3.91,1.9,5.6l4.75,4.12c1.06.95,1.06,1.8-.74,1.8h-21.76c-1.69,0-1.58-.95-.63-1.8l4.75-4.12c2.01-1.69,1.9-2.22,1.9-5.6v-33.59ZM1206.64,38.47c0,3.7-3.17,6.65-6.87,6.65s-6.97-2.96-6.97-6.65,3.17-6.97,6.97-6.97,6.87,3.17,6.87,6.97Z"/><path class="cls-2" d="M1237.7,103.97l4.75,4.12c1.06.95,1.06,1.8-.74,1.8h-21.76c-1.69,0-1.58-.95-.63-1.8l4.75-4.12c2.01-1.69,1.9-2.22,1.9-5.6v-33.59c0-3.38.11-3.91-1.9-5.6l-4.75-4.12c-1.06-.95-1.06-1.8.63-1.8h13.52c1.9,0,2.32.42,2.32,3.8v5.92c4.96-8.35,10.46-11.3,18.8-11.3,11.3,0,20.39,6.87,20.39,17.01v29.68c0,3.38-.11,3.91,1.9,5.6l4.75,4.12c1.06.95,1.06,1.8-.74,1.8h-21.76c-1.69,0-1.58-.95-.63-1.8l4.75-4.12c2.01-1.69,1.9-2.22,1.9-5.6v-25.99c0-8.13-5.6-12.57-12.89-12.57-12.57,0-16.48,8.98-16.48,18.91v19.65c0,3.38-.11,3.8,1.9,5.6Z"/><path class="cls-2" d="M1338.79,46.71c0-2.22-2.11-4.54-5.07-4.54-2.75,0-5.49,2.85-5.49,6.02,0,2.11,1.06,4.44,2.75,7.08,4.12,6.66,6.44,12.78,6.44,17.22,0,11.09-9.19,20.6-23.13,20.6-9.72,0-10.77-3.17-13.52-3.17-1.16,0-3.17,1.16-3.17,4.12,0,4.54,4.54,7.08,16.48,7.08h8.24c13.52,0,22.08,5.81,22.08,14.68,0,12.47-11.83,19.44-30.74,19.44-17.01,0-28.1-4.96-28.1-14.79,0-4.65,3.91-8.13,8.45-8.13,1.8,0,7.08.63,6.76,2.75-.21.95-6.13.74-6.13,4.54,0,4.33,4.86,8.56,21.02,8.56,15.11,0,19.01-5.7,19.01-10.46,0-6.23-7.39-7.71-17.11-7.71h-6.23c-12.57,0-22.92-4.33-22.92-13.2,0-4.01,1.06-7.08,7.82-10.99-2.85-4.44-4.33-8.98-4.33-13.42,0-12.36,9.19-20.7,22.71-20.7,3.49,0,6.87.63,9.82,1.48-.84-2.32-1.37-4.65-1.37-6.87,0-6.55,5.18-10.88,11.94-10.88,5.7,0,9.61,3.38,9.61,8.24,0,6.55-6.34,9.51-7.5,8.56-.95-.84,1.69-2.01,1.69-5.49ZM1301.18,72.38c0,7.5,5.7,13.73,13.21,13.73s13.31-6.23,13.31-13.73-5.7-13.84-13.31-13.84-13.21,6.23-13.21,13.84Z"/><path class="cls-2" d="M1389.28,64.77c0-3.38.11-3.91-1.9-5.6l-4.75-4.12c-1.06-.95-1.06-1.8.63-1.8h13.52c1.9,0,2.32.42,2.32,3.8v41.3c0,3.38-.11,3.91,1.9,5.6l4.75,4.12c1.06.95,1.06,1.8-.74,1.8h-21.76c-1.69,0-1.58-.95-.63-1.8l4.75-4.12c2.01-1.69,1.9-2.22,1.9-5.6v-33.59ZM1400.47,38.47c0,3.7-3.17,6.65-6.87,6.65s-6.97-2.96-6.97-6.65,3.17-6.97,6.97-6.97,6.87,3.17,6.87,6.97Z"/><path class="cls-2" d="M1455.93,70.27c0,1.37-1.06,1.27-1.48.53l-1.9-3.17c-3.91-6.44-9.72-9.3-15.74-9.3-8.03,0-13.42,2.96-13.42,8.03,0,3.91,2.96,6.55,12.89,8.56l5.28,1.06c13.73,2.75,19.65,7.39,19.65,15.95,0,12.78-10.35,19.54-25.78,19.54-8.87,0-14.05-3.59-16.37-3.59-.53,0-1.58,1.06-3.06,2.01-2.85,1.9-3.49,1.9-3.49-.95v-21.02c0-1.37,1.27-1.37,2.01.21l2.85,5.81c3.59,7.29,10.14,10.56,18.49,10.56,9.19,0,15.21-3.7,15.21-9.93,0-4.86-2.75-7.39-13.84-9.72l-5.07-1.06c-14.16-2.96-19.12-7.92-19.12-15.74,0-9.93,9.3-16.37,21.87-16.37,7.29,0,12.99,2.85,15,2.85.95,0,1.58-.53,2.96-1.48,2.85-2.11,3.06-1.9,3.06.95v16.27Z"/><path class="cls-2" d="M1493,134.5c-11.51,0-19.54-4.75-19.54-11.83,0-3.91,3.06-6.02,7.5-6.02,2.96,0,6.13,1.48,6.13,3.06,0,.85-3.7.21-3.7,3.38,0,2.64,2.96,5.28,9.72,5.28,7.82,0,12.89-4.44,12.89-11.62v-51.97c0-3.38.11-3.91-1.9-5.6l-4.75-4.12c-1.06-.95-1.06-1.8.63-1.8h13.52c1.9,0,2.32.42,2.32,3.8v57.36c0,11.94-6.44,20.07-22.82,20.07ZM1517.19,38.47c0,3.7-3.17,6.65-6.87,6.65s-6.97-2.96-6.97-6.65,3.17-6.97,6.97-6.97,6.87,3.17,6.87,6.97Z"/><path class="cls-2" d="M1587.44,103.97l4.75,4.12c1.06.95,1.06,1.8-.74,1.8h-13.52c-1.9,0-2.22-.42-2.22-3.8v-4.86c-4.86,7.71-10.46,10.25-18.8,10.25-11.41,0-20.39-6.87-20.39-17.01v-29.68c0-3.38.11-3.91-1.9-5.6l-4.75-4.12c-1.06-.95-1.06-1.8.63-1.8h13.52c1.9,0,2.32.42,2.32,3.8v33.8c0,8.03,5.6,12.57,12.89,12.57,12.57,0,16.48-9.08,16.48-18.91v-19.75c0-3.38.11-3.91-1.9-5.6l-4.75-4.12c-1.06-.95-1.06-1.8.63-1.8h13.52c1.9,0,2.32.42,2.32,3.8v41.3c0,3.38-.11,3.8,1.9,5.6Z"/><path class="cls-2" d="M1642.37,70.27c0,1.37-1.06,1.27-1.48.53l-1.9-3.17c-3.91-6.44-9.72-9.3-15.74-9.3-8.03,0-13.42,2.96-13.42,8.03,0,3.91,2.96,6.55,12.89,8.56l5.28,1.06c13.73,2.75,19.65,7.39,19.65,15.95,0,12.78-10.35,19.54-25.78,19.54-8.87,0-14.05-3.59-16.37-3.59-.53,0-1.58,1.06-3.06,2.01-2.85,1.9-3.49,1.9-3.49-.95v-21.02c0-1.37,1.27-1.37,2.01.21l2.85,5.81c3.59,7.29,10.14,10.56,18.49,10.56,9.19,0,15.21-3.7,15.21-9.93,0-4.86-2.75-7.39-13.84-9.72l-5.07-1.06c-14.16-2.96-19.12-7.92-19.12-15.74,0-9.93,9.3-16.37,21.87-16.37,7.29,0,12.99,2.85,15,2.85.95,0,1.58-.53,2.96-1.48,2.85-2.11,3.06-1.9,3.06.95v16.27Z"/><path class="cls-2" d="M1667.82,36.15c.85-1.27,1.37-1.06,1.37.53v16.58h16.16c1.69,0,1.8.11.74,1.8l-1.8,2.96c-.84,1.37-1.27,1.58-3.7,1.58h-11.41v34.33c0,8.35,3.06,10.67,8.34,10.67,10.04,0,10.99-10.77,12.15-10.77.84,0,.95.74.95,2.43,0,7.92-4.75,15.21-15.42,15.21-11.3,0-15.95-4.65-15.95-15.21v-36.66h-7.61c-1.8,0-1.9-.53-.74-1.69l4.33-4.33c4.12-4.12,6.23-7.29,9.08-11.83l3.49-5.6Z"/><path class="cls-2" d="M1773.25,111.15c-8.24,0-10.14-2.64-11.62-6.66-6.13,5.39-12.04,6.97-17.32,6.97-11.62,0-20.07-5.6-20.07-16.16s7.82-15.21,20.39-17.43l4.86-.85c7.29-1.27,10.88-4.65,10.88-9.4,0-5.28-5.18-9.19-11.83-9.19-6.13,0-11.62,2.64-11.62,7.39,0,4.33,3.49,4.44,3.27,5.7-.21.53-1.48,1.16-3.8,1.16-5.28,0-8.98-2.85-8.98-8.66,0-7.61,8.87-12.36,21.13-12.36,17.96,0,22.29,7.18,22.29,20.49v25.67c0,4.23,2.11,6.34,5.39,6.34s5.28-3.91,6.34-3.38c.85.42-.11,10.35-9.3,10.35ZM1748,84.11c-7.82,1.37-12.68,5.92-12.68,11.3,0,5.81,4.23,9.61,10.88,9.61,8.98,0,14.79-7.61,14.79-18.7v-6.02c-1.8,1.16-4.23,2.32-8.13,2.96l-4.86.85Z"/><path class="cls-2" d="M1829.55,70.27c0,1.37-1.06,1.27-1.48.53l-1.9-3.17c-3.91-6.44-9.72-9.3-15.74-9.3-8.03,0-13.42,2.96-13.42,8.03,0,3.91,2.96,6.55,12.89,8.56l5.28,1.06c13.73,2.75,19.65,7.39,19.65,15.95,0,12.78-10.35,19.54-25.78,19.54-8.87,0-14.05-3.59-16.37-3.59-.53,0-1.58,1.06-3.06,2.01-2.85,1.9-3.49,1.9-3.49-.95v-21.02c0-1.37,1.27-1.37,2.01.21l2.85,5.81c3.59,7.29,10.14,10.56,18.49,10.56,9.19,0,15.21-3.7,15.21-9.93,0-4.86-2.75-7.39-13.84-9.72l-5.07-1.06c-14.16-2.96-19.12-7.92-19.12-15.74,0-9.93,9.3-16.37,21.87-16.37,7.29,0,12.99,2.85,15,2.85.95,0,1.58-.53,2.96-1.48,2.85-2.11,3.06-1.9,3.06.95v16.27Z"/><path class="cls-2" d="M38.89,191.53c0-3.38.11-3.91-1.9-5.6l-4.75-4.12c-1.06-.95-1.06-1.8.63-1.8h13.52c1.9,0,2.32.42,2.32,3.8v41.3c0,3.38-.11,3.91,1.9,5.6l4.75,4.12c1.06.95,1.06,1.8-.74,1.8h-21.76c-1.69,0-1.58-.95-.63-1.8l4.75-4.12c2.01-1.69,1.9-2.22,1.9-5.6v-33.59ZM50.09,165.23c0,3.7-3.17,6.65-6.87,6.65s-6.97-2.96-6.97-6.65,3.17-6.97,6.97-6.97,6.87,3.17,6.87,6.97Z"/><path class="cls-2" d="M117.59,225.13c0,3.38-.11,3.8,1.9,5.6l4.75,4.12c1.06.95,1.06,1.8-.63,1.8h-21.76c-1.8,0-1.69-.95-.74-1.8l4.75-4.12c2.01-1.69,1.9-2.22,1.9-5.6v-25.99c0-8.13-5.6-12.57-12.89-12.57-10.78,0-15.63,8.77-15.63,18.91v19.65c0,3.38-.11,3.8,1.9,5.6l4.75,4.12c1.06.95,1.06,1.8-.74,1.8h-21.76c-1.69,0-1.58-.95-.63-1.8l4.75-4.12c2.01-1.69,1.9-2.22,1.9-5.6v-33.59c0-3.38.11-3.91-1.9-5.6l-4.75-4.12c-1.06-.95-1.06-1.8.63-1.8h13.52c1.9,0,2.32.42,2.32,3.8v5.92c4.96-8.35,10.78-11.3,17.96-11.3,9.51,0,17.43,4.86,19.75,12.25,5.07-8.77,10.88-12.25,18.59-12.25,11.41,0,20.39,6.87,20.39,17.01v29.68c0,3.38-.11,3.91,1.9,5.6l4.75,4.12c1.06.95,1.06,1.8-.63,1.8h-21.76c-1.8,0-1.69-.95-.74-1.8l4.75-4.12c2.01-1.69,1.9-2.22,1.9-5.6v-25.99c0-8.13-5.49-12.57-12.78-12.57-10.14,0-15.74,7.82-15.74,19.01v19.54Z"/><path class="cls-2" d="M207.27,178.44c14.05,0,25.14,9.3,25.14,28.94s-12.15,30.85-27.25,30.85c-8.03,0-12.36-2.01-18.8-7.92v18.28c0,3.38-.11,3.7,1.9,5.49l4.75,4.23c1.06.95,1.06,1.69-.74,1.69h-21.76c-1.69,0-1.58-.85-.63-1.69l4.75-4.23c2.01-1.69,1.9-2.11,1.9-5.49v-57.04c0-3.38.11-3.91-1.9-5.6l-4.75-4.12c-1.06-.95-1.06-1.8.63-1.8h13.52c1.9,0,2.43.42,2.32,3.8l-.11,4.44c5.92-7.5,13.94-9.82,21.02-9.82ZM186.88,208.44c0,14.47,7.5,22.82,17.32,22.82s17.32-8.56,17.32-22.82-7.5-23.03-17.32-23.03-17.32,8.56-17.32,23.03Z"/><path class="cls-2" d="M294.84,208.44c0,18.49-11.2,29.79-28.21,29.79s-28.21-11.2-28.21-29.79,11.2-30,28.21-30,28.21,11.51,28.21,30ZM249.31,208.44c0,14.47,7.5,22.82,17.32,22.82s17.32-8.56,17.32-22.82-7.5-23.03-17.32-23.03-17.32,8.56-17.32,23.03Z"/><path class="cls-2" d="M319.87,230.73l4.75,4.12c1.06.95,1.06,1.8-.74,1.8h-21.76c-1.69,0-1.58-.95-.63-1.8l4.75-4.12c2.01-1.69,1.9-2.22,1.9-5.6v-33.59c0-3.38.11-3.91-1.9-5.6l-4.75-4.12c-1.06-.95-1.06-1.8.63-1.8h13.52c1.9,0,2.32.42,2.32,3.8v3.8c4.23-6.76,8.56-9.93,15-9.93,7.39,0,13.42,5.49,13.42,11.62s-4.86,9.93-8.77,9.93c-.84,0-3.8-.32-3.8-.95,0-.53,3.59-2.01,3.59-6.23,0-3.49-3.49-6.97-7.29-6.97-7.39,0-12.15,6.34-12.15,23.13v16.9c0,3.38-.11,3.8,1.9,5.6Z"/><path class="cls-2" d="M363.81,162.91c.85-1.27,1.37-1.06,1.37.53v16.58h16.16c1.69,0,1.8.11.74,1.8l-1.8,2.96c-.84,1.37-1.27,1.58-3.7,1.58h-11.41v34.33c0,8.35,3.06,10.67,8.34,10.67,10.04,0,10.99-10.77,12.15-10.77.84,0,.95.74.95,2.43,0,7.92-4.75,15.21-15.42,15.21-11.3,0-15.95-4.65-15.95-15.21v-36.66h-7.61c-1.8,0-1.9-.53-.74-1.69l4.33-4.33c4.12-4.12,6.23-7.29,9.08-11.83l3.49-5.6Z"/><path class="cls-2" d="M437.76,237.91c-8.24,0-10.14-2.64-11.62-6.66-6.13,5.39-12.04,6.97-17.32,6.97-11.62,0-20.07-5.6-20.07-16.16s7.82-15.21,20.39-17.43l4.86-.85c7.29-1.27,10.88-4.65,10.88-9.4,0-5.28-5.18-9.19-11.83-9.19-6.13,0-11.62,2.64-11.62,7.39,0,4.33,3.49,4.44,3.27,5.7-.21.53-1.48,1.16-3.8,1.16-5.28,0-8.98-2.85-8.98-8.66,0-7.61,8.87-12.36,21.13-12.36,17.96,0,22.29,7.18,22.29,20.49v25.67c0,4.23,2.11,6.34,5.39,6.34s5.28-3.91,6.34-3.38c.85.42-.11,10.35-9.3,10.35ZM412.51,210.87c-7.82,1.37-12.68,5.92-12.68,11.3,0,5.81,4.23,9.61,10.88,9.61,8.98,0,14.79-7.61,14.79-18.7v-6.02c-1.8,1.16-4.23,2.32-8.13,2.96l-4.86.85Z"/><path class="cls-2" d="M469.65,230.73l4.75,4.12c1.06.95,1.06,1.8-.74,1.8h-21.76c-1.69,0-1.58-.95-.63-1.8l4.75-4.12c2.01-1.69,1.9-2.22,1.9-5.6v-33.59c0-3.38.11-3.91-1.9-5.6l-4.75-4.12c-1.06-.95-1.06-1.8.63-1.8h13.52c1.9,0,2.32.42,2.32,3.8v5.92c4.96-8.35,10.46-11.3,18.8-11.3,11.3,0,20.39,6.87,20.39,17.01v29.68c0,3.38-.11,3.91,1.9,5.6l4.75,4.12c1.06.95,1.06,1.8-.74,1.8h-21.76c-1.69,0-1.58-.95-.63-1.8l4.75-4.12c2.01-1.69,1.9-2.22,1.9-5.6v-25.99c0-8.13-5.6-12.57-12.89-12.57-12.57,0-16.48,8.98-16.48,18.91v19.65c0,3.38-.11,3.8,1.9,5.6Z"/><path class="cls-2" d="M534.51,162.91c.85-1.27,1.37-1.06,1.37.53v16.58h16.16c1.69,0,1.8.11.74,1.8l-1.8,2.96c-.84,1.37-1.27,1.58-3.7,1.58h-11.41v34.33c0,8.35,3.06,10.67,8.34,10.67,10.04,0,10.99-10.77,12.15-10.77.84,0,.95.74.95,2.43,0,7.92-4.75,15.21-15.42,15.21-11.3,0-15.95-4.65-15.95-15.21v-36.66h-7.61c-1.8,0-1.9-.53-.74-1.69l4.33-4.33c4.12-4.12,6.23-7.29,9.08-11.83l3.49-5.6Z"/><path class="cls-2" d="M639.93,237.91c-8.24,0-10.14-2.64-11.62-6.66-6.13,5.39-12.04,6.97-17.32,6.97-11.62,0-20.07-5.6-20.07-16.16s7.82-15.21,20.39-17.43l4.86-.85c7.29-1.27,10.88-4.65,10.88-9.4,0-5.28-5.18-9.19-11.83-9.19-6.13,0-11.62,2.64-11.62,7.39,0,4.33,3.49,4.44,3.27,5.7-.21.53-1.48,1.16-3.8,1.16-5.28,0-8.98-2.85-8.98-8.66,0-7.61,8.87-12.36,21.13-12.36,17.96,0,22.29,7.18,22.29,20.49v25.67c0,4.23,2.11,6.34,5.39,6.34s5.28-3.91,6.34-3.38c.85.42-.11,10.35-9.3,10.35ZM614.69,210.87c-7.82,1.37-12.68,5.92-12.68,11.3,0,5.81,4.23,9.61,10.88,9.61,8.98,0,14.79-7.61,14.79-18.7v-6.02c-1.8,1.16-4.23,2.32-8.13,2.96l-4.86.85Z"/><path class="cls-2" d="M696.24,197.03c0,1.37-1.06,1.27-1.48.53l-1.9-3.17c-3.91-6.44-9.72-9.3-15.74-9.3-8.03,0-13.42,2.96-13.42,8.03,0,3.91,2.96,6.55,12.89,8.56l5.28,1.06c13.73,2.75,19.65,7.39,19.65,15.95,0,12.78-10.35,19.54-25.78,19.54-8.87,0-14.05-3.59-16.37-3.59-.53,0-1.58,1.06-3.06,2.01-2.85,1.9-3.49,1.9-3.49-.95v-21.02c0-1.37,1.27-1.37,2.01.21l2.85,5.81c3.59,7.29,10.14,10.56,18.49,10.56,9.19,0,15.21-3.7,15.21-9.93,0-4.86-2.75-7.39-13.84-9.72l-5.07-1.06c-14.16-2.96-19.12-7.92-19.12-15.74,0-9.93,9.3-16.37,21.87-16.37,7.29,0,12.99,2.85,15,2.85.95,0,1.58-.53,2.96-1.48,2.85-2.11,3.06-1.9,3.06.95v16.27Z"/><path class="cls-2" d="M753.17,162.91c.85-1.27,1.37-1.06,1.37.53v16.58h16.16c1.69,0,1.8.11.74,1.8l-1.8,2.96c-.84,1.37-1.27,1.58-3.7,1.58h-11.41v34.33c0,8.35,3.06,10.67,8.34,10.67,10.04,0,10.99-10.77,12.15-10.77.84,0,.95.74.95,2.43,0,7.92-4.75,15.21-15.42,15.21-11.3,0-15.95-4.65-15.95-15.21v-36.66h-7.61c-1.8,0-1.9-.53-.74-1.69l4.33-4.33c4.12-4.12,6.23-7.29,9.08-11.83l3.49-5.6Z"/><path class="cls-2" d="M797.11,230.73l4.75,4.12c1.06.95,1.06,1.8-.74,1.8h-21.76c-1.69,0-1.58-.95-.63-1.8l4.75-4.12c2.01-1.69,1.9-2.22,1.9-5.6v-53.77c0-3.38.11-3.8-1.9-5.49l-4.75-4.23c-1.06-.95-1.06-1.69.63-1.69h13.52c1.9,0,2.32.32,2.32,3.7v26.09c4.96-8.35,10.46-11.3,18.8-11.3,11.3,0,20.39,6.87,20.39,17.01v29.68c0,3.38-.11,3.91,1.9,5.6l4.75,4.12c1.06.95,1.06,1.8-.74,1.8h-21.76c-1.69,0-1.58-.95-.63-1.8l4.75-4.12c2.01-1.69,1.9-2.22,1.9-5.6v-25.99c0-8.13-5.6-12.57-12.89-12.57-12.57,0-16.48,8.98-16.48,18.91v19.65c0,3.38-.11,3.8,1.9,5.6Z"/><path class="cls-2" d="M858.69,208.96c0,14.16,7.29,22.29,18.91,22.29,8.13,0,13.52-4.96,13.52-9.61,0-2.85-3.06-3.91-2.54-4.86.42-.84,1.8-1.06,4.54-1.06,3.27,0,7.08,3.49,7.08,7.71,0,9.4-9.08,14.79-23.77,14.79-18.8,0-28.63-12.57-28.63-29.37,0-19.54,11.73-30.42,28.63-30.42,17.96,0,24.93,12.15,24.93,28.31,0,1.27-.32,2.22-1.48,2.22h-41.2ZM859.22,202.63h32.01c-.11-10.88-7.08-17.22-14.58-17.22-9.82,0-16.16,7.61-17.43,17.22Z"/><path class="cls-2" d="M953.13,162.91c.85-1.27,1.37-1.06,1.37.53v16.58h16.16c1.69,0,1.8.11.74,1.8l-1.8,2.96c-.84,1.37-1.27,1.58-3.7,1.58h-11.41v34.33c0,8.35,3.06,10.67,8.34,10.67,10.04,0,10.99-10.77,12.15-10.77.84,0,.95.74.95,2.43,0,7.92-4.75,15.21-15.42,15.21-11.3,0-15.95-4.65-15.95-15.21v-36.66h-7.61c-1.8,0-1.9-.53-.74-1.69l4.33-4.33c4.12-4.12,6.23-7.29,9.08-11.83l3.49-5.6Z"/><path class="cls-2" d="M997.07,230.73l4.75,4.12c1.06.95,1.06,1.8-.74,1.8h-21.76c-1.69,0-1.58-.95-.63-1.8l4.75-4.12c2.01-1.69,1.9-2.22,1.9-5.6v-53.77c0-3.38.11-3.8-1.9-5.49l-4.75-4.23c-1.06-.95-1.06-1.69.63-1.69h13.52c1.9,0,2.32.32,2.32,3.7v26.09c4.96-8.35,10.46-11.3,18.8-11.3,11.3,0,20.39,6.87,20.39,17.01v29.68c0,3.38-.11,3.91,1.9,5.6l4.75,4.12c1.06.95,1.06,1.8-.74,1.8h-21.76c-1.69,0-1.58-.95-.63-1.8l4.75-4.12c2.01-1.69,1.9-2.22,1.9-5.6v-25.99c0-8.13-5.6-12.57-12.89-12.57-12.57,0-16.48,8.98-16.48,18.91v19.65c0,3.38-.11,3.8,1.9,5.6Z"/><path class="cls-2" d="M1055.06,191.53c0-3.38.11-3.91-1.9-5.6l-4.75-4.12c-1.06-.95-1.06-1.8.63-1.8h13.52c1.9,0,2.32.42,2.32,3.8v41.3c0,3.38-.11,3.91,1.9,5.6l4.75,4.12c1.06.95,1.06,1.8-.74,1.8h-21.76c-1.69,0-1.58-.95-.63-1.8l4.75-4.12c2.01-1.69,1.9-2.22,1.9-5.6v-33.59ZM1066.26,165.23c0,3.7-3.17,6.65-6.87,6.65s-6.97-2.96-6.97-6.65,3.17-6.97,6.97-6.97,6.87,3.17,6.87,6.97Z"/><path class="cls-2" d="M1097.31,230.73l4.75,4.12c1.06.95,1.06,1.8-.74,1.8h-21.76c-1.69,0-1.58-.95-.63-1.8l4.75-4.12c2.01-1.69,1.9-2.22,1.9-5.6v-33.59c0-3.38.11-3.91-1.9-5.6l-4.75-4.12c-1.06-.95-1.06-1.8.63-1.8h13.52c1.9,0,2.32.42,2.32,3.8v5.92c4.96-8.35,10.46-11.3,18.8-11.3,11.3,0,20.39,6.87,20.39,17.01v29.68c0,3.38-.11,3.91,1.9,5.6l4.75,4.12c1.06.95,1.06,1.8-.74,1.8h-21.76c-1.69,0-1.58-.95-.63-1.8l4.75-4.12c2.01-1.69,1.9-2.22,1.9-5.6v-25.99c0-8.13-5.6-12.57-12.89-12.57-12.57,0-16.48,8.98-16.48,18.91v19.65c0,3.38-.11,3.8,1.9,5.6Z"/><path class="cls-2" d="M1198.4,173.47c0-2.22-2.11-4.54-5.07-4.54-2.75,0-5.49,2.85-5.49,6.02,0,2.11,1.06,4.44,2.75,7.08,4.12,6.66,6.44,12.78,6.44,17.22,0,11.09-9.19,20.6-23.13,20.6-9.72,0-10.77-3.17-13.52-3.17-1.16,0-3.17,1.16-3.17,4.12,0,4.54,4.54,7.08,16.48,7.08h8.24c13.52,0,22.08,5.81,22.08,14.68,0,12.47-11.83,19.44-30.74,19.44-17.01,0-28.1-4.96-28.1-14.79,0-4.65,3.91-8.13,8.45-8.13,1.8,0,7.08.63,6.76,2.75-.21.95-6.13.74-6.13,4.54,0,4.33,4.86,8.56,21.02,8.56,15.11,0,19.01-5.7,19.01-10.46,0-6.23-7.39-7.71-17.11-7.71h-6.23c-12.57,0-22.92-4.33-22.92-13.2,0-4.01,1.06-7.08,7.82-10.99-2.85-4.44-4.33-8.98-4.33-13.42,0-12.36,9.19-20.7,22.71-20.7,3.49,0,6.87.63,9.82,1.48-.84-2.32-1.37-4.65-1.37-6.87,0-6.55,5.18-10.88,11.94-10.88,5.7,0,9.61,3.38,9.61,8.24,0,6.55-6.34,9.51-7.5,8.56-.95-.84,1.69-2.01,1.69-5.49ZM1160.8,199.14c0,7.5,5.7,13.73,13.21,13.73s13.31-6.23,13.31-13.73-5.7-13.84-13.31-13.84-13.21,6.23-13.21,13.84Z"/><path class="cls-2" d="M1253.55,197.03c0,1.37-1.06,1.27-1.48.53l-1.9-3.17c-3.91-6.44-9.72-9.3-15.74-9.3-8.03,0-13.42,2.96-13.42,8.03,0,3.91,2.96,6.55,12.89,8.56l5.28,1.06c13.73,2.75,19.65,7.39,19.65,15.95,0,12.78-10.35,19.54-25.78,19.54-8.87,0-14.05-3.59-16.37-3.59-.53,0-1.58,1.06-3.06,2.01-2.85,1.9-3.49,1.9-3.49-.95v-21.02c0-1.37,1.27-1.37,2.01.21l2.85,5.81c3.59,7.29,10.14,10.56,18.49,10.56,9.19,0,15.21-3.7,15.21-9.93,0-4.86-2.75-7.39-13.84-9.72l-5.07-1.06c-14.16-2.96-19.12-7.92-19.12-15.74,0-9.93,9.3-16.37,21.87-16.37,7.29,0,12.99,2.85,15,2.85.95,0,1.58-.53,2.96-1.48,2.85-2.11,3.06-1.9,3.06.95v16.27Z"/><path class="cls-2" d="M1310.48,162.91c.85-1.27,1.37-1.06,1.37.53v16.58h16.16c1.69,0,1.8.11.74,1.8l-1.8,2.96c-.84,1.37-1.27,1.58-3.7,1.58h-11.41v34.33c0,8.35,3.06,10.67,8.34,10.67,10.04,0,10.99-10.77,12.15-10.77.84,0,.95.74.95,2.43,0,7.92-4.75,15.21-15.42,15.21-11.3,0-15.95-4.65-15.95-15.21v-36.66h-7.61c-1.8,0-1.9-.53-.74-1.69l4.33-4.33c4.12-4.12,6.23-7.29,9.08-11.83l3.49-5.6Z"/><path class="cls-2" d="M1354.42,230.73l4.75,4.12c1.06.95,1.06,1.8-.74,1.8h-21.76c-1.69,0-1.58-.95-.63-1.8l4.75-4.12c2.01-1.69,1.9-2.22,1.9-5.6v-53.77c0-3.38.11-3.8-1.9-5.49l-4.75-4.23c-1.06-.95-1.06-1.69.63-1.69h13.52c1.9,0,2.32.32,2.32,3.7v26.09c4.96-8.35,10.46-11.3,18.8-11.3,11.3,0,20.39,6.87,20.39,17.01v29.68c0,3.38-.11,3.91,1.9,5.6l4.75,4.12c1.06.95,1.06,1.8-.74,1.8h-21.76c-1.69,0-1.58-.95-.63-1.8l4.75-4.12c2.01-1.69,1.9-2.22,1.9-5.6v-25.99c0-8.13-5.6-12.57-12.89-12.57-12.57,0-16.48,8.98-16.48,18.91v19.65c0,3.38-.11,3.8,1.9,5.6Z"/><path class="cls-2" d="M1454.14,237.91c-8.24,0-10.14-2.64-11.62-6.66-6.13,5.39-12.04,6.97-17.32,6.97-11.62,0-20.07-5.6-20.07-16.16s7.82-15.21,20.39-17.43l4.86-.85c7.29-1.27,10.88-4.65,10.88-9.4,0-5.28-5.18-9.19-11.83-9.19-6.13,0-11.62,2.64-11.62,7.39,0,4.33,3.49,4.44,3.27,5.7-.21.53-1.48,1.16-3.8,1.16-5.28,0-8.98-2.85-8.98-8.66,0-7.61,8.87-12.36,21.13-12.36,17.96,0,22.29,7.18,22.29,20.49v25.67c0,4.23,2.11,6.34,5.39,6.34s5.28-3.91,6.34-3.38c.85.42-.11,10.35-9.3,10.35ZM1428.89,210.87c-7.82,1.37-12.68,5.92-12.68,11.3,0,5.81,4.23,9.61,10.88,9.61,8.98,0,14.79-7.61,14.79-18.7v-6.02c-1.8,1.16-4.23,2.32-8.13,2.96l-4.86.85Z"/><path class="cls-2" d="M1481.18,162.91c.85-1.27,1.37-1.06,1.37.53v16.58h16.16c1.69,0,1.8.11.74,1.8l-1.8,2.96c-.84,1.37-1.27,1.58-3.7,1.58h-11.41v34.33c0,8.35,3.06,10.67,8.34,10.67,10.04,0,10.99-10.77,12.15-10.77.84,0,.95.74.95,2.43,0,7.92-4.75,15.21-15.42,15.21-11.3,0-15.95-4.65-15.95-15.21v-36.66h-7.61c-1.8,0-1.9-.53-.74-1.69l4.33-4.33c4.12-4.12,6.23-7.29,9.08-11.83l3.49-5.6Z"/><path class="cls-2" d="M1550.16,261.68c-10.56,0-17.11-4.65-17.11-12.78,0-6.02,4.33-10.25,9.93-10.25,2.64,0,5.81.84,5.49,2.75-.11.95-6.34,1.16-6.34,6.76,0,3.8,3.17,6.02,8.24,6.02,4.23,0,7.82-2.64,9.19-5.92l3.7-9.19-19.12-50.07c-.53-1.37-2.01-3.06-5.07-5.28l-2.64-1.9c-1.27-.95-.84-1.8.74-1.8h22.39c1.8,0,2.01.84.74,1.8l-3.06,2.32c-3.06,2.32-3.59,3.38-2.43,6.55l13.42,36.23,13.1-36.23c.95-2.64.53-4.12-2.43-6.34l-3.28-2.43c-1.16-.85-.95-1.9.85-1.9h19.44c1.58,0,2.01.84.74,1.8l-2.64,1.9c-3.49,2.54-4.54,4.01-5.39,6.23l-22.71,61.59c-2.43,6.55-7.71,10.14-15.74,10.14Z"/><path class="cls-2" d="M1657.8,208.44c0,18.49-11.2,29.79-28.21,29.79s-28.21-11.2-28.21-29.79,11.2-30,28.21-30,28.21,11.51,28.21,30ZM1612.27,208.44c0,14.47,7.5,22.82,17.32,22.82s17.32-8.56,17.32-22.82-7.5-23.03-17.32-23.03-17.32,8.56-17.32,23.03Z"/><path class="cls-2" d="M1722.02,230.73l4.75,4.12c1.06.95,1.06,1.8-.74,1.8h-13.52c-1.9,0-2.22-.42-2.22-3.8v-4.86c-4.86,7.71-10.46,10.25-18.8,10.25-11.41,0-20.39-6.87-20.39-17.01v-29.68c0-3.38.11-3.91-1.9-5.6l-4.75-4.12c-1.06-.95-1.06-1.8.63-1.8h13.52c1.9,0,2.32.42,2.32,3.8v33.8c0,8.03,5.6,12.57,12.89,12.57,12.57,0,16.48-9.08,16.48-18.91v-19.75c0-3.38.11-3.91-1.9-5.6l-4.75-4.12c-1.06-.95-1.06-1.8.63-1.8h13.52c1.9,0,2.32.42,2.32,3.8v41.3c0,3.38-.11,3.8,1.9,5.6Z"/><path class="cls-2" d="M1808.43,197.03c0,1.37-1.06,1.27-1.48.53l-1.9-3.17c-3.91-6.44-9.72-9.3-15.74-9.3-8.03,0-13.42,2.96-13.42,8.03,0,3.91,2.96,6.55,12.89,8.56l5.28,1.06c13.73,2.75,19.65,7.39,19.65,15.95,0,12.78-10.35,19.54-25.78,19.54-8.87,0-14.05-3.59-16.37-3.59-.53,0-1.58,1.06-3.06,2.01-2.85,1.9-3.49,1.9-3.49-.95v-21.02c0-1.37,1.27-1.37,2.01.21l2.85,5.81c3.59,7.29,10.14,10.56,18.49,10.56,9.19,0,15.21-3.7,15.21-9.93,0-4.86-2.75-7.39-13.84-9.72l-5.07-1.06c-14.16-2.96-19.12-7.92-19.12-15.74,0-9.93,9.3-16.37,21.87-16.37,7.29,0,12.99,2.85,15,2.85.95,0,1.58-.53,2.96-1.48,2.85-2.11,3.06-1.9,3.06.95v16.27Z"/><path class="cls-2" d="M1830.61,208.96c0,14.16,7.29,22.29,18.91,22.29,8.13,0,13.52-4.96,13.52-9.61,0-2.85-3.06-3.91-2.54-4.86.42-.84,1.8-1.06,4.54-1.06,3.27,0,7.08,3.49,7.08,7.71,0,9.4-9.08,14.79-23.77,14.79-18.8,0-28.63-12.57-28.63-29.37,0-19.54,11.73-30.42,28.63-30.42,17.96,0,24.93,12.15,24.93,28.31,0,1.27-.32,2.22-1.48,2.22h-41.2ZM1831.14,202.63h32.01c-.11-10.88-7.08-17.22-14.58-17.22-9.82,0-16.16,7.61-17.43,17.22Z"/><path class="cls-2" d="M1886.7,171.36c0-3.38.11-3.8-1.9-5.49l-4.75-4.23c-1.06-.95-1.06-1.69.63-1.69h13.52c1.9,0,2.32.32,2.32,3.7v61.48c0,3.38-.11,3.91,1.9,5.6l4.75,4.12c1.06.95,1.06,1.8-.74,1.8h-21.76c-1.69,0-1.58-.95-.63-1.8l4.75-4.12c2.01-1.69,1.9-2.22,1.9-5.6v-53.77Z"/><path class="cls-2" d="M1917.22,171.36c0-3.38.11-3.8-1.9-5.49l-4.75-4.23c-1.06-.95-1.06-1.69.63-1.69h13.52c1.9,0,2.32.32,2.32,3.7v61.48c0,3.38-.11,3.91,1.9,5.6l4.75,4.12c1.06.95,1.06,1.8-.74,1.8h-21.76c-1.69,0-1.58-.95-.63-1.8l4.75-4.12c2.01-1.69,1.9-2.22,1.9-5.6v-53.77Z"/></g></svg>