<?xml version="1.0" encoding="UTF-8"?><svg id="Layer_2" xmlns="http://www.w3.org/2000/svg" viewBox="0 0 702.91 972.91"><defs><style>.cls-1{fill:#e8e8cb;}</style></defs><g id="Layer_1-2"><path class="cls-1" d="M622.88,80.08c-27.2-32.6-30.92-67.93-31.65-79.95-75.45-.04-150.91-.08-226.36-.12,0,0,0,0,0-.01-4.47,0-8.94,0-13.41,0-4.47,0-8.94,0-13.41,0,0,0,0,0,0,.01-75.45.04-150.91.08-226.36.12-.73,12.01-4.45,47.34-31.65,79.95C49.99,116.08,11.19,124.94,0,127.09v718.72c11.19,2.15,49.99,11.01,80.03,47.01,27.2,32.6,30.92,67.93,31.65,79.95,75.45.04,150.91.08,226.36.12,0,0,0,0,0,.01,4.47,0,8.94,0,13.41,0,4.47,0,8.94,0,13.41,0,0,0,0,0,0-.01,75.45-.04,150.91-.08,226.36-.12.73-12.01,4.45-47.34,31.65-79.95,30.03-36,68.83-44.87,80.03-47.01V127.09c-11.19-2.15-49.99-11.01-80.03-47.01ZM351.45,925.75c-174.23,0-315.48-196.68-315.48-439.3S177.22,47.16,351.45,47.16s315.48,196.68,315.48,439.3-141.24,439.3-315.48,439.3Z"/><path class="cls-1" d="M360.74,824.71c11.46,10.77,13.53,24.02,6.15,36.96-5.83,10.2-17.77,13.45-25.93,6.91-3.78-3.03-6.6-6.9-8.14-11.58-3.58-10.9-.47-22.37,8.67-30.37-.73-2.16-1.34-4.74-2.47-7.06-.96-1.96-1.05-3.51-.07-5.48.82-1.65,1.46-3.64,1.39-5.45-.22-5.23-.98-10.44-1.27-15.67-.41-7.47-.61-14.94-.87-22.42-.23-6.73-.44-13.46-.6-20.19-.12-5.07-.19-10.14-.21-15.2-.02-5.83.02-11.66.1-17.49.1-6.88.35-13.75.38-20.63,0-1.43-.4-2.97-1-4.29-.99-2.17-2.28-4.2-3.94-7.17-8.4-2.58-17.5-5.53-26.7-8.16-7.2-2.06-14.43-4.26-21.81-5.38-5.67-.86-11.59-.18-17.39-.12-1.57.02-3.14.28-4.57.41-3.2-8.99,4.18-34.95,11.23-39.27,3.23,8.03,5.67,16.78,13.99,21.13,4.73,2.48,9.79,4.6,14.94,5.94,4.7,1.23,9.73,1.2,15.47,1.81,1.11-5.64,2.31-10.68,3.06-15.79,2.72-18.6,3.59-37.33,3.67-56.11.08-18.46.1-36.93.19-55.39.24-49.67.52-99.35.73-149.02.12-28.96-.04-57.93.25-86.9.34-33.45.67-66.92,1.71-100.35.89-28.71,4.93-57.08,12.38-84.89,1.14-4.24,2.71-8.37,4.08-12.55.43,0,.85,0,1.28,0,.72,1.37,1.67,2.67,2.14,4.12,7.02,21.93,11.7,44.36,14.26,67.25,5.12,45.7,5.59,91.65,7.16,137.54,1.04,30.45,1.62,60.92,2.28,91.38.57,26.41.88,52.83,1.43,79.24.74,35.71,1.51,71.43,2.47,107.14.4,14.99,1.01,29.99,2.1,44.94.66,9.1,2.77,18.03,6.58,26.57,6.98,1.21,13.59.16,20.1-1.74,6.73-1.97,13.24-4.88,17.51-10.46,3.99-5.21,6.72-11.39,10-17.15,5.63,4.6,12.06,31.82,8.95,38.83-24.98-.6-48.31,7.49-71.06,14.57-2.19,4.73-4.35,8.4-5.58,12.36-.94,3.05-.88,6.45-.94,9.71-.15,7.77-.14,15.55-.15,23.33-.02,13.91.17,27.82-.08,41.73-.14,7.62-1,15.22-1.52,22.84-.33,4.93-.69,9.87-.87,14.8-.04,1.11.35,2.51,1.06,3.31,2.23,2.51,2.27,4.88.76,7.82-.9,1.75-.93,3.96-1.28,5.64ZM373.31,677.44c-3.54.96-7.08,1.91-10.62,2.87.13.39.25.78.38,1.17,3.39-1.37,6.79-2.74,10.18-4.11,1.39-.3,2.78-.6,4.17-.9.14-.21.28-.42.41-.63-.25-.1-.5-.21-.76-.31-1.26.63-2.51,1.27-3.77,1.9ZM357.17,172.97c-.65-2.35-1.29-4.7-1.94-7.05v-5.65c-.29.03-.58.07-.88.1.31,1.83.63,3.66.94,5.5.34,4.55.67,9.1,1.01,13.66.27-.02.53-.03.8-.05v-6.6c.5,1.61.99,3.22,1.49,4.83.13-.02.26-.03.39-.05-.43-3.36-.85-6.73-1.28-10.09-.18.01-.36.02-.53.04v5.37ZM348.47,135.51c1.26,3.65,2.51,7.31,3.77,10.96-.47-4.7-1.51-9.27-2.66-13.82-.07-.28-.95-.37-1.45-.54-.43-1.03-.86-2.05-1.29-3.08-.29.09-.58.17-.87.26.74,2.98,1.48,5.95,2.22,8.93.27-.06.54-.13.81-.19-.17-.84-.34-1.68-.51-2.52ZM431.26,655.72c-.44-2.06-.88-4.13-1.32-6.19-.26.08-.52.15-1.15.34.53,1.07,1.03,2.08,1.61,3.26-2.33,1.91-4.49,3.68-6.65,5.46-3.72,1.63-7.45,3.27-11.17,4.9.02.08.03.16.05.25,6.62-1.32,13.25-2.64,20.68-4.12-.74-1.41-1.39-2.65-2.04-3.89ZM430.08,641.44c-.24.17-.57.28-.69.5-5.99,11.58-15.77,17.98-28.22,20.75-1.31.29-2.66.4-3.96.71-1.1.26-2.16.67-3.24,1.02,11.34-.55,21.47-3.98,29.59-12.08,3.07-3.06,5.87-6.37,6.47-10.94.92,0,1.84,0,2.76,0,1.2,7.27,4.46,14.2,3.78,21.86-4.4.3-8.55.35-12.62.93-4.2.6-8.33,1.71-12.49,2.59.03.14.07.28.1.43,8.67-.99,17.35-1.98,26.03-2.97.64-5.72-1.9-17.57-4.88-22.77-.23-1.24-.46-2.48-.7-3.72-.33,0-.65,0-.98-.01-.32,1.23-.63,2.46-.95,3.7ZM283.3,662.17c-3.6-2.72-7.19-5.45-10.79-8.17.47-.44.95-.87,1.42-1.31-1.11.35-2.23.69-3.34,1.04,0,1.95-.01,3.91-.02,5.86v.29c.96.9,3.67,3.18,7.75,3.58,2.11.21,3.85-.16,4.99-.51,1.61.93,3.22,1.87,4.84,2.8.32-.06.65-.11.97-.17-.13-.32-.26-.64-.38-.96-1.81-.81-3.63-1.63-5.44-2.44ZM344.48,841.31l.07.06c-.15-.67-.31-1.34-.66-2.86-1.43,1.69-2.35,2.78-3.33,3.95-.43-.82-.75-1.42-1.1-2.09-5.1,10.17,1.2,23.32,11.27,23.08v-24.42c-2.32.85-4.28,1.57-6.24,2.29ZM363.34,474.9v-43.44c-.25,14.19-.25,28.37-.24,42.55,0,.28.19.56.3.84.34,14.68.67,29.35,1.01,44.03,0,2.72,0,5.44,0,8.17v12.46c.33,0,.66,0,.99,0v-7.43c.16,0,.32.01.49.02v43.48c-.25,0-.49,0-.74,0v-30.46c-.16,0-.33,0-.49.01v55.74c.15,0,.29.01.44.02.12-2.75.24-5.51.37-8.26.11,0,.23.02.34.03v28.95c.16,0,.31,0,.47,0v-13.47c.71,6.53.44,13.03.49,19.54.02,3.17.62,6.33.95,9.39,1.99-.92,3.24-1.49,5.09-2.35,0-4.52.24-9.43-.05-14.31-.51-8.33-1.57-16.63-1.97-24.96-.23-4.76.63-9.57.59-14.35-.07-9.15-.53-18.29-.65-27.44-.12-9.42-.03-18.84-.03-28.26-.33,0-.66,0-.99,0v40.23h-.83v-42.22h-1v50.45c-.79-9.75-.7-19.49-.81-29.23-.2-17.51-.75-35.01-.74-52.52.01-20.24.45-40.49.75-60.73.03-2.39.46-4.77.5-7.16.08-5.32.02-10.65.02-15.97-.23,0-.46,0-.68,0v12.48c-.71-26.08-1.16-52.16-1.71-78.23-.26-12.3-.73-24.59-1.07-36.88-.52-19.03-1.1-38.07-1.47-57.11-.2-10.13-.04-20.28-.04-30.41-.36,0-.72,0-1.07,0v14.17c-.3,0-.61,0-.91-.01-.35-16.36-.7-32.73-1.06-49.09-.25,0-.51.02-.76.02.34,26.08.67,52.16,1.01,78.24,0,0,.06-.11.06-.11-.23,1.61-.69,3.22-.65,4.82.2,8.23.57,16.46.79,24.68.19,7.11.11,14.23.41,21.34.6,14.5,1.55,28.99,1.99,43.49.24,7.77-.41,15.57-.45,23.35-.08,16.04-.02,32.08-.02,48.09.91-1.69,1.81-3.34,3.18-5.88,3.06,24.91-1.68,48.76-.1,72.62-.55-3.87-.41-7.74-.59-11.6-.12-2.46-.71-4.89-1.09-7.34ZM334.23,654.73c7.64.09,7.67-5.88,8.17-10.79,1-9.84,1.89-19.74,1.92-29.62.16-55.53.12-111.06.01-166.58-.08-45.63-.41-91.25-.5-136.88-.04-20.55.35-41.11.36-61.66.01-23.26-.21-46.53-.29-69.79-.05-14.24,0-28.48,0-42.61-.89,4.62-1.83,9.42-2.75,14.22-3.69,19.24-4.5,38.71-4.58,58.24-.13,31.81-.5,63.61-.57,95.42-.07,31.06.21,62.12.14,93.18-.04,16.81-.76,33.61-.75,50.42.06,55.98.28,111.96.51,167.94.05,11.78-.65,23.39-4.94,34.54-.48,1.26-.34,2.75-.58,4.99,1.78-1.2,2.72-1.84,3.77-2.55.04.86.06,1.27.07,1.54ZM347.63,143.12c-.15.06-.31.12-.46.18,0,18.76-.43,37.52.14,56.26.43,13.95-1.33,27.96,1.43,41.9,1.26,6.39,1.01,13.12,1.13,19.7.15,7.95-.16,15.91-.04,23.86.59,36.91,1.36,73.82,1.86,110.74.4,29.41.49,58.83.78,88.25.4,40.37.78,80.75,1.36,121.12.17,11.54.67,23.11,4.36,34.25,2.04,6.16,5.51,11.14,11.25,14.57-.14-2.12-.72-4.08-1.13-6.08-1.42-6.89-3.69-13.74-4.01-20.68-1.18-25.78-1.9-51.59-2.43-77.4-.55-26.41-.58-52.82-1.01-79.23-.58-35.42-1.32-70.83-1.99-106.24-.4-21.31-.62-42.62-1.21-63.92-.65-23.54-1.64-47.08-2.49-70.62-.6-16.78-.66-33.61-2-50.34-.98-12.18-3.65-24.23-5.57-36.34ZM344.82,113.51c-.37-.01-.73-.03-1.1-.04-.18.24-.46.45-.52.71-.58,2.48-1.01,4.99-1.68,7.44-6.83,25.16-9.7,50.93-11.05,76.83-1.13,21.71-1.25,43.49-1.37,65.24-.2,34.5.03,69.01-.05,103.51-.04,16.95-.46,33.89-.53,50.84-.19,43.35-.26,86.71-.42,130.06-.05,13.8-.08,27.6-.43,41.39-.34,13.33-.96,26.65-1.7,39.97-.48,8.65-1.39,17.27-2.11,25.91,2.7-3.16,5.28-6.26,6.27-9.8,1.67-6.01,3.15-12.29,3.27-18.49.42-20.85.21-41.71.23-62.57.1-88.09.08-176.18.36-264.26.13-39.76.83-79.51,1.32-119.27.19-15.67,3.54-30.92,6.36-46.24,1.29-7.03,2.13-14.15,3.17-21.22ZM347.53,432.65c-.48-.04-.96-.07-1.44-.11,0,22.19-.04,44.38.01,66.57.07,28.65.34,57.3.28,85.95-.04,19.77,1.16,39.6-1.61,59.29-.58,4.08-1.72,8.09-2.6,12.13,1.51-2.09,2.48-4.37,2.95-6.76,2.76-14.19,3.22-28.54,3.08-42.95-.31-32.4-.52-64.8-.64-97.2-.1-25.64-.02-51.29-.02-76.93ZM349.69,684.3v-20.91c-1.7,1.4-4.37,3.31-8.01,4.77-2.92,1.17-5.14,1.52-9.13,2.15-5.91.93-10.41.7-12.11.79-1.43.07-2.89-.12-4.33-.3-2.5-.31-4.99-.7-7.48-1.06,13.52,5.27,28.2,6.49,41.06,14.57ZM271.55,643.56c.51.22.69.24.74.33.3.51.62,1.01.85,1.55,4.32,10.13,12.17,15.89,22.55,18.93,9.94,2.92,20.02,3.6,30.23,2.81,5.35-.42,10.74-1.05,15.94-2.29,4.32-1.03,7.52-4.25,7.89-8.8.47-5.85.11-11.76.11-17.65-.4,0-.81-.01-1.21-.02-.09,1.58-.06,3.18-.3,4.75-.58,3.84-1.16,7.68-1.95,11.48-1.29,6.23-5.45,9.89-11.55,10.2-10.28.52-20.64.88-30.88.15-5.33-.38-10.72-2.74-15.68-5.08-8.27-3.91-13.01-11.19-16.37-20.14-4.58,9.25-7.1,18.36-7.55,27.92h19.42c.25-.21.51-.41.76-.62-.25-.2-.51-.39-.76-.59h-18.49c1.3-8.4,2.56-15.95,6.22-22.91ZM356.17,646.33c.37-.1.73-.2,1.1-.3,0-.77.24-1.63-.04-2.28-5.29-12.44-5.98-25.62-6.15-38.85-.41-31.51-.74-63.02-1.08-94.53-.25-22.94-.46-45.88-.69-68.82-.26,9.24-.34,18.47-.25,27.69.22,22.36.59,44.71.76,67.07.2,25.97-.04,51.95.53,77.91.19,8.77,2.15,17.51,3.52,26.24.32,2.03,1.51,3.92,2.3,5.88ZM347.61,315.18c-.23,0-.45,0-.68,0v69.48c.23,0,.45,0,.68-.01v-69.48ZM351.58,743.16c.57-1.72,1.22-3.67,1.93-5.8-2.87-1.06-6.84.27-8.45-3.84-1.53.35-3.03.69-4.39,1-.54,7.28,3.07,10.11,10.91,8.64ZM352.65,792.65c-.4-1.26-.85-2.67-1.2-3.75-3.31-.58-6.29-1.1-9.27-1.62-.75,8.1,1.63,11.12,7.43,10.68,1.11-1.94,2.05-3.59,3.04-5.31ZM341.54,746.9c-1.66,3.22-.98,5.69,1.09,7.68,2.17,2.08,6.95,1.86,10.53-.24-.53-1.62-1.07-3.28-1.71-5.23-3.29-.73-6.58-1.46-9.91-2.2ZM341.38,772.53v6.56c1.89,2.87,4.63,4.75,7.26,3.45,1.98-.98,2.91-4.1,4.57-6.68-4.46-1.26-7.97-2.24-11.83-3.33ZM341.26,765.58c3.93,3.22,5.6,3.71,9.95,2.94.41-1.93.86-4.02,1.41-6.59-4.01-.7-7.55-1.31-11.37-1.97v5.62ZM340.14,727.12c2.99,4.03,6.19,5.27,10.36,4.23.58-1.94,1.12-3.73,1.58-5.27-3.78-1.55-7.07-2.9-11.04-4.52-.39,2.45-.66,4.11-.9,5.57ZM341.06,711.45c-1.19,6.42,2.35,9.28,9.63,8.39.45-1.95.88-3.81,1.45-6.26-3.71-.72-7.24-1.39-11.08-2.13ZM343.51,800.22c-1.56,7.59.85,10.58,7.72,9.43.42-1.99.87-4.16,1.28-6.1-3.47-1.28-6.21-2.3-9-3.33ZM359.6,863.88c-7.07,5.49-15.27,2.68-18.99-2-5.21-6.55-6.93-13.83-3.67-21.87.48-1.19.99-2.37,1.48-3.55-6.94,8.4-4.29,20.39,1.18,26.46,5.45,6.05,14.59,7.43,20,.96ZM313.69,674.67c11.73,5.83,25.65,6.11,35.93,15.59.92-.79,1.64-1.4,2.09-1.78-1.37-.58-2.62-.99-3.76-1.6-3.14-1.66-6.07-3.83-9.37-5.03-5.76-2.09-11.73-3.63-17.62-5.34-2.4-.69-4.84-1.24-7.26-1.85ZM348.82,710.48c1.09-2.75,1.71-4.32,2.47-6.25-4.01-1.07-7.37-1.96-10.79-2.88v5c2.5,1.24,5.18,2.57,8.32,4.13ZM367.17,519.12c.21,0,.43,0,.64,0v-51.52c-.21,0-.43,0-.64,0v51.52ZM357,224.45c.34-.07.67-.13,1.01-.2-.06-12.79.13-25.59-1.01-38.33v38.52ZM369.06,509.75c.14.01.27.02.41.04v-36.75c-.14,0-.27,0-.41,0v36.72ZM351.53,699.14c-2.32-1.28-4.78-2.37-6.91-3.91-2.04-1.48-3.74-3.43-5.59-5.17,2.83,5.09,6.02,9.72,12.5,9.08ZM387.21,670.26c-.09-.23-.18-.46-.28-.68-4.45.54-8.9,1.08-13.53,1.64.1.61.2,1.28.36,2.27,4.68-1.12,9.06-2.18,13.45-3.23ZM364.54,454.04c.15-.01.3-.02.46-.03v-22.64c-.15,0-.3,0-.46,0v22.67ZM358.82,235.19c-.12.04-.24.08-.37.12v19.45h.37v-19.58ZM368.5,435.12c-.08.05-.16.1-.23.15v17.64c.08,0,.16,0,.23,0v-17.79ZM343.68,689.79c.97,1.25,1.94,2.51,2.91,3.76,1.6.44,3.19.89,4.79,1.33-.1-.27-.19-.54-.29-.81-2.47-1.43-4.94-2.86-7.41-4.28ZM364.6,298.39c.11,0,.21,0,.32,0v-13.67h-.32v13.67ZM350.9,814.12c-2.28-.55-4.56-1.09-6.84-1.64,1.75,2.95,4.14,3.3,6.84,1.64ZM350.32,820.02c.1-.43.19-.86.29-1.29-2.46-.51-4.92-1.02-7.38-1.53-.08.35-.15.69-.23,1.04,2.44.59,4.88,1.18,7.33,1.78ZM365.81,308.29c-.08.06-.17.11-.25.17v11.47c.08,0,.17,0,.25,0v-11.63ZM362.93,514.36h.2v-11.49h-.2v11.49ZM346.62,821.61c-.22.39-.43.79-.65,1.18,1.07.62,2.14,1.25,3.21,1.87.25-.44.49-.89.74-1.33-1.1-.58-2.19-1.15-3.29-1.73ZM346.71,421.18c.07-.06.14-.13.21-.19v-5.67c-.07,0-.14,0-.21,0v5.86ZM367.31,399.93c.09-.05.17-.09.26-.14v-6.03c-.09,0-.17,0-.26,0v6.16ZM355.78,662.42c-.14.09-.29.18-.43.28.07.18.14.36.22.53l4.51,1.26c.18-.09.36-.17.55-.26-.11-.2-.22-.41-.33-.61-1.51-.4-3.01-.8-4.52-1.2ZM346.58,826.57c-.12.28-.23.51-.33.74,1.53.56,3.07,1.13,4.6,1.69.09-.32.18-.63.27-.95-1.52-.49-3.03-.99-4.55-1.48ZM352.47,653.45c-.14-.1-.29-.19-.43-.29-.09.19-.18.38-.28.56.46,1.3.92,2.61,1.38,3.91.21.11.41.22.62.33.07-.22.14-.43.21-.65-.5-1.29-1-2.58-1.5-3.86ZM361.34,365c-.05.03-.1.06-.15.09v5.15c.05,0,.1,0,.15,0v-5.24ZM348.69,417.07l-.11.16v2.93s.08,0,.11,0v-3.09ZM361.25,208.27h-.16v2.63c.05,0,.11,0,.16-.01v-2.62ZM356.52,163.27h.24v-3.04c-.08,0-.16,0-.24,0v3.03ZM354.52,685.31c-.05.19-.09.38-.14.57.15.02.31.05.46.07.77-.52,1.53-1.04,2.3-1.56.05-.15.11-.3.16-.45-.16-.01-.32-.03-.48-.04-.77.47-1.54.94-2.3,1.41Z"/></g></svg>