<?xml version="1.0" encoding="UTF-8"?><svg id="Layer_2" xmlns="http://www.w3.org/2000/svg" viewBox="0 0 702.91 702.91"><defs><style>.cls-1{fill:#e8e8cb;}</style></defs><g id="Layer_1-2"><path class="cls-1" d="M622.88,80.08c-27.2-32.6-30.92-67.93-31.65-79.95-75.45-.04-150.91-.08-226.36-.12,0,0,0,0,0-.01-4.47,0-8.94,0-13.41,0-4.47,0-8.94,0-13.41,0h0c-75.45.05-150.91.09-226.36.13-.73,12.01-4.45,47.34-31.65,79.95C49.99,116.08,11.19,124.94,0,127.09v448.72c11.19,2.15,49.99,11.01,80.03,47.01,27.2,32.6,30.92,67.93,31.65,79.95,75.45.04,150.91.08,226.36.12,0,0,0,0,0,.01,4.47,0,8.94,0,13.41,0,4.47,0,8.94,0,13.41,0,0,0,0,0,0-.01,75.45-.04,150.91-.08,226.36-.12.73-12.01,4.45-47.34,31.65-79.95,30.03-36,68.83-44.87,80.03-47.01V127.09c-11.19-2.15-49.99-11.01-80.03-47.01ZM351.45,666.93c-174.23,0-315.48-141.24-315.48-315.48S177.22,35.98,351.45,35.98s315.48,141.24,315.48,315.48-141.24,315.48-315.48,315.48Z"/><path class="cls-1" d="M559.79,274.78c14.5-1.2,28.2-2.34,33.28-7.36.98-.98,3.5-3.5,2.94-5.77-.48-1.87-2.94-2.87-4.12-3.35-12.46-4.84-31.03,1.33-31.21,1.39-3.4,1.16-13.77,4.71-31.96,15.34l-.14.05c-7.06,1.41-13.92,3.61-23.41,6.65-26.83,8.57-45.04,21.42-54.83,28.33-21.08,14.81-34.47,29.56-45.23,41.42l-.29.32c-5.7,6.26-7.89,9.19-10.01,12.02l-1.71,2.27.91-2.69c2.74-8.14,5.35-16.38,7.75-24.49,2.73-9.2,5.69-18.53,9.04-28.54,3.09-9.08,6.43-16.97,9.93-23.44,3.19-5.9,6.66-10.25,10.62-13.29,1.71-.82,3.3-1.5,4.77-2.06h-8.33c-3.28-.19-7.25-1.45-11.84-3.74-5.09-2.5-10.89-5.73-17.24-9.6-6.57-3.93-13.61-8.14-21.12-12.5-7.71-4.48-15.75-8.71-23.88-12.58-8.11-3.9-16.68-7.19-25.49-9.79-8.68-2.5-17.5-3.77-26.21-3.77-15.58,0-29.63,1.93-41.76,5.73-12.19,3.81-22.54,8.99-30.76,15.4-8.24,6.35-14.62,13.58-18.96,21.49-3.78,6.98-5.93,14.17-6.38,21.35l-.02.36-.35.06c-6.59,1.18-13.32,2.92-20.02,5.19-15.12,5.21-28.62,12.51-40.12,21.69-11.49,9.19-20.6,20.01-27.08,32.17-6.48,12.18-9.76,25.41-9.76,39.31,0,14.18,3.06,27.55,9.08,39.73,6.12,12.23,14.69,23.03,25.49,32.07,10.94,9.16,23.8,16.38,38.24,21.46,14.62,5.1,30.6,7.69,47.5,7.69,17.31,0,33.34-2.11,47.66-6.28,14.34-4.22,26.97-10.2,37.51-17.78,10.61-7.69,18.87-16.84,24.56-27.19,5.75-10.41,8.66-22.01,8.66-34.47,0-6.62-.66-12.89-1.95-18.66l-.04-.19.11-.16c5.22-7.97,10.35-16.28,15.23-24.67,5.91-10.22,12.21-20.54,18.72-30.69,6.38-9.93,13.49-19.07,21.14-27.18,4.04-3.86,8.45-7.49,13.12-10.83,2.19-1.54,4.37-2.98,6.41-4.3l2.24-1.46-1.63,2.12c-3.5,4.56-6.67,9.27-9.41,14.01-9.12,15.6-13.21,30.16-21.59,61.59-2.08,7.88-4.41,15.77-6.92,23.46v.1s-.11.17-.11.17c-1.88,2.21-8.72,10.54-17.81,24.87-.31.49-7.55,12.04-4.92,16.6,1.23,2.14,3.85,1.78,5.83.89,6.9-3.09,9.62-10.82,12.53-17.19,3.59-7.86,6.49-16.01,10.32-23.75.69-1.41,1.35-2.73,2.15-4.63v-.07s.11-.17.11-.17c7.05-8.39,14.45-16.49,21.98-24.08.4-.43,41.49-44.78,88.24-64,4.72-1.93,9.18-3.76,13.11-5.21l.33.85c-.11.04-.24.13-.37.22-.08.05-.16.11-.25.16-1.02.68-2.69,1.83-4.69,3.21-2.73,1.88-6.13,4.22-9.26,6.32-39.63,26.62-71.45,70.24-71.77,70.68-11.43,15.83-30.65,46.04-30.95,70.44-.1,10.57,3.14,21.38,8.25,27.54,1.13,1.35,3.8,4.52,8.46,6.58,2.79,1.22,5.88,1.83,9.17,1.83,6.13,0,11.43-2.01,15.75-5.96l-.29-.7c-4.58,3.57-9.72,5.38-15.28,5.38-5.77,0-10.39-2.29-13.74-6.8-3.3-4.51-4.97-10.65-4.97-18.25,0-8.11,1.76-16.95,5.23-26.27,3.56-9.39,8.3-19,14.1-28.56,6.1-10.14,12.67-19.59,20.07-28.89,14.65-18.61,32.09-37.3,49.12-52.63,11.21-12.11,23.92-22.36,37.77-30.41l.13-.05c2.62-.6,4.99-1.08,7.47-1.51,7.5-1.26,15.46-1.92,23.16-2.56ZM541.48,272.45c.14-.07.3-.14.45-.21.14-.07.29-.13.42-.2,5.23-2.42,10.5-4.5,15.67-6.19,5.58-1.8,9.54-2.65,13.74-3.55l.55-.12c14.45-2.99,16.98-1.63,17.62-.35.24.48.33.92.27,1.32-.28,2.83-6.25,4.26-11.42,5.17h0c-15.46,2.74-23.22,4.11-36.56,4.94-.2,0-.29,0-.42.03l-4.01,1,3.69-1.85ZM206.36,285.19l.03-.35.35-.06c8.29-1.4,17.06-2.11,26.04-2.11,16.67,0,31.48,2.45,44.02,7.29,12.59,4.9,22.55,11.76,29.58,20.4,3.13,3.82,5.61,8,7.37,12.44l.13.32-.27.21c-2.83,2.16-6.09,4.15-9.7,5.94l-.2.1-.2-.1c-1.75-.88-3.37-1.63-4.95-2.32-14.95-6.55-32.97-9.87-53.58-9.87-8.8,0-17.23.78-25.06,2.32l-.23.04-.17-.16c-1.89-1.75-3.61-3.66-5.12-5.67-5.42-7.12-8.17-15.63-8.17-25.28,0-1.07.05-2.13.14-3.15ZM240.41,352.32c-9.61,0-18.19,1.28-25.5,3.81-7.29,2.46-13.04,6.04-17.1,10.64-4.1,4.6-6.1,9.77-6.1,15.81,0,7.15,3.58,12.63,10.95,16.76,7.36,4.17,17.72,6.29,30.81,6.29,11.87,0,23.09-1.68,33.36-5,10.1-3.26,19.18-7.92,26.98-13.85,7.77-5.99,13.67-12.75,18.04-20.67,4.2-7.63,6.38-15.96,6.47-24.75v-.96s.75.62.75.62c5.03,4.2,9.4,9.01,13,14.29,2.33,3.37,4.28,6.87,5.79,10.39l.11.26-.18.22c-3.23,3.79-6.39,7.49-9.64,11.14-9.04,10.18-18.84,19.61-29.12,28.03-10.36,8.43-21.56,15.26-33.29,20.29-11.86,5.08-24.7,7.66-38.15,7.66-13.7,0-25.98-1.88-36.48-5.59-10.64-3.71-19.13-9.35-25.26-16.75-6.13-7.46-9.23-16.86-9.23-27.95,0-9.14,2.22-17.74,6.58-25.55,4.33-7.75,10.59-14.69,18.61-20.64,8.08-5.91,17.54-10.51,28.12-13.67,3.28-.96,6.28-1.69,9.17-2.25l.23-.04.17.15c3.76,3.44,8.14,6.4,13.41,9.06,9.87,4.93,22.79,7.44,38.41,7.44,11.27,0,21.58-2,30.63-5.94l1.7-.77.2.1c4.66,2.4,9.03,5.18,12.99,8.26l.15.12.02.19c.05.44.05.91.05,1.33,0,8.88-2.18,17.3-6.49,25.05-4.24,7.65-10.23,14.47-17.83,20.27-7.63,5.75-16.58,10.27-26.61,13.45-10.04,3.19-21.02,4.81-32.63,4.81-12.54,0-22.2-1.87-29.51-5.71-7.31-3.86-11.01-9.27-11.01-16.06,0-5.74,2.05-10.86,6.1-15.23,4.05-4.33,9.69-7.73,16.76-10.12,7-2.41,15.28-3.63,24.61-3.63,12.04,0,21.69,2.8,28.7,8.32l.9-1.04c-7.63-5.76-17.32-8.56-29.6-8.56ZM220.79,320.55l.96-.17c7.38-1.34,15.19-2.01,23.22-2.01,20.35,0,38.1,3.22,52.76,9.58,1.22.54,2.48,1.1,3.68,1.7l.99.49-1.05.35s-.1.04-.15.07c-.09.04-.18.09-.27.12-8.74,3.83-18.65,5.77-29.4,5.77-13,0-24.52-2.02-34.22-6.01-6.06-2.46-11.36-5.57-15.77-9.24l-.75-.62ZM316.12,337.07c-3.12-2.36-6.59-4.56-10.3-6.53l-.78-.42.79-.4c2.88-1.44,5.58-3.09,8.01-4.89l.5-.37.2.59c1.22,3.6,1.97,7.4,2.3,11.61l.08,1.01-.81-.61ZM344.24,397.6c0,12.32-2.91,23.77-8.64,34.04-5.78,10.27-13.96,19.26-24.32,26.71-10.35,7.48-22.84,13.35-37.11,17.46-14.21,4.13-30.04,6.22-47.04,6.22s-32.3-2.53-46.7-7.51c-14.42-5.04-27.17-12.17-37.89-21.21-10.88-9.14-19.41-19.84-25.35-31.82-6.03-12.01-9.09-25.18-9.09-39.13,0-13.84,3.27-26.91,9.73-38.87,6.41-11.91,15.42-22.56,26.77-31.68,11.25-9.03,24.63-16.23,39.75-21.39,6.42-2.17,12.7-3.82,19.19-5.04l.54-.1v1.1c0,8.42,2.36,16.65,7.01,24.46,1.82,3.01,4.01,5.82,6.5,8.36l.58.59-.81.18c-2.92.63-5.55,1.32-8.04,2.09-10.92,3.37-20.5,8.07-28.48,13.99-8.02,5.95-14.35,13.01-18.81,20.99-4.44,7.98-6.7,16.72-6.7,25.98,0,13.48,3.45,24.84,10.27,33.77,6.82,8.99,16.09,15.75,27.55,20.11,11.45,4.37,24.35,6.59,38.36,6.59,17.27,0,33.28-2.62,47.59-7.78,14.34-5.2,26.92-13.01,37.4-23.22,8.54-8.4,16.27-17.71,22.99-27.68.42-.62.83-1.24,1.25-1.85.4-.6.81-1.19,1.22-1.8l.62-.93.21,1.1c.97,5.2,1.47,10.67,1.47,16.29ZM414.57,280.3c-4.5,3.44-10.04,8.24-16.94,14.67-6.68,5.81-13.69,13.3-20.86,22.27-7.89,9.87-16.03,20.28-22.96,29.16-5.21,6.69-9.94,12.54-14.48,17.9l-.46.55-.3-.65c-1.47-3.21-3.2-6.26-5.3-9.33-4.12-6.09-9.13-11.51-14.88-16.1l-.16-.13v-.21c-.19-5.07-1.1-9.93-2.72-14.42l-.11-.31.26-.2c3.01-2.38,5.61-4.97,7.96-7.91,5.29-6.64,7.98-14.11,7.98-22.22,0-5.91-1.41-10.92-4.31-15.31-2.74-4.23-6.73-7.53-11.84-9.82l-.73.96c4.85,1.91,8.65,5.02,11.29,9.23,2.71,4.32,4.09,9.35,4.09,14.94,0,7.9-2.66,15.2-7.91,21.69-2.09,2.57-4.39,4.88-6.82,6.87l-.47.39-.24-.56c-1.8-4.29-4.2-8.29-7.14-11.89-7.16-8.82-17.23-15.84-29.94-20.86-12.75-5.04-27.82-7.59-44.79-7.59-8.72,0-17.37.67-25.71,2l-.59.09.06-.59c.77-7.11,3.18-13.96,7.14-20.36,4.94-7.91,11.94-14.96,20.81-20.95,8.88-5.95,19.37-10.61,31.17-13.85,11.8-3.28,24.69-4.94,38.32-4.94,10.35,0,20.82,1.73,31.13,5.13,10.28,3.44,20.26,7.71,29.65,12.67,9.88,5.2,18.55,10.12,26.5,15.03,8.09,5,15.4,9.23,21.74,12.58,4.44,2.38,8.17,3.84,11.42,4.47l1.19.23-1.05.61c-3.15,1.83-6.42,4.05-10,6.77ZM374.55,397.46c-1.22,2.83-2.37,5.42-3.52,7.91h0c-.21.45-.51,1.21-.88,2.16-2.21,5.62-4.81,11.61-7.65,11.61-.33,0-.55-.22-.64-.66l-.04-.15c-.46-3.59,11.44-20.59,11.95-21.32l2.55-3.64-1.76,4.08Z"/></g></svg>