<?xml version="1.0" encoding="UTF-8"?><svg id="Layer_2" xmlns="http://www.w3.org/2000/svg" viewBox="0 0 542.12 269.72"><defs><style>.cls-1{fill:#f9f3b2;stroke:#0f76ae;stroke-miterlimit:10;stroke-width:3px;}.cls-2{fill:#0f76ae;stroke-width:0px;}</style></defs><g id="Layer_1-2"><path class="cls-1" d="M538.95,217.32c.33,2,.51,4.04.51,6.12,0,15.11-7.54,28.41-20.68,36.48-8.97,5.51-20.11,8.3-33.09,8.3-13.74,0-26.28-4.05-36.23-11.55-5.96,6.44-14.16,9.97-23.77,9.97h-6.13c-5.93,0-11.31-1.36-15.98-3.9-4.59,2.5-9.89,3.9-15.49,3.9h-21.76c-3.85,0-7.54-.68-10.96-1.9-6.65,2.26-14.08,3.48-22.11,3.48-5.17,0-9.7-.64-13.47-1.48-2.53.73-5.42,1.22-8.61,1.23-3.05,0-6.01-.48-8.83-1.33h-21.27c-3,0-5.92-.4-8.69-1.16-2.78.76-5.71,1.16-8.74,1.16h-21.76c-3.58,0-7.03-.59-10.25-1.66-6.59,2.16-13.97,3.24-22.07,3.24-8.91,0-17.31-1.71-24.84-4.95-6.29,3.18-13.51,4.95-21.32,4.95-6.96,0-13.3-1.1-18.91-3.18-3.19,1.03-6.6,1.6-10.14,1.6h-21.76c-3,0-5.92-.4-8.69-1.16-2.78.76-5.72,1.16-8.74,1.16h-21.76c-1.5,0-2.96-.11-4.41-.31-1.43.19-2.88.31-4.36.31h-31.79c-14.35,0-26.5-9.09-30.25-22.62-3.33-12.01,1.09-24.86,10.81-32.57v-26.42c-9.72-7.7-14.13-20.52-10.81-32.5,3.74-13.51,15.89-22.58,30.25-22.58h31.79c3.3,0,6.49.5,9.5,1.42-3.96-3.74-6.94-8.54-8.48-14.11-3.33-12.01,1.09-24.86,10.81-32.57v-26.42c-9.72-7.7-14.13-20.52-10.81-32.5,3.74-13.51,15.89-22.58,30.25-22.58h36.23c26.6,0,42.44,10.77,51.05,19.8.63.67,1.24,1.35,1.84,2.04,6.39-2.21,13.31-3.36,20.53-3.36,10.03,0,19.04,2.2,26.74,6.22,7.71-3.97,16.8-6.22,26.71-6.22,3.9,0,7.46.4,10.55.94,5.95-12.47,18.68-21.11,33.39-21.11s26.17,7.85,32.42,19.39c7.62-9.48,19.49-15.48,33.07-15.48,14.47,0,26.89,7.12,33.79,18.02.83.08,1.63.18,2.4.3,4.74-1.37,9.82-2.06,15.25-2.06,28.26,0,50.39,20.65,50.39,47.01v20.5c7.27,8.7,9.4,20.4,5.35,30.96-4.61,11.99-16.16,19.74-29.43,19.74h-21.77c-3,0-5.92-.4-8.69-1.16-2.78.76-5.71,1.16-8.74,1.16h-3.51c2.79,2.96,5.09,6.38,6.79,10.14h2.85c3.97,0,7.78.67,11.28,1.94,3.48-1.26,7.23-1.94,11.12-1.94h16.05c4.28,0,8.38.82,12.13,2.32,6.8-2.56,14.22-3.91,21.99-3.91,32.86,0,54.93,23.44,54.93,58.31,0,3.73-.59,7.28-1.67,10.58Z"/><path class="cls-2" d="M95.91,110.88c-1.79,0-2.21-1.04-2.3-1.36-.23-.83.22-1.74,1.15-2.29l5.58-3.48c4.79-2.93,5.13-3.58,5.13-9.82v-44.79c0-6.33-.44-6.79-5.14-9.83l-5.6-3.59c-.91-.55-1.36-1.4-1.13-2.21.11-.4.55-1.32,2.3-1.32h36.23c25.64,0,39.77,13.97,39.77,39.35s-13.64,39.35-39.45,39.35h-36.55ZM128.87,40.31c-9.07,0-10.72,2.97-10.72,8.82v44.68c0,6.46,1.54,8.61,10.62,8.61,19.59,0,29.11-10.14,29.11-31.01,0-14.19-5.03-31.11-29-31.11Z"/><path class="cls-2" d="M132.14,33.19c26.51,0,38.77,15.21,38.77,38.35,0,24.4-12.57,38.35-38.45,38.35h-36.55c-1.69,0-1.69-1.16-.63-1.8l5.6-3.49c5.18-3.17,5.6-4.23,5.6-10.67v-44.79c0-6.55-.53-7.39-5.6-10.67l-5.6-3.59c-1.06-.63-1.06-1.69.63-1.69h36.23M128.76,103.44c23.56,0,30.11-14.79,30.11-32.01s-6.76-32.11-30-32.11c-9.29,0-11.72,3.17-11.72,9.82v44.68c0,7.18,2.22,9.61,11.62,9.61M132.14,31.19h-36.23c-2.51,0-3.13,1.57-3.27,2.05-.34,1.24.28,2.54,1.58,3.34l5.58,3.58c4.42,2.85,4.68,3.02,4.68,8.99v44.79c0,5.89-.17,6.23-4.64,8.96l-5.61,3.49c-1.3.78-1.93,2.12-1.58,3.4.14.49.77,2.09,3.27,2.09h36.55c13.27,0,23.48-3.57,30.36-10.63,6.69-6.86,10.09-16.86,10.09-29.72s-3.36-22.27-9.99-29.23c-7.03-7.38-17.38-11.12-30.77-11.12h0ZM128.76,101.44c-8.83,0-9.62-1.97-9.62-7.61v-44.68c0-5.41,1.4-7.82,9.72-7.82,23.14,0,28,16.38,28,30.11,0,20.19-9.19,30.01-28.11,30.01h0Z"/><path class="cls-2" d="M205.56,112.46c-18.28,0-29.63-11.64-29.63-30.37s11.35-31.42,29.63-31.42c16.72,0,25.93,10.41,25.93,29.31,0,2.8-1.55,3.22-2.48,3.22h-40.19c.33,12.73,6.97,20.29,17.9,20.29,7.49,0,12.52-4.45,12.52-8.61,0-1.25-.8-2.06-1.51-2.78-.63-.64-1.49-1.51-.9-2.57.72-1.45,2.79-1.57,5.42-1.57,3.74,0,8.08,3.8,8.08,8.71,0,9.89-9.26,15.79-24.77,15.79ZM219.31,74.86c-.51-10-7.09-15.22-13.55-15.22-8.34,0-14.63,5.93-16.26,15.22h29.81Z"/><path class="cls-2" d="M205.56,51.67c17.96,0,24.93,12.15,24.93,28.31,0,1.27-.32,2.22-1.48,2.22h-41.2c0,14.16,7.29,22.29,18.91,22.29,8.13,0,13.52-4.96,13.52-9.61,0-2.85-3.06-3.91-2.54-4.86.42-.84,1.79-1.06,4.54-1.06,3.28,0,7.08,3.49,7.08,7.71,0,9.4-9.08,14.79-23.77,14.79-18.8,0-28.63-12.57-28.63-29.37,0-19.54,11.73-30.42,28.63-30.42M188.34,75.86h32.01c-.11-10.88-7.08-17.22-14.58-17.22-9.82,0-16.16,7.61-17.43,17.22M205.56,49.67c-9.02,0-16.66,2.93-22.08,8.49-5.59,5.72-8.55,14-8.55,23.94,0,9.05,2.69,16.78,7.79,22.33,5.42,5.91,13.32,9.03,22.84,9.03,16.13,0,25.77-6.28,25.77-16.79,0-4.49-3.97-9.71-9.08-9.71-2.85,0-5.3.16-6.31,2.12-.91,1.69.44,3.05,1.08,3.71.74.75,1.22,1.3,1.22,2.08,0,4.49-6.07,7.61-11.52,7.61-10.18,0-16.25-6.63-16.86-18.29h39.15c.82,0,3.48-.3,3.48-4.22,0-9.05-2.07-16.27-6.16-21.45-4.63-5.88-11.62-8.86-20.77-8.86h0ZM190.72,73.86c1.85-8.1,7.57-13.22,15.04-13.22,5.75,0,11.6,4.53,12.47,13.22h-27.51Z"/><path class="cls-2" d="M259.53,112.46c-6.05,0-10.44-1.62-13.35-2.7-1.24-.46-2.32-.86-2.94-.89-.2.1-.64.43-1.01.71-.46.35-.99.75-1.6,1.14-1.44.96-2.38,1.48-3.19,1.48-.75,0-1.34-.45-1.61-1.22-.16-.47-.23-1.08-.23-2.05v-21.02c0-1.38.87-2,1.68-2,.87,0,1.71.67,2.23,1.79l2.84,5.79c3.27,6.64,9.19,10,17.59,10s14.21-3.42,14.21-8.93c0-4.07-1.95-6.42-13.04-8.74l-5.07-1.06c-13.96-2.92-19.92-7.92-19.92-16.72,0-10.23,9.4-17.37,22.87-17.37,4.93,0,9.17,1.27,11.99,2.11,1.33.4,2.47.74,3.01.74.5,0,.89-.25,1.94-.99l.44-.31c1.48-1.09,2.27-1.59,3.01-1.59,1.62,0,1.62,1.87,1.62,3.36v16.27c0,1.43-.84,2.06-1.68,2.06-.66,0-1.3-.4-1.67-1.04l-1.89-3.15c-3.45-5.68-8.73-8.81-14.88-8.81-7.66,0-12.42,2.69-12.42,7.03,0,2.67,1.46,5.43,12.09,7.58l5.28,1.06c14.34,2.87,20.45,7.93,20.45,16.93,0,12.86-10.01,20.54-26.78,20.54Z"/><path class="cls-2" d="M279.41,51.64c.56,0,.62.77.62,2.36v16.27c0,.76-.32,1.06-.68,1.06-.29,0-.61-.2-.8-.54l-1.9-3.17c-3.91-6.44-9.72-9.3-15.74-9.3-8.03,0-13.42,2.96-13.42,8.03,0,3.91,2.96,6.55,12.89,8.56l5.28,1.06c13.73,2.75,19.65,7.39,19.65,15.95,0,12.78-10.35,19.54-25.78,19.54-8.87,0-14.05-3.59-16.37-3.59-.53,0-1.59,1.06-3.06,2.01-1.28.85-2.12,1.33-2.65,1.33-.65,0-.84-.71-.84-2.28v-21.02c0-.66.29-1,.68-1,.42,0,.94.4,1.33,1.22l2.85,5.81c3.59,7.29,10.14,10.56,18.49,10.56,9.19,0,15.21-3.7,15.21-9.93,0-4.86-2.75-7.39-13.84-9.72l-5.07-1.06c-14.15-2.96-19.12-7.92-19.12-15.74,0-9.93,9.29-16.37,21.87-16.37,7.29,0,12.99,2.85,15,2.85.95,0,1.58-.53,2.96-1.48,1.26-.93,2-1.41,2.44-1.41M279.41,49.64h0c-1.02,0-1.94.55-3.61,1.79l-.42.29c-.74.52-1.17.81-1.37.81-.4,0-1.64-.37-2.73-.7-2.87-.86-7.2-2.15-12.27-2.15-14.05,0-23.87,7.56-23.87,18.37,0,9.25,6.39,14.7,20.71,17.7l5.07,1.06c11.37,2.38,12.25,4.72,12.25,7.76,0,5.85-6.83,7.93-13.21,7.93-7.99,0-13.6-3.18-16.69-9.45l-2.85-5.81c-.68-1.45-1.85-2.34-3.12-2.34s-2.68,1.03-2.68,3v21.02c0,2.84.96,4.28,2.84,4.28,1.07,0,2.1-.56,3.75-1.66.62-.4,1.18-.82,1.64-1.17.2-.15.44-.33.63-.46.56.12,1.51.47,2.37.79,2.97,1.1,7.47,2.76,13.69,2.76,8.17,0,15.03-1.85,19.85-5.36,5.19-3.78,7.93-9.37,7.93-16.18,0-12.04-10.75-15.81-21.26-17.91l-5.28-1.06c-11.28-2.28-11.28-5.09-11.28-6.6,0-2.91,3-6.03,11.42-6.03,5.79,0,10.77,2.96,14.03,8.33l1.9,3.16c.52.91,1.49,1.51,2.51,1.51,1.33,0,2.68-1.05,2.68-3.06v-16.27c0-1.42,0-4.36-2.62-4.36h0Z"/><path class="cls-2" d="M292.59,110.88c-1.47,0-2.02-.62-2.22-1.14-.29-.75.05-1.63.92-2.4l4.76-4.13c1.56-1.32,1.56-1.49,1.56-4.36v-34.56c0-2.87,0-3.04-1.55-4.35l-4.76-4.13c-1.17-1.06-1.18-1.9-.97-2.43.2-.51.75-1.12,2.26-1.12h13.52c2.86,0,3.32,1.42,3.32,4.8v41.79c0,2.87,0,3.04,1.55,4.35l4.76,4.13c1.16,1.05,1.17,1.89.96,2.41-.29.76-1.08,1.14-2.36,1.14h-21.76ZM302.95,46.12c-4.4,0-7.97-3.43-7.97-7.65s3.65-7.97,7.97-7.97,7.87,3.65,7.87,7.97-3.53,7.65-7.87,7.65Z"/><path class="cls-2" d="M302.95,31.5c3.7,0,6.87,3.17,6.87,6.97s-3.17,6.65-6.87,6.65-6.97-2.96-6.97-6.65,3.17-6.97,6.97-6.97M306.11,53.26c1.9,0,2.32.42,2.32,3.8v41.3c0,3.38-.11,3.91,1.9,5.6l4.75,4.12c1.06.95,1.06,1.8-.74,1.8h-21.76c-1.69,0-1.58-.95-.63-1.8l4.75-4.12c2.01-1.69,1.9-2.22,1.9-5.6v-33.59c0-3.38.11-3.91-1.9-5.6l-4.75-4.12c-1.06-.95-1.06-1.8.63-1.8h13.52M302.95,29.5c-4.95,0-8.97,4.02-8.97,8.97s4.02,8.65,8.97,8.65,8.87-3.88,8.87-8.65-4.06-8.97-8.87-8.97h0ZM306.11,51.26h-13.52c-2.19,0-2.94,1.11-3.2,1.77-.26.67-.44,2.02,1.22,3.52l4.78,4.14q1.21,1.02,1.21,3.6v.48s0,33.59,0,33.59v.48q0,2.58-1.19,3.58l-4.77,4.14c-1.72,1.53-1.42,2.97-1.21,3.52.25.67,1,1.78,3.15,1.78h21.76c2.16,0,2.98-.97,3.29-1.78.26-.67.44-2.01-1.22-3.5l-4.78-4.14q-1.22-1.02-1.21-3.6v-.48s0-41.3,0-41.3c0-3.17-.33-5.8-4.32-5.8h0Z"/><path class="cls-2" d="M347.1,136.23c-18.49,0-29.1-5.75-29.1-15.79,0-5.04,4.24-9.13,9.45-9.13.05,0,5.48.09,7.21,2.1.45.53.64,1.15.54,1.79-.21.97-1.16,1.23-2.35,1.56-2.06.57-3.77,1.17-3.77,2.84,0,4.8,7.3,7.56,20.02,7.56,16.26,0,18.02-6.61,18.02-9.46,0-4.64-4.97-6.71-16.11-6.71h-6.23c-14.53,0-23.92-5.58-23.92-14.21,0-4.26,1.24-7.53,7.43-11.32-2.62-4.35-3.94-8.74-3.94-13.08,0-12.98,9.53-21.71,23.71-21.71,2.63,0,5.42.35,8.3,1.04-.57-1.94-.85-3.77-.85-5.43,0-6.88,5.44-11.88,12.94-11.88,6.25,0,10.61,3.8,10.61,9.24,0,6.42-5.51,9.73-7.86,9.73-.52,0-.95-.13-1.27-.4-1.1-.98-.34-2.14.12-2.83.54-.81,1.2-1.81,1.2-3.44s-1.67-3.54-4.07-3.54c-2.27,0-4.49,2.49-4.49,5.02,0,1.7.82,3.78,2.59,6.54,4.26,6.88,6.6,13.18,6.6,17.76,0,12.31-10.38,21.6-24.13,21.6-6.59,0-9.42-1.44-11.29-2.4-.91-.46-1.51-.77-2.23-.77s-2.17.79-2.17,3.12c0,2.61,1.6,6.08,15.48,6.08h8.24c14.02,0,23.08,6.16,23.08,15.68,0,12.8-11.87,20.44-31.74,20.44ZM347.84,59.54c-6.84,0-12.21,5.64-12.21,12.84s5.36,12.73,12.21,12.73,12.31-5.59,12.31-12.73-5.41-12.84-12.31-12.84Z"/><path class="cls-2" d="M368.44,35.41c5.7,0,9.61,3.38,9.61,8.24,0,5.75-4.88,8.73-6.86,8.73-.28,0-.5-.06-.64-.17-.95-.84,1.69-2.01,1.69-5.49,0-2.22-2.11-4.54-5.07-4.54-2.75,0-5.49,2.85-5.49,6.02,0,2.11,1.06,4.44,2.75,7.08,4.12,6.66,6.44,12.78,6.44,17.22,0,11.09-9.19,20.6-23.13,20.6-9.72,0-10.78-3.17-13.52-3.17-1.16,0-3.17,1.16-3.17,4.12,0,4.54,4.54,7.08,16.48,7.08h8.24c13.52,0,22.08,5.81,22.08,14.68,0,12.47-11.83,19.44-30.74,19.44-17.01,0-28.1-4.96-28.1-14.79,0-4.65,3.91-8.13,8.45-8.13,1.8,0,7.08.63,6.76,2.75-.21.95-6.13.74-6.13,4.54,0,4.33,4.86,8.56,21.02,8.56,15.11,0,19.02-5.7,19.02-10.46,0-6.23-7.39-7.71-17.11-7.71h-6.23c-12.57,0-22.92-4.33-22.92-13.2,0-4.01,1.06-7.08,7.82-10.99-2.85-4.44-4.33-8.98-4.33-13.42,0-12.36,9.19-20.7,22.71-20.7,3.49,0,6.87.63,9.82,1.48-.84-2.32-1.37-4.65-1.37-6.87,0-6.55,5.18-10.88,11.94-10.88M347.84,86.11c7.61,0,13.31-6.23,13.31-13.73s-5.71-13.84-13.31-13.84-13.21,6.23-13.21,13.84,5.71,13.73,13.21,13.73M368.44,33.41c-8.08,0-13.94,5.42-13.94,12.88,0,1.31.16,2.67.48,4.11-2.39-.48-4.71-.72-6.93-.72-14.55,0-24.71,9.34-24.71,22.7,0,4.24,1.21,8.52,3.59,12.75-5.84,3.82-7.08,7.34-7.08,11.65,0,9.24,9.78,15.2,24.92,15.2h6.23c13.4,0,15.11,3.05,15.11,5.71,0,5.38-6.2,8.46-17.02,8.46-11.91,0-19.02-2.45-19.02-6.56,0-.79.74-1.24,3.03-1.88,1.34-.37,2.72-.75,3.05-2.23,0-.05.02-.09.03-.14.14-.93-.14-1.85-.77-2.59-2.08-2.42-7.91-2.45-7.96-2.45-5.76,0-10.45,4.55-10.45,10.13,0,10.67,10.97,16.79,30.1,16.79,20.5,0,32.74-8.01,32.74-21.44,0-10.13-9.45-16.68-24.08-16.68h-8.24c-14.48,0-14.48-3.82-14.48-5.08,0-1.91,1.17-2.12,1.18-2.12.44,0,.89.22,1.76.66,1.96,1,4.92,2.51,11.75,2.51,14.33,0,25.13-9.72,25.13-22.6,0-4.76-2.39-11.25-6.74-18.27-1.68-2.62-2.45-4.52-2.45-6.03,0-2.17,1.92-4.02,3.49-4.02,1.9,0,3.07,1.48,3.07,2.54,0,1.32-.53,2.12-1.04,2.89-.47.7-1.71,2.57.02,4.1.02.02.04.03.06.05.35.29.96.63,1.9.63,3.01,0,8.86-3.79,8.86-10.73,0-6.03-4.78-10.24-11.61-10.24h0ZM347.84,84.11c-6.28,0-11.21-5.15-11.21-11.73s4.92-11.84,11.21-11.84,11.31,5.2,11.31,11.84-4.97,11.73-11.31,11.73h0Z"/><path class="cls-2" d="M424.42,110.88c-1.47,0-2.02-.62-2.22-1.14-.29-.75.05-1.63.92-2.4l4.76-4.13c1.56-1.32,1.56-1.49,1.56-4.36v-26.47c0-7.03-4.67-11.57-11.89-11.57-12.79,0-15.48,9.74-15.48,17.91v20.13c0,2.85,0,2.96,1.57,4.37l4.74,4.11c1.16,1.05,1.17,1.89.96,2.41-.29.76-1.08,1.14-2.36,1.14h-21.76c-1.47,0-2.02-.62-2.22-1.14-.29-.75.05-1.63.92-2.4l4.76-4.13c1.56-1.32,1.56-1.49,1.56-4.36v-34.56c0-2.87,0-3.04-1.55-4.35l-4.76-4.13c-1.17-1.06-1.18-1.9-.97-2.43.2-.51.75-1.12,2.26-1.12h13.52c2.86,0,3.32,1.42,3.32,4.8v2.56c4.56-6.31,9.92-8.95,17.8-8.95,12.19,0,21.39,7.74,21.39,18.01v30.17c0,2.87,0,3.04,1.55,4.35l4.76,4.13c1.16,1.05,1.16,1.89.96,2.41-.29.76-1.08,1.14-2.36,1.14h-21.76Z"/><path class="cls-2" d="M419.88,51.67c11.3,0,20.39,6.87,20.39,17.01v29.68c0,3.38-.11,3.91,1.9,5.6l4.75,4.12c1.05.95,1.05,1.8-.74,1.8h-21.76c-1.69,0-1.58-.95-.63-1.8l4.75-4.12c2.01-1.69,1.9-2.22,1.9-5.6v-25.99c0-8.13-5.6-12.57-12.89-12.57-12.57,0-16.48,8.98-16.48,18.91v19.65c0,3.38-.11,3.8,1.9,5.6l4.75,4.12c1.06.95,1.06,1.8-.74,1.8h-21.76c-1.69,0-1.58-.95-.63-1.8l4.75-4.12c2.01-1.69,1.9-2.22,1.9-5.6v-33.59c0-3.38.11-3.91-1.9-5.6l-4.75-4.12c-1.06-.95-1.06-1.8.63-1.8h13.52c1.9,0,2.32.42,2.32,3.8v5.92c4.96-8.35,10.46-11.3,18.8-11.3M419.88,49.67c-7.24,0-12.43,2.11-16.81,7.08-.02-3.04-.45-5.5-4.32-5.5h-13.52c-2.19,0-2.94,1.11-3.2,1.77-.26.67-.44,2.02,1.22,3.52l4.78,4.14q1.21,1.02,1.21,3.6v.48s0,33.59,0,33.59v.48q0,2.58-1.19,3.58l-4.77,4.14c-1.72,1.53-1.42,2.97-1.21,3.52.25.67,1,1.78,3.15,1.78h21.76c2.16,0,2.98-.97,3.29-1.78.26-.67.44-2.01-1.22-3.5l-4.78-4.14q-1.22-1.09-1.21-3.6v-.48s0-19.65,0-19.65c0-11.22,4.87-16.91,14.48-16.91,5.26,0,10.89,2.78,10.89,10.57v26.47q0,2.58-1.19,3.58l-4.77,4.14c-1.72,1.53-1.42,2.97-1.21,3.52.25.67,1,1.78,3.15,1.78h21.76c2.15,0,2.98-.97,3.29-1.78.26-.67.44-2.01-1.21-3.5l-4.78-4.15q-1.22-1.02-1.21-3.6v-.48s0-29.68,0-29.68c0-10.84-9.62-19.01-22.39-19.01h0Z"/><path class="cls-2" d="M32.85,237.64c-1.79,0-2.21-1.04-2.3-1.36-.23-.83.22-1.74,1.15-2.29l5.58-3.48c4.79-2.93,5.13-3.58,5.13-9.82v-44.79c0-6.33-.44-6.79-5.14-9.83l-5.6-3.59c-.91-.55-1.36-1.4-1.13-2.21.11-.4.55-1.32,2.3-1.32h31.8c1.61,0,2.15.66,2.33,1.22.24.77-.18,1.63-1.12,2.29l-5.52,3.61c-4.73,3.06-5.25,3.6-5.25,9.83v44.79c0,6.08.34,6.73,5.24,9.82l5.5,3.49c1,.63,1.45,1.51,1.21,2.33-.14.49-.64,1.31-2.38,1.31h-31.8Z"/><path class="cls-2" d="M64.64,159.95c1.8,0,1.69.95.63,1.69l-5.49,3.59c-5.07,3.27-5.7,4.12-5.7,10.67v44.79c0,6.44.53,7.39,5.7,10.67l5.49,3.49c1.16.74,1.16,1.8-.63,1.8h-31.8c-1.69,0-1.69-1.16-.63-1.8l5.6-3.49c5.18-3.17,5.6-4.23,5.6-10.67v-44.79c0-6.55-.53-7.39-5.6-10.67l-5.6-3.59c-1.06-.63-1.06-1.69.63-1.69h31.8M64.64,157.95h-31.8c-2.51,0-3.13,1.57-3.27,2.05-.34,1.24.28,2.54,1.58,3.34l5.58,3.58c4.42,2.85,4.68,3.02,4.68,8.99v44.79c0,5.89-.17,6.23-4.64,8.96l-5.61,3.49c-1.3.78-1.93,2.12-1.58,3.4.14.49.77,2.09,3.27,2.09h31.8c2.48,0,3.16-1.42,3.34-2.03.29-.99,0-2.41-1.63-3.45l-5.5-3.49c-4.6-2.91-4.77-3.24-4.77-8.98v-44.79c0-5.9.27-6.07,4.79-8.99l5.5-3.6s.04-.02.05-.04c1.32-.92,1.88-2.2,1.5-3.41-.23-.72-.95-1.92-3.28-1.92h0Z"/><path class="cls-2" d="M112.6,237.64c-1.47,0-2.02-.62-2.22-1.14-.29-.75.05-1.63.92-2.4l4.76-4.13c1.56-1.32,1.56-1.49,1.56-4.36v-26.47c0-7.03-4.67-11.57-11.89-11.57-12.79,0-15.48,9.74-15.48,17.91v20.13c0,2.85,0,2.96,1.57,4.37l4.74,4.11c1.16,1.05,1.17,1.89.96,2.41-.29.76-1.08,1.14-2.36,1.14h-21.76c-1.47,0-2.02-.62-2.22-1.14-.29-.75.05-1.63.92-2.4l4.76-4.13c1.56-1.32,1.56-1.49,1.56-4.36v-34.56c0-2.87,0-3.04-1.55-4.35l-4.76-4.13c-1.17-1.06-1.17-1.9-.97-2.43.2-.51.75-1.12,2.26-1.12h13.52c2.86,0,3.32,1.42,3.32,4.8v2.56c4.56-6.31,9.92-8.95,17.8-8.95,12.19,0,21.39,7.74,21.39,18.01v30.17c0,2.87,0,3.04,1.54,4.35l4.76,4.13c1.16,1.05,1.17,1.89.96,2.41-.29.76-1.08,1.14-2.36,1.14h-21.76Z"/><path class="cls-2" d="M108.06,178.43c11.3,0,20.39,6.87,20.39,17.01v29.68c0,3.38-.11,3.91,1.9,5.6l4.75,4.12c1.06.95,1.06,1.8-.74,1.8h-21.76c-1.69,0-1.58-.95-.63-1.8l4.75-4.12c2.01-1.69,1.9-2.22,1.9-5.6v-25.99c0-8.13-5.6-12.57-12.89-12.57-12.57,0-16.48,8.98-16.48,18.91v19.65c0,3.38-.11,3.8,1.9,5.6l4.75,4.12c1.06.95,1.06,1.8-.74,1.8h-21.76c-1.69,0-1.58-.95-.63-1.8l4.75-4.12c2.01-1.69,1.9-2.22,1.9-5.6v-33.59c0-3.38.11-3.91-1.9-5.6l-4.75-4.12c-1.05-.95-1.05-1.8.63-1.8h13.52c1.9,0,2.32.42,2.32,3.8v5.92c4.96-8.35,10.46-11.3,18.8-11.3M108.06,176.43c-7.24,0-12.43,2.11-16.8,7.08-.02-3.04-.45-5.49-4.32-5.49h-13.52c-2.19,0-2.94,1.11-3.2,1.77-.26.67-.44,2.02,1.22,3.52l4.78,4.15q1.22,1.02,1.21,3.6v.48s0,33.59,0,33.59v.48q0,2.58-1.19,3.58l-4.78,4.14c-1.72,1.53-1.42,2.97-1.21,3.52.25.67,1,1.78,3.15,1.78h21.76c2.16,0,2.98-.97,3.29-1.78.26-.67.44-2.01-1.22-3.5l-4.78-4.14q-1.21-1.09-1.21-3.6v-.48s0-19.65,0-19.65c0-11.22,4.87-16.91,14.48-16.91,5.26,0,10.89,2.78,10.89,10.57v26.47q0,2.58-1.19,3.58l-4.78,4.14c-1.72,1.53-1.42,2.97-1.21,3.52.25.67,1,1.78,3.15,1.78h21.76c2.16,0,2.98-.97,3.29-1.78.26-.67.44-2.01-1.22-3.5l-4.78-4.14q-1.21-1.02-1.21-3.6v-.48s0-29.68,0-29.68c0-10.84-9.62-19.01-22.39-19.01h0Z"/><path class="cls-2" d="M163.41,239.22c-11.72,0-16.95-5-16.95-16.21v-35.66h-6.61c-.59,0-1.98,0-2.4-1.02-.42-1.01.54-1.97.95-2.38l4.33-4.33c4.06-4.06,6.18-7.25,8.95-11.66l3.48-5.59c.38-.57.96-1.29,1.76-1.29.55,0,1.47.31,1.47,2.35v15.58h15.16c.95,0,1.84,0,2.26.76.44.79-.08,1.61-.68,2.57l-1.79,2.95c-1.11,1.81-1.97,2.07-4.55,2.07h-10.41v33.33c0,8.05,2.81,9.67,7.34,9.67,6.81,0,9.03-5.48,10.23-8.42.59-1.47.95-2.36,1.92-2.36,1.95,0,1.95,2.06,1.95,3.43,0,7.48-4.3,16.21-16.42,16.21Z"/><path class="cls-2" d="M156.92,162.08c.3,0,.47.46.47,1.35v16.58h16.16c1.69,0,1.79.11.74,1.8l-1.79,2.96c-.85,1.37-1.27,1.58-3.7,1.58h-11.41v34.33c0,8.35,3.06,10.67,8.34,10.67,10.04,0,10.99-10.77,12.15-10.77.85,0,.95.74.95,2.43,0,7.92-4.75,15.21-15.42,15.21-11.3,0-15.95-4.65-15.95-15.21v-36.66h-7.61c-1.79,0-1.9-.53-.74-1.69l4.33-4.33c4.12-4.12,6.23-7.29,9.09-11.83l3.48-5.6c.37-.55.68-.82.91-.82M156.92,160.08h0c-1.43,0-2.29,1.29-2.57,1.71-.01.02-.02.04-.03.05l-3.48,5.6c-2.81,4.47-4.8,7.48-8.8,11.47l-4.33,4.33c-.5.5-1.84,1.84-1.17,3.47.68,1.63,2.6,1.63,3.32,1.63h5.61v34.66c0,11.74,5.7,17.21,17.95,17.21,5.53,0,10.09-1.83,13.2-5.3,2.72-3.04,4.22-7.27,4.22-11.91,0-1.33,0-4.43-2.95-4.43-1.64,0-2.23,1.45-2.85,2.98-1.53,3.77-3.63,7.79-9.3,7.79-3.47,0-6.34-.65-6.34-8.67v-32.33h9.41c2.83,0,4.07-.38,5.4-2.54l1.8-2.97c.65-1.05,1.41-2.26.69-3.56-.71-1.27-2.11-1.27-3.14-1.27h-14.16v-14.58c0-3.11-1.89-3.35-2.47-3.35h0Z"/><path class="cls-2" d="M209.57,239.22c-18.27,0-29.63-11.64-29.63-30.37s11.35-31.42,29.63-31.42c16.72,0,25.93,10.41,25.93,29.31,0,2.8-1.55,3.22-2.48,3.22h-40.18c.33,12.73,6.96,20.29,17.9,20.29,7.49,0,12.52-4.45,12.52-8.61,0-1.25-.8-2.06-1.51-2.78-.63-.64-1.48-1.51-.9-2.56.72-1.45,2.79-1.57,5.42-1.57,3.74,0,8.08,3.8,8.08,8.71,0,9.89-9.26,15.79-24.77,15.79ZM223.33,201.62c-.51-10-7.09-15.22-13.55-15.22-8.34,0-14.63,5.93-16.26,15.22h29.81Z"/><path class="cls-2" d="M209.57,178.43c17.96,0,24.93,12.15,24.93,28.31,0,1.27-.32,2.22-1.48,2.22h-41.2c0,14.16,7.29,22.29,18.91,22.29,8.13,0,13.52-4.96,13.52-9.61,0-2.85-3.06-3.91-2.54-4.86.42-.84,1.8-1.06,4.54-1.06,3.27,0,7.08,3.49,7.08,7.71,0,9.4-9.09,14.79-23.77,14.79-18.8,0-28.63-12.57-28.63-29.37,0-19.54,11.72-30.42,28.63-30.42M192.35,202.62h32.01c-.11-10.88-7.08-17.22-14.58-17.22-9.82,0-16.16,7.61-17.43,17.22M209.57,176.43c-9.02,0-16.66,2.93-22.08,8.49-5.59,5.72-8.54,14-8.54,23.94,0,9.05,2.69,16.78,7.79,22.33,5.42,5.91,13.32,9.03,22.84,9.03,16.14,0,25.77-6.28,25.77-16.79,0-4.49-3.97-9.71-9.08-9.71-2.86,0-5.3.16-6.31,2.13-.9,1.69.44,3.05,1.08,3.71.74.75,1.22,1.3,1.22,2.08,0,4.49-6.07,7.61-11.52,7.61-10.18,0-16.24-6.63-16.86-18.29h39.15c.82,0,3.48-.3,3.48-4.22,0-9.05-2.07-16.27-6.16-21.45-4.63-5.88-11.62-8.86-20.77-8.86h0ZM194.74,200.62c1.85-8.1,7.57-13.22,15.04-13.22,5.75,0,11.6,4.53,12.47,13.22h-27.51Z"/><path class="cls-2" d="M281.08,237.64c-1.47,0-2.02-.62-2.22-1.14-.29-.75.05-1.63.92-2.4l4.76-4.13c1.56-1.32,1.56-1.49,1.56-4.36v-26.47c0-7.03-4.67-11.57-11.89-11.57-12.79,0-15.48,9.74-15.48,17.91v20.13c0,2.85,0,2.96,1.57,4.37l4.74,4.11c1.16,1.05,1.17,1.89.96,2.41-.29.76-1.08,1.14-2.36,1.14h-21.76c-1.47,0-2.02-.62-2.22-1.14-.29-.75.05-1.63.92-2.4l4.76-4.13c1.56-1.32,1.56-1.49,1.56-4.36v-34.56c0-2.87,0-3.04-1.55-4.35l-4.76-4.13c-1.17-1.06-1.17-1.9-.97-2.43.2-.51.75-1.12,2.26-1.12h13.52c2.86,0,3.32,1.42,3.32,4.8v2.56c4.56-6.31,9.92-8.95,17.8-8.95,12.19,0,21.39,7.74,21.39,18.01v30.17c0,2.87,0,3.04,1.54,4.35l4.76,4.13c1.16,1.05,1.17,1.89.96,2.41-.29.76-1.08,1.14-2.36,1.14h-21.76Z"/><path class="cls-2" d="M276.54,178.43c11.3,0,20.39,6.87,20.39,17.01v29.68c0,3.38-.11,3.91,1.9,5.6l4.75,4.12c1.06.95,1.06,1.8-.74,1.8h-21.76c-1.69,0-1.58-.95-.63-1.8l4.75-4.12c2.01-1.69,1.9-2.22,1.9-5.6v-25.99c0-8.13-5.6-12.57-12.89-12.57-12.57,0-16.48,8.98-16.48,18.91v19.65c0,3.38-.11,3.8,1.9,5.6l4.75,4.12c1.06.95,1.06,1.8-.74,1.8h-21.76c-1.69,0-1.58-.95-.63-1.8l4.75-4.12c2.01-1.69,1.9-2.22,1.9-5.6v-33.59c0-3.38.11-3.91-1.9-5.6l-4.75-4.12c-1.05-.95-1.05-1.8.63-1.8h13.52c1.9,0,2.32.42,2.32,3.8v5.92c4.96-8.35,10.46-11.3,18.8-11.3M276.54,176.43c-7.24,0-12.43,2.11-16.8,7.08-.02-3.04-.45-5.49-4.32-5.49h-13.52c-2.19,0-2.94,1.11-3.2,1.77-.26.67-.44,2.02,1.22,3.52l4.78,4.15q1.22,1.02,1.21,3.6v.48s0,33.59,0,33.59v.48q0,2.58-1.19,3.58l-4.78,4.14c-1.72,1.53-1.42,2.97-1.21,3.52.25.67,1,1.78,3.15,1.78h21.76c2.16,0,2.98-.97,3.29-1.78.26-.67.44-2.01-1.22-3.5l-4.78-4.14q-1.21-1.09-1.21-3.6v-.48s0-19.65,0-19.65c0-11.22,4.87-16.91,14.48-16.91,5.26,0,10.89,2.78,10.89,10.57v26.47q0,2.58-1.19,3.58l-4.78,4.14c-1.72,1.53-1.42,2.97-1.21,3.52.25.67,1,1.78,3.15,1.78h21.76c2.16,0,2.98-.97,3.29-1.78.26-.67.44-2.01-1.22-3.5l-4.78-4.14q-1.21-1.02-1.21-3.6v-.48s0-29.68,0-29.68c0-10.84-9.62-19.01-22.39-19.01h0Z"/><path class="cls-2" d="M333.26,239.22c-6.05,0-10.44-1.62-13.35-2.7-1.24-.46-2.32-.86-2.94-.89-.2.1-.64.43-1.01.71-.46.35-.99.75-1.6,1.14-1.44.96-2.38,1.48-3.19,1.48-.75,0-1.34-.45-1.61-1.22-.16-.47-.23-1.08-.23-2.05v-21.02c0-1.38.87-2,1.68-2,.87,0,1.71.67,2.23,1.79l2.84,5.79c3.27,6.64,9.19,10,17.59,10s14.21-3.42,14.21-8.93c0-4.07-1.95-6.42-13.04-8.74l-5.07-1.06c-13.96-2.92-19.92-7.92-19.92-16.72,0-10.23,9.4-17.37,22.87-17.37,4.93,0,9.17,1.27,11.99,2.11,1.33.4,2.47.74,3.01.74.5,0,.89-.25,1.94-.99l.44-.31c1.48-1.09,2.27-1.59,3.01-1.59,1.62,0,1.62,1.87,1.62,3.36v16.27c0,1.43-.84,2.06-1.68,2.06-.66,0-1.3-.4-1.67-1.04l-1.89-3.15c-3.45-5.68-8.73-8.81-14.88-8.81-7.66,0-12.42,2.69-12.42,7.03,0,2.67,1.46,5.43,12.09,7.58l5.28,1.06c14.34,2.87,20.45,7.93,20.45,16.93,0,12.86-10.01,20.54-26.78,20.54Z"/><path class="cls-2" d="M353.14,178.4c.56,0,.62.77.62,2.36v16.27c0,.76-.32,1.06-.68,1.06-.29,0-.61-.2-.8-.54l-1.9-3.17c-3.91-6.44-9.72-9.3-15.74-9.3-8.03,0-13.42,2.96-13.42,8.03,0,3.91,2.96,6.55,12.89,8.56l5.28,1.06c13.73,2.75,19.65,7.39,19.65,15.95,0,12.78-10.35,19.54-25.78,19.54-8.87,0-14.05-3.59-16.37-3.59-.53,0-1.59,1.06-3.06,2.01-1.28.85-2.12,1.33-2.65,1.33-.65,0-.84-.71-.84-2.28v-21.02c0-.66.29-1,.68-1,.42,0,.94.4,1.33,1.22l2.85,5.81c3.59,7.29,10.14,10.56,18.49,10.56,9.19,0,15.21-3.7,15.21-9.93,0-4.86-2.75-7.39-13.84-9.72l-5.07-1.06c-14.15-2.96-19.12-7.92-19.12-15.74,0-9.93,9.29-16.37,21.87-16.37,7.29,0,12.99,2.85,15,2.85.95,0,1.58-.53,2.96-1.48,1.26-.93,2-1.41,2.44-1.41M353.14,176.4h0c-1.02,0-1.94.55-3.61,1.79l-.42.29c-.74.52-1.17.81-1.37.81-.4,0-1.64-.37-2.73-.7-2.87-.86-7.2-2.15-12.27-2.15-14.05,0-23.87,7.56-23.87,18.37,0,9.25,6.39,14.7,20.71,17.7l5.07,1.06c11.37,2.38,12.25,4.72,12.25,7.76,0,5.85-6.83,7.93-13.21,7.93-7.99,0-13.6-3.18-16.69-9.45l-2.85-5.81c-.68-1.45-1.85-2.33-3.12-2.33s-2.68,1.03-2.68,3v21.02c0,2.84.96,4.28,2.84,4.28,1.07,0,2.1-.56,3.75-1.66.62-.4,1.18-.82,1.64-1.17.2-.15.44-.33.63-.46.56.12,1.51.47,2.37.79,2.97,1.1,7.47,2.76,13.69,2.76,8.17,0,15.03-1.85,19.85-5.36,5.19-3.78,7.93-9.37,7.93-16.18,0-12.04-10.75-15.81-21.26-17.91l-5.28-1.06c-11.28-2.28-11.28-5.09-11.28-6.6,0-2.91,3-6.03,11.42-6.03,5.79,0,10.77,2.96,14.03,8.33l1.9,3.16c.52.91,1.49,1.51,2.51,1.51,1.33,0,2.68-1.05,2.68-3.06v-16.27c0-1.42,0-4.36-2.62-4.36h0Z"/><path class="cls-2" d="M366.33,237.64c-1.47,0-2.02-.62-2.22-1.14-.29-.75.05-1.63.92-2.4l4.76-4.13c1.56-1.32,1.56-1.49,1.56-4.36v-34.56c0-2.87,0-3.04-1.55-4.35l-4.76-4.13c-1.17-1.06-1.17-1.9-.97-2.43.2-.51.75-1.12,2.26-1.12h13.52c2.86,0,3.32,1.42,3.32,4.8v41.79c0,2.87,0,3.04,1.54,4.35l4.76,4.13c1.16,1.05,1.17,1.89.96,2.41-.29.76-1.08,1.14-2.36,1.14h-21.76ZM376.68,172.88c-4.4,0-7.97-3.43-7.97-7.65s3.65-7.97,7.97-7.97,7.87,3.65,7.87,7.97-3.53,7.65-7.87,7.65Z"/><path class="cls-2" d="M376.68,158.26c3.7,0,6.87,3.17,6.87,6.97s-3.17,6.65-6.87,6.65-6.97-2.96-6.97-6.65,3.17-6.97,6.97-6.97M379.85,180.02c1.9,0,2.32.42,2.32,3.8v41.3c0,3.38-.11,3.91,1.9,5.6l4.75,4.12c1.06.95,1.06,1.8-.74,1.8h-21.76c-1.69,0-1.58-.95-.63-1.8l4.75-4.12c2.01-1.69,1.9-2.22,1.9-5.6v-33.59c0-3.38.11-3.91-1.9-5.6l-4.75-4.12c-1.05-.95-1.05-1.8.63-1.8h13.52M376.68,156.26c-4.95,0-8.97,4.02-8.97,8.97s4.02,8.65,8.97,8.65,8.87-3.88,8.87-8.65-4.06-8.97-8.87-8.97h0ZM379.85,178.02h-13.52c-2.19,0-2.94,1.11-3.2,1.77-.26.67-.44,2.02,1.22,3.52l4.78,4.15q1.22,1.02,1.21,3.6v.48s0,33.59,0,33.59v.48q0,2.58-1.19,3.58l-4.78,4.14c-1.72,1.53-1.42,2.97-1.21,3.52.25.67,1,1.78,3.15,1.78h21.76c2.16,0,2.98-.97,3.29-1.78.26-.67.44-2.01-1.22-3.5l-4.78-4.14q-1.21-1.02-1.21-3.6v-.48s0-41.3,0-41.3c0-3.17-.33-5.8-4.32-5.8h0Z"/><path class="cls-2" d="M419.56,237.64c-2.24,0-2.84-.47-3.79-2.97l-16.28-45.34c-.83-2.29-1.8-3.74-3.25-4.82l-2.54-1.9c-1.33-.92-1.3-1.84-1.15-2.3.15-.48.68-1.29,2.49-1.29h18.06c.55,0,1.84,0,2.28.99.44,1-.47,2-.9,2.48l-2.55,2.66c-.93.93-1.24,1.24.12,5.22l11.47,33.64,13.06-33.67c1.45-3.83,1.03-4.25.12-5.16l-2.55-2.66c-.32-.32-1.34-1.35-.89-2.43.44-1.06,1.8-1.06,2.25-1.06h16.06c1.82,0,2.34.81,2.49,1.29.14.46.18,1.38-1.18,2.32l-2.63,1.89c-1.39,1.02-2.56,2.86-3.66,5.78l-17.12,44.37c-.95,2.49-1.55,2.96-3.78,2.96h-6.13Z"/><path class="cls-2" d="M451.57,180.02c1.69,0,2.11.84.74,1.8l-2.64,1.9c-1.58,1.16-2.85,3.17-4.01,6.23l-17.11,44.37c-.84,2.22-1.16,2.32-2.85,2.32h-6.13c-1.69,0-2.01-.11-2.85-2.32l-16.27-45.32c-.84-2.32-1.9-4.01-3.59-5.28l-2.54-1.9c-1.37-.95-.95-1.8.74-1.8h18.06c1.79,0,1.69.63.63,1.8l-2.54,2.64c-1.37,1.37-1.48,2.22-.11,6.23l12.36,36.23,14.05-36.23c1.48-3.91,1.27-4.86-.11-6.23l-2.54-2.64c-1.05-1.06-1.05-1.8.63-1.8h16.06M451.57,178.02h-16.06c-2.05,0-2.86.91-3.17,1.68-.47,1.13-.09,2.32,1.12,3.53l2.51,2.61c.68.68.9.9-.32,4.14l-12.06,31.1-10.59-31.04c-1.16-3.39-1.01-3.54-.37-4.17l2.56-2.67s.02-.03.04-.04c.49-.54,1.78-1.96,1.08-3.56-.7-1.58-2.58-1.58-3.19-1.58h-18.06c-2.55,0-3.26,1.4-3.45,2-.18.58-.39,2.07,1.53,3.42l2.51,1.88c1.28.96,2.15,2.26,2.91,4.36l16.27,45.31c1.1,2.91,2.08,3.65,4.73,3.65h6.13c2.66,0,3.63-.74,4.72-3.61l17.11-44.36c1.03-2.7,2.11-4.45,3.33-5.34l2.63-1.89c1.93-1.34,1.72-2.84,1.54-3.42-.19-.6-.9-2-3.45-2h0Z"/><path class="cls-2" d="M485.69,239.22c-18.28,0-29.63-11.64-29.63-30.37s11.35-31.42,29.63-31.42c16.72,0,25.93,10.41,25.93,29.31,0,2.8-1.55,3.22-2.48,3.22h-40.19c.33,12.73,6.97,20.29,17.9,20.29,7.49,0,12.52-4.45,12.52-8.61,0-1.25-.8-2.06-1.51-2.78-.63-.64-1.49-1.51-.9-2.57.72-1.45,2.79-1.57,5.42-1.57,3.74,0,8.08,3.8,8.08,8.71,0,9.89-9.26,15.79-24.77,15.79ZM499.45,201.62c-.51-10-7.09-15.22-13.55-15.22-8.34,0-14.63,5.93-16.26,15.22h29.81Z"/><path class="cls-2" d="M485.69,178.43c17.96,0,24.93,12.15,24.93,28.31,0,1.27-.32,2.22-1.48,2.22h-41.2c0,14.16,7.29,22.29,18.91,22.29,8.13,0,13.52-4.96,13.52-9.61,0-2.85-3.06-3.91-2.54-4.86.42-.84,1.79-1.06,4.54-1.06,3.28,0,7.08,3.49,7.08,7.71,0,9.4-9.08,14.79-23.77,14.79-18.8,0-28.63-12.57-28.63-29.37,0-19.54,11.73-30.42,28.63-30.42M468.47,202.62h32.01c-.11-10.88-7.08-17.22-14.58-17.22-9.82,0-16.16,7.61-17.43,17.22M485.69,176.43c-9.02,0-16.66,2.93-22.08,8.49-5.59,5.72-8.55,14-8.55,23.94,0,9.05,2.69,16.78,7.79,22.33,5.42,5.91,13.32,9.03,22.84,9.03,16.13,0,25.77-6.28,25.77-16.79,0-4.49-3.97-9.71-9.08-9.71-2.85,0-5.3.16-6.31,2.12-.91,1.69.44,3.05,1.08,3.71.74.75,1.22,1.3,1.22,2.08,0,4.49-6.07,7.61-11.52,7.61-10.18,0-16.25-6.63-16.86-18.29h39.15c.82,0,3.48-.3,3.48-4.22,0-9.05-2.07-16.27-6.16-21.45-4.63-5.88-11.62-8.86-20.77-8.86h0ZM470.86,200.62c1.85-8.1,7.57-13.22,15.04-13.22,5.75,0,11.6,4.53,12.47,13.22h-27.51Z"/></g></svg>