<?xml version="1.0" encoding="UTF-8"?><svg id="Layer_2" xmlns="http://www.w3.org/2000/svg" viewBox="0 0 473.33 142.97"><defs><style>.cls-1{fill:#f9f3b2;stroke:#0f76ae;stroke-miterlimit:10;stroke-width:3px;}.cls-2{fill:#0f76ae;stroke-width:0px;}</style></defs><g id="Layer_1-2"><path class="cls-1" d="M471.83,79.99c0-34.88-22.07-58.31-54.93-58.31-8.07,0-15.77,1.45-22.78,4.19-.46-.2-.92-.39-1.4-.57-4.34-11.8-15.31-19.97-28.47-19.97-4.55,0-8.91.99-12.88,2.85-5.98-4.2-13.25-6.67-21.08-6.67-14.71,0-27.43,8.64-33.38,21.11-3.1-.54-6.65-.93-10.56-.93-10.44,0-19.97,2.5-27.94,6.88-5.88-3.2-12.37-5.34-19.24-6.3-.76-1.78-1.73-3.61-2.98-5.43-2.81-4.1-11.02-13.64-26.63-13.64h-13.52c-12.61,0-23.64,7.03-28.63,18.04-4.97-10.96-15.92-18.04-28.6-18.04h-26.73c-2.14,0-4.24.2-6.26.59-2.01-.39-4.08-.59-6.2-.59h-26.73c-1.99,0-3.93.17-5.82.51-1.88-.33-3.82-.51-5.8-.51h-28.42C18.49,3.19,6.33,12.26,2.59,25.77c-3.45,12.46,1.46,25.83,12,33.4l13.63,54.61c5.92,24.22,26.21,26.1,32.3,26.1h7.18c3.14,0,10.24-.52,17.17-4.58,6.55,3.91,13.37,4.58,17.26,4.58h8.66c3.77,0,13.02-.73,20.93-7.05,9.17,5.63,20.13,8.64,31.97,8.64,9.14,0,17.35-1.39,24.55-4.13,4.43,2.48,9.5,3.87,14.84,3.87,3,0,6.66-.44,10.58-1.88,5.14,1.43,10.62,2.14,16.47,2.14,7.21,0,14.2-1.26,20.7-3.63,4.23,2.17,8.98,3.38,13.94,3.38,3.18,0,6.07-.5,8.6-1.22,3.77.84,8.3,1.48,13.48,1.48,8.02,0,15.45-1.22,22.1-3.49,3.43,1.23,7.12,1.9,10.96,1.9h21.76c3.54,0,6.95-.57,10.14-1.6,5.6,2.08,11.95,3.18,18.91,3.18,7.81,0,15.03-1.78,21.32-4.95,7.53,3.24,15.93,4.95,24.84,4.95,12.98,0,24.12-2.79,33.09-8.3,13.14-8.07,20.68-21.37,20.68-36.48,0-2.08-.17-4.12-.51-6.12,1.08-3.3,1.67-6.85,1.67-10.57Z"/><path class="cls-2" d="M102.14,110.88c-2.68,0-3.14-.7-4.13-3.99l-12.89-43.89-13.19,43.89c-.88,3.08-1.54,3.99-4.23,3.99h-7.18c-2.79,0-3.36-.81-4.14-4.04l-14.89-59.68c-1.47-5.87-3.34-7.17-4.35-7.87l-5.47-3.58c-.91-.54-1.35-1.4-1.12-2.21.11-.4.55-1.32,2.3-1.32h28.42c1.75,0,2.2.92,2.3,1.32.23.81-.22,1.67-1.16,2.23l-5.46,3.57c-2.65,1.74-2.67,2.04-.75,10.75l9.95,44.81,13.17-45.37c2.2-7.52.46-8.6-1.74-9.95l-.36-.22-5.61-3.6c-.91-.54-1.35-1.39-1.12-2.2.11-.4.57-1.34,2.4-1.34h26.73c1.61,0,2.15.66,2.33,1.22.24.77-.18,1.63-1.12,2.29l-5.52,3.61c-1.99,1.3-2.61,2.76-.22,11.25l12.68,45.17,10.84-46.19c1.67-7,.72-8.37-2.2-10.23l-5.6-3.59c-.91-.54-1.35-1.39-1.12-2.2.11-.4.57-1.34,2.4-1.34h26.73c1.75,0,2.19.92,2.3,1.32.22.81-.22,1.67-1.16,2.23l-5.46,3.57c-2.78,1.85-4.64,4.56-5.38,7.83l-14.05,59.69c-.81,3.23-1.39,4.04-4.25,4.04h-8.66Z"/><path class="cls-2" d="M138.8,33.19c1.69,0,1.69,1.06.63,1.69l-5.49,3.59c-3.17,2.11-5.07,5.18-5.81,8.45l-14.05,59.68c-.74,2.96-1.06,3.27-3.27,3.27h-8.66c-2.01,0-2.22-.11-3.17-3.27l-13.84-47.11-14.16,47.11c-.84,2.96-1.27,3.27-3.27,3.27h-7.18c-2.11,0-2.43-.21-3.17-3.27l-14.89-59.68c-1.48-5.92-3.38-7.5-4.75-8.45l-5.49-3.59c-1.06-.63-1.06-1.69.63-1.69h28.42c1.69,0,1.69,1.06.63,1.69l-5.49,3.59c-3.38,2.22-3.06,3.27-1.06,12.36l10.67,48.06,14.26-49.12c2.54-8.66,0-9.72-2.54-11.3l-5.6-3.59c-1.06-.63-1.06-1.69.74-1.69h26.73c1.8,0,1.69.95.63,1.69l-5.49,3.59c-2.75,1.8-2.96,4.12-.63,12.36l13.73,48.91,11.73-49.97c1.69-7.08.85-9.08-2.64-11.3l-5.6-3.59c-1.06-.63-1.06-1.69.74-1.69h26.73M138.8,31.19h-26.73c-2.59,0-3.23,1.58-3.37,2.07-.34,1.23.27,2.53,1.57,3.32l5.58,3.58c2.29,1.46,3.44,2.19,1.78,9.15l-9.95,42.42-11.63-41.43c-2.45-8.67-1.5-9.29-.2-10.14l5.49-3.59s.03-.02.05-.04c1.32-.92,1.88-2.2,1.5-3.41-.23-.72-.95-1.92-3.28-1.92h-26.73c-2.59,0-3.23,1.58-3.37,2.07-.34,1.23.27,2.53,1.57,3.32l5.58,3.58.39.24c1.98,1.22,3.29,2.03,1.31,8.82l-12.08,41.62-8.98-40.43-.12-.56q-1.83-8.28.32-9.7l5.46-3.57c1.29-.79,1.91-2.1,1.57-3.33-.13-.48-.76-2.05-3.27-2.05h-28.42c-2.51,0-3.14,1.57-3.27,2.05-.34,1.23.27,2.54,1.57,3.33l5.44,3.56c.9.63,2.56,1.81,3.93,7.28l14.89,59.68c.87,3.59,1.73,4.79,5.11,4.79h7.18c3.31,0,4.25-1.39,5.2-4.73l12.21-40.64,11.94,40.65c1.29,4.31,2.42,4.71,5.09,4.71h8.66c3.62,0,4.4-1.53,5.21-4.79l14.06-59.71c.48-2.12,1.73-5.08,4.97-7.24l5.45-3.56c1.29-.79,1.91-2.1,1.57-3.33-.13-.48-.76-2.05-3.27-2.05h0Z"/><path class="cls-2" d="M163.71,112.47c-18.28,0-29.63-11.64-29.63-30.37s11.35-31.42,29.63-31.42c16.72,0,25.93,10.41,25.93,29.31,0,2.8-1.55,3.22-2.48,3.22h-40.19c.33,12.73,6.97,20.29,17.9,20.29,7.49,0,12.52-4.45,12.52-8.61,0-1.25-.8-2.06-1.51-2.78-.63-.64-1.49-1.51-.9-2.56.72-1.45,2.79-1.57,5.42-1.57,3.74,0,8.08,3.81,8.08,8.71,0,9.89-9.26,15.79-24.77,15.79ZM177.46,74.87c-.51-10-7.09-15.22-13.55-15.22-8.34,0-14.63,5.93-16.26,15.22h29.81Z"/><path class="cls-2" d="M163.71,51.68c17.96,0,24.93,12.15,24.93,28.31,0,1.27-.32,2.22-1.48,2.22h-41.2c0,14.16,7.29,22.29,18.91,22.29,8.13,0,13.52-4.96,13.52-9.61,0-2.85-3.06-3.91-2.54-4.86.42-.84,1.8-1.06,4.54-1.06,3.27,0,7.08,3.49,7.08,7.71,0,9.4-9.08,14.79-23.77,14.79-18.8,0-28.63-12.57-28.63-29.37,0-19.54,11.73-30.42,28.63-30.42M146.49,75.87h32.01c-.11-10.88-7.08-17.22-14.58-17.22-9.82,0-16.16,7.61-17.43,17.22M163.71,49.68c-9.02,0-16.66,2.93-22.08,8.49-5.59,5.72-8.54,14-8.54,23.94,0,9.05,2.69,16.78,7.79,22.33,5.42,5.91,13.32,9.03,22.84,9.03,16.14,0,25.77-6.28,25.77-16.79,0-4.49-3.97-9.71-9.08-9.71-2.85,0-5.3.16-6.31,2.13-.9,1.69.44,3.05,1.08,3.71.74.75,1.22,1.3,1.22,2.08,0,4.49-6.07,7.61-11.52,7.61-10.18,0-16.24-6.63-16.86-18.29h39.15c.82,0,3.48-.3,3.48-4.22,0-9.05-2.07-16.27-6.16-21.45-4.63-5.88-11.62-8.86-20.77-8.86h0ZM148.87,73.87c1.85-8.1,7.57-13.22,15.04-13.22,5.75,0,11.6,4.53,12.47,13.22h-27.51Z"/><path class="cls-2" d="M230.15,112.47c-8.13,0-14.05-2.25-19.59-7.47l-4.59,5.23c-1.25,1.43-2.06,1.98-2.87,1.98-.61,0-1.42-.31-1.78-1.79-.19-.77-.27-1.88-.27-3.49v-62.81c0-2.88,0-2.94-1.55-4.25l-4.77-4.24c-.92-.83-1.25-1.62-.97-2.35.28-.72,1.04-1.09,2.27-1.09h13.52c2.82,0,3.32,1.23,3.32,4.7v20.33c4.87-4.39,10.72-6.54,17.8-6.54,17.16,0,28.25,12.54,28.25,31.95,0,9.33-3.09,17.11-8.95,22.48-5.16,4.74-12.21,7.35-19.84,7.35ZM229.72,59.65c-9.76,0-16.32,8.77-16.32,21.82s6.56,22.03,16.32,22.03,16.32-8.85,16.32-22.03-6.56-21.82-16.32-21.82Z"/><path class="cls-2" d="M209.55,33.19c1.9,0,2.32.32,2.32,3.7v22.71c4.75-5.07,10.67-7.92,18.8-7.92,15.42,0,27.25,10.67,27.25,30.95s-13.73,28.84-27.78,28.84c-8.66,0-14.37-2.64-19.65-7.92l-5.28,6.02c-.93,1.06-1.62,1.64-2.12,1.64-.74,0-1.05-1.31-1.05-4.28v-62.33c0-3.38.11-3.8-1.9-5.49l-4.75-4.23c-1.06-.95-1.06-1.69.63-1.69h13.52M229.72,104.49c9.82,0,17.32-8.56,17.32-23.03s-7.5-22.82-17.32-22.82-17.32,8.45-17.32,22.82,7.5,23.03,17.32,23.03M209.55,31.19h-13.52c-2.1,0-2.9.94-3.2,1.73-.3.79-.34,2.04,1.23,3.45l4.76,4.23s.03.02.04.04q1.19,1.01,1.19,3.48v.48s0,62.33,0,62.33c0,2.35,0,6.28,3.05,6.28,1.31,0,2.4-.93,3.62-2.32l3.92-4.46c5.52,4.92,11.47,7.04,19.51,7.04s15.17-2.71,20.51-7.62c6.06-5.57,9.27-13.6,9.27-23.22,0-20.02-11.48-32.95-29.25-32.95-6.56,0-12.1,1.77-16.8,5.4v-18.19c0-3.12-.33-5.7-4.32-5.7h0ZM229.72,102.49c-9.17,0-15.32-8.45-15.32-21.03s6.16-20.82,15.32-20.82,15.32,8.37,15.32,20.82-6.16,21.03-15.32,21.03h0Z"/><path class="cls-2" d="M286.87,112.47c-6.05,0-10.44-1.62-13.35-2.7-1.24-.46-2.32-.86-2.94-.89-.2.1-.64.43-1,.7-.46.35-.99.75-1.6,1.14-1.44.96-2.38,1.48-3.19,1.48-.75,0-1.34-.45-1.61-1.22-.16-.47-.23-1.08-.23-2.05v-21.02c0-1.38.87-2,1.68-2,.87,0,1.71.67,2.23,1.79l2.84,5.79c3.27,6.64,9.19,10,17.59,10s14.21-3.42,14.21-8.93c0-4.07-1.95-6.42-13.04-8.74l-5.07-1.06c-13.96-2.92-19.92-7.92-19.92-16.72,0-10.23,9.4-17.37,22.87-17.37,4.93,0,9.18,1.27,11.99,2.11,1.32.4,2.47.74,3.01.74.5,0,.89-.25,1.95-.99l.44-.31c1.48-1.09,2.27-1.59,3.01-1.59,1.62,0,1.62,1.86,1.62,3.36v16.27c0,1.43-.84,2.06-1.68,2.06-.66,0-1.3-.4-1.67-1.04l-1.89-3.15c-3.45-5.68-8.73-8.81-14.88-8.81-7.66,0-12.42,2.69-12.42,7.03,0,2.67,1.46,5.43,12.09,7.58l5.28,1.06c14.34,2.87,20.45,7.93,20.45,16.93,0,12.86-10.01,20.54-26.78,20.54Z"/><path class="cls-2" d="M306.74,51.64c.56,0,.62.77.62,2.36v16.27c0,.76-.32,1.06-.68,1.06-.29,0-.61-.2-.8-.54l-1.9-3.17c-3.91-6.44-9.72-9.3-15.74-9.3-8.03,0-13.42,2.96-13.42,8.03,0,3.91,2.96,6.55,12.89,8.56l5.28,1.06c13.73,2.75,19.65,7.39,19.65,15.95,0,12.78-10.35,19.54-25.78,19.54-8.87,0-14.05-3.59-16.37-3.59-.53,0-1.58,1.06-3.06,2.01-1.28.85-2.12,1.33-2.65,1.33-.65,0-.84-.71-.84-2.28v-21.02c0-.66.29-1,.68-1,.42,0,.94.4,1.33,1.22l2.85,5.81c3.59,7.29,10.14,10.56,18.49,10.56,9.19,0,15.21-3.7,15.21-9.93,0-4.86-2.75-7.39-13.84-9.72l-5.07-1.06c-14.16-2.96-19.12-7.92-19.12-15.74,0-9.93,9.3-16.37,21.87-16.37,7.29,0,12.99,2.85,15,2.85.95,0,1.58-.53,2.96-1.48,1.26-.93,2-1.41,2.44-1.41M306.74,49.64h0c-1.02,0-1.94.55-3.61,1.79l-.42.29c-.74.52-1.17.81-1.37.81-.4,0-1.63-.37-2.73-.7-2.87-.86-7.2-2.16-12.27-2.16-14.05,0-23.87,7.56-23.87,18.37,0,9.25,6.39,14.7,20.71,17.7l5.07,1.06c11.37,2.38,12.25,4.72,12.25,7.76,0,5.85-6.82,7.93-13.21,7.93-7.99,0-13.6-3.18-16.69-9.45l-2.85-5.81c-.68-1.45-1.85-2.34-3.12-2.34s-2.68,1.03-2.68,3v21.02c0,2.84.96,4.28,2.84,4.28,1.07,0,2.1-.56,3.75-1.66.62-.4,1.18-.82,1.64-1.17.2-.15.44-.33.63-.46.56.12,1.51.47,2.37.79,2.97,1.1,7.47,2.76,13.69,2.76,8.17,0,15.03-1.85,19.85-5.36,5.19-3.78,7.93-9.37,7.93-16.18,0-12.04-10.75-15.81-21.26-17.91l-5.28-1.06c-11.28-2.28-11.28-5.09-11.28-6.6,0-2.91,3-6.03,11.42-6.03,5.79,0,10.77,2.96,14.03,8.33l1.9,3.16c.52.91,1.49,1.51,2.51,1.51,1.33,0,2.68-1.05,2.68-3.06v-16.27c0-1.42,0-4.36-2.62-4.36h0Z"/><path class="cls-2" d="M319.93,110.88c-1.47,0-2.02-.62-2.22-1.14-.29-.75.05-1.63.92-2.4l4.76-4.13c1.56-1.32,1.56-1.49,1.56-4.36v-34.56c0-2.87,0-3.04-1.55-4.35l-4.77-4.13c-1.17-1.06-1.17-1.9-.97-2.43.2-.51.75-1.12,2.26-1.12h13.52c2.86,0,3.32,1.42,3.32,4.8v41.79c0,2.87,0,3.04,1.55,4.35l4.76,4.13c1.16,1.05,1.17,1.89.96,2.41-.29.76-1.08,1.14-2.36,1.14h-21.76ZM330.29,46.13c-4.4,0-7.97-3.43-7.97-7.66s3.65-7.97,7.97-7.97,7.87,3.65,7.87,7.97-3.53,7.66-7.87,7.66Z"/><path class="cls-2" d="M330.29,31.5c3.7,0,6.87,3.17,6.87,6.97s-3.17,6.65-6.87,6.65-6.97-2.96-6.97-6.65,3.17-6.97,6.97-6.97M333.45,53.26c1.9,0,2.32.42,2.32,3.8v41.3c0,3.38-.11,3.91,1.9,5.6l4.75,4.12c1.06.95,1.06,1.8-.74,1.8h-21.76c-1.69,0-1.58-.95-.63-1.8l4.75-4.12c2.01-1.69,1.9-2.22,1.9-5.6v-33.59c0-3.38.11-3.91-1.9-5.6l-4.75-4.12c-1.06-.95-1.06-1.8.63-1.8h13.52M330.29,29.5c-4.95,0-8.97,4.02-8.97,8.97s4.02,8.65,8.97,8.65,8.87-3.88,8.87-8.65-4.06-8.97-8.87-8.97h0ZM333.45,51.26h-13.52c-2.19,0-2.94,1.11-3.2,1.77-.26.67-.44,2.02,1.22,3.52l4.78,4.15q1.22,1.02,1.21,3.6v.48s0,33.59,0,33.59v.48q0,2.58-1.19,3.58l-4.77,4.14c-1.72,1.53-1.42,2.97-1.21,3.52.25.67,1,1.78,3.15,1.78h21.76c2.16,0,2.98-.97,3.29-1.78.26-.67.44-2.01-1.22-3.5l-4.78-4.14q-1.22-1.02-1.21-3.6v-.48s0-41.3,0-41.3c0-3.17-.33-5.8-4.32-5.8h0Z"/><path class="cls-2" d="M370.74,112.47c-11.72,0-16.95-5-16.95-16.21v-35.66h-6.61c-.59,0-1.98,0-2.4-1.02-.42-1.01.51-1.93.95-2.38l4.33-4.33c4.07-4.07,6.18-7.25,8.95-11.66l3.48-5.59c.38-.57.96-1.29,1.75-1.29.55,0,1.47.31,1.47,2.35v15.58h15.16c.95,0,1.84,0,2.26.76.44.79-.08,1.61-.68,2.57l-1.79,2.95c-1.11,1.81-1.97,2.07-4.55,2.07h-10.41v33.33c0,8.05,2.81,9.67,7.34,9.67,6.81,0,9.03-5.48,10.23-8.42.59-1.47.95-2.36,1.92-2.36,1.95,0,1.95,2.06,1.95,3.43,0,7.48-4.3,16.21-16.42,16.21Z"/><path class="cls-2" d="M364.25,35.32c.3,0,.47.46.47,1.35v16.58h16.16c1.69,0,1.8.11.74,1.8l-1.8,2.96c-.84,1.37-1.27,1.58-3.7,1.58h-11.41v34.33c0,8.35,3.06,10.67,8.34,10.67,10.04,0,10.99-10.77,12.15-10.77.84,0,.95.74.95,2.43,0,7.92-4.75,15.21-15.42,15.21-11.3,0-15.95-4.65-15.95-15.21v-36.66h-7.61c-1.8,0-1.9-.53-.74-1.69l4.33-4.33c4.12-4.12,6.23-7.29,9.08-11.83l3.49-5.6c.37-.55.68-.82.91-.82M364.25,33.32h0c-1.43,0-2.29,1.29-2.57,1.71-.01.02-.02.04-.03.05l-3.49,5.6c-2.81,4.47-4.8,7.47-8.8,11.47l-4.33,4.33c-.5.5-1.84,1.84-1.17,3.47.68,1.63,2.6,1.63,3.32,1.63h5.61v34.66c0,11.74,5.7,17.21,17.95,17.21,5.53,0,10.09-1.83,13.2-5.3,2.72-3.04,4.22-7.27,4.22-11.91,0-1.33,0-4.43-2.95-4.43-1.64,0-2.23,1.45-2.85,2.98-1.53,3.77-3.63,7.79-9.3,7.79-3.47,0-6.34-.65-6.34-8.67v-32.33h9.41c2.83,0,4.08-.38,5.4-2.54l1.8-2.97c.65-1.05,1.41-2.26.69-3.56-.71-1.27-2.11-1.27-3.14-1.27h-14.16v-14.58c0-3.11-1.89-3.35-2.47-3.35h0Z"/><path class="cls-2" d="M416.9,112.47c-18.28,0-29.63-11.64-29.63-30.37s11.35-31.42,29.63-31.42c16.72,0,25.93,10.41,25.93,29.31,0,2.8-1.55,3.22-2.48,3.22h-40.19c.33,12.73,6.97,20.29,17.9,20.29,7.49,0,12.52-4.45,12.52-8.61,0-1.25-.8-2.06-1.51-2.78-.63-.64-1.49-1.51-.9-2.56.72-1.45,2.79-1.57,5.42-1.57,3.74,0,8.08,3.81,8.08,8.71,0,9.89-9.26,15.79-24.77,15.79ZM430.66,74.87c-.51-10-7.09-15.22-13.55-15.22-8.34,0-14.63,5.93-16.26,15.22h29.81Z"/><path class="cls-2" d="M416.9,51.68c17.96,0,24.93,12.15,24.93,28.31,0,1.27-.32,2.22-1.48,2.22h-41.2c0,14.16,7.29,22.29,18.91,22.29,8.13,0,13.52-4.96,13.52-9.61,0-2.85-3.06-3.91-2.54-4.86.42-.84,1.8-1.06,4.54-1.06,3.27,0,7.08,3.49,7.08,7.71,0,9.4-9.08,14.79-23.77,14.79-18.8,0-28.63-12.57-28.63-29.37,0-19.54,11.73-30.42,28.63-30.42M399.68,75.87h32.01c-.11-10.88-7.08-17.22-14.58-17.22-9.82,0-16.16,7.61-17.43,17.22M416.9,49.68c-9.02,0-16.66,2.93-22.08,8.49-5.59,5.72-8.54,14-8.54,23.94,0,9.05,2.69,16.78,7.79,22.33,5.42,5.91,13.32,9.03,22.84,9.03,16.14,0,25.77-6.28,25.77-16.79,0-4.49-3.97-9.71-9.08-9.71-2.85,0-5.3.16-6.31,2.13-.9,1.69.44,3.05,1.08,3.71.74.75,1.22,1.3,1.22,2.08,0,4.49-6.07,7.61-11.52,7.61-10.18,0-16.24-6.63-16.86-18.29h39.15c.82,0,3.48-.3,3.48-4.22,0-9.05-2.07-16.27-6.16-21.45-4.63-5.88-11.62-8.86-20.77-8.86h0ZM402.07,73.87c1.85-8.1,7.57-13.22,15.04-13.22,5.75,0,11.6,4.53,12.47,13.22h-27.51Z"/></g></svg>