<?xml version="1.0" encoding="UTF-8"?><svg id="Layer_2" xmlns="http://www.w3.org/2000/svg" viewBox="0 0 499.47 271.8"><defs><style>.cls-1{fill:#f9f3b2;stroke:#0f76ae;stroke-miterlimit:10;stroke-width:3px;}.cls-2{fill:#0f76ae;stroke-width:0px;}</style></defs><g id="Layer_1-2"><path class="cls-1" d="M496.42,149.43c-4.21-12.62-16.23-21.09-29.92-21.09h-19.44c-2.88,0-5.69.37-8.37,1.08-2.68-.7-5.5-1.07-8.42-1.08,2.64-2.81,4.75-6.15,6.19-9.9,4.05-10.55,1.92-22.25-5.35-30.95v-52.29c0-3.21,0-11.74-5.69-20.06-2.81-4.1-11.02-13.64-26.64-13.64h-13.52c-13.23,0-24.75,7.73-29.34,19.69-.17.44-.33.88-.47,1.32-4.98,1.54-9.64,3.76-13.89,6.56-8.35-5.73-18.74-9.09-30.13-9.09-5.43,0-10.51.69-15.25,2.06-1.83-.31-3.79-.48-5.88-.48h-13.52c-4.94,0-9.64,1.08-13.83,3.06-7.13-3.04-15.53-4.65-25.04-4.65-7.85,0-15.25,1.21-21.83,3.54-5.78-2.74-12.28-4.28-19.16-4.28-4.39,0-9.46.6-14.75,2.41-.83-.06-1.69-.09-2.57-.09h-4.38c-9.09-12.4-24.45-20.07-42.94-20.07h-41.94c-14.35,0-26.51,9.07-30.25,22.57-3.32,11.99,1.09,24.81,10.82,32.51v26.41c-7.32,5.8-11.62,14.51-11.9,23.58-.19,0-.38,0-.57,0-19.97,0-32.75,7.98-39.96,14.68-10.19,9.47-16.03,22.91-16.03,36.87,0,5.25.8,10.28,2.34,14.99-2.36,4.78-3.49,10.21-3.26,15.88l1.04,27.91c.14,5.16,1.51,10.18,3.99,14.58,5.39,9.58,15.56,15.53,26.54,15.53,3.87,0,7.61-.71,11.12-2.07,4.89.86,10.98,1.61,17.92,1.61,11.13,0,21.34-2.57,30.06-7.11,7.27,4.59,16.37,7.11,26.87,7.11,4.86,0,9.49-.68,13.81-1.96,1.63.25,3.29.38,4.99.38h21.76c6.7,0,12.96-1.98,18.11-5.48,7.79,4.51,17.24,7.06,27.74,7.06,5.15,0,10.2-.72,15.08-2.14,4.25,1.2,8.88,1.82,13.87,1.82,5.44,0,10.59-1.04,15.29-2.96,5.66,2.14,12.09,3.28,19.15,3.28,7.81,0,15.03-1.78,21.32-4.95,7.53,3.24,15.93,4.95,24.84,4.95,1.3,0,2.57-.04,3.83-.09,7.72,13.21,23.99,23.86,52.47,23.86,10.81,0,20.06-1.66,27.87-4.52,6.42,2.76,13.73,4.21,21.57,4.21,20.57,0,36.97-11.11,43.89-29.76l20.73-56.2c10.79-8.18,15.23-22.06,11.04-34.6Z"/><path class="cls-2" d="M90.34,109.19c-1.79,0-2.21-1.04-2.3-1.36-.23-.83.22-1.74,1.15-2.29l5.58-3.48c4.79-2.94,5.13-3.58,5.13-9.82v-44.79c0-6.33-.44-6.79-5.14-9.83l-5.6-3.59c-.91-.55-1.36-1.4-1.13-2.21.11-.4.55-1.32,2.3-1.32h41.94c11.05,0,22.87,5.04,22.87,19.17,0,9.38-5.76,13.71-11.84,16.18,11.01,2.57,16.59,8.94,16.59,19,0,15.02-10.58,24.35-27.62,24.35h-41.94ZM112.57,93.09c0,5.3.41,7.45,10.73,7.45,15.46,0,22.98-4.96,22.98-15.16,0-9.02-7.76-13.89-15.06-13.89h-18.65v21.61ZM128.58,62.61c9.94,0,13.47-6.86,13.47-12.73,0-7.19-5.56-10.83-16.54-10.83-12.94,0-12.94,2.2-12.94,8.08v15.48h16.01Z"/><path class="cls-2" d="M90.34,31.5h41.94c10.14,0,21.87,4.33,21.87,18.17,0,10.04-6.87,14.05-14.68,16.48,11.73,1.69,19.44,7.08,19.44,18.7,0,14.05-9.72,23.35-26.62,23.35h-41.94c-1.69,0-1.69-1.16-.63-1.8l5.6-3.49c5.18-3.17,5.6-4.23,5.6-10.67v-44.79c0-6.55-.53-7.39-5.6-10.67l-5.6-3.59c-1.06-.63-1.06-1.69.63-1.69M111.57,63.61h17.01c6.55,0,14.47-3.7,14.47-13.73,0-7.29-5.39-11.83-17.54-11.83-13.1,0-13.94,2.32-13.94,9.08v16.48M123.3,101.54c17.43,0,23.98-6.44,23.98-16.16s-8.35-14.9-16.06-14.9h-19.65v22.61c0,6.23,1.37,8.45,11.73,8.45M90.34,29.5c-2.5,0-3.13,1.57-3.27,2.05-.34,1.24.28,2.54,1.58,3.34l5.58,3.58c4.42,2.85,4.68,3.02,4.68,8.99v44.79c0,5.89-.17,6.23-4.64,8.96l-5.61,3.49c-1.3.78-1.93,2.12-1.57,3.4.14.49.77,2.09,3.27,2.09h41.94c17.65,0,28.62-9.71,28.62-25.35,0-9.73-4.93-16.18-14.67-19.24,1.94-1,3.54-2.12,4.88-3.39,3.34-3.18,5.03-7.39,5.03-12.54,0-6.91-2.77-12.42-8.02-15.94-4.08-2.73-9.7-4.23-15.85-4.23h-41.94ZM113.57,61.61v-14.48c0-5.58,0-7.08,11.94-7.08,10.31,0,15.54,3.31,15.54,9.83,0,8.66-6.72,11.73-12.47,11.73h-15.01ZM113.57,72.48h17.65c6.81,0,14.06,4.52,14.06,12.9,0,14.16-16.54,14.16-21.98,14.16-4.58,0-7.28-.46-8.48-1.44-.91-.74-1.24-2.1-1.24-5.01v-20.61h0Z"/><path class="cls-2" d="M166.07,109.19c-1.47,0-2.02-.62-2.22-1.14-.29-.75.05-1.63.92-2.4l4.76-4.13c1.56-1.32,1.56-1.49,1.56-4.36v-34.56c0-2.87,0-3.04-1.55-4.35l-4.76-4.13c-1.17-1.06-1.17-1.9-.97-2.43.2-.51.75-1.12,2.26-1.12h13.52c2.86,0,3.32,1.42,3.32,4.8v.56c4.01-5.36,8.33-7.69,14-7.69,7.81,0,14.42,5.78,14.42,12.62,0,6.44-5.15,10.93-9.77,10.93-.8,0-4.8-.09-4.8-1.95,0-.61.43-.96.97-1.41.98-.81,2.62-2.17,2.62-4.82,0-3.01-3.12-5.97-6.29-5.97-7.5,0-11.15,7.24-11.15,22.13v17.38c0,2.85,0,2.96,1.57,4.37l4.74,4.11c1.16,1.05,1.17,1.89.96,2.41-.29.76-1.08,1.14-2.36,1.14h-21.76Z"/><path class="cls-2" d="M196.92,49.25c7.39,0,13.42,5.49,13.42,11.62s-4.86,9.93-8.77,9.93c-.84,0-3.8-.32-3.8-.95,0-.53,3.59-2.01,3.59-6.23,0-3.49-3.49-6.97-7.29-6.97-7.39,0-12.15,6.34-12.15,23.13v16.9c0,3.38-.11,3.8,1.9,5.6l4.75,4.12c1.06.95,1.06,1.8-.74,1.8h-21.76c-1.69,0-1.58-.95-.63-1.8l4.75-4.12c2.01-1.69,1.9-2.22,1.9-5.6v-33.59c0-3.38.11-3.91-1.9-5.6l-4.75-4.12c-1.06-.95-1.06-1.8.63-1.8h13.52c1.9,0,2.32.42,2.32,3.8v3.8c4.23-6.76,8.56-9.93,15-9.93M196.92,47.25c-5.23,0-9.35,1.84-13.1,6-.26-2.14-1.17-3.68-4.23-3.68h-13.52c-2.19,0-2.94,1.11-3.2,1.77-.26.67-.44,2.02,1.22,3.52l4.78,4.15q1.22,1.02,1.21,3.6v.48s0,33.59,0,33.59v.48q0,2.58-1.19,3.58l-4.77,4.14c-1.72,1.53-1.42,2.97-1.21,3.52.25.67,1,1.78,3.15,1.78h21.76c2.16,0,2.98-.97,3.29-1.78.26-.67.44-2.01-1.22-3.5l-4.78-4.14q-1.22-1.09-1.21-3.6v-.48s0-16.9,0-16.9c0-14.22,3.32-21.13,10.15-21.13,2.62,0,5.29,2.51,5.29,4.97,0,2.18-1.36,3.31-2.26,4.05-.59.49-1.33,1.1-1.33,2.18,0,2.66,4.06,2.95,5.8,2.95,5.09,0,10.77-4.9,10.77-11.93,0-7.38-7.06-13.62-15.42-13.62h0Z"/><path class="cls-2" d="M233.68,110.78c-13,0-21.07-6.58-21.07-17.16,0-13.15,12.11-16.81,21.21-18.41l4.86-.85c4.59-.8,10.05-2.91,10.05-8.42,0-4.67-4.66-8.19-10.83-8.19-5.28,0-10.62,2.2-10.62,6.39,0,2.25,1.05,3.03,1.98,3.72.65.48,1.46,1.09,1.28,2.15-.01.07-.03.14-.06.21-.44,1.1-2.25,1.79-4.73,1.79-6.25,0-9.98-3.61-9.98-9.66,0-7.99,8.89-13.36,22.13-13.36,19.33,0,23.29,8.59,23.29,21.49v25.67c0,2.44.76,5.34,4.39,5.34,1.53,0,2.81-1.16,3.84-2.09.83-.75,1.49-1.34,2.29-1.34.23,0,.45.05.66.15,1.19.6.76,3.02.53,4.04-.46,1.93-2.54,8.21-10.27,8.21s-10.27-2.1-12.03-6c-5.22,4.25-10.76,6.32-16.92,6.32ZM249.37,80.36c-1.56.81-3.77,1.68-6.97,2.2l-4.85.84c-7.2,1.26-11.85,5.31-11.85,10.32,0,5.31,3.79,8.61,9.88,8.61,8.25,0,13.79-7.11,13.79-17.7v-4.28Z"/><path class="cls-2" d="M237.91,49.99c17.96,0,22.29,7.18,22.29,20.49v25.67c0,4.23,2.11,6.34,5.39,6.34,3.07,0,5.02-3.43,6.13-3.43.07,0,.15.02.21.05.85.42-.11,10.35-9.3,10.35-8.24,0-10.14-2.64-11.62-6.66-6.13,5.39-12.04,6.97-17.32,6.97-11.62,0-20.07-5.6-20.07-16.16s7.82-15.21,20.39-17.43l4.86-.85c7.29-1.27,10.88-4.65,10.88-9.4,0-5.28-5.18-9.19-11.83-9.19-6.13,0-11.62,2.64-11.62,7.39,0,4.33,3.49,4.44,3.27,5.7-.21.53-1.48,1.16-3.8,1.16-5.28,0-8.98-2.85-8.98-8.66,0-7.61,8.87-12.36,21.13-12.36M235.58,103.33c8.98,0,14.79-7.61,14.79-18.7v-6.02c-1.8,1.16-4.23,2.32-8.13,2.96l-4.86.85c-7.82,1.37-12.68,5.92-12.68,11.3,0,5.81,4.23,9.61,10.88,9.61M237.91,47.99h0c-13.83,0-23.13,5.77-23.13,14.36,0,6.58,4.21,10.66,10.98,10.66,2.98,0,5.05-.88,5.66-2.42.05-.13.09-.27.12-.41.28-1.67-.99-2.61-1.67-3.12-.88-.65-1.57-1.17-1.57-2.91,0-3.54,4.84-5.39,9.62-5.39,5.6,0,9.83,3.09,9.83,7.19,0,3.87-3.1,6.37-9.22,7.43l-4.86.85c-9.47,1.67-22.05,5.5-22.05,19.4,0,11.03,8.66,18.16,22.07,18.16,6.01,0,11.45-1.89,16.57-5.77,1.94,3.49,5.13,5.46,12.37,5.46,6.73,0,10.22-4.64,11.24-8.98.45-1.89.63-4.32-1.05-5.16-.35-.17-.72-.26-1.11-.26-1.18,0-2.04.78-2.96,1.6-.95.86-2.02,1.83-3.17,1.83-.84,0-3.39,0-3.39-4.34v-25.67c0-7.92-1.53-13.05-4.97-16.62-3.85-4-9.99-5.87-19.32-5.87h0ZM235.58,101.33c-5.48,0-8.88-2.92-8.88-7.61s4.33-8.16,11.02-9.33l4.86-.84c2.16-.35,4.06-.88,5.79-1.61v2.7c0,5.02-1.25,9.27-3.6,12.28-2.27,2.89-5.44,4.42-9.19,4.42h0Z"/><path class="cls-2" d="M315.97,109.19c-1.47,0-2.02-.62-2.22-1.14-.29-.75.05-1.63.92-2.4l4.76-4.13c1.56-1.32,1.56-1.49,1.56-4.36v-26.47c0-7.03-4.67-11.57-11.89-11.57-12.79,0-15.48,9.74-15.48,17.91v20.13c0,2.85,0,2.96,1.57,4.37l4.74,4.11c1.16,1.05,1.17,1.89.96,2.41-.29.76-1.08,1.14-2.36,1.14h-21.76c-1.47,0-2.02-.62-2.22-1.14-.29-.75.05-1.63.92-2.4l4.76-4.13c1.56-1.32,1.56-1.49,1.56-4.36v-34.56c0-2.87,0-3.04-1.55-4.35l-4.76-4.13c-1.17-1.06-1.17-1.9-.97-2.43.2-.51.75-1.12,2.26-1.12h13.52c2.86,0,3.32,1.42,3.32,4.8v2.56c4.56-6.31,9.92-8.95,17.8-8.95,12.19,0,21.39,7.74,21.39,18.01v30.17c0,2.87,0,3.04,1.55,4.35l4.76,4.13c1.16,1.05,1.17,1.89.96,2.41-.29.76-1.08,1.14-2.36,1.14h-21.76Z"/><path class="cls-2" d="M311.43,49.99c11.3,0,20.39,6.87,20.39,17.01v29.68c0,3.38-.11,3.91,1.9,5.6l4.75,4.12c1.06.95,1.06,1.8-.74,1.8h-21.76c-1.69,0-1.58-.95-.63-1.8l4.75-4.12c2.01-1.69,1.9-2.22,1.9-5.6v-25.99c0-8.13-5.6-12.57-12.89-12.57-12.57,0-16.48,8.98-16.48,18.91v19.65c0,3.38-.11,3.8,1.9,5.6l4.75,4.12c1.06.95,1.06,1.8-.74,1.8h-21.76c-1.69,0-1.58-.95-.63-1.8l4.75-4.12c2.01-1.69,1.9-2.22,1.9-5.6v-33.59c0-3.38.11-3.91-1.9-5.6l-4.75-4.12c-1.06-.95-1.06-1.8.63-1.8h13.52c1.9,0,2.32.42,2.32,3.8v5.92c4.96-8.35,10.46-11.3,18.8-11.3M311.43,47.99c-7.24,0-12.43,2.11-16.8,7.08-.02-3.04-.45-5.5-4.32-5.5h-13.52c-2.19,0-2.94,1.11-3.2,1.77-.26.67-.44,2.02,1.22,3.52l4.78,4.15q1.22,1.02,1.21,3.6v.48s0,33.59,0,33.59v.48q0,2.58-1.19,3.58l-4.77,4.14c-1.72,1.53-1.42,2.97-1.21,3.52.25.67,1,1.78,3.15,1.78h21.76c2.16,0,2.98-.97,3.29-1.78.26-.67.44-2.01-1.22-3.5l-4.78-4.14q-1.22-1.09-1.21-3.6v-.48s0-19.65,0-19.65c0-11.22,4.87-16.91,14.48-16.91,5.26,0,10.89,2.78,10.89,10.57v26.47q0,2.58-1.19,3.58l-4.77,4.14c-1.72,1.53-1.42,2.97-1.21,3.52.25.67,1,1.78,3.15,1.78h21.76c2.16,0,2.98-.97,3.29-1.78.26-.67.44-2.01-1.21-3.5l-4.78-4.14q-1.22-1.02-1.21-3.6v-.48s0-29.68,0-29.68c0-10.84-9.62-19.01-22.39-19.01h0Z"/><path class="cls-2" d="M370.37,110.78c-16.12,0-26.14-11.43-26.14-29.84s11.62-31.95,28.25-31.95c7.33,0,11.76,1.61,17.8,6.72v-13.28c0-2.88,0-2.94-1.54-4.25l-4.77-4.24c-.92-.83-1.25-1.62-.97-2.35.28-.72,1.04-1.09,2.27-1.09h13.52c2.82,0,3.32,1.23,3.32,4.7v61.48c0,3.51.42,3.87,1.55,4.84l4.76,4.12c1.16,1.05,1.17,1.89.96,2.41-.29.76-1.08,1.14-2.36,1.14h-13.52c-.86,0-1.75-.09-2.39-.75-.77-.8-.89-2.1-.83-4.09l.04-1.64c-6.32,6.6-14.21,8.06-19.96,8.06ZM373.43,57.96c-9.76,0-16.32,8.77-16.32,21.82s6.56,22.03,16.32,22.03,16.32-8.85,16.32-22.03-6.56-21.82-16.32-21.82Z"/><path class="cls-2" d="M398.78,31.5c1.9,0,2.32.32,2.32,3.7v61.48c0,3.59.42,4.33,1.9,5.6l4.75,4.12c1.06.95,1.06,1.8-.74,1.8h-13.52c-1.8,0-2.32-.42-2.22-3.8l.11-4.44c-5.92,7.61-13.94,9.82-21.02,9.82-14.05,0-25.14-9.3-25.14-28.84s12.15-30.95,27.25-30.95c7.92,0,12.25,2.01,18.8,7.92v-15c0-3.38.11-3.8-1.9-5.49l-4.75-4.23c-1.06-.95-1.06-1.69.63-1.69h13.52M373.43,102.8c9.82,0,17.32-8.56,17.32-23.03s-7.5-22.82-17.32-22.82-17.32,8.56-17.32,22.82,7.5,23.03,17.32,23.03M398.78,29.5h-13.52c-2.1,0-2.9.94-3.2,1.73-.3.79-.34,2.04,1.23,3.45l4.76,4.23s.03.02.04.04q1.19,1.01,1.19,3.48v.48s0,10.7,0,10.7c-5.43-4.19-9.97-5.63-16.8-5.63-8.08,0-15.46,3.16-20.76,8.91-5.56,6.02-8.49,14.33-8.49,24.04,0,22.74,14.02,30.84,27.14,30.84,5.43,0,12.7-1.26,18.9-6.67,0,1.82.22,3.11,1.12,4.03,1.02,1.05,2.43,1.05,3.11,1.05h13.52c2.16,0,2.98-.97,3.29-1.78.26-.67.44-2.01-1.22-3.5l-4.78-4.14c-.98-.84-1.21-1.04-1.21-4.09v-61.48c0-3.12-.33-5.7-4.32-5.7h0ZM373.43,100.8c-9.17,0-15.32-8.45-15.32-21.03s6.16-20.82,15.32-20.82,15.32,8.37,15.32,20.82-6.16,21.03-15.32,21.03h0Z"/><path class="cls-2" d="M33.09,218c-.53,0-.99-.27-1.26-.75-.18-.32-.27-.73-.27-1.24l-1.06-28.17c-.05-1.1.14-1.86.59-2.33.28-.29.64-.45,1.03-.45.76,0,1.45.59,1.8,1.55l2.53,6.75c3.67,9.85,12.56,15.72,23.78,15.72s19.71-6.47,19.71-15.06c0-6.71-3.43-9.53-15.3-12.55l-10.88-2.75c-11.59-2.97-22.3-7.52-22.3-20.62,0-6.01,2.41-11.56,6.78-15.63,4.87-4.53,11.86-6.92,20.21-6.92,4.32,0,10.25,1.16,14.59,2,2.33.46,4.35.85,5.06.85,1.69,0,2.46-1.01,3.19-1.98.57-.76,1.22-1.61,2.3-1.61,1.74,0,1.74,1.88,1.74,2.69v25.04c0,1.51-.9,2.2-1.74,2.2-.73,0-1.35-.49-1.57-1.23l-3.14-6.9c-3.84-8.35-10.38-12.41-20.01-12.41-8.48,0-14.63,4.51-14.63,10.73s4.7,9.66,15.72,12.34l10.78,2.64c14.73,3.62,21.89,10.65,21.89,21.46,0,15.39-12.53,26.14-30.47,26.14-8.65,0-15.71-1.67-19.93-2.66-1.7-.4-3.04-.72-3.63-.72s-1.58.26-3.33,2.47c-.77.93-1.47,1.37-2.15,1.37Z"/><path class="cls-2" d="M83.58,135.83c.53,0,.74.32.74,1.69v25.04c0,.84-.38,1.2-.74,1.2-.27,0-.54-.21-.63-.57l-3.17-6.97c-3.59-7.82-9.82-12.99-20.92-12.99-8.98,0-15.63,4.86-15.63,11.73s5.18,10.56,16.48,13.31l10.78,2.64c13.31,3.27,21.13,9.61,21.13,20.49,0,15.21-12.57,25.14-29.47,25.14-12.25,0-21.23-3.38-23.56-3.38-1.27,0-2.54.85-4.12,2.85-.54.65-1.02.99-1.37.99s-.53-.32-.53-.99l-1.06-28.2c-.06-1.25.25-1.74.62-1.74.31,0,.67.36.86.89l2.54,6.76c3.7,9.93,12.57,16.37,24.72,16.37s20.71-6.76,20.71-16.06c0-7.71-4.44-10.56-16.06-13.52l-10.88-2.75c-12.36-3.17-21.55-7.82-21.55-19.65,0-10.99,8.56-21.55,25.99-21.55,6.66,0,17.43,2.85,19.65,2.85,3.59,0,4.01-3.59,5.49-3.59M83.58,133.83c-1.57,0-2.45,1.16-3.09,2.01-.77,1.01-1.26,1.58-2.4,1.58-.62,0-2.78-.42-4.87-.83-4.37-.85-10.37-2.02-14.78-2.02-8.61,0-15.83,2.49-20.89,7.19-4.58,4.25-7.1,10.06-7.1,16.36,0,13.81,11.65,18.66,23.05,21.59l10.89,2.75c12.52,3.19,14.55,6.03,14.55,11.58,0,8.01-8.04,14.06-18.71,14.06s-19.28-5.49-22.84-15.07l-2.54-6.77c-.49-1.34-1.54-2.19-2.73-2.19-.66,0-1.29.27-1.75.76-.65.67-.93,1.68-.86,3.07l1.05,28.16c.02,2.03,1.32,2.95,2.53,2.95.99,0,1.94-.56,2.9-1.71.01-.01.02-.03.03-.04,1.08-1.37,1.96-2.09,2.55-2.09.47,0,1.96.35,3.4.69,4.26,1.01,11.39,2.69,20.16,2.69,18.53,0,31.47-11.16,31.47-27.14,0-11.19-7.62-18.74-22.65-22.44l-10.78-2.64c-13.18-3.2-14.96-7.54-14.96-11.37,0-5.64,5.73-9.73,13.63-9.73,9.32,0,15.39,3.76,19.1,11.83l3.11,6.85c.37,1.11,1.37,1.86,2.51,1.86,1.36,0,2.74-1.1,2.74-3.2v-25.04c0-3.05-1.49-3.69-2.74-3.69h0Z"/><path class="cls-2" d="M119.07,217.54c-11.72,0-16.95-5-16.95-16.21v-35.66h-6.61c-.59,0-1.98,0-2.4-1.02-.42-1.01.51-1.93.95-2.38l4.33-4.33c4.07-4.07,6.18-7.25,8.95-11.66l3.48-5.59c.38-.57.96-1.29,1.75-1.29.55,0,1.47.31,1.47,2.35v15.58h15.16c.95,0,1.84,0,2.26.76.44.79-.08,1.61-.68,2.57l-1.79,2.95c-1.11,1.81-1.97,2.07-4.55,2.07h-10.41v33.33c0,8.05,2.81,9.67,7.34,9.67,6.81,0,9.03-5.48,10.23-8.42.59-1.47.95-2.36,1.92-2.36,1.95,0,1.95,2.06,1.95,3.43,0,7.48-4.3,16.21-16.42,16.21Z"/><path class="cls-2" d="M112.58,140.39c.3,0,.47.46.47,1.35v16.58h16.16c1.69,0,1.8.11.74,1.8l-1.8,2.96c-.84,1.37-1.27,1.58-3.7,1.58h-11.41v34.33c0,8.35,3.06,10.67,8.34,10.67,10.04,0,10.99-10.77,12.15-10.77.84,0,.95.74.95,2.43,0,7.92-4.75,15.21-15.42,15.21-11.3,0-15.95-4.65-15.95-15.21v-36.66h-7.61c-1.8,0-1.9-.53-.74-1.69l4.33-4.33c4.12-4.12,6.23-7.29,9.08-11.83l3.49-5.6c.37-.55.68-.82.91-.82M112.58,138.39h0c-1.43,0-2.29,1.29-2.57,1.71-.01.02-.02.04-.03.05l-3.49,5.6c-2.81,4.47-4.8,7.47-8.8,11.47l-4.33,4.33c-.5.5-1.84,1.84-1.17,3.47.68,1.63,2.6,1.63,3.32,1.63h5.61v34.66c0,11.74,5.7,17.21,17.95,17.21,5.53,0,10.09-1.83,13.2-5.3,2.72-3.04,4.22-7.27,4.22-11.91,0-1.33,0-4.43-2.95-4.43-1.64,0-2.23,1.45-2.85,2.98-1.53,3.77-3.63,7.79-9.3,7.79-3.47,0-6.34-.65-6.34-8.67v-32.33h9.41c2.83,0,4.08-.38,5.4-2.54l1.8-2.97c.65-1.05,1.41-2.26.69-3.56-.71-1.27-2.11-1.27-3.14-1.27h-14.16v-14.58c0-3.11-1.89-3.35-2.47-3.35h0Z"/><path class="cls-2" d="M137.87,215.95c-1.47,0-2.02-.62-2.22-1.14-.29-.75.05-1.63.92-2.4l4.76-4.13c1.56-1.32,1.56-1.49,1.56-4.36v-34.56c0-2.87,0-3.04-1.55-4.35l-4.77-4.13c-1.17-1.06-1.17-1.9-.97-2.43.2-.51.75-1.12,2.26-1.12h13.52c2.86,0,3.32,1.42,3.32,4.8v.56c4.01-5.36,8.33-7.69,14-7.69,7.81,0,14.42,5.78,14.42,12.62,0,6.44-5.15,10.93-9.77,10.93-.8,0-4.8-.09-4.8-1.95,0-.61.43-.96.97-1.41.98-.81,2.62-2.17,2.62-4.82,0-3.01-3.12-5.97-6.29-5.97-3.53,0-6.14,1.56-7.98,4.77-2.1,3.67-3.17,9.51-3.17,17.37v17.38c0,2.85,0,2.96,1.57,4.37l4.74,4.11c1.16,1.05,1.17,1.89.96,2.41-.29.76-1.08,1.14-2.36,1.14h-21.76Z"/><path class="cls-2" d="M168.72,156.01c7.39,0,13.42,5.49,13.42,11.62s-4.86,9.93-8.77,9.93c-.84,0-3.8-.32-3.8-.95,0-.53,3.59-2.01,3.59-6.23,0-3.49-3.49-6.97-7.29-6.97-7.39,0-12.15,6.34-12.15,23.13v16.9c0,3.38-.11,3.8,1.9,5.6l4.75,4.12c1.06.95,1.06,1.8-.74,1.8h-21.76c-1.69,0-1.58-.95-.63-1.8l4.75-4.12c2.01-1.69,1.9-2.22,1.9-5.6v-33.59c0-3.38.11-3.91-1.9-5.6l-4.75-4.12c-1.06-.95-1.06-1.8.63-1.8h13.52c1.9,0,2.32.42,2.32,3.8v3.8c4.23-6.76,8.56-9.93,15-9.93M168.72,154.01c-5.23,0-9.35,1.84-13.1,6-.26-2.14-1.17-3.68-4.23-3.68h-13.52c-2.19,0-2.94,1.11-3.2,1.77-.26.67-.44,2.02,1.22,3.52l4.78,4.15q1.22,1.02,1.21,3.6v.48s0,33.59,0,33.59v.48q0,2.58-1.19,3.58l-4.77,4.14c-1.72,1.53-1.42,2.97-1.21,3.52.25.67,1,1.78,3.15,1.78h21.76c2.16,0,2.98-.97,3.29-1.78.26-.67.44-2.01-1.22-3.5l-4.78-4.14q-1.22-1.09-1.21-3.6v-.48s0-16.9,0-16.9c0-14.22,3.32-21.13,10.15-21.13,2.62,0,5.29,2.51,5.29,4.97,0,2.18-1.36,3.31-2.26,4.05-.59.49-1.33,1.1-1.33,2.18,0,2.66,4.06,2.95,5.8,2.95,5.09,0,10.77-4.9,10.77-11.93,0-7.38-7.06-13.62-15.42-13.62h0Z"/><path class="cls-2" d="M205.48,217.54c-13,0-21.07-6.58-21.07-17.16,0-13.15,12.11-16.81,21.21-18.41l4.86-.85c4.59-.8,10.05-2.91,10.05-8.42,0-4.67-4.66-8.19-10.83-8.19-5.28,0-10.62,2.2-10.62,6.39,0,2.25,1.05,3.03,1.98,3.72.65.48,1.46,1.09,1.28,2.15-.01.07-.03.14-.06.21-.44,1.1-2.25,1.79-4.73,1.79-6.25,0-9.98-3.61-9.98-9.66,0-7.99,8.89-13.36,22.13-13.36,19.33,0,23.29,8.59,23.29,21.49v25.67c0,2.44.76,5.34,4.39,5.34,1.53,0,2.81-1.16,3.84-2.09.83-.75,1.49-1.34,2.29-1.34.23,0,.45.05.66.15,1.19.6.76,3.02.53,4.04-.46,1.93-2.54,8.21-10.27,8.21s-10.27-2.1-12.03-6c-5.22,4.25-10.76,6.32-16.92,6.32ZM221.17,187.12c-1.56.81-3.77,1.68-6.97,2.2l-4.85.84c-7.2,1.26-11.85,5.31-11.85,10.32,0,5.31,3.79,8.61,9.88,8.61,8.25,0,13.79-7.11,13.79-17.7v-4.28Z"/><path class="cls-2" d="M209.7,156.75c17.96,0,22.29,7.18,22.29,20.49v25.67c0,4.23,2.11,6.34,5.39,6.34,3.07,0,5.02-3.43,6.13-3.43.07,0,.15.02.21.05.85.42-.11,10.35-9.3,10.35-8.24,0-10.14-2.64-11.62-6.66-6.13,5.39-12.04,6.97-17.32,6.97-11.62,0-20.07-5.6-20.07-16.16s7.82-15.21,20.39-17.43l4.86-.85c7.29-1.27,10.88-4.65,10.88-9.4,0-5.28-5.18-9.19-11.83-9.19-6.13,0-11.62,2.64-11.62,7.39,0,4.33,3.49,4.44,3.27,5.7-.21.53-1.48,1.16-3.8,1.16-5.28,0-8.98-2.85-8.98-8.66,0-7.61,8.87-12.36,21.13-12.36M207.38,210.09c8.98,0,14.79-7.61,14.79-18.7v-6.02c-1.8,1.16-4.23,2.32-8.13,2.96l-4.86.85c-7.82,1.37-12.68,5.92-12.68,11.3,0,5.81,4.23,9.61,10.88,9.61M209.7,154.75c-13.83,0-23.13,5.77-23.13,14.36,0,6.58,4.21,10.66,10.98,10.66,2.98,0,5.05-.88,5.66-2.42.05-.13.09-.27.12-.41.28-1.67-.99-2.61-1.67-3.12-.88-.65-1.57-1.17-1.57-2.91,0-3.54,4.84-5.39,9.62-5.39,5.6,0,9.83,3.09,9.83,7.19,0,3.87-3.1,6.37-9.22,7.43l-4.86.85c-9.47,1.67-22.04,5.5-22.04,19.4,0,11.03,8.66,18.16,22.07,18.16,6.01,0,11.45-1.89,16.57-5.77,1.94,3.49,5.13,5.46,12.37,5.46,6.73,0,10.22-4.64,11.24-8.98.45-1.89.63-4.32-1.05-5.16-.35-.17-.72-.26-1.11-.26-1.18,0-2.04.78-2.96,1.6-.95.86-2.02,1.83-3.17,1.83-.84,0-3.39,0-3.39-4.34v-25.67c0-7.92-1.53-13.05-4.97-16.62-3.85-4-9.99-5.87-19.32-5.87h0ZM207.38,208.09c-5.48,0-8.88-2.92-8.88-7.61s4.33-8.16,11.02-9.33l4.86-.84c2.16-.35,4.06-.88,5.79-1.61v2.7c0,10.14-5.02,16.7-12.79,16.7h0Z"/><path class="cls-2" d="M268.86,217.54c-11.72,0-16.95-5-16.95-16.21v-35.66h-6.61c-.59,0-1.98,0-2.4-1.02-.42-1.01.54-1.97.95-2.38l4.33-4.33c4.06-4.06,6.18-7.25,8.95-11.66l3.48-5.59c.38-.57.96-1.29,1.75-1.29.67,0,1.47.41,1.47,2.35v15.58h15.16c.95,0,1.84,0,2.26.76.44.79-.08,1.61-.68,2.57l-1.79,2.95c-1.11,1.81-1.97,2.07-4.55,2.07h-10.41v33.33c0,8.05,2.81,9.67,7.34,9.67,6.81,0,9.03-5.48,10.23-8.42.59-1.47.95-2.36,1.92-2.36,1.95,0,1.95,2.06,1.95,3.43,0,7.48-4.3,16.21-16.42,16.21Z"/><path class="cls-2" d="M262.37,140.39c.3,0,.47.46.47,1.35v16.58h16.16c1.69,0,1.8.11.74,1.8l-1.8,2.96c-.84,1.37-1.27,1.58-3.7,1.58h-11.41v34.33c0,8.35,3.06,10.67,8.34,10.67,10.04,0,10.99-10.77,12.15-10.77.84,0,.95.74.95,2.43,0,7.92-4.75,15.21-15.42,15.21-11.3,0-15.95-4.65-15.95-15.21v-36.66h-7.61c-1.8,0-1.9-.53-.74-1.69l4.33-4.33c4.12-4.12,6.23-7.29,9.08-11.83l3.49-5.6c.37-.55.68-.82.91-.82M262.37,138.39h0c-1.43,0-2.29,1.29-2.57,1.71-.01.02-.02.04-.03.05l-3.49,5.6c-2.81,4.47-4.8,7.47-8.8,11.47l-4.33,4.33c-.5.5-1.84,1.84-1.17,3.47.68,1.63,2.6,1.63,3.32,1.63h5.61v34.66c0,11.74,5.7,17.21,17.95,17.21,5.53,0,10.09-1.83,13.2-5.3,2.72-3.04,4.22-7.27,4.22-11.91,0-1.33,0-4.43-2.95-4.43-1.64,0-2.23,1.45-2.85,2.98-1.53,3.77-3.63,7.79-9.3,7.79-3.47,0-6.34-.65-6.34-8.67v-32.33h9.41c2.83,0,4.08-.38,5.4-2.54l1.8-2.97c.65-1.05,1.41-2.26.69-3.56-.71-1.27-2.11-1.27-3.14-1.27h-14.16v-14.58c0-3.11-1.89-3.35-2.47-3.35h0Z"/><path class="cls-2" d="M315.02,217.54c-18.28,0-29.63-11.64-29.63-30.37s11.35-31.42,29.63-31.42c16.72,0,25.93,10.41,25.93,29.31,0,2.8-1.55,3.22-2.48,3.22h-40.19c.33,12.73,6.97,20.29,17.9,20.29,7.49,0,12.52-4.45,12.52-8.61,0-1.25-.8-2.06-1.51-2.78-.63-.64-1.49-1.51-.9-2.56.72-1.45,2.79-1.57,5.42-1.57,3.74,0,8.08,3.8,8.08,8.71,0,9.89-9.26,15.79-24.77,15.79ZM328.78,179.94c-.51-10-7.09-15.22-13.55-15.22-8.34,0-14.63,5.93-16.26,15.22h29.81Z"/><path class="cls-2" d="M315.02,156.75c17.96,0,24.93,12.15,24.93,28.31,0,1.27-.32,2.22-1.48,2.22h-41.2c0,14.16,7.29,22.29,18.91,22.29,8.13,0,13.52-4.96,13.52-9.61,0-2.85-3.06-3.91-2.54-4.86.42-.84,1.8-1.06,4.54-1.06,3.27,0,7.08,3.49,7.08,7.71,0,9.4-9.08,14.79-23.77,14.79-18.8,0-28.63-12.57-28.63-29.37,0-19.54,11.73-30.42,28.63-30.42M297.8,180.94h32.01c-.11-10.88-7.08-17.22-14.58-17.22-9.82,0-16.16,7.61-17.43,17.22M315.02,154.75c-9.02,0-16.66,2.93-22.08,8.49-5.59,5.72-8.54,14-8.54,23.94,0,9.05,2.69,16.78,7.79,22.33,5.42,5.91,13.32,9.03,22.84,9.03,16.14,0,25.77-6.28,25.77-16.79,0-4.49-3.97-9.71-9.08-9.71-2.85,0-5.3.16-6.31,2.13-.9,1.69.44,3.05,1.08,3.71.74.75,1.22,1.3,1.22,2.08,0,4.49-6.07,7.61-11.52,7.61-10.18,0-16.24-6.63-16.86-18.29h39.15c.82,0,3.48-.3,3.48-4.22,0-9.05-2.07-16.27-6.16-21.45-4.63-5.88-11.62-8.86-20.77-8.86h0ZM300.19,178.94c1.85-8.1,7.57-13.22,15.04-13.22,5.75,0,11.6,4.53,12.47,13.22h-27.51Z"/><path class="cls-2" d="M371.32,241.31c-18.49,0-29.1-5.75-29.1-15.79,0-5.04,4.24-9.13,9.45-9.13.05,0,5.48.09,7.21,2.1.45.53.64,1.15.54,1.79-.21.97-1.16,1.23-2.35,1.56-2.06.57-3.77,1.17-3.77,2.84,0,4.8,7.3,7.56,20.02,7.56,16.26,0,18.01-6.61,18.01-9.46,0-4.64-4.97-6.71-16.11-6.71h-6.23c-14.53,0-23.92-5.58-23.92-14.21,0-4.26,1.24-7.53,7.43-11.32-2.62-4.35-3.94-8.74-3.94-13.08,0-12.98,9.53-21.71,23.71-21.71,2.63,0,5.42.35,8.3,1.04-.57-1.94-.85-3.76-.85-5.43,0-6.88,5.44-11.88,12.94-11.88,6.25,0,10.61,3.8,10.61,9.24,0,6.42-5.51,9.73-7.86,9.73-.52,0-.95-.13-1.27-.4-1.1-.98-.34-2.14.12-2.83.54-.81,1.2-1.81,1.2-3.44s-1.67-3.54-4.07-3.54c-2.27,0-4.49,2.49-4.49,5.02,0,1.7.82,3.78,2.59,6.54,4.26,6.88,6.6,13.18,6.6,17.76,0,12.31-10.38,21.6-24.13,21.6-6.58,0-9.42-1.44-11.29-2.4-.91-.46-1.51-.77-2.23-.77s-2.17.79-2.17,3.12c0,2.61,1.6,6.08,15.48,6.08h8.24c14.02,0,23.08,6.16,23.08,15.68,0,12.8-11.87,20.44-31.74,20.44ZM372.06,164.61c-6.84,0-12.21,5.64-12.21,12.84s5.36,12.73,12.21,12.73,12.31-5.59,12.31-12.73-5.41-12.84-12.31-12.84Z"/><path class="cls-2" d="M392.66,140.48c5.7,0,9.61,3.38,9.61,8.24,0,5.75-4.88,8.73-6.86,8.73-.28,0-.49-.06-.64-.17-.95-.84,1.69-2.01,1.69-5.49,0-2.22-2.11-4.54-5.07-4.54-2.75,0-5.49,2.85-5.49,6.02,0,2.11,1.06,4.44,2.75,7.08,4.12,6.66,6.44,12.78,6.44,17.22,0,11.09-9.19,20.6-23.13,20.6-9.72,0-10.77-3.17-13.52-3.17-1.16,0-3.17,1.16-3.17,4.12,0,4.54,4.54,7.08,16.48,7.08h8.24c13.52,0,22.08,5.81,22.08,14.68,0,12.47-11.83,19.44-30.74,19.44-17.01,0-28.1-4.96-28.1-14.79,0-4.65,3.91-8.13,8.45-8.13,1.8,0,7.08.63,6.76,2.75-.21.95-6.13.74-6.13,4.54,0,4.33,4.86,8.56,21.02,8.56,15.11,0,19.01-5.7,19.01-10.46,0-6.23-7.39-7.71-17.11-7.71h-6.23c-12.57,0-22.92-4.33-22.92-13.2,0-4.01,1.06-7.08,7.82-10.99-2.85-4.44-4.33-8.98-4.33-13.42,0-12.36,9.19-20.7,22.71-20.7,3.49,0,6.87.63,9.82,1.48-.84-2.32-1.37-4.65-1.37-6.87,0-6.55,5.18-10.88,11.94-10.88M372.06,191.18c7.61,0,13.31-6.23,13.31-13.73s-5.7-13.84-13.31-13.84-13.21,6.23-13.21,13.84,5.7,13.73,13.21,13.73M392.66,138.48h0c-8.08,0-13.94,5.42-13.94,12.88,0,1.29.16,2.66.48,4.11-2.39-.48-4.71-.72-6.93-.72-14.55,0-24.71,9.34-24.71,22.7,0,4.24,1.21,8.52,3.59,12.75-5.84,3.82-7.08,7.34-7.08,11.65,0,9.24,9.78,15.2,24.92,15.2h6.23c13.4,0,15.11,3.05,15.11,5.71,0,5.38-6.2,8.46-17.01,8.46-11.91,0-19.02-2.45-19.02-6.56,0-.79.74-1.24,3.03-1.88,1.34-.37,2.72-.75,3.05-2.23,0-.05.02-.09.03-.14.14-.93-.14-1.85-.77-2.59-2.08-2.42-7.91-2.45-7.96-2.45-5.76,0-10.45,4.55-10.45,10.13,0,10.67,10.97,16.79,30.1,16.79,20.5,0,32.74-8.01,32.74-21.44,0-10.13-9.45-16.68-24.08-16.68h-8.24c-14.48,0-14.48-3.82-14.48-5.08,0-1.91,1.17-2.12,1.18-2.12.44,0,.89.22,1.77.66,1.96,1,4.92,2.51,11.75,2.51,14.33,0,25.13-9.72,25.13-22.6,0-4.76-2.39-11.25-6.74-18.27-1.68-2.62-2.45-4.52-2.45-6.03,0-2.17,1.92-4.02,3.49-4.02,1.9,0,3.07,1.48,3.07,2.54,0,1.32-.53,2.12-1.04,2.89-.47.7-1.71,2.57.02,4.1.02.02.04.04.06.05.35.29.96.63,1.9.63,3.01,0,8.86-3.79,8.86-10.73,0-6.03-4.78-10.24-11.61-10.24h0ZM372.06,189.18c-6.28,0-11.21-5.15-11.21-11.73s4.92-11.84,11.21-11.84,11.31,5.2,11.31,11.84-4.97,11.73-11.31,11.73h0Z"/><path class="cls-2" d="M420.76,240.99c-11.34,0-18.11-5.15-18.11-13.78,0-6.41,4.7-11.25,10.93-11.25,2.09,0,4.74.49,5.9,1.87.5.59.7,1.3.58,2.04-.09.82-.9,1.14-1.93,1.55-2.31.92-4.39,1.99-4.39,5.05,0,4.53,5.06,5.02,7.24,5.02,3.56,0,6.96-2.18,8.27-5.3l3.54-8.81-18.98-49.71c-.5-1.29-2.09-2.92-4.72-4.83l-2.64-1.9c-1.3-.97-1.23-1.88-1.08-2.34.13-.38.62-1.27,2.41-1.27h22.39c1.7,0,2.28.67,2.47,1.24.15.45.2,1.36-1.13,2.36l-3.06,2.32c-2.83,2.15-3.07,2.76-2.1,5.41l12.47,33.67,12.17-33.66c.77-2.15.58-3.2-2.09-5.2l-3.27-2.43c-.92-.67-1.31-1.55-1.05-2.36.13-.4.64-1.34,2.49-1.34h19.44c1.79,0,2.28.89,2.41,1.27.15.46.22,1.36-1.07,2.33l-2.66,1.91c-3.36,2.44-4.27,3.75-5.04,5.78l-22.71,61.58c-2.62,7.06-8.39,10.79-16.68,10.79Z"/><path class="cls-2" d="M466.5,158.33c1.58,0,2.01.84.74,1.8l-2.64,1.9c-3.49,2.54-4.54,4.01-5.39,6.23l-22.71,61.59c-2.43,6.55-7.71,10.14-15.74,10.14-10.56,0-17.11-4.65-17.11-12.78,0-6.02,4.33-10.25,9.93-10.25,2.64,0,5.81.84,5.49,2.75-.11.95-6.34,1.16-6.34,6.76,0,3.8,3.17,6.02,8.24,6.02,4.23,0,7.82-2.64,9.19-5.92l3.7-9.19-19.12-50.07c-.53-1.37-2.01-3.06-5.07-5.28l-2.64-1.9c-1.27-.95-.84-1.8.74-1.8h22.39c1.8,0,2.01.84.74,1.8l-3.06,2.32c-3.06,2.32-3.59,3.38-2.43,6.55l13.42,36.23,13.1-36.23c.95-2.64.53-4.12-2.43-6.34l-3.28-2.43c-1.16-.85-.95-1.9.85-1.9h19.44M466.5,156.33h-19.44c-2.51,0-3.24,1.42-3.44,2.03-.31.96-.1,2.38,1.42,3.49l3.26,2.42c2.52,1.89,2.29,2.52,1.74,4.05l-11.24,31.09-11.52-31.11c-.76-2.07-.84-2.29,1.76-4.26l3.06-2.32c1.9-1.42,1.66-2.9,1.47-3.47-.24-.72-1-1.92-3.42-1.92h-22.39c-2.44,0-3.16,1.37-3.35,1.95-.19.57-.44,2.05,1.41,3.44l2.67,1.92c3.08,2.23,4.08,3.61,4.37,4.38l18.84,49.33-3.4,8.46c-1.15,2.73-4.17,4.66-7.33,4.66-5.43,0-6.24-2.52-6.24-4.02,0-2.44,1.63-3.28,3.76-4.12,1.11-.44,2.37-.94,2.56-2.36.16-1.01-.13-2.01-.81-2.81-1.75-2.06-5.54-2.22-6.67-2.22-6.8,0-11.93,5.26-11.93,12.25,0,9.12,7.32,14.78,19.11,14.78,8.75,0,14.84-3.96,17.61-11.45l22.71-61.59c.69-1.81,1.53-3.01,4.69-5.31l2.63-1.9c1.88-1.41,1.64-2.89,1.45-3.47-.2-.59-.91-1.95-3.35-1.95h0Z"/></g></svg>