<?xml version="1.0" encoding="UTF-8"?><svg id="Layer_2" xmlns="http://www.w3.org/2000/svg" viewBox="0 0 470.71 293.18"><defs><style>.cls-1{fill:#f9f3b2;stroke:#0f76ae;stroke-miterlimit:10;stroke-width:3px;}.cls-2{fill:#0f76ae;stroke-width:0px;}</style></defs><g id="Layer_1-2"><path class="cls-1" d="M456.6,205.72l-20.72,56.2c-6.92,18.66-23.32,29.76-43.89,29.76-11.67,0-22.15-3.18-30.31-9.19-5.65-4.16-10.01-9.56-12.88-15.71-2.02-.47-3.96-1.05-5.82-1.74-3.2,1.04-6.6,1.61-10.14,1.61h-21.76c-1.7,0-3.37-.14-4.99-.39-4.33,1.29-8.96,1.97-13.81,1.97-6.96,0-13.31-1.1-18.91-3.19-3.2,1.04-6.6,1.61-10.14,1.61h-21.76c-3.01,0-5.93-.41-8.69-1.17-2.79.76-5.72,1.17-8.74,1.17h-21.76c-3.59,0-7.03-.59-10.26-1.66-6.59,2.15-13.96,3.24-22.07,3.24-8.22,0-16.02-1.47-23.09-4.24-3.96,1.71-8.33,2.66-12.92,2.66h-13.53c-2.42,0-4.66-.24-6.73-.66-5.18,1.48-10.68,2.24-16.4,2.24-7.32,0-14.32-1.32-20.74-3.83-3.68,1.45-7.7,2.25-11.9,2.25h-31.8c-14.34,0-26.5-9.09-30.24-22.62-3.33-12.01,1.08-24.87,10.81-32.58v-26.41c-9.72-7.7-14.14-20.53-10.82-32.51,3.74-13.51,15.9-22.58,30.25-22.58h31.8c9.4,0,17.95,3.98,23.76,10.53.97-1.1,2.01-2.12,3.12-3.06-5.03-2.07-8.69-5.11-11.19-7.85-4.76-5.21-6.55-10.68-7.51-13.68l-18.58-56.43c-10.82-7.52-15.9-21.07-12.41-33.69,3.74-13.5,15.9-22.58,30.26-22.58h28.41c4.36,0,8.51.84,12.29,2.38,3.79-1.54,7.95-2.38,12.32-2.38h24.09c1.66,0,3.28.14,4.86.37,3.81-1.33,7.89-2.06,12.14-2.06,14.51,0,27.09,8.46,33.1,20.71,2.66-.35,5.4-.53,8.21-.53,4.45,0,8.44.51,11.82,1.17,2.52-.73,5.38-1.21,8.58-1.21,3.4,0,6.85.6,10.15,1.78,1-.09,2.01-.16,3.03-.16h13.53c5.1,0,9.41,1.02,13.01,2.54,3.89-1.65,8.17-2.54,12.66-2.54h13.52c5.94,0,10.81,1.38,14.73,3.33,7.4-3.22,16.04-4.91,25.3-4.91,3.41,0,6.67.22,9.78.62,4.75-11.62,16.08-19.11,29.09-19.11h13.52c15.62,0,23.83,9.54,26.64,13.64,5.69,8.32,5.69,16.85,5.69,20.06v52.3c7.27,8.69,9.4,20.39,5.35,30.94-4.6,12-16.16,19.76-29.44,19.76h-18.79c3.08,2.8,5.6,6.23,7.35,10.13h18.36c2.96,0,5.82.38,8.54,1.09,2.67-.71,5.48-1.09,8.36-1.09h19.44c13.69,0,25.71,8.48,29.92,21.1,4.18,12.54-.26,26.42-11.05,34.6Z"/><path class="cls-2" d="M104.52,110.89c-2.85,0-3.17-1-4.12-3.97l-19.65-59.68c-1.83-5.58-3.18-7.12-4.37-7.94l-5.47-3.58c-.91-.54-1.35-1.4-1.12-2.21.11-.4.55-1.32,2.3-1.32h28.42c1.75,0,2.2.92,2.3,1.32.23.81-.22,1.67-1.16,2.23l-5.46,3.57c-2.65,1.74-3.45,2.27-.65,11.22l15.27,49.7,17.8-50.79c3.03-8.75,2.6-9.02.83-10.12l-5.61-3.6c-.91-.54-1.35-1.39-1.12-2.2.11-.4.57-1.34,2.4-1.34h24.09c1.83,0,2.29.93,2.4,1.34.22.81-.22,1.65-1.15,2.21l-5.57,3.58c-1.67,1.08-2.92,3.19-4.46,7.52l-21.13,60.1c-1.09,3.06-1.53,3.94-4.22,3.94h-10.56Z"/><path class="cls-2" d="M149.2,33.19c1.8,0,1.8,1.06.74,1.69l-5.6,3.59c-1.8,1.16-3.17,3.27-4.86,8.03l-21.13,60.11c-1.06,2.96-1.27,3.27-3.27,3.27h-10.56c-2.11,0-2.22-.32-3.17-3.27l-19.65-59.68c-1.9-5.81-3.38-7.5-4.75-8.45l-5.49-3.59c-1.06-.63-1.06-1.69.63-1.69h28.42c1.69,0,1.69,1.06.63,1.69l-5.49,3.59c-3.38,2.22-3.8,3.59-1.06,12.36l16.16,52.61,18.8-53.66c2.96-8.56,2.96-9.72.42-11.3l-5.6-3.59c-1.06-.63-1.06-1.69.74-1.69h24.09M149.2,31.19h-24.09c-2.59,0-3.23,1.58-3.37,2.07-.34,1.23.27,2.53,1.57,3.32l5.58,3.58c.95.6.95.71.93,1.29-.04,1.32-.83,3.82-2.16,7.68l-16.79,47.91-14.38-46.79c-2.58-8.25-2.04-8.6.24-10.1l5.46-3.57c1.29-.79,1.91-2.1,1.57-3.33-.13-.48-.76-2.05-3.27-2.05h-28.42c-2.51,0-3.14,1.57-3.27,2.05-.34,1.23.27,2.54,1.57,3.33l5.44,3.56c.99.7,2.24,2.13,3.97,7.41l19.65,59.69c.96,2.99,1.49,4.65,5.07,4.65h10.56c3.37,0,4.05-1.49,5.16-4.6l21.13-60.12c1.78-5.01,3-6.33,4.06-7.01l5.57-3.57c1.29-.79,1.91-2.09,1.57-3.32-.13-.49-.77-2.07-3.37-2.07h0Z"/><path class="cls-2" d="M155.85,110.89c-1.47,0-2.02-.62-2.22-1.14-.29-.75.05-1.63.92-2.4l4.76-4.13c1.56-1.32,1.56-1.49,1.56-4.36v-34.56c0-2.87,0-3.04-1.55-4.35l-4.76-4.13c-1.17-1.06-1.17-1.9-.97-2.43.2-.51.75-1.12,2.26-1.12h13.52c2.86,0,3.32,1.42,3.32,4.8v41.79c0,2.87,0,3.04,1.55,4.35l4.76,4.13c1.16,1.05,1.17,1.89.96,2.41-.29.76-1.08,1.14-2.36,1.14h-21.76ZM166.21,46.13c-4.4,0-7.97-3.43-7.97-7.65s3.65-7.97,7.97-7.97,7.87,3.65,7.87,7.97-3.53,7.65-7.87,7.65Z"/><path class="cls-2" d="M166.21,31.5c3.7,0,6.87,3.17,6.87,6.97s-3.17,6.65-6.87,6.65-6.97-2.96-6.97-6.65,3.17-6.97,6.97-6.97M169.38,53.26c1.9,0,2.32.42,2.32,3.8v41.3c0,3.38-.11,3.91,1.9,5.6l4.75,4.12c1.06.95,1.06,1.8-.74,1.8h-21.76c-1.69,0-1.58-.95-.63-1.8l4.75-4.12c2.01-1.69,1.9-2.22,1.9-5.6v-33.59c0-3.38.11-3.91-1.9-5.6l-4.75-4.12c-1.06-.95-1.06-1.8.63-1.8h13.52M166.21,29.5c-4.95,0-8.97,4.02-8.97,8.97s4.02,8.65,8.97,8.65,8.87-3.88,8.87-8.65-4.06-8.97-8.87-8.97h0ZM169.38,51.26h-13.52c-2.19,0-2.94,1.11-3.2,1.77-.26.67-.44,2.02,1.22,3.52l4.78,4.15q1.22,1.02,1.21,3.6v.48s0,33.59,0,33.59v.48q0,2.58-1.19,3.58l-4.77,4.14c-1.72,1.53-1.42,2.97-1.21,3.52.25.67,1,1.78,3.15,1.78h21.76c2.16,0,2.98-.97,3.29-1.78.26-.67.44-2.01-1.22-3.5l-4.78-4.14q-1.22-1.02-1.21-3.6v-.48s0-41.3,0-41.3c0-3.17-.33-5.8-4.32-5.8h0Z"/><path class="cls-2" d="M208.04,112.47c-6.05,0-10.44-1.62-13.35-2.7-1.24-.46-2.32-.86-2.94-.89-.2.1-.64.43-1.01.71-.46.35-.99.75-1.6,1.14-1.44.96-2.38,1.48-3.19,1.48-.75,0-1.34-.45-1.61-1.22-.16-.47-.23-1.08-.23-2.05v-21.02c0-1.38.87-2,1.68-2,.87,0,1.71.67,2.23,1.79l2.84,5.79c3.27,6.64,9.19,10,17.59,10s14.21-3.42,14.21-8.93c0-4.07-1.95-6.42-13.04-8.74l-5.07-1.06c-13.96-2.92-19.92-7.92-19.92-16.72,0-10.23,9.4-17.37,22.87-17.37,4.93,0,9.18,1.27,11.99,2.11,1.32.4,2.47.74,3.01.74.5,0,.89-.26,1.95-.99l.44-.31c1.48-1.09,2.27-1.59,3.01-1.59,1.62,0,1.62,1.87,1.62,3.36v16.27c0,1.43-.84,2.06-1.68,2.06-.66,0-1.3-.4-1.67-1.04l-1.89-3.15c-3.45-5.68-8.73-8.81-14.88-8.81-7.66,0-12.42,2.69-12.42,7.03,0,2.67,1.46,5.43,12.09,7.58l5.28,1.06c14.34,2.87,20.45,7.93,20.45,16.93,0,12.86-10.01,20.54-26.78,20.54Z"/><path class="cls-2" d="M227.91,51.64c.56,0,.62.77.62,2.36v16.27c0,.76-.32,1.06-.68,1.06-.29,0-.61-.2-.8-.54l-1.9-3.17c-3.91-6.44-9.72-9.3-15.74-9.3-8.03,0-13.42,2.96-13.42,8.03,0,3.91,2.96,6.55,12.89,8.56l5.28,1.06c13.73,2.75,19.65,7.39,19.65,15.95,0,12.78-10.35,19.54-25.78,19.54-8.87,0-14.05-3.59-16.37-3.59-.53,0-1.58,1.06-3.06,2.01-1.28.85-2.12,1.33-2.65,1.33-.65,0-.84-.71-.84-2.28v-21.02c0-.66.29-1,.68-1,.42,0,.94.4,1.33,1.22l2.85,5.81c3.59,7.29,10.14,10.56,18.49,10.56,9.19,0,15.21-3.7,15.21-9.93,0-4.86-2.75-7.39-13.84-9.72l-5.07-1.06c-14.16-2.96-19.12-7.92-19.12-15.74,0-9.93,9.3-16.37,21.87-16.37,7.29,0,12.99,2.85,15,2.85.95,0,1.58-.53,2.96-1.48,1.26-.93,2-1.41,2.44-1.41M227.91,49.64h0c-1.02,0-1.94.55-3.61,1.79l-.42.29c-.74.52-1.17.81-1.37.81-.4,0-1.63-.37-2.73-.7-2.87-.86-7.2-2.16-12.27-2.16-14.05,0-23.87,7.56-23.87,18.37,0,9.25,6.39,14.7,20.71,17.7l5.07,1.06c11.37,2.38,12.25,4.72,12.25,7.76,0,5.85-6.82,7.93-13.21,7.93-7.99,0-13.6-3.18-16.69-9.45l-2.85-5.81c-.68-1.45-1.85-2.34-3.12-2.34s-2.68,1.03-2.68,3v21.02c0,2.84.96,4.28,2.84,4.28,1.07,0,2.1-.56,3.75-1.66.62-.4,1.18-.82,1.64-1.17.2-.15.44-.33.63-.46.56.12,1.51.47,2.37.79,2.97,1.1,7.47,2.76,13.69,2.76,8.17,0,15.03-1.85,19.85-5.36,5.19-3.78,7.93-9.37,7.93-16.18,0-12.04-10.75-15.81-21.26-17.91l-5.28-1.06c-11.28-2.28-11.28-5.09-11.28-6.6,0-2.91,3-6.03,11.42-6.03,5.79,0,10.77,2.96,14.03,8.33l1.9,3.16c.52.91,1.49,1.51,2.51,1.51,1.33,0,2.68-1.05,2.68-3.06v-16.27c0-1.42,0-4.36-2.62-4.36h0Z"/><path class="cls-2" d="M267.51,112.47c-12.39,0-21.39-7.57-21.39-18.01v-30.17c0-2.87,0-3.04-1.55-4.35l-4.76-4.13c-1.17-1.06-1.17-1.9-.97-2.43.2-.51.75-1.12,2.26-1.12h13.52c2.86,0,3.32,1.42,3.32,4.8v33.8c0,7.03,4.67,11.57,11.89,11.57,12.79,0,15.48-9.74,15.48-17.91v-20.24c0-2.87,0-3.04-1.55-4.35l-4.76-4.13c-1.17-1.06-1.17-1.9-.97-2.43.2-.51.75-1.12,2.26-1.12h13.52c2.86,0,3.32,1.42,3.32,4.8v41.79c0,2.85,0,2.96,1.57,4.37l4.74,4.11c1.16,1.05,1.17,1.89.96,2.41-.29.76-1.08,1.14-2.36,1.14h-13.52c-2.91,0-3.22-1.46-3.22-4.8v-1.68c-4.43,5.69-9.79,8.07-17.8,8.07Z"/><path class="cls-2" d="M293.81,53.26c1.9,0,2.32.42,2.32,3.8v41.3c0,3.38-.11,3.8,1.9,5.6l4.75,4.12c1.06.95,1.06,1.8-.74,1.8h-13.52c-1.9,0-2.22-.42-2.22-3.8v-4.86c-4.86,7.71-10.46,10.25-18.8,10.25-11.41,0-20.39-6.87-20.39-17.01v-29.68c0-3.38.11-3.91-1.9-5.6l-4.75-4.12c-1.06-.95-1.06-1.8.63-1.8h13.52c1.9,0,2.32.42,2.32,3.8v33.8c0,8.03,5.6,12.57,12.89,12.57,12.57,0,16.48-9.08,16.48-18.91v-19.75c0-3.38.11-3.91-1.9-5.6l-4.75-4.12c-1.06-.95-1.06-1.8.63-1.8h13.52M293.81,51.26h-13.52c-2.19,0-2.94,1.11-3.2,1.77-.26.67-.44,2.02,1.22,3.52l4.78,4.14q1.22,1.02,1.21,3.6v.48s0,19.75,0,19.75c0,7.71-2.51,16.91-14.48,16.91-6.61,0-10.89-4.15-10.89-10.57v-33.8c0-3.17-.33-5.8-4.32-5.8h-13.52c-2.19,0-2.94,1.11-3.2,1.77-.26.67-.44,2.02,1.22,3.52l4.78,4.15q1.22,1.02,1.21,3.6v.48s0,29.68,0,29.68c0,11.01,9.42,19.01,22.39,19.01,7.33,0,12.53-1.91,16.81-6.38.06,2.42.51,4.79,4.21,4.79h13.52c2.16,0,2.98-.97,3.29-1.78.26-.67.44-2.01-1.21-3.5l-4.78-4.14q-1.22-1.09-1.21-3.6v-.48s0-41.3,0-41.3c0-3.17-.33-5.8-4.32-5.8h0Z"/><path class="cls-2" d="M329.62,112.47c-13,0-21.07-6.58-21.07-17.16,0-13.15,12.11-16.81,21.21-18.41l4.86-.85c4.59-.8,10.05-2.91,10.05-8.42,0-4.67-4.66-8.19-10.83-8.19-5.28,0-10.62,2.2-10.62,6.39,0,2.25,1.05,3.03,1.98,3.72.65.48,1.46,1.09,1.28,2.15-.01.07-.03.14-.06.21-.44,1.1-2.25,1.79-4.73,1.79-6.25,0-9.98-3.61-9.98-9.66,0-7.99,8.89-13.36,22.13-13.36,19.33,0,23.29,8.59,23.29,21.49v25.67c0,2.44.76,5.34,4.39,5.34,1.53,0,2.81-1.16,3.84-2.09.83-.75,1.49-1.34,2.29-1.34.23,0,.45.05.66.15,1.19.6.76,3.02.53,4.04-.46,1.93-2.54,8.21-10.27,8.21s-10.27-2.1-12.03-6c-5.22,4.25-10.76,6.32-16.92,6.32ZM345.31,82.05c-1.56.81-3.77,1.68-6.97,2.2l-4.85.84c-7.2,1.26-11.85,5.31-11.85,10.32,0,5.31,3.79,8.61,9.88,8.61,8.25,0,13.79-7.11,13.79-17.7v-4.28Z"/><path class="cls-2" d="M333.84,51.68c17.96,0,22.29,7.18,22.29,20.49v25.67c0,4.23,2.11,6.34,5.39,6.34h0c3.07,0,5.02-3.43,6.13-3.43.07,0,.15.02.21.05.85.42-.11,10.35-9.3,10.35-8.24,0-10.14-2.64-11.62-6.66-6.13,5.39-12.04,6.97-17.32,6.97-11.62,0-20.07-5.6-20.07-16.16s7.82-15.21,20.39-17.43l4.86-.85c7.29-1.27,10.88-4.65,10.88-9.4,0-5.28-5.18-9.19-11.83-9.19-6.13,0-11.62,2.64-11.62,7.39,0,4.33,3.49,4.44,3.27,5.7-.21.53-1.48,1.16-3.8,1.16-5.28,0-8.98-2.85-8.98-8.66,0-7.61,8.87-12.36,21.13-12.36M331.52,105.03c8.98,0,14.79-7.61,14.79-18.7v-6.02c-1.8,1.16-4.23,2.32-8.13,2.96l-4.86.85c-7.82,1.37-12.68,5.92-12.68,11.3,0,5.81,4.23,9.61,10.88,9.61M333.84,49.68c-13.83,0-23.13,5.77-23.13,14.36,0,6.58,4.21,10.66,10.98,10.66,2.98,0,5.05-.88,5.66-2.42.05-.13.09-.27.12-.41.28-1.67-.99-2.61-1.67-3.12-.88-.65-1.57-1.17-1.57-2.91,0-3.54,4.84-5.39,9.62-5.39,5.6,0,9.83,3.09,9.83,7.19,0,3.87-3.1,6.37-9.22,7.43l-4.86.85c-9.47,1.67-22.05,5.5-22.05,19.4,0,11.03,8.66,18.16,22.07,18.16,6.01,0,11.45-1.89,16.57-5.77,1.94,3.49,5.13,5.46,12.37,5.46,6.73,0,10.22-4.64,11.24-8.98.45-1.89.63-4.32-1.05-5.16-.35-.17-.72-.26-1.11-.26-1.18,0-2.04.78-2.96,1.6-.95.86-2.02,1.83-3.17,1.83-.84,0-3.39,0-3.39-4.34v-25.67c0-7.92-1.53-13.05-4.97-16.62-3.85-4-9.99-5.87-19.32-5.87h0ZM331.52,103.03c-5.48,0-8.88-2.92-8.88-7.61s4.33-8.16,11.02-9.33l4.86-.84c2.16-.35,4.06-.88,5.79-1.61v2.7c0,10.14-5.02,16.7-12.79,16.7h0Z"/><path class="cls-2" d="M372.72,110.89c-1.47,0-2.02-.62-2.22-1.14-.29-.75.05-1.63.92-2.4l4.76-4.13c1.56-1.32,1.56-1.49,1.56-4.36v-54.74c0-2.88,0-2.94-1.55-4.25l-4.77-4.24c-.92-.83-1.25-1.62-.97-2.35.28-.72,1.04-1.09,2.27-1.09h13.52c2.82,0,3.32,1.23,3.32,4.7v61.96c0,2.87,0,3.04,1.55,4.35l4.76,4.13c1.16,1.05,1.17,1.89.96,2.41-.29.76-1.08,1.14-2.36,1.14h-21.76Z"/><path class="cls-2" d="M386.24,33.19c1.9,0,2.32.32,2.32,3.7v61.48c0,3.38-.1,3.91,1.9,5.6l4.75,4.12c1.06.95,1.06,1.8-.74,1.8h-21.76c-1.69,0-1.58-.95-.63-1.8l4.75-4.12c2.01-1.69,1.9-2.22,1.9-5.6v-53.77c0-3.38.1-3.8-1.9-5.49l-4.75-4.23c-1.06-.95-1.06-1.69.63-1.69h13.52M386.24,31.19h-13.52c-2.1,0-2.9.94-3.2,1.73-.3.79-.34,2.04,1.23,3.45l4.76,4.23s.03.02.04.04q1.19,1.01,1.19,3.48v.48s0,53.77,0,53.77v.48q0,2.58-1.19,3.58l-4.77,4.14c-1.72,1.53-1.42,2.97-1.21,3.52.25.67,1,1.78,3.15,1.78h21.76c2.16,0,2.98-.97,3.29-1.78.26-.67.44-2.01-1.22-3.5l-4.78-4.14q-1.22-1.02-1.21-3.6v-.48s0-61.48,0-61.48c0-3.12-.33-5.7-4.32-5.7h0Z"/><path class="cls-2" d="M32.85,237.65c-1.79,0-2.21-1.04-2.3-1.36-.23-.83.22-1.74,1.15-2.29l5.58-3.48c4.79-2.94,5.13-3.58,5.13-9.82v-44.79c0-6.33-.44-6.79-5.14-9.83l-5.6-3.59c-.91-.55-1.36-1.4-1.13-2.21.11-.4.55-1.32,2.3-1.32h31.8c1.61,0,2.15.66,2.33,1.22.24.77-.18,1.63-1.12,2.29l-5.52,3.61c-4.73,3.06-5.25,3.6-5.25,9.83v44.79c0,6.08.34,6.73,5.24,9.82l5.5,3.49c1,.63,1.45,1.51,1.21,2.33-.14.49-.64,1.31-2.38,1.31h-31.8Z"/><path class="cls-2" d="M64.64,159.95c1.8,0,1.69.95.63,1.69l-5.49,3.59c-5.07,3.27-5.7,4.12-5.7,10.67v44.79c0,6.44.53,7.39,5.7,10.67l5.49,3.49c1.16.74,1.16,1.8-.63,1.8h-31.8c-1.69,0-1.69-1.16-.63-1.8l5.6-3.49c5.18-3.17,5.6-4.23,5.6-10.67v-44.79c0-6.55-.53-7.39-5.6-10.67l-5.6-3.59c-1.06-.63-1.06-1.69.63-1.69h31.8M64.64,157.95h-31.8c-2.5,0-3.13,1.57-3.27,2.05-.34,1.24.28,2.54,1.58,3.34l5.58,3.58c4.42,2.85,4.68,3.02,4.68,8.99v44.79c0,5.89-.17,6.23-4.64,8.96l-5.61,3.49c-1.3.78-1.93,2.12-1.57,3.4.14.49.77,2.09,3.27,2.09h31.8c2.48,0,3.16-1.42,3.34-2.03.29-.99,0-2.41-1.63-3.45l-5.5-3.49c-4.6-2.91-4.78-3.24-4.78-8.98v-44.79c0-5.9.27-6.07,4.79-8.99l5.5-3.6s.03-.02.05-.04c1.32-.92,1.88-2.2,1.5-3.41-.23-.72-.95-1.92-3.28-1.92h0Z"/><path class="cls-2" d="M97.28,239.23c-16.12,0-26.14-11.43-26.14-29.84s11.62-31.95,28.25-31.95c7.33,0,11.76,1.61,17.8,6.72v-13.28c0-2.88,0-2.94-1.54-4.25l-4.77-4.24c-.92-.83-1.25-1.62-.97-2.35.28-.72,1.04-1.09,2.27-1.09h13.52c2.82,0,3.32,1.23,3.32,4.7v61.48c0,3.51.42,3.87,1.55,4.84l4.76,4.12c1.16,1.05,1.17,1.89.96,2.41-.29.76-1.08,1.14-2.36,1.14h-13.52c-.86,0-1.75-.09-2.39-.75-.77-.8-.89-2.1-.83-4.09l.04-1.64c-6.32,6.6-14.21,8.06-19.96,8.06ZM100.35,186.41c-9.76,0-16.32,8.77-16.32,21.82s6.56,22.03,16.32,22.03,16.32-8.85,16.32-22.03-6.56-21.82-16.32-21.82Z"/><path class="cls-2" d="M125.7,159.95c1.9,0,2.32.32,2.32,3.7v61.48c0,3.59.42,4.33,1.9,5.6l4.75,4.12c1.06.95,1.06,1.8-.74,1.8h-13.52c-1.8,0-2.32-.42-2.22-3.8l.11-4.44c-5.92,7.61-13.94,9.82-21.02,9.82-14.05,0-25.14-9.3-25.14-28.84s12.15-30.95,27.25-30.95c7.92,0,12.25,2.01,18.8,7.92v-15c0-3.38.11-3.8-1.9-5.49l-4.75-4.23c-1.06-.95-1.06-1.69.63-1.69h13.52M100.35,231.26c9.82,0,17.32-8.56,17.32-23.03s-7.5-22.82-17.32-22.82-17.32,8.56-17.32,22.82,7.5,23.03,17.32,23.03M125.7,157.95h-13.52c-2.1,0-2.9.94-3.2,1.73-.3.79-.34,2.04,1.23,3.45l4.76,4.23s.03.02.04.04q1.19,1.01,1.19,3.48v.48s0,10.7,0,10.7c-5.43-4.19-9.97-5.63-16.8-5.63-8.08,0-15.46,3.16-20.76,8.91-5.56,6.02-8.49,14.33-8.49,24.04,0,22.74,14.02,30.84,27.14,30.84,5.43,0,12.7-1.26,18.9-6.67,0,1.82.22,3.11,1.12,4.03,1.02,1.05,2.43,1.05,3.11,1.05h13.52c2.16,0,2.98-.97,3.29-1.78.26-.67.44-2.01-1.22-3.5l-4.78-4.14c-.98-.84-1.21-1.04-1.21-4.09v-61.48c0-3.12-.33-5.7-4.32-5.7h0ZM100.35,229.26c-9.17,0-15.32-8.45-15.32-21.03s6.16-20.82,15.32-20.82,15.32,8.37,15.32,20.82-6.16,21.03-15.32,21.03h0Z"/><path class="cls-2" d="M169.96,239.23c-18.28,0-29.63-11.64-29.63-30.37s11.35-31.42,29.63-31.42c16.72,0,25.93,10.41,25.93,29.31,0,2.8-1.55,3.22-2.48,3.22h-40.19c.33,12.73,6.97,20.29,17.9,20.29,7.49,0,12.52-4.45,12.52-8.61,0-1.25-.8-2.06-1.51-2.78-.63-.64-1.49-1.51-.9-2.56.72-1.45,2.79-1.57,5.42-1.57,3.74,0,8.08,3.8,8.08,8.71,0,9.89-9.26,15.79-24.77,15.79ZM183.72,201.63c-.51-10-7.09-15.22-13.55-15.22-8.34,0-14.63,5.93-16.26,15.22h29.81Z"/><path class="cls-2" d="M169.96,178.44c17.96,0,24.93,12.15,24.93,28.31,0,1.27-.32,2.22-1.48,2.22h-41.2c0,14.16,7.29,22.29,18.91,22.29,8.13,0,13.52-4.96,13.52-9.61,0-2.85-3.06-3.91-2.54-4.86.42-.84,1.8-1.06,4.54-1.06,3.27,0,7.08,3.49,7.08,7.71,0,9.4-9.08,14.79-23.77,14.79-18.8,0-28.63-12.57-28.63-29.37,0-19.54,11.73-30.42,28.63-30.42M152.74,202.63h32.01c-.11-10.88-7.08-17.22-14.58-17.22-9.82,0-16.16,7.61-17.43,17.22M169.96,176.44c-9.02,0-16.66,2.93-22.08,8.49-5.59,5.72-8.54,14-8.54,23.94,0,9.05,2.69,16.78,7.79,22.33,5.42,5.91,13.32,9.03,22.84,9.03,16.14,0,25.77-6.28,25.77-16.79,0-4.49-3.97-9.71-9.08-9.71-2.85,0-5.3.16-6.31,2.13-.9,1.69.44,3.05,1.08,3.71.74.75,1.22,1.3,1.22,2.08,0,4.49-6.07,7.61-11.52,7.61-10.18,0-16.24-6.63-16.86-18.29h39.15c.82,0,3.48-.3,3.48-4.22,0-9.05-2.07-16.27-6.16-21.45-4.63-5.88-11.62-8.86-20.77-8.86h0ZM155.13,200.63c1.85-8.1,7.57-13.22,15.04-13.22,5.75,0,11.6,4.53,12.47,13.22h-27.51Z"/><path class="cls-2" d="M241.47,237.65c-1.47,0-2.02-.62-2.22-1.14-.29-.75.05-1.63.92-2.4l4.76-4.13c1.56-1.32,1.56-1.49,1.56-4.36v-26.47c0-7.03-4.67-11.57-11.89-11.57-12.79,0-15.48,9.74-15.48,17.91v20.13c0,2.85,0,2.96,1.57,4.37l4.74,4.11c1.16,1.05,1.17,1.89.96,2.41-.29.76-1.08,1.14-2.36,1.14h-21.76c-1.47,0-2.02-.62-2.22-1.14-.29-.75.05-1.63.92-2.4l4.76-4.13c1.56-1.32,1.56-1.49,1.56-4.36v-34.56c0-2.87,0-3.04-1.55-4.35l-4.76-4.13c-1.17-1.06-1.17-1.9-.97-2.43.2-.51.75-1.12,2.26-1.12h13.52c2.86,0,3.32,1.42,3.32,4.8v2.56c4.56-6.31,9.92-8.95,17.8-8.95,12.19,0,21.39,7.74,21.39,18.01v30.17c0,2.87,0,3.04,1.55,4.35l4.76,4.13c1.16,1.05,1.17,1.89.96,2.41-.29.76-1.08,1.14-2.36,1.14h-21.76Z"/><path class="cls-2" d="M236.93,178.44c11.3,0,20.39,6.87,20.39,17.01v29.68c0,3.38-.11,3.91,1.9,5.6l4.75,4.12c1.06.95,1.06,1.8-.74,1.8h-21.76c-1.69,0-1.58-.95-.63-1.8l4.75-4.12c2.01-1.69,1.9-2.22,1.9-5.6v-25.99c0-8.13-5.6-12.57-12.89-12.57-12.57,0-16.48,8.98-16.48,18.91v19.65c0,3.38-.11,3.8,1.9,5.6l4.75,4.12c1.06.95,1.06,1.8-.74,1.8h-21.76c-1.69,0-1.58-.95-.63-1.8l4.75-4.12c2.01-1.69,1.9-2.22,1.9-5.6v-33.59c0-3.38.11-3.91-1.9-5.6l-4.75-4.12c-1.06-.95-1.06-1.8.63-1.8h13.52c1.9,0,2.32.42,2.32,3.8v5.92c4.96-8.35,10.46-11.3,18.8-11.3M236.93,176.44c-7.24,0-12.43,2.11-16.8,7.08-.02-3.04-.45-5.5-4.32-5.5h-13.52c-2.19,0-2.94,1.11-3.2,1.77-.26.67-.44,2.02,1.22,3.52l4.78,4.15q1.22,1.02,1.21,3.6v.48s0,33.59,0,33.59v.48q0,2.58-1.19,3.58l-4.77,4.14c-1.72,1.53-1.42,2.97-1.21,3.52.25.67,1,1.78,3.15,1.78h21.76c2.16,0,2.98-.97,3.29-1.78.26-.67.44-2.01-1.22-3.5l-4.78-4.14q-1.22-1.09-1.21-3.6v-.48s0-19.65,0-19.65c0-11.22,4.87-16.91,14.48-16.91,5.26,0,10.89,2.78,10.89,10.57v26.47q0,2.58-1.19,3.58l-4.77,4.14c-1.72,1.53-1.42,2.97-1.21,3.52.25.67,1,1.78,3.15,1.78h21.76c2.16,0,2.98-.97,3.29-1.78.26-.67.44-2.01-1.21-3.5l-4.78-4.14q-1.22-1.02-1.21-3.6v-.48s0-29.68,0-29.68c0-10.84-9.62-19.01-22.39-19.01h0Z"/><path class="cls-2" d="M292.28,239.23c-11.72,0-16.95-5-16.95-16.21v-35.66h-6.61c-.59,0-1.98,0-2.4-1.02-.42-1.01.54-1.97.95-2.38l4.33-4.33c4.06-4.06,6.18-7.25,8.95-11.66l3.48-5.59c.38-.57.96-1.29,1.75-1.29.67,0,1.47.41,1.47,2.35v15.58h15.16c.95,0,1.84,0,2.26.76.44.79-.08,1.61-.68,2.57l-1.79,2.95c-1.11,1.81-1.97,2.07-4.55,2.07h-10.41v33.33c0,8.05,2.81,9.67,7.34,9.67,6.81,0,9.03-5.48,10.23-8.42.59-1.47.95-2.36,1.92-2.36,1.95,0,1.95,2.06,1.95,3.43,0,7.48-4.3,16.21-16.42,16.21Z"/><path class="cls-2" d="M285.79,162.09c.3,0,.47.46.47,1.35v16.58h16.16c1.69,0,1.8.11.74,1.8l-1.8,2.96c-.84,1.37-1.27,1.58-3.7,1.58h-11.41v34.33c0,8.35,3.06,10.67,8.34,10.67,10.04,0,10.99-10.77,12.15-10.77.84,0,.95.74.95,2.43,0,7.92-4.75,15.21-15.42,15.21-11.3,0-15.95-4.65-15.95-15.21v-36.66h-7.61c-1.8,0-1.9-.53-.74-1.69l4.33-4.33c4.12-4.12,6.23-7.29,9.08-11.83l3.49-5.6c.37-.55.68-.82.91-.82M285.79,160.09h0c-1.43,0-2.29,1.29-2.57,1.71-.01.02-.02.04-.03.05l-3.49,5.6c-2.81,4.47-4.8,7.47-8.8,11.47l-4.33,4.33c-.5.5-1.84,1.84-1.17,3.47.68,1.63,2.6,1.63,3.32,1.63h5.61v34.66c0,11.74,5.7,17.21,17.95,17.21,5.53,0,10.09-1.83,13.2-5.3,2.72-3.04,4.22-7.27,4.22-11.91,0-1.33,0-4.43-2.95-4.43-1.64,0-2.23,1.45-2.85,2.98-1.53,3.77-3.63,7.79-9.3,7.79-3.47,0-6.34-.65-6.34-8.67v-32.33h9.41c2.83,0,4.08-.38,5.4-2.54l1.8-2.97c.65-1.05,1.41-2.26.69-3.56-.71-1.27-2.11-1.27-3.14-1.27h-14.16v-14.58c0-3.11-1.89-3.35-2.47-3.35h0Z"/><path class="cls-2" d="M311.08,237.65c-1.47,0-2.02-.62-2.22-1.14-.29-.75.05-1.63.92-2.4l4.76-4.13c1.56-1.32,1.56-1.49,1.56-4.36v-34.56c0-2.87,0-3.04-1.55-4.35l-4.76-4.13c-1.17-1.06-1.17-1.9-.97-2.43.2-.51.75-1.12,2.26-1.12h13.52c2.86,0,3.32,1.42,3.32,4.8v41.79c0,2.87,0,3.04,1.55,4.35l4.76,4.13c1.16,1.05,1.17,1.89.96,2.41-.29.76-1.08,1.14-2.36,1.14h-21.76ZM321.43,172.89c-4.4,0-7.97-3.43-7.97-7.65s3.65-7.97,7.97-7.97,7.87,3.65,7.87,7.97-3.53,7.65-7.87,7.65Z"/><path class="cls-2" d="M321.43,158.26c3.7,0,6.87,3.17,6.87,6.97s-3.17,6.65-6.87,6.65-6.97-2.96-6.97-6.65,3.17-6.97,6.97-6.97M324.6,180.02c1.9,0,2.32.42,2.32,3.8v41.3c0,3.38-.11,3.91,1.9,5.6l4.75,4.12c1.06.95,1.06,1.8-.74,1.8h-21.76c-1.69,0-1.58-.95-.63-1.8l4.75-4.12c2.01-1.69,1.9-2.22,1.9-5.6v-33.59c0-3.38.11-3.91-1.9-5.6l-4.75-4.12c-1.06-.95-1.06-1.8.63-1.8h13.52M321.43,156.26c-4.95,0-8.97,4.02-8.97,8.97s4.02,8.65,8.97,8.65,8.87-3.88,8.87-8.65-4.06-8.97-8.87-8.97h0ZM324.6,178.02h-13.52c-2.19,0-2.94,1.11-3.2,1.77-.26.67-.44,2.02,1.22,3.52l4.78,4.15q1.22,1.02,1.21,3.6v.48s0,33.59,0,33.59v.48q0,2.58-1.19,3.58l-4.77,4.14c-1.72,1.53-1.42,2.97-1.21,3.52.25.67,1,1.78,3.15,1.78h21.76c2.16,0,2.98-.97,3.29-1.78.26-.67.44-2.01-1.22-3.5l-4.78-4.14q-1.22-1.02-1.21-3.6v-.48s0-41.3,0-41.3c0-3.17-.33-5.8-4.32-5.8h0Z"/><path class="cls-2" d="M361.89,239.23c-11.72,0-16.95-5-16.95-16.21v-35.66h-6.61c-.59,0-1.98,0-2.4-1.02-.42-1.01.54-1.97.95-2.38l4.33-4.33c4.06-4.06,6.18-7.25,8.95-11.66l3.48-5.59c.38-.57.96-1.29,1.75-1.29.67,0,1.47.41,1.47,2.35v15.58h15.16c.95,0,1.84,0,2.26.76.44.79-.08,1.61-.68,2.57l-1.79,2.95c-1.11,1.81-1.97,2.07-4.55,2.07h-10.41v33.33c0,8.05,2.81,9.67,7.34,9.67,6.81,0,9.03-5.48,10.23-8.42.59-1.47.95-2.36,1.92-2.36,1.95,0,1.95,2.06,1.95,3.43,0,7.48-4.3,16.21-16.42,16.21Z"/><path class="cls-2" d="M355.4,162.09c.3,0,.47.46.47,1.35v16.58h16.16c1.69,0,1.8.11.74,1.8l-1.8,2.96c-.84,1.37-1.27,1.58-3.7,1.58h-11.41v34.33c0,8.35,3.06,10.67,8.34,10.67,10.04,0,10.99-10.77,12.15-10.77.84,0,.95.74.95,2.43,0,7.92-4.75,15.21-15.42,15.21-11.3,0-15.95-4.65-15.95-15.21v-36.66h-7.61c-1.8,0-1.9-.53-.74-1.69l4.33-4.33c4.12-4.12,6.23-7.29,9.08-11.83l3.49-5.6c.37-.55.68-.82.91-.82M355.4,160.09h0c-1.43,0-2.29,1.29-2.57,1.71-.01.02-.02.04-.03.05l-3.49,5.6c-2.81,4.47-4.8,7.47-8.8,11.47l-4.33,4.33c-.5.5-1.84,1.84-1.17,3.47.68,1.63,2.6,1.63,3.32,1.63h5.61v34.66c0,11.74,5.7,17.21,17.95,17.21,5.53,0,10.09-1.83,13.2-5.3,2.72-3.04,4.22-7.27,4.22-11.91,0-1.33,0-4.43-2.95-4.43-1.64,0-2.23,1.45-2.85,2.98-1.53,3.77-3.63,7.79-9.3,7.79-3.47,0-6.34-.65-6.34-8.67v-32.33h9.41c2.83,0,4.08-.38,5.4-2.54l1.8-2.97c.65-1.05,1.41-2.26.69-3.56-.71-1.27-2.11-1.27-3.14-1.27h-14.16s0-14.58,0-14.58c0-3.11-1.89-3.35-2.47-3.35h0Z"/><path class="cls-2" d="M391.99,262.68c-11.34,0-18.11-5.15-18.11-13.78,0-6.41,4.7-11.25,10.93-11.25,2.09,0,4.74.49,5.9,1.87.5.59.7,1.3.58,2.04-.09.82-.9,1.14-1.93,1.55-2.31.92-4.39,1.99-4.39,5.05,0,4.53,5.06,5.02,7.24,5.02,3.56,0,6.96-2.18,8.27-5.3l3.54-8.81-18.98-49.71c-.5-1.29-2.09-2.92-4.72-4.83l-2.64-1.9c-1.3-.97-1.23-1.88-1.08-2.34.13-.38.62-1.27,2.41-1.27h22.39c1.7,0,2.28.67,2.47,1.24.15.45.2,1.36-1.13,2.36l-3.06,2.32c-2.83,2.15-3.07,2.76-2.1,5.41l12.47,33.67,12.17-33.66c.77-2.15.58-3.2-2.09-5.2l-3.27-2.43c-.92-.67-1.31-1.55-1.05-2.36.13-.4.64-1.34,2.49-1.34h19.44c1.79,0,2.28.89,2.41,1.27.15.46.22,1.36-1.07,2.33l-2.66,1.91c-3.36,2.44-4.27,3.75-5.04,5.78l-22.71,61.58c-2.62,7.06-8.39,10.79-16.68,10.79Z"/><path class="cls-2" d="M437.73,180.02c1.58,0,2.01.84.74,1.8l-2.64,1.9c-3.49,2.54-4.54,4.01-5.39,6.23l-22.71,61.59c-2.43,6.55-7.71,10.14-15.74,10.14-10.56,0-17.11-4.65-17.11-12.78,0-6.02,4.33-10.25,9.93-10.25,2.64,0,5.81.84,5.49,2.75-.11.95-6.34,1.16-6.34,6.76,0,3.8,3.17,6.02,8.24,6.02,4.23,0,7.82-2.64,9.19-5.92l3.7-9.19-19.12-50.07c-.53-1.37-2.01-3.06-5.07-5.28l-2.64-1.9c-1.27-.95-.84-1.8.74-1.8h22.39c1.8,0,2.01.84.74,1.8l-3.06,2.32c-3.06,2.32-3.59,3.38-2.43,6.55l13.42,36.23,13.1-36.23c.95-2.64.53-4.12-2.43-6.34l-3.28-2.43c-1.16-.85-.95-1.9.85-1.9h19.44M437.73,178.02h-19.44c-2.51,0-3.24,1.42-3.44,2.03-.31.96-.1,2.38,1.42,3.49l3.26,2.42c2.52,1.89,2.29,2.52,1.74,4.05l-11.24,31.09-11.52-31.11c-.76-2.07-.84-2.29,1.76-4.26l3.06-2.32c1.9-1.42,1.66-2.9,1.47-3.47-.24-.72-1-1.92-3.42-1.92h-22.39c-2.44,0-3.16,1.37-3.35,1.95-.19.57-.44,2.05,1.41,3.44l2.67,1.92c3.08,2.23,4.08,3.61,4.37,4.38l18.84,49.33-3.4,8.46c-1.15,2.73-4.17,4.66-7.33,4.66-5.43,0-6.24-2.52-6.24-4.02,0-2.44,1.63-3.28,3.76-4.12,1.11-.44,2.37-.94,2.56-2.36.16-1.01-.13-2.01-.81-2.81-1.75-2.06-5.54-2.22-6.67-2.22-6.8,0-11.93,5.26-11.93,12.25,0,9.12,7.32,14.78,19.11,14.78,8.75,0,14.84-3.96,17.61-11.45l22.71-61.59c.69-1.81,1.53-3.01,4.69-5.31l2.63-1.9c1.88-1.41,1.64-2.89,1.45-3.47-.2-.59-.91-1.95-3.35-1.95h0Z"/></g></svg>